<svg width="595" height="446" viewBox="0 0 595 446" fill="none" xmlns="http://www.w3.org/2000/svg">
<path d="M475.866 82.793H137.088V316.289H475.866V82.793Z" fill="#E6E6E6"/>
<path opacity="0.44" d="M475.866 131.406H137.088V316.288H475.866V131.406Z" fill="#CCCCCC"/>
<path opacity="0.08" d="M462.924 267.141L437.116 303.817H461.407V316.29H475.866L474.958 271.556L462.924 267.141Z" fill="black"/>
<path opacity="0.08" d="M141.313 151.224C141.313 151.224 148.334 146.497 151.621 163.861C154.908 181.225 145.269 195.973 168.355 199.541C191.441 203.109 206.554 193.356 211.88 221.068C217.205 248.779 247.193 261.312 236.944 286.362C226.695 311.413 218.142 316.289 218.142 316.289H137.088C137.088 316.289 136.478 161.096 141.313 151.224Z" fill="black"/>
<path opacity="0.45" d="M149.509 412.384C210.154 412.384 259.317 409.203 259.317 405.278C259.317 401.353 210.154 398.172 149.509 398.172C88.8645 398.172 39.7021 401.353 39.7021 405.278C39.7021 409.203 88.8645 412.384 149.509 412.384Z" fill="#E6E6E6"/>
<path opacity="0.45" d="M473.694 409.979C504.016 409.979 528.597 407.503 528.597 404.448C528.597 401.394 504.016 398.918 473.694 398.918C443.371 398.918 418.79 401.394 418.79 404.448C418.79 407.503 443.371 409.979 473.694 409.979Z" fill="#E6E6E6"/>
<path d="M164.413 110.726C168.011 110.726 170.928 107.811 170.928 104.215C170.928 100.618 168.011 97.7031 164.413 97.7031C160.814 97.7031 157.897 100.618 157.897 104.215C157.897 107.811 160.814 110.726 164.413 110.726Z" fill="#24285B"/>
<path d="M183.796 110.726C187.394 110.726 190.311 107.811 190.311 104.215C190.311 100.618 187.394 97.7031 183.796 97.7031C180.197 97.7031 177.28 100.618 177.28 104.215C177.28 107.811 180.197 110.726 183.796 110.726Z" fill="#3766E8"/>
<path d="M202.062 110.726C205.66 110.726 208.577 107.811 208.577 104.215C208.577 100.618 205.66 97.7031 202.062 97.7031C198.464 97.7031 195.547 100.618 195.547 104.215C195.547 107.811 198.464 110.726 202.062 110.726Z" fill="#FFD200"/>
<path d="M511.477 59.543H385.501V154.66H511.477V59.543Z" fill="#24285B"/>
<path d="M99.7522 393.117C99.7522 393.117 97.9226 398.202 93.3262 398.588C88.7298 398.975 87.5398 403.464 91.6602 404.624C95.7806 405.784 106.446 400.491 106.446 400.491L106.134 393.875L99.7522 393.117Z" fill="#3766E8"/>
<path d="M162.823 393.117C162.823 393.117 164.637 398.202 169.234 398.588C173.83 398.975 175.02 403.464 170.9 404.624C166.779 405.784 156.129 400.491 156.129 400.491L156.426 393.875L162.823 393.117Z" fill="#3766E8"/>
<path d="M229.284 203.672C228.938 203.327 228.663 202.917 228.475 202.465C228.288 202.014 228.191 201.53 228.191 201.041C228.191 200.552 228.288 200.068 228.475 199.616C228.663 199.165 228.938 198.755 229.284 198.41L251.463 176.258C252.171 175.625 253.095 175.287 254.045 175.314C254.995 175.341 255.899 175.73 256.57 176.401C257.242 177.073 257.632 177.976 257.658 178.925C257.685 179.875 257.347 180.798 256.713 181.506L234.535 203.672C233.838 204.367 232.894 204.757 231.909 204.757C230.925 204.757 229.981 204.367 229.284 203.672Z" fill="white"/>
<path d="M251.82 204.029L229.641 181.863C229.286 181.519 229.004 181.109 228.81 180.655C228.615 180.201 228.513 179.714 228.51 179.22C228.506 178.727 228.601 178.237 228.789 177.781C228.976 177.324 229.253 176.91 229.603 176.561C229.952 176.213 230.368 175.938 230.825 175.751C231.282 175.565 231.772 175.472 232.266 175.477C232.76 175.482 233.248 175.585 233.701 175.78C234.154 175.976 234.564 176.259 234.907 176.615L257.071 198.766C257.426 199.109 257.71 199.518 257.906 199.971C258.101 200.425 258.204 200.912 258.209 201.406C258.214 201.899 258.121 202.389 257.935 202.846C257.748 203.303 257.473 203.718 257.124 204.067C256.775 204.417 256.361 204.693 255.904 204.881C255.447 205.068 254.958 205.163 254.464 205.16C253.97 205.156 253.482 205.054 253.028 204.86C252.574 204.666 252.163 204.383 251.82 204.029Z" fill="white"/>
<path d="M352.27 203.673C351.924 203.328 351.649 202.918 351.462 202.466C351.274 202.015 351.178 201.531 351.178 201.042C351.178 200.553 351.274 200.069 351.462 199.617C351.649 199.166 351.924 198.756 352.27 198.411L374.449 176.259C374.786 175.882 375.197 175.578 375.655 175.365C376.114 175.152 376.612 175.035 377.117 175.021C377.623 175.007 378.126 175.096 378.596 175.283C379.066 175.47 379.493 175.751 379.851 176.108C380.209 176.466 380.49 176.892 380.677 177.362C380.864 177.832 380.953 178.335 380.939 178.84C380.925 179.346 380.807 179.843 380.594 180.301C380.381 180.76 380.077 181.17 379.7 181.507L357.536 203.673C356.835 204.365 355.889 204.753 354.903 204.753C353.918 204.753 352.972 204.365 352.27 203.673Z" fill="white"/>
<path d="M374.849 204.029L352.67 181.863C352.316 181.519 352.033 181.109 351.839 180.655C351.645 180.201 351.543 179.714 351.539 179.22C351.536 178.727 351.63 178.237 351.818 177.781C352.006 177.324 352.282 176.91 352.632 176.561C352.982 176.213 353.397 175.938 353.854 175.751C354.312 175.565 354.802 175.472 355.295 175.477C355.789 175.482 356.277 175.585 356.73 175.78C357.184 175.976 357.594 176.259 357.936 176.615L380.1 198.766C380.456 199.109 380.739 199.518 380.935 199.971C381.13 200.425 381.234 200.912 381.239 201.406C381.244 201.899 381.15 202.389 380.964 202.846C380.778 203.303 380.502 203.718 380.153 204.067C379.805 204.417 379.39 204.693 378.933 204.881C378.476 205.068 377.987 205.163 377.493 205.16C376.999 205.156 376.511 205.054 376.057 204.86C375.603 204.666 375.193 204.383 374.849 204.029Z" fill="white"/>
<path d="M421.385 99.6625H423.673V102.894H421.385V107.262H417.377V102.894H409.098L408.918 100.37L417.335 87.0711H421.385V99.6625ZM412.912 99.6625H417.377V92.5348L417.113 92.9924L412.912 99.6625ZM439.426 98.9137C439.426 101.706 438.848 103.841 437.692 105.32C436.537 106.799 434.845 107.539 432.617 107.539C430.417 107.539 428.734 106.813 427.569 105.362C426.404 103.91 425.808 101.83 425.78 99.1217V95.4053C425.78 92.5856 426.363 90.4454 427.528 88.9848C428.702 87.5241 430.389 86.7938 432.589 86.7938C434.79 86.7938 436.472 87.5195 437.637 88.9709C438.802 90.4131 439.398 92.4885 439.426 95.1973V98.9137ZM435.418 94.8367C435.418 93.1634 435.187 91.9477 434.725 91.1896C434.272 90.4223 433.56 90.0387 432.589 90.0387C431.646 90.0387 430.948 90.4038 430.495 91.1342C430.052 91.8553 429.816 92.9878 429.788 94.5316V99.4406C429.788 101.086 430.01 102.311 430.454 103.115C430.907 103.91 431.628 104.308 432.617 104.308C433.597 104.308 434.304 103.924 434.739 103.157C435.173 102.39 435.4 101.216 435.418 99.6348V94.8367ZM454 99.6625H456.288V102.894H454V107.262H449.993V102.894H441.714L441.534 100.37L449.951 87.0711H454V99.6625ZM445.527 99.6625H449.993V92.5348L449.729 92.9924L445.527 99.6625Z" fill="white"/>
<path d="M275.097 267.14C274.165 267.138 273.267 266.786 272.583 266.152C271.899 265.518 271.48 264.65 271.408 263.72C270.367 251.069 275.172 226.167 300.742 222.54C308.73 221.425 315.409 223.253 320.585 228.01C332.738 239.175 331.533 262.65 331.488 263.69C331.461 264.179 331.338 264.656 331.126 265.097C330.914 265.537 330.617 265.932 330.252 266.258C329.887 266.583 329.462 266.834 329 266.996C328.539 267.157 328.05 267.226 327.561 267.199C327.073 267.172 326.595 267.048 326.154 266.836C325.713 266.624 325.319 266.328 324.993 265.963C324.667 265.599 324.416 265.174 324.254 264.712C324.093 264.251 324.024 263.762 324.051 263.274C324.051 263.066 325.107 242.312 315.542 233.541C312.032 230.33 307.54 229.17 301.783 229.973C276.674 233.407 278.712 261.906 278.816 263.14C278.894 264.122 278.579 265.094 277.941 265.844C277.302 266.594 276.392 267.06 275.41 267.14H275.097Z" fill="white"/>
<path d="M168.697 189.98C168.697 189.98 201.422 196.596 198.729 227.147C196.037 257.698 225.787 274.393 207.55 292.025C189.314 309.657 165.008 299.741 165.008 299.741L168.697 189.98Z" fill="#E2E2E2"/>
<path opacity="0.39" d="M168.697 189.98C168.697 189.98 201.422 196.596 198.729 227.147C196.037 257.698 225.787 274.393 207.55 292.025C189.314 309.657 165.008 299.741 165.008 299.741L168.697 189.98Z" fill="white"/>
<path d="M141.611 159.743C142.994 163.304 143.895 167.034 144.288 170.834C144.304 171.288 144.23 171.741 144.07 172.166C143.911 172.592 143.668 172.981 143.357 173.313C143.046 173.645 142.673 173.911 142.258 174.098C141.844 174.285 141.396 174.388 140.942 174.402C139.482 174.544 138.012 174.26 136.711 173.584C135.409 172.909 134.332 171.871 133.608 170.596L129.934 165.437C129.308 164.323 129.044 163.043 129.177 161.773C129.31 160.503 129.835 159.305 130.678 158.346C133.623 154.614 140.272 155.774 141.611 159.743Z" fill="#F4A28C"/>
<path d="M131.628 166.73L131.911 189.224L144.301 188.183L139.11 172.231L131.628 166.73Z" fill="#F4A28C"/>
<path d="M130.633 170.789C130.67 170.928 130.754 171.049 130.871 171.133C130.987 171.217 131.129 171.259 131.272 171.25C132.269 171.236 133.234 170.897 134.02 170.286C134.807 169.674 135.372 168.823 135.631 167.861C135.939 166.803 135.935 165.679 135.618 164.624C135.301 163.568 134.686 162.627 133.846 161.914C135.963 161.711 138.05 161.262 140.064 160.576C140.743 160.349 141.382 160.013 141.953 159.58L142.176 154.139C142.176 154.139 143.425 148.4 140.197 148.192C136.97 147.984 136.568 151.701 133.519 149.976C130.469 148.252 129.651 147.523 127.569 149.545C125.486 151.567 128.833 152.682 124.832 153.827C120.83 154.971 121.202 156.636 121.693 158.465C121.949 159.075 122.385 159.594 122.942 159.952C126.608 162.641 129.305 166.443 130.633 170.789Z" fill="#24285B"/>
<path d="M136.284 167.458C136.284 167.458 135.481 164.931 133.637 165.689C131.792 166.447 132.923 170.149 135.615 169.673L136.284 167.458Z" fill="#F4A28C"/>
<path d="M142.993 163.859L145.567 165.851C145.712 165.964 145.827 166.112 145.901 166.281C145.974 166.45 146.004 166.634 145.988 166.818C145.972 167.001 145.91 167.178 145.808 167.331C145.705 167.484 145.566 167.609 145.403 167.695L143.023 168.914L142.993 163.859Z" fill="#F4A28C"/>
<path opacity="0.31" d="M139.825 174.371C138.05 174.265 136.331 173.713 134.827 172.766C134.827 172.766 135.601 177.226 141.387 179.054L139.825 174.371Z" fill="#CE8172"/>
<path d="M155.31 187.053C134.873 187.416 114.699 191.727 95.8995 199.749C93.0174 200.967 90.4157 202.763 88.2552 205.025C86.0947 207.288 84.4211 209.969 83.338 212.903C82.2549 215.837 81.7851 218.962 81.9577 222.084C82.1303 225.207 82.9417 228.261 84.3416 231.058L116.665 295.505L176.581 291.952C176.581 291.952 187.5 255.737 185.313 214.779C184.872 207.176 181.5 200.04 175.905 194.87C170.311 189.7 162.929 186.898 155.31 187.053Z" fill="white"/>
<path d="M116.664 295.506L98.8145 394.042H107.739L130.186 340.522C138.135 321.574 152.151 305.799 170.036 295.669L176.611 291.938L116.664 295.506Z" fill="#24285B"/>
<path opacity="0.08" d="M111.712 208.312C115.957 211.771 119.238 216.266 121.237 221.363C123.235 226.46 123.884 231.986 123.121 237.407C120.384 256.064 117.513 270.574 134.768 266.218C152.023 261.862 161.29 221.871 161.29 221.871L181.371 222.362L177.905 266.962L166.258 267.764C163.503 267.952 160.886 269.041 158.81 270.862C156.735 272.684 155.317 275.137 154.775 277.844L151.636 293.409L116.665 295.476L111.712 288.042L89.8901 264.494L87.168 226.822L111.712 208.312Z" fill="black"/>
<path d="M135.503 259.903L174.416 262.625L178.147 209.358L139.234 206.635L135.503 259.903Z" fill="#3766E8"/>
<path d="M176.581 291.949L167.344 394.039H155.444C155.444 394.039 158.226 317.223 136.746 300.869L176.581 291.949Z" fill="#24285B"/>
<path d="M113.051 214.082C112.968 211.076 111.958 208.169 110.158 205.759C108.359 203.349 105.858 201.555 102.998 200.62C100.138 199.686 97.0592 199.658 94.1829 200.54C91.3066 201.422 88.7734 203.172 86.9303 205.548C80.058 214.32 73.7213 228.948 74.2419 252.973C75.3575 304.263 105.479 318.015 151.964 261.893L142.801 254.831C142.801 254.831 124.505 270.352 107.74 270.575C95.2008 270.753 113.899 238.552 113.051 214.082Z" fill="white"/>
<path opacity="0.39" d="M113.051 214.082C112.968 211.076 111.958 208.169 110.158 205.759C108.359 203.349 105.858 201.555 102.998 200.62C100.138 199.686 97.0592 199.658 94.1829 200.54C91.3066 201.422 88.7734 203.172 86.9303 205.548C80.058 214.32 73.7213 228.948 74.2419 252.973C75.3575 304.263 105.479 318.015 151.964 261.893L142.801 254.831C142.801 254.831 124.505 270.352 107.74 270.575C95.2008 270.753 113.899 238.552 113.051 214.082Z" fill="white"/>
<path opacity="0.08" d="M176.239 234.523C176.239 234.523 162.851 259.098 136.076 252.155L135.496 260.763L174.32 263.395L176.239 234.523Z" fill="black"/>
<path d="M144.496 256.123C144.496 256.123 149.97 246.46 156.664 249.017C163.358 251.574 151.963 261.891 151.963 261.891L144.496 256.123Z" fill="#F4A28C"/>
<path opacity="0.58" d="M204.798 388.776C204.798 388.776 192.125 385.312 189.373 373.538C189.373 373.538 208.993 369.568 209.558 389.816L204.798 388.776Z" fill="#FF879D"/>
<path opacity="0.73" d="M206.345 387.514C206.345 387.514 197.495 373.54 205.289 360.457C205.289 360.457 220.164 369.942 213.575 387.544L206.345 387.514Z" fill="#FF879D"/>
<path d="M208.622 387.53C208.622 387.53 213.308 372.768 227.439 369.973C227.439 369.973 230.087 379.562 218.291 387.575L208.622 387.53Z" fill="#FF879D"/>
<path d="M199.443 387.203L202.002 404.761L218.186 404.82L220.566 387.292L199.443 387.203Z" fill="#24285B"/>
<path opacity="0.08" d="M475.881 154.66H408.155V177.986H475.881V154.66Z" fill="black"/>
<path d="M479.763 284.711H470.139V381.523H479.763V284.711Z" fill="#E6E6E6"/>
<path d="M475.866 233.734L437.116 293.067H475.866H514.63L475.866 233.734Z" fill="#FFD200"/>
<path d="M489.507 373.227H461.408V404.833H489.507V373.227Z" fill="#24285B"/>
<path d="M478.306 255.797H472.803V273.637H478.306V255.797Z" fill="#24285B"/>
<path d="M478.306 277.113H472.803V282.614H478.306V277.113Z" fill="#24285B"/>
</svg>
