<svg width="437" height="312" viewBox="0 0 376 170" fill="none" xmlns="http://www.w3.org/2000/svg">
<g clip-path="url(#clip0)">
<path d="M61.8587 133.51H0.738899V109.312L58.602 18.832H86.2221V111.552H107.192V133.51H86.2221V162.786H61.8587V133.51ZM61.8587 53.3984H61.4485L25.5125 111.552H61.8587V53.3984Z" fill="#3766E8"/>
<path d="M329.956 133.51H268.849V109.312L326.712 18.832H354.332V111.552H375.24V133.51H354.332V162.786H329.956V133.51ZM334.207 53.3984H333.797L297.861 111.552H334.207V53.3984Z" fill="#3766E8"/>
<path d="M183.614 26.0156C170.844 26.0132 158.361 29.802 147.741 36.9031C137.121 44.0043 128.842 54.0989 123.951 65.9108C119.06 77.7228 117.776 90.7218 120.261 103.264C122.746 115.807 128.889 127.33 137.914 136.378C146.938 145.425 158.438 151.59 170.961 154.093C183.484 156.596 196.466 155.325 208.268 150.44C220.069 145.556 230.159 137.278 237.263 126.652C244.367 116.026 248.165 103.529 248.177 90.7419C248.187 82.2454 246.524 73.8304 243.284 65.9779C240.044 58.1254 235.29 50.9894 229.293 44.978C223.297 38.9667 216.177 34.1978 208.339 30.9441C200.5 27.6904 192.099 26.0156 183.614 26.0156Z" fill="white" stroke="#231F20" stroke-width="1.04545" stroke-linecap="round" stroke-linejoin="round"/>
<path d="M217.462 74.0866C219.109 74.0866 220.445 72.0971 220.445 69.6429C220.445 67.1887 219.109 65.1992 217.462 65.1992C215.814 65.1992 214.478 67.1887 214.478 69.6429C214.478 72.0971 215.814 74.0866 217.462 74.0866Z" fill="#231F20"/>
<path d="M107.764 71.5237L259.414 37.9158L229.581 29.2026C229.581 29.2026 213.422 2.37857 209.109 1.81844C204.795 1.2583 126.41 18 126.41 18L121.438 55.7902L107.764 71.5237Z" fill="#231F20"/>
<path d="M158.492 104.146C158.492 104.146 197.026 88.7238 213.882 117.452L158.492 104.146Z" fill="white"/>
<path d="M213.882 118.102C213.77 118.101 213.661 118.071 213.565 118.014C213.469 117.957 213.39 117.876 213.335 117.779C196.939 89.8591 159.101 104.597 158.729 104.746C158.564 104.811 158.38 104.807 158.218 104.736C158.056 104.664 157.929 104.532 157.865 104.367C157.8 104.201 157.804 104.018 157.875 103.855C157.946 103.693 158.079 103.566 158.244 103.501C158.642 103.352 197.486 88.2036 214.441 117.081C214.525 117.229 214.548 117.404 214.506 117.568C214.465 117.733 214.361 117.875 214.217 117.965C214.12 118.041 214.004 118.088 213.882 118.102Z" fill="#231F20"/>
<path d="M139.337 162.515L122.196 135.38L197.126 122.547L202.272 148.549L209.879 124.601L248.214 132.181L240.421 162.515H139.337Z" fill="#231F20"/>
<path d="M235.352 103.672L242.26 102.715L245.828 128.533C245.947 129.396 245.719 130.272 245.194 130.967C244.669 131.662 243.89 132.119 243.027 132.239L242.621 132.295C241.759 132.415 240.885 132.186 240.191 131.66C239.497 131.134 239.04 130.354 238.921 129.491L235.352 103.672Z" fill="white"/>
<path d="M242.173 132.964C241.231 132.961 240.322 132.619 239.612 131.999C238.902 131.379 238.439 130.524 238.307 129.591L234.74 103.762C234.719 103.599 234.763 103.434 234.863 103.303C234.963 103.172 235.111 103.087 235.274 103.065L242.173 102.107C242.254 102.096 242.337 102.102 242.416 102.123C242.494 102.144 242.568 102.181 242.633 102.231C242.699 102.279 242.754 102.341 242.795 102.412C242.835 102.482 242.861 102.561 242.869 102.642L246.412 128.458C246.485 128.967 246.457 129.485 246.329 129.983C246.201 130.481 245.976 130.948 245.666 131.358C245.356 131.768 244.968 132.112 244.524 132.371C244.08 132.629 243.59 132.797 243.081 132.864L242.683 132.926C242.514 132.95 242.344 132.963 242.173 132.964ZM236.057 104.21L239.538 129.416C239.637 130.115 240.007 130.746 240.568 131.172C241.129 131.599 241.835 131.786 242.534 131.694H242.944C243.641 131.595 244.27 131.224 244.694 130.662C245.118 130.1 245.302 129.392 245.206 128.694L241.726 103.488L236.057 104.21Z" fill="#231F20"/>
<path d="M241.19 79.3384L230.047 80.8828L233.537 106.134L244.68 104.59L241.19 79.3384Z" fill="white"/>
<path d="M233.534 106.773C233.4 106.77 233.27 106.727 233.161 106.649C233.094 106.602 233.038 106.541 232.998 106.47C232.957 106.399 232.932 106.32 232.925 106.238L229.432 80.97C229.419 80.8896 229.422 80.8075 229.442 80.7284C229.461 80.6493 229.496 80.5749 229.544 80.5094C229.647 80.3825 229.793 80.2982 229.954 80.2729L241.141 78.7295C241.223 78.7172 241.305 78.7215 241.385 78.742C241.464 78.7625 241.538 78.7988 241.603 78.8488C241.668 78.8988 241.722 78.9614 241.763 79.0328C241.803 79.1043 241.828 79.1832 241.838 79.2647L245.331 104.52C245.352 104.684 245.307 104.849 245.207 104.98C245.107 105.11 244.959 105.196 244.796 105.217L233.609 106.761L233.534 106.773ZM230.75 81.4181L234.069 105.442L244.013 104.072L240.694 80.0489L230.75 81.4181Z" fill="#231F20"/>
<path d="M243.161 122.631L239.898 123.083C237.722 123.384 236.202 125.395 236.503 127.574L241.482 163.602C241.784 165.781 243.792 167.303 245.968 167.002L249.231 166.549C251.407 166.248 252.927 164.237 252.626 162.058L247.646 126.03C247.345 123.851 245.337 122.329 243.161 122.631Z" fill="white"/>
<path d="M245.405 167.68C244.296 167.678 243.225 167.276 242.389 166.546C241.553 165.817 241.008 164.809 240.856 163.709L235.883 127.674C235.798 127.075 235.833 126.466 235.984 125.88C236.136 125.295 236.401 124.745 236.766 124.263C237.504 123.293 238.593 122.654 239.799 122.483L243.081 122.035C244.286 121.869 245.507 122.188 246.477 122.924C247.447 123.659 248.085 124.75 248.252 125.956L253.224 162.054C253.387 163.26 253.066 164.481 252.333 165.452C251.599 166.422 250.512 167.062 249.308 167.232L246.027 167.692L245.405 167.68ZM243.715 123.23C243.562 123.218 243.408 123.218 243.255 123.23L239.973 123.678C239.536 123.738 239.115 123.884 238.735 124.109C238.355 124.333 238.024 124.631 237.76 124.985C237.49 125.335 237.294 125.736 237.183 126.164C237.072 126.592 237.048 127.038 237.114 127.475L242.086 163.572C242.213 164.442 242.674 165.228 243.37 165.762C244.066 166.297 244.944 166.538 245.815 166.435L249.097 165.975C249.967 165.851 250.753 165.39 251.288 164.692C251.822 163.994 252.062 163.114 251.956 162.24L246.984 126.143C246.873 125.342 246.478 124.608 245.871 124.075C245.263 123.543 244.485 123.247 243.677 123.243L243.715 123.23Z" fill="#231F20"/>
<path d="M234.727 103.588C251.224 103.588 264.598 90.196 264.598 73.6766C264.598 57.1572 251.224 43.7656 234.727 43.7656C218.231 43.7656 204.857 57.1572 204.857 73.6766C204.857 90.196 218.231 103.588 234.727 103.588Z" fill="white"/>
<path d="M234.703 104.209C228.848 104.206 223.119 102.517 218.197 99.342C213.276 96.1673 209.37 91.6415 206.948 86.3049C204.525 80.9683 203.686 75.0462 204.533 69.2456C205.38 63.4449 207.875 58.0108 211.722 53.5917C215.569 49.1727 220.604 45.9554 226.227 44.3239C231.85 42.6925 237.823 42.7157 243.433 44.3909C249.043 46.0661 254.054 49.3225 257.866 53.7714C261.678 58.2202 264.132 63.6736 264.933 69.4807C266.032 77.495 263.915 85.6189 259.046 92.0739C254.177 98.529 246.953 102.789 238.954 103.923C237.545 104.113 236.124 104.208 234.703 104.209ZM234.703 44.3744C233.351 44.373 232.002 44.4645 230.663 44.6482C224.93 45.4416 219.56 47.9196 215.234 51.7689C210.907 55.6182 207.818 60.6659 206.356 66.2736C204.894 71.8812 205.126 77.797 207.022 83.2727C208.918 88.7484 212.393 93.538 217.008 97.0359C221.622 100.534 227.169 102.583 232.947 102.924C238.724 103.265 244.473 101.882 249.466 98.9515C254.459 96.0206 258.472 91.6728 260.997 86.458C263.522 81.2433 264.447 75.3957 263.653 69.655C262.675 62.6658 259.216 56.2632 253.908 51.6203C248.601 46.9774 241.8 44.405 234.752 44.3744H234.703Z" fill="#231F20"/>
<path d="M234.727 97.9734C248.128 97.9734 258.991 87.0951 258.991 73.6761C258.991 60.2571 248.128 49.3789 234.727 49.3789C221.327 49.3789 210.463 60.2571 210.463 73.6761C210.463 87.0951 221.327 97.9734 234.727 97.9734Z" fill="white"/>
<path d="M234.715 98.5981C228.27 98.5981 222.077 96.0918 217.442 91.6077C212.806 87.1235 210.091 81.012 209.869 74.562C209.647 68.1119 211.934 61.8275 216.25 57.034C220.566 52.2406 226.571 49.3127 233.001 48.8678C239.431 48.423 245.782 50.496 250.715 54.6496C255.647 58.8032 258.777 64.7128 259.442 71.1322C260.108 77.5515 258.258 83.9789 254.283 89.0588C250.307 94.1387 244.517 97.4741 238.133 98.3616C237.001 98.5204 235.859 98.5994 234.715 98.5981ZM234.715 50.0534C233.613 50.0541 232.513 50.1289 231.421 50.2774C225.358 51.1192 219.859 54.285 216.081 59.1078C212.304 63.9305 210.544 70.0334 211.172 76.1302C211.8 82.227 214.767 87.8415 219.448 91.7904C224.129 95.7394 230.158 97.7143 236.265 97.2989C242.372 96.8835 248.079 94.1104 252.184 89.5638C256.289 85.0173 258.47 79.0526 258.269 72.9267C258.068 66.8008 255.5 60.9924 251.106 56.7254C246.712 52.4585 240.836 50.0664 234.715 50.0534Z" fill="#231F20"/>
<path d="M263.255 141.103C261.613 139.017 259.534 137.317 257.164 136.124C250.042 132.39 241.875 132.515 234.379 134.88C231.719 135.726 226.561 136.933 226.287 140.468C226.297 141.174 226.533 141.857 226.961 142.417C227.388 142.978 227.985 143.385 228.661 143.58C230.022 143.934 231.442 143.989 232.826 143.742C230.854 143.689 228.906 144.18 227.195 145.161C225.591 146.294 224.709 148.771 226.026 150.277C226.609 150.903 227.367 151.337 228.202 151.522C230.015 152.021 231.933 151.995 233.733 151.447C231.786 151.821 229.888 152.418 228.077 153.227C226.983 153.712 225.765 154.571 225.889 155.716C226.014 156.862 227.133 157.384 228.152 157.733C230.296 158.47 232.537 158.889 234.802 158.978C232.847 159.333 230.998 160.129 229.395 161.305C226.909 163.397 226.909 167.367 230.277 168.5C231.358 168.816 232.484 168.947 233.609 168.886C243.553 168.886 255.461 167.641 262.198 159.351C263.832 157.44 264.975 155.16 265.529 152.706C266.084 150.253 266.033 147.702 265.381 145.273C264.92 143.77 264.201 142.359 263.255 141.103Z" fill="white"/>
<path d="M233.534 169.472C232.367 169.529 231.199 169.39 230.079 169.061C229.336 168.835 228.668 168.411 228.147 167.834C227.626 167.258 227.271 166.551 227.12 165.788C226.978 164.867 227.075 163.926 227.402 163.054C227.728 162.182 228.273 161.409 228.985 160.809C229.786 160.143 230.694 159.617 231.67 159.253C230.402 159.038 229.155 158.717 227.941 158.294C226.287 157.722 225.454 156.875 225.268 155.805C225.082 154.735 226.039 153.44 227.754 152.631L228.637 152.258C228.41 152.215 228.186 152.161 227.965 152.096C227.009 151.894 226.14 151.398 225.479 150.677C225.176 150.305 224.954 149.873 224.828 149.41C224.702 148.947 224.674 148.463 224.746 147.988C224.842 147.327 225.07 146.692 225.415 146.121C225.761 145.55 226.219 145.055 226.76 144.665C227.146 144.393 227.564 144.167 228.003 143.992C227.295 143.703 226.691 143.208 226.268 142.571C225.844 141.935 225.622 141.185 225.628 140.42C225.914 136.785 230.402 135.441 233.36 134.532L234.156 134.296C242.459 131.67 250.725 132.13 257.413 135.541C259.872 136.787 262.024 138.564 263.715 140.744C264.708 142.048 265.469 143.513 265.965 145.075C266.653 147.603 266.713 150.261 266.138 152.817C265.564 155.373 264.374 157.749 262.671 159.738C255.623 168.364 243.416 169.485 233.571 169.497L233.534 169.472ZM232.353 152.307C230.973 152.658 229.625 153.129 228.326 153.714C227.742 153.975 226.412 154.685 226.511 155.606C226.61 156.527 227.555 156.851 228.351 157.112C230.437 157.843 232.619 158.262 234.827 158.357C234.976 158.359 235.119 158.416 235.229 158.517C235.339 158.618 235.408 158.756 235.424 158.904C235.44 159.053 235.403 159.203 235.319 159.326C235.234 159.45 235.108 159.539 234.964 159.577C233.099 159.922 231.334 160.675 229.793 161.78C229.241 162.234 228.817 162.824 228.562 163.491C228.307 164.159 228.23 164.882 228.338 165.589C228.447 166.136 228.704 166.643 229.081 167.053C229.458 167.464 229.941 167.762 230.476 167.916C231.488 168.216 232.544 168.334 233.596 168.265C243.18 168.265 255.026 167.194 261.738 158.967C263.313 157.138 264.416 154.951 264.954 152.597C265.491 150.243 265.446 147.793 264.821 145.461C264.364 144.037 263.666 142.703 262.758 141.515C261.184 139.479 259.175 137.82 256.878 136.661C250.477 133.362 242.559 132.927 234.566 135.416L233.758 135.665C231.123 136.462 227.12 137.669 226.896 140.457C226.92 141.027 227.122 141.574 227.475 142.021C227.828 142.468 228.313 142.792 228.86 142.947C229.578 143.177 230.333 143.27 231.085 143.221C231.67 143.159 232.241 143.121 232.788 143.084C232.95 143.08 233.107 143.136 233.229 143.242C233.351 143.348 233.429 143.496 233.447 143.656C233.458 143.819 233.406 143.979 233.302 144.104C233.197 144.229 233.049 144.31 232.888 144.329C232.328 144.329 231.744 144.453 231.148 144.465C229.871 144.548 228.636 144.951 227.555 145.636C227.151 145.929 226.809 146.3 226.551 146.728C226.293 147.155 226.123 147.63 226.051 148.125C226.002 148.429 226.017 148.739 226.094 149.037C226.171 149.335 226.309 149.613 226.499 149.855C227.004 150.375 227.654 150.73 228.363 150.876C229.578 151.204 230.845 151.289 232.092 151.125C232.589 151 233.099 150.888 233.596 150.789C233.753 150.759 233.914 150.789 234.048 150.875C234.183 150.961 234.279 151.095 234.317 151.249C234.353 151.404 234.329 151.567 234.251 151.705C234.173 151.843 234.046 151.947 233.895 151.996C233.39 152.142 232.875 152.246 232.353 152.307Z" fill="#231F20"/>
<path d="M193.944 74.1484C193.944 74.1484 209.084 96.9271 199.923 97.2507C190.761 97.5744 189.978 95.172 189.978 95.172" fill="white"/>
<path d="M198.282 97.974C190.6 97.974 189.494 95.8704 189.344 95.4845C189.293 95.321 189.307 95.1438 189.383 94.9905C189.46 94.8371 189.593 94.7197 189.755 94.663C189.916 94.6117 190.091 94.626 190.242 94.7028C190.394 94.7797 190.509 94.9129 190.563 95.0737C190.563 95.0737 191.681 97.0031 199.898 96.7043C200.298 96.7413 200.701 96.6624 201.058 96.4771C201.415 96.2918 201.711 96.0077 201.911 95.6588C203.875 91.8374 196.442 79.166 193.409 74.6102C193.328 74.4684 193.303 74.3009 193.34 74.1416C193.377 73.9822 193.473 73.8427 193.608 73.7513C193.744 73.6598 193.909 73.6231 194.07 73.6485C194.231 73.6739 194.377 73.7596 194.478 73.8883C195.634 75.6309 205.665 91.0657 203.055 96.2936C202.757 96.851 202.306 97.312 201.756 97.6228C201.205 97.9335 200.578 98.0812 199.947 98.0486L198.282 97.974Z" fill="#231F20"/>
<path d="M236.107 82.2887C239.142 82.2887 241.601 78.0923 241.601 72.9158C241.601 67.7393 239.142 63.543 236.107 63.543C233.073 63.543 230.613 67.7393 230.613 72.9158C230.613 78.0923 233.073 82.2887 236.107 82.2887Z" fill="#D1D3D4"/>
<path d="M168.872 80.5007C171.185 80.5007 173.061 77.1068 173.061 72.9203C173.061 68.7337 171.185 65.3398 168.872 65.3398C166.558 65.3398 164.683 68.7337 164.683 72.9203C164.683 77.1068 166.558 80.5007 168.872 80.5007Z" fill="#231F20"/>
</g>
<defs>
<clipPath id="clip0">
<rect width="374.746" height="169.235" fill="white" transform="translate(0.616379 0.734375)"/>
</clipPath>
</defs>
</svg>
