<svg width="222" height="238" viewBox="0 0 222 238" fill="none" xmlns="http://www.w3.org/2000/svg">
<path d="M116.268 27.5371C116.623 27.3036 117.131 27.0702 117.435 27.3645C117.74 27.6589 117.557 28.1968 117.313 28.5521C116.661 29.5479 115.852 30.4321 114.918 31.1708C116.507 30.4399 118.198 29.9539 119.932 29.7295C120.277 29.7295 120.734 29.7295 120.805 30.0644C120.876 30.3994 120.622 30.5719 120.399 30.7343C118.915 31.7824 117.249 32.5464 115.486 32.9876C116.535 32.8145 117.612 32.9267 118.602 33.3124C118.783 33.3688 118.94 33.483 119.049 33.6372C119.232 34.0128 118.826 34.3883 118.46 34.5913C114.827 36.6213 110.584 37.139 106.443 37.4029C106.277 37.4309 106.106 37.406 105.956 37.3318C105.661 37.1491 105.732 36.7025 105.844 36.3168C107.468 31.8305 112.421 30.0238 116.268 27.5371Z" fill="white"/>
<path d="M106.29 37.9224C106.078 37.9267 105.867 37.8742 105.681 37.7702C105.453 37.5884 105.297 37.332 105.239 37.046C105.182 36.7601 105.227 36.463 105.367 36.2071C106.696 32.482 110.087 30.5434 113.355 28.6758C114.238 28.1683 115.151 27.6608 115.994 27.1127C116.836 26.5646 117.537 26.7676 117.78 26.9909C118.237 27.4172 118.227 28.1074 117.78 28.8382C117.552 29.1896 117.304 29.5285 117.039 29.8532C117.978 29.5689 118.939 29.3652 119.912 29.2442C120.673 29.1528 121.211 29.4167 121.343 29.9547C121.414 30.2592 121.343 30.7058 120.734 31.1524C119.907 31.7265 119.027 32.2193 118.105 32.6241C118.336 32.6848 118.563 32.7593 118.785 32.8474C119.085 32.9399 119.339 33.1431 119.496 33.4158C119.78 33.9741 119.496 34.6135 118.704 35.0398C114.948 37.0698 110.584 37.6484 106.473 37.9123L106.29 37.9224ZM117.07 27.7724C116.877 27.7992 116.695 27.8762 116.542 27.9957C115.679 28.5438 114.756 29.0716 113.862 29.5893C110.746 31.3655 107.529 33.2128 106.321 36.5725C106.271 36.7016 106.25 36.8403 106.26 36.9785C106.26 36.9785 106.372 36.9785 106.412 36.9785C110.472 36.7247 114.634 36.2071 118.217 34.2278C118.354 34.1546 118.475 34.0545 118.572 33.9335L118.42 33.8726C117.513 33.5182 116.527 33.4165 115.568 33.5782C115.438 33.5965 115.306 33.5647 115.198 33.4893C115.091 33.414 115.016 33.3006 114.989 33.1722C114.964 33.0447 114.99 32.9125 115.059 32.803C115.129 32.6935 115.239 32.6149 115.365 32.5835C117.081 32.1297 118.698 31.3623 120.135 30.3201C120.176 30.2948 120.214 30.2641 120.247 30.2287H120.034C118.348 30.4395 116.705 30.9085 115.162 31.6193C115.05 31.6663 114.925 31.6719 114.81 31.6351C114.695 31.5983 114.597 31.5216 114.533 31.4187C114.469 31.3159 114.444 31.1936 114.463 31.0741C114.481 30.9545 114.542 30.8455 114.634 30.7667C115.526 30.0611 116.3 29.2183 116.928 28.2698C117.053 28.1149 117.122 27.9212 117.121 27.7217L117.07 27.7724Z" fill="#231F20"/>
<path d="M221.016 223.249H0.984185C0.849587 223.249 0.720502 223.196 0.625327 223.101C0.530153 223.006 0.476685 222.876 0.476685 222.742C0.476685 222.607 0.530153 222.478 0.625327 222.383C0.720502 222.288 0.849587 222.234 0.984185 222.234H221.016C221.15 222.234 221.28 222.288 221.375 222.383C221.47 222.478 221.523 222.607 221.523 222.742C221.523 222.876 221.47 223.006 221.375 223.101C221.28 223.196 221.15 223.249 221.016 223.249Z" fill="#D1D3D4"/>
<path d="M61.4275 33.4756C61.4275 33.4756 110.929 29.8622 110.929 30.1667C110.929 30.4712 109.193 38.2258 109.193 38.2258C109.193 38.2258 66.6141 52.3038 61.4275 47.513C56.2408 42.7222 61.4275 33.4756 61.4275 33.4756Z" fill="#3766E8"/>
<path d="M46.04 231.056C45.9421 231.065 45.8435 231.065 45.7457 231.056C45.2145 230.978 44.7359 230.693 44.4144 230.263C44.0929 229.833 43.9548 229.293 44.0303 228.762L70.1868 45.5034C70.2636 44.965 70.551 44.4792 70.986 44.1527C71.4209 43.8263 71.9677 43.686 72.5061 43.7627C73.0445 43.8394 73.5304 44.1269 73.8568 44.5618C74.1833 44.9968 74.3236 45.5436 74.2468 46.082L48.07 229.32C47.9988 229.806 47.7539 230.249 47.3806 230.569C47.0074 230.888 46.5311 231.061 46.04 231.056Z" fill="#231F20"/>
<path d="M11.7026 231.056C11.6047 231.066 11.5061 231.066 11.4082 231.056C10.8771 230.978 10.3985 230.693 10.077 230.263C9.75555 229.833 9.61743 229.293 9.6929 228.762L35.89 45.5034C35.9668 44.965 36.2542 44.4792 36.6892 44.1527C37.1241 43.8263 37.6709 43.686 38.2093 43.7627C38.7477 43.8394 39.2336 44.1269 39.56 44.5618C39.8865 44.9968 40.0268 45.5436 39.95 46.082L13.7123 229.32C13.6416 229.802 13.3996 230.243 13.0306 230.562C12.6616 230.881 12.1902 231.056 11.7026 231.056Z" fill="#231F20"/>
<path d="M47.8468 207.693H15.0318C14.4934 207.693 13.9771 207.479 13.5964 207.098C13.2157 206.718 13.0018 206.201 13.0018 205.663C13.0018 205.124 13.2157 204.608 13.5964 204.227C13.9771 203.847 14.4934 203.633 15.0318 203.633H47.8468C48.3852 203.633 48.9015 203.847 49.2822 204.227C49.6629 204.608 49.8768 205.124 49.8768 205.663C49.8768 206.201 49.6629 206.718 49.2822 207.098C48.9015 207.479 48.3852 207.693 47.8468 207.693Z" fill="#231F20"/>
<path d="M51.6124 181.322H18.7975C18.2591 181.322 17.7427 181.108 17.362 180.727C16.9813 180.346 16.7675 179.83 16.7675 179.292C16.7675 178.753 16.9813 178.237 17.362 177.856C17.7427 177.476 18.2591 177.262 18.7975 177.262H51.6124C52.1508 177.262 52.6671 177.476 53.0478 177.856C53.4285 178.237 53.6424 178.753 53.6424 179.292C53.6424 179.83 53.4285 180.346 53.0478 180.727C52.6671 181.108 52.1508 181.322 51.6124 181.322Z" fill="#231F20"/>
<path d="M55.3679 154.951H22.5631C22.0247 154.951 21.5084 154.737 21.1277 154.356C20.747 153.975 20.5331 153.459 20.5331 152.921C20.5331 152.382 20.747 151.866 21.1277 151.485C21.5084 151.104 22.0247 150.891 22.5631 150.891H55.3679C55.9063 150.891 56.4226 151.104 56.8033 151.485C57.184 151.866 57.3979 152.382 57.3979 152.921C57.3979 153.459 57.184 153.975 56.8033 154.356C56.4226 154.737 55.9063 154.951 55.3679 154.951Z" fill="#231F20"/>
<path d="M59.1335 128.583H26.3287C25.7903 128.583 25.274 128.37 24.8933 127.989C24.5126 127.608 24.2987 127.092 24.2987 126.553C24.2987 126.015 24.5126 125.499 24.8933 125.118C25.274 124.737 25.7903 124.523 26.3287 124.523H59.1335C59.6719 124.523 60.1882 124.737 60.5689 125.118C60.9496 125.499 61.1635 126.015 61.1635 126.553C61.1635 127.092 60.9496 127.608 60.5689 127.989C60.1882 128.37 59.6719 128.583 59.1335 128.583Z" fill="#231F20"/>
<path d="M62.8991 102.212H30.0943C29.5559 102.212 29.0396 101.998 28.6589 101.618C28.2782 101.237 28.0643 100.721 28.0643 100.182C28.0643 99.644 28.2782 99.1276 28.6589 98.7469C29.0396 98.3662 29.5559 98.1523 30.0943 98.1523H62.8991C63.4375 98.1523 63.9539 98.3662 64.3346 98.7469C64.7153 99.1276 64.9291 99.644 64.9291 100.182C64.9291 100.721 64.7153 101.237 64.3346 101.618C63.9539 101.998 63.4375 102.212 62.8991 102.212Z" fill="#231F20"/>
<path d="M66.6649 75.853H33.8601C33.3217 75.853 32.8053 75.6391 32.4246 75.2584C32.044 74.8777 31.8301 74.3614 31.8301 73.823C31.8301 73.2846 32.044 72.7682 32.4246 72.3875C32.8053 72.0068 33.3217 71.793 33.8601 71.793H66.6649C67.2033 71.793 67.7196 72.0068 68.1003 72.3875C68.481 72.7682 68.6949 73.2846 68.6949 73.823C68.6949 74.3614 68.481 74.8777 68.1003 75.2584C67.7196 75.6391 67.2033 75.853 66.6649 75.853Z" fill="#231F20"/>
<path d="M81.4839 64.4428C82.4989 61.4689 83.5139 58.4848 84.5289 55.5108C85.0668 53.9782 85.686 52.4658 86.3153 50.9535C86.6508 50.0024 87.3026 49.1954 88.1616 48.667C89.0206 48.1387 90.0349 47.9211 91.035 48.0506C93.4507 48.3246 95.836 48.8321 98.2415 49.2178C99.5164 49.5014 100.814 49.6712 102.119 49.7253C103.08 49.7463 104.021 49.4424 104.788 48.8626C107.549 46.2337 110.198 43.4831 112.807 40.7426C113.253 40.2268 113.563 39.6067 113.707 38.9397C113.85 38.2726 113.824 37.5801 113.629 36.9262C113.01 34.0131 112.309 31.1204 111.721 28.2073C111.442 27.0795 111.332 25.9164 111.396 24.7563C111.467 23.9026 111.872 23.1113 112.523 22.5538C116.971 19.6559 121.83 17.4422 126.936 15.9867C127.688 15.744 128.5 15.7578 129.244 16.026C129.988 16.2941 130.622 16.8015 131.046 17.4686C132.883 19.996 134.822 22.4523 136.578 25.0304C137.148 26.0055 137.988 26.7947 138.996 27.3027C140.005 27.8106 141.139 28.0155 142.262 27.8927C145.439 27.6592 148.636 27.6085 151.834 27.4562C152.419 27.4224 152.987 27.2468 153.489 26.9444C153.991 26.642 154.412 26.222 154.716 25.7206C155.853 24.0357 156.929 22.3102 158.045 20.6456C158.999 19.1941 159.943 17.7224 160.958 16.3115C161.402 15.586 162.084 15.0374 162.888 14.7596C163.691 14.4818 164.567 14.4922 165.363 14.789C169.779 16.3115 174.194 17.834 178.558 19.5595C179.386 19.8872 180.075 20.4901 180.509 21.2667C180.944 22.0433 181.097 22.946 180.944 23.8225C180.7 26.2687 180.152 28.6844 179.756 31.1204C179.573 32.2673 179.401 33.4244 179.31 34.5815C179.216 35.3265 179.3 36.083 179.556 36.7889C179.812 37.4947 180.232 38.1297 180.781 38.6415C183.106 40.8339 185.471 42.9959 187.714 45.2796C188.359 45.975 189.183 46.4799 190.096 46.7394C191.009 46.9989 191.975 47.003 192.89 46.7514C196.047 46.0612 199.183 45.2999 202.34 44.6097C204.827 44.0718 206.532 44.833 207.628 47.1269C209.435 50.896 211.17 54.6921 212.835 58.5152C214.043 61.3065 213.606 62.9203 211.211 64.8184C209.587 66.1074 207.831 67.2239 206.136 68.4521C204.948 69.3453 203.781 70.2689 202.655 71.2433C202.175 71.6391 201.794 72.1396 201.538 72.7063C201.283 73.2729 201.162 73.8905 201.183 74.5116C201.254 77.8205 201.305 81.1294 201.457 84.4282C201.48 85.3274 201.737 86.2051 202.201 86.9754C202.666 87.7458 203.322 88.3825 204.106 88.8231C205.913 89.899 207.75 90.9445 209.536 92.0407C210.664 92.7043 211.752 93.433 212.794 94.2229C213.549 94.7217 214.107 95.4669 214.374 96.3313C214.64 97.1957 214.599 98.1258 214.256 98.963C212.808 102.942 211.323 106.914 209.8 110.879C209.533 111.484 209.192 112.053 208.785 112.574C208.427 113.215 207.877 113.728 207.213 114.041C206.548 114.354 205.803 114.451 205.08 114.32C202.208 113.853 199.346 113.366 196.483 112.889C196.27 112.889 196.047 112.889 195.834 112.787C194.634 112.465 193.366 112.512 192.194 112.923C191.022 113.334 190.002 114.09 189.267 115.091C187.653 117 185.826 118.725 184.08 120.532C183.271 121.326 182.695 122.327 182.414 123.425C182.133 124.524 182.158 125.679 182.487 126.764C183.187 129.545 183.877 132.326 184.445 135.138C185.044 138.112 184.445 139.39 181.746 140.7C177.858 142.567 173.91 144.323 169.941 146.018C169.059 146.5 168.027 146.626 167.055 146.371C166.084 146.117 165.246 145.5 164.714 144.648C163.181 142.709 161.77 140.679 160.339 138.66C157.294 134.336 156.492 133.95 151.204 134.224C149.174 134.326 147.063 134.458 144.992 134.569C144.006 134.584 143.04 134.853 142.188 135.351C141.336 135.849 140.627 136.559 140.131 137.411C138.872 139.441 137.664 141.613 136.345 143.653C135.648 144.717 134.849 145.709 133.959 146.617C133.568 147.08 133.042 147.41 132.455 147.561C131.867 147.712 131.247 147.677 130.681 147.46C126.499 145.903 122.324 144.344 118.156 142.781C117.59 142.53 117.053 142.221 116.552 141.857C115.908 141.501 115.39 140.953 115.074 140.288C114.757 139.624 114.656 138.877 114.786 138.152C115.243 135.32 115.73 132.499 116.166 129.667C116.298 128.804 116.38 127.931 116.43 127.058C116.508 126.35 116.418 125.634 116.168 124.968C115.917 124.301 115.513 123.703 114.989 123.221C112.715 121.144 110.455 119.04 108.209 116.908C107.57 116.283 106.776 115.841 105.908 115.629C105.04 115.416 104.131 115.441 103.276 115.7C100.495 116.391 97.6934 117 94.9022 117.639L94.5774 117.72C90.9234 118.39 89.746 117.903 88.1524 114.543C86.3965 110.808 84.7928 106.992 83.2297 103.165C82.2857 100.81 82.6917 99.4806 84.742 97.9277C86.975 96.2326 89.2385 94.5883 91.5933 93.076C92.7369 92.4258 93.6642 91.4537 94.2597 90.2807C94.8553 89.1077 95.0928 87.7854 94.9428 86.4785C94.7398 83.5045 94.6586 80.5306 94.5063 77.5465C94.5 76.9249 94.3378 76.3148 94.0345 75.7722C93.7313 75.2296 93.2967 74.7717 92.7707 74.4406C90.2941 72.8572 87.7972 71.3042 85.3307 69.7005C83.7067 68.6855 82.0726 67.6096 81.4128 65.6405L81.4839 64.4428ZM176.173 81.0685C176.181 77.3398 175.451 73.6464 174.024 70.2015C172.597 66.7566 170.502 63.6284 167.86 60.9974C165.218 58.3665 162.08 56.2849 158.629 54.8728C155.178 53.4608 151.482 52.7462 147.753 52.7703C134.71 52.7094 119.912 64.1485 119.922 81.099C119.959 88.5286 122.918 95.6452 128.161 100.91C133.403 106.175 140.507 109.166 147.936 109.235C166.054 109.265 176.975 93.5429 176.173 81.0685Z" fill="white"/>
<path d="M131.828 148.082C131.401 148.077 130.979 147.998 130.579 147.848L127.149 146.569C124.11 145.446 121.065 144.313 118.014 143.169C117.495 142.944 117.002 142.665 116.542 142.337L116.319 142.195C115.582 141.796 114.989 141.176 114.625 140.421C114.261 139.667 114.143 138.817 114.289 137.993C114.481 136.744 114.695 135.496 114.898 134.247C115.161 132.664 115.415 131.08 115.669 129.497C115.781 128.756 115.862 127.944 115.923 126.939C115.994 126.308 115.917 125.669 115.697 125.073C115.476 124.477 115.119 123.941 114.654 123.508C112.624 121.702 110.706 119.865 108.757 118.027L107.864 117.195C107.289 116.624 106.57 116.22 105.782 116.029C104.995 115.837 104.17 115.865 103.398 116.109C101.449 116.586 99.4899 117.033 97.5309 117.469L94.9021 118.068L94.6686 118.129C90.7203 118.85 89.35 118.129 87.6956 114.678C85.7569 110.547 84.0416 106.406 82.7627 103.259C81.7477 100.722 82.1841 99.1383 84.4374 97.4331C87.0257 95.464 89.2181 93.9212 91.3191 92.5611C92.3767 91.9615 93.2354 91.0651 93.7892 89.9828C94.343 88.9005 94.5676 87.6796 94.4352 86.4711C94.3134 84.6238 94.2322 82.7461 94.151 80.9292C94.151 79.7924 94.0596 78.6658 93.9987 77.5391C93.9948 76.9978 93.8553 76.4662 93.5929 75.9927C93.3304 75.5193 92.9535 75.1192 92.4965 74.8291L89.4515 72.8701C88.0001 71.9566 86.5385 71.033 85.087 70.089C83.392 68.9928 81.6766 67.8763 80.9763 65.755C80.9666 65.7013 80.9666 65.6463 80.9763 65.5926V64.4456C80.9676 64.3918 80.9676 64.337 80.9763 64.2832L81.839 61.7457C82.5597 59.6142 83.2803 57.4726 84.0416 55.3512C84.61 53.7374 85.2697 52.1235 85.8381 50.7634C86.2075 49.7048 86.9321 48.8068 87.8888 48.222C88.8454 47.6373 89.9751 47.402 91.0857 47.556C92.6894 47.7286 94.3032 48.0229 95.8663 48.297L98.3023 48.7233L99.2666 48.8857C100.197 49.0942 101.145 49.2065 102.098 49.2206C102.934 49.2368 103.752 48.9842 104.433 48.5C107.376 45.6884 110.127 42.8058 112.431 40.38C112.82 39.9233 113.086 39.3759 113.207 38.7887C113.328 38.2014 113.298 37.5932 113.121 37.0203C112.847 35.7313 112.563 34.4422 112.269 33.1633C111.903 31.5393 111.538 29.9153 111.254 28.2913C110.965 27.1133 110.852 25.8991 110.919 24.6881C110.958 24.1874 111.1 23.7002 111.336 23.2567C111.572 22.8131 111.896 22.4228 112.289 22.11C116.764 19.1642 121.667 16.9252 126.824 15.4719C127.674 15.1997 128.59 15.2153 129.43 15.5162C130.271 15.8172 130.988 16.3866 131.473 17.1365C132.122 18.0297 132.782 18.9127 133.442 19.7958C134.639 21.3893 135.878 23.0438 137.025 24.7185C137.543 25.6181 138.313 26.3469 139.24 26.8156C140.166 27.2844 141.21 27.4727 142.242 27.3575C144.272 27.2053 146.423 27.1342 148.453 27.053L151.833 26.9211C152.339 26.8896 152.83 26.7354 153.264 26.4719C153.697 26.2085 154.059 25.8436 154.32 25.4087C154.99 24.3937 155.64 23.3787 156.289 22.3637C156.736 21.6634 157.182 20.9732 157.639 20.3337L158.116 19.6029C158.898 18.4052 159.71 17.1669 160.573 15.9794C161.073 15.1604 161.844 14.5419 162.752 14.2306C163.66 13.9193 164.648 13.9347 165.546 14.2742C170.855 16.1012 174.925 17.5729 178.741 19.0447C179.673 19.4089 180.45 20.0834 180.942 20.9544C181.434 21.8254 181.61 22.8394 181.441 23.8253C181.289 25.4696 180.984 27.1139 180.69 28.7075C180.538 29.5296 180.396 30.3416 180.264 31.1638C180.081 32.2498 179.908 33.4171 179.817 34.5843C179.731 35.2529 179.806 35.9323 180.035 36.5661C180.265 37.1999 180.642 37.7698 181.136 38.2282L182.781 39.771C184.537 41.4153 186.354 43.1306 188.069 44.846C188.656 45.4788 189.406 45.9376 190.237 46.1722C191.068 46.4067 191.947 46.4079 192.779 46.1756C194.321 45.8407 195.824 45.4854 197.407 45.1606C198.99 44.8358 200.624 44.4197 202.228 44.0644C204.989 43.4757 206.907 44.3892 208.085 46.8658C209.891 50.6315 211.637 54.4682 213.292 58.2643C214.591 61.2484 214.114 63.116 211.526 65.1663C210.561 65.9377 209.496 66.6482 208.552 67.3282C207.851 67.8154 207.161 68.3432 206.471 68.8101C205.212 69.7541 204.075 70.6574 203.01 71.5709C202.587 71.9195 202.251 72.3611 202.027 72.8611C201.804 73.3612 201.699 73.9062 201.721 74.4535V76.4835C201.782 79.0515 201.832 81.7209 201.954 84.3396C201.975 85.1547 202.207 85.9504 202.629 86.6482C203.051 87.3459 203.647 87.9216 204.36 88.3184L206.654 89.6684C207.669 90.2875 208.755 90.8965 209.8 91.536C210.938 92.2184 212.039 92.9604 213.099 93.7588C213.943 94.3178 214.567 95.1531 214.864 96.1216C215.16 97.0901 215.11 98.1314 214.723 99.0673C213.353 102.833 211.891 106.731 210.267 110.994C210.02 111.579 209.707 112.134 209.333 112.648L209.242 112.79C208.824 113.508 208.197 114.081 207.444 114.432C206.69 114.782 205.848 114.893 205.03 114.749L199.203 113.785L196.209 113.287C196.055 113.27 195.903 113.243 195.752 113.206C194.64 112.902 193.461 112.944 192.373 113.327C191.285 113.709 190.34 114.414 189.662 115.348C188.526 116.698 187.257 117.977 186.039 119.205L184.456 120.819C183.708 121.552 183.176 122.476 182.916 123.491C182.657 124.505 182.68 125.572 182.984 126.574C183.664 129.223 184.364 132.075 184.953 134.968C185.613 138.206 184.892 139.698 181.979 141.058C178.426 142.763 174.559 144.509 170.154 146.387C169.169 146.91 168.023 147.044 166.944 146.762C165.865 146.48 164.931 145.802 164.328 144.864C163.059 143.26 161.851 141.565 160.694 139.921L159.933 138.855C156.939 134.643 156.36 134.369 151.214 134.633C150.037 134.684 148.87 134.755 147.692 134.826L145.013 134.978C144.108 134.985 143.22 135.228 142.439 135.684C141.657 136.14 141.008 136.792 140.557 137.576C140.13 138.267 139.714 138.967 139.298 139.667C138.486 141.048 137.644 142.469 136.761 143.829C136.05 144.923 135.23 145.943 134.315 146.874C134.003 147.232 133.622 147.524 133.194 147.731C132.767 147.939 132.302 148.058 131.828 148.082ZM104.91 114.942C106.318 114.943 107.668 115.501 108.665 116.495L109.549 117.327C111.497 119.168 113.46 120.991 115.436 122.798C116.014 123.332 116.459 123.994 116.738 124.73C117.016 125.467 117.119 126.258 117.039 127.041C116.978 128.056 116.897 128.918 116.775 129.69C116.522 131.283 116.258 132.867 116.004 134.46C115.791 135.699 115.588 136.947 115.395 138.185C115.285 138.812 115.373 139.457 115.648 140.03C115.923 140.603 116.37 141.076 116.928 141.383L117.161 141.535C117.557 141.82 117.982 142.062 118.43 142.256L127.565 145.666L130.995 146.935C131.468 147.121 131.988 147.151 132.479 147.022C132.97 146.892 133.407 146.609 133.726 146.214C134.592 145.331 135.371 144.366 136.05 143.331C136.923 141.981 137.766 140.571 138.567 139.2C138.984 138.5 139.4 137.8 139.826 137.099C140.372 136.182 141.143 135.421 142.067 134.888C142.992 134.355 144.037 134.068 145.104 134.054C145.997 134.054 146.88 133.953 147.773 133.902L151.306 133.709C156.797 133.425 157.7 133.861 160.908 138.358L161.669 139.434C162.816 141.058 164.013 142.743 165.262 144.326C166.51 145.91 167.962 146.356 169.9 145.544C174.295 143.666 178.142 141.931 181.685 140.236C184.171 139.038 184.669 138.013 184.1 135.232C183.532 132.451 182.811 129.517 182.141 126.878C181.797 125.71 181.775 124.47 182.079 123.291C182.383 122.111 183.001 121.036 183.867 120.179C184.395 119.631 184.882 119.093 185.46 118.555C186.668 117.337 187.917 116.069 189.033 114.749C189.832 113.671 190.937 112.859 192.205 112.419C193.472 111.979 194.843 111.931 196.138 112.283C196.25 112.283 196.372 112.283 196.493 112.343H196.747L199.518 112.8L205.344 113.815C205.963 113.896 206.593 113.785 207.146 113.496C207.7 113.207 208.152 112.755 208.44 112.201L208.541 112.059C208.868 111.609 209.147 111.126 209.374 110.618C210.998 106.355 212.419 102.498 213.819 98.7019C214.127 97.9662 214.165 97.1457 213.928 96.3846C213.69 95.6235 213.192 94.9705 212.52 94.5404C211.493 93.7619 210.423 93.0434 209.313 92.3886C208.298 91.7491 207.232 91.1401 206.187 90.521C205.415 90.0744 204.654 89.6278 203.893 89.1609C203.035 88.6812 202.317 87.986 201.81 87.1441C201.302 86.3022 201.023 85.3426 201 84.3599C200.868 81.7311 200.817 79.0616 200.756 76.4835V74.4535C200.732 73.7576 200.867 73.0654 201.152 72.4301C201.437 71.7948 201.864 71.2335 202.401 70.7894C203.487 69.8556 204.634 68.9319 205.923 67.9778C206.613 67.4703 207.313 66.9628 208.024 66.4756C209.039 65.8057 210.003 65.0952 210.947 64.3543C213.17 62.5882 213.525 61.2078 212.419 58.65C210.764 54.864 209.019 51.0375 207.222 47.282C206.207 45.252 204.796 44.5415 202.492 45.0388C200.888 45.3839 199.285 45.7595 197.681 46.1249C196.077 46.4903 194.636 46.8455 193.042 47.1399C192.044 47.4098 190.991 47.4021 189.996 47.1178C189.002 46.8334 188.104 46.283 187.399 45.526C185.694 43.7904 183.887 42.0953 182.131 40.451L180.487 38.8981C179.885 38.335 179.423 37.6385 179.14 36.8646C178.856 36.0907 178.757 35.261 178.853 34.4422C178.954 33.2445 179.127 32.0468 179.309 30.9405C179.441 30.1183 179.594 29.286 179.746 28.4639C180.03 26.8906 180.335 25.2666 180.487 23.6731C180.634 22.9104 180.512 22.1204 180.141 21.4375C179.771 20.7547 179.176 20.2211 178.457 19.9277C174.63 18.4661 170.57 16.9944 165.262 15.1775C164.566 14.9066 163.797 14.8893 163.09 15.1288C162.383 15.3682 161.783 15.849 161.395 16.4869C160.552 17.6541 159.74 18.8924 158.959 20.08L158.492 20.8108C158.038 21.4874 157.592 22.1641 157.152 22.8408C156.492 23.8558 155.833 24.8708 155.122 25.8858C154.773 26.4534 154.291 26.928 153.718 27.2691C153.146 27.6103 152.499 27.8077 151.833 27.8447L148.453 27.9767C146.423 28.0579 144.333 28.1289 142.272 28.2812C141.072 28.4075 139.861 28.1879 138.782 27.6483C137.703 27.1088 136.801 26.2718 136.182 25.2362C135.045 23.5817 133.817 21.9374 132.63 20.354C131.97 19.4608 131.31 18.5778 130.661 17.6846C130.285 17.1107 129.727 16.6803 129.077 16.4629C128.427 16.2455 127.722 16.254 127.078 16.4869C122.021 17.9191 117.213 20.113 112.817 22.993C112.297 23.4656 111.977 24.1193 111.924 24.82C111.864 25.9291 111.97 27.041 112.238 28.1188C112.563 29.7428 112.928 31.3566 113.253 32.9705C113.537 34.2595 113.832 35.5486 114.106 36.8376C114.314 37.5708 114.337 38.3442 114.172 39.0883C114.007 39.8325 113.66 40.524 113.162 41.1006C110.848 43.5671 108.087 46.4598 105.123 49.2815C104.255 49.9599 103.18 50.3184 102.078 50.2965C101.055 50.2754 100.035 50.1599 99.0331 49.9514L98.0993 49.789C97.2772 49.6571 96.455 49.5048 95.6329 49.3627C94.0901 49.0785 92.4965 48.7943 90.9233 48.6218C90.0308 48.494 89.1217 48.683 88.3541 49.1558C87.5864 49.6287 87.0087 50.3555 86.7212 51.21C86.1629 52.56 85.5032 54.1535 84.9449 55.7471C84.1938 57.8684 83.4732 59.9999 82.7525 62.1314L81.9101 64.5979V65.5215C82.5191 67.2572 83.9908 68.2113 85.5438 69.2263C87.0967 70.2413 88.4873 71.104 89.9489 72.0277L92.9939 73.9866C93.5866 74.3638 94.0767 74.882 94.4203 75.4948C94.764 76.1076 94.9504 76.796 94.963 77.4985C95.0239 78.6252 95.0746 79.762 95.1152 80.8988C95.1964 82.7055 95.2675 84.5832 95.3994 86.4204C95.5631 87.8253 95.3108 89.2475 94.6739 90.5104C94.037 91.7734 93.0435 92.8217 91.8165 93.5254C89.7357 94.8652 87.5738 96.3978 84.9957 98.3568C83.1078 99.7879 82.7931 100.874 83.6559 102.995C84.9246 106.122 86.6298 110.253 88.5685 114.353C90.0098 117.398 90.9436 117.875 94.4352 117.236C94.4891 117.241 94.5436 117.241 94.5976 117.236H94.7397L97.2569 116.667C99.2057 116.221 101.165 115.784 103.103 115.297C103.687 115.099 104.295 114.979 104.91 114.942ZM147.987 109.786H147.926C140.353 109.745 133.103 106.711 127.759 101.344C122.416 95.9781 119.412 88.7155 119.404 81.1424C119.406 77.3772 120.157 73.6501 121.612 70.1774C123.067 66.7047 125.197 63.5557 127.879 60.9134C133.289 55.5238 140.668 52.3062 147.631 52.3062H147.743C151.543 52.2658 155.313 52.9814 158.834 54.4115C162.355 55.8415 165.556 57.9573 168.252 60.636C170.947 63.3146 173.083 66.5025 174.536 70.0142C175.988 73.526 176.727 77.2915 176.711 81.0916C177.127 87.8718 174.255 95.2306 169.017 100.793C166.314 103.657 163.047 105.931 159.423 107.471C155.798 109.012 151.894 109.786 147.956 109.745L147.987 109.786ZM147.631 53.3212C140.449 53.5303 133.626 56.509 128.59 61.6341C124.716 65.471 122.067 70.3709 120.979 75.7137C119.891 81.0565 120.412 86.6021 122.477 91.6486C124.541 96.6951 128.057 101.016 132.578 104.064C137.099 107.111 142.422 108.75 147.875 108.771H147.936C151.734 108.802 155.498 108.049 158.991 106.557C162.485 105.065 165.632 102.868 168.236 100.103C173.311 94.7332 176.051 87.6485 175.645 81.1424C175.663 77.4742 174.951 73.8391 173.55 70.4488C172.15 67.0584 170.089 63.9805 167.488 61.3943C164.886 58.808 161.796 56.765 158.398 55.3843C154.999 54.0035 151.36 53.3126 147.692 53.3517L147.631 53.3212Z" fill="#231F20"/>
<path d="M181.177 149.998C181.482 149.104 181.776 148.211 182.091 147.328C182.253 146.861 182.446 146.415 182.629 145.958C182.73 145.675 182.926 145.435 183.182 145.278C183.439 145.121 183.741 145.057 184.039 145.095C184.77 145.176 185.481 145.329 186.201 145.44C186.582 145.526 186.969 145.577 187.359 145.593C187.648 145.599 187.931 145.506 188.16 145.329C188.983 144.547 189.774 143.725 190.556 142.893C190.688 142.736 190.78 142.55 190.825 142.351C190.869 142.151 190.864 141.943 190.81 141.746C190.617 140.883 190.414 140.01 190.231 139.137C190.146 138.806 190.116 138.463 190.14 138.122C190.149 137.995 190.183 137.872 190.241 137.758C190.298 137.645 190.378 137.545 190.475 137.462C191.804 136.591 193.259 135.927 194.788 135.493C195.014 135.421 195.257 135.425 195.479 135.506C195.701 135.587 195.89 135.74 196.017 135.94C196.565 136.691 197.143 137.432 197.671 138.203C197.843 138.495 198.095 138.73 198.398 138.881C198.7 139.032 199.04 139.093 199.376 139.056C200.33 138.985 201.284 138.975 202.238 138.924C202.414 138.915 202.584 138.862 202.734 138.772C202.884 138.682 203.01 138.556 203.101 138.406C203.446 137.899 203.761 137.391 204.116 136.874C204.471 136.356 204.685 136.001 204.989 135.574C205.123 135.358 205.327 135.195 205.568 135.112C205.808 135.028 206.07 135.031 206.309 135.118C207.628 135.574 208.948 136.052 210.257 136.549C210.506 136.646 210.713 136.827 210.843 137.06C210.972 137.294 211.016 137.565 210.967 137.828C210.896 138.559 210.734 139.279 210.612 140.01C210.561 140.355 210.511 140.7 210.48 141.025C210.452 141.247 210.478 141.473 210.555 141.684C210.633 141.894 210.761 142.082 210.927 142.233C211.617 142.893 212.328 143.542 212.957 144.263C213.15 144.472 213.398 144.623 213.672 144.7C213.946 144.777 214.236 144.777 214.51 144.699C215.454 144.496 216.388 144.273 217.332 144.06C217.643 143.958 217.981 143.98 218.276 144.122C218.571 144.264 218.8 144.514 218.915 144.821C219.453 145.948 219.981 147.085 220.478 148.232C220.574 148.386 220.637 148.558 220.664 148.737C220.692 148.916 220.682 149.099 220.637 149.275C220.591 149.45 220.51 149.615 220.399 149.758C220.288 149.902 220.149 150.021 219.991 150.109C219.504 150.495 218.976 150.83 218.478 151.205C217.981 151.581 217.778 151.743 217.463 152.038C217.316 152.161 217.2 152.317 217.125 152.493C217.049 152.67 217.015 152.861 217.027 153.053C217.027 154.068 217.027 155.083 217.108 156.027C217.119 156.294 217.197 156.554 217.335 156.783C217.474 157.012 217.668 157.203 217.9 157.336C218.448 157.661 218.996 157.965 219.534 158.351C219.859 158.554 220.194 158.767 220.498 159.001C220.724 159.151 220.891 159.374 220.972 159.632C221.053 159.891 221.044 160.169 220.945 160.422C220.508 161.609 220.062 162.807 219.605 163.994C219.531 164.173 219.432 164.341 219.311 164.492C219.209 164.688 219.046 164.846 218.846 164.942C218.647 165.037 218.421 165.064 218.204 165.02L215.636 164.593H215.444C215.085 164.494 214.705 164.506 214.353 164.627C214.002 164.749 213.695 164.974 213.474 165.273C212.987 165.852 212.459 166.37 211.922 166.908C211.68 167.146 211.508 167.446 211.423 167.775C211.339 168.104 211.347 168.45 211.444 168.775C211.658 169.607 211.861 170.44 212.033 171.282C212.1 171.444 212.132 171.618 212.126 171.793C212.121 171.968 212.078 172.14 212.001 172.297C211.925 172.454 211.815 172.593 211.681 172.705C211.546 172.817 211.39 172.9 211.221 172.947C210.064 173.505 208.877 174.033 207.689 174.54C207.425 174.684 207.115 174.721 206.825 174.643C206.534 174.566 206.284 174.38 206.126 174.124C205.669 173.546 205.243 172.937 204.817 172.338C203.893 171.039 203.659 170.927 202.076 171.008L200.219 171.11C199.922 171.113 199.632 171.194 199.375 171.343C199.119 171.493 198.906 171.706 198.757 171.962C198.381 172.581 198.026 173.221 197.63 173.83C197.419 174.144 197.182 174.439 196.92 174.713C196.801 174.859 196.638 174.963 196.455 175.009C196.272 175.054 196.079 175.04 195.905 174.967C194.656 174.5 193.398 174.043 192.149 173.566C191.981 173.492 191.821 173.4 191.672 173.292C191.476 173.19 191.318 173.027 191.223 172.827C191.127 172.628 191.1 172.402 191.144 172.186C191.287 171.333 191.429 170.49 191.561 169.638C191.561 169.384 191.622 169.12 191.642 168.866C191.664 168.653 191.636 168.437 191.56 168.236C191.485 168.035 191.363 167.855 191.205 167.709C190.525 167.09 189.855 166.461 189.175 165.821C188.985 165.635 188.747 165.504 188.488 165.442C188.229 165.379 187.958 165.388 187.704 165.466C186.871 165.669 186.029 165.852 185.197 166.045H185.095C184.009 166.248 183.654 166.106 183.177 165.101C182.7 164.096 182.162 162.837 181.705 161.69C181.628 161.558 181.579 161.412 181.56 161.261C181.541 161.11 181.553 160.956 181.594 160.809C181.636 160.662 181.707 160.525 181.803 160.406C181.898 160.288 182.017 160.189 182.152 160.117C182.821 159.62 183.502 159.102 184.182 158.676C184.534 158.477 184.818 158.178 184.999 157.816C185.18 157.454 185.249 157.047 185.197 156.646C185.136 155.753 185.115 154.859 185.065 153.976C185.063 153.79 185.015 153.607 184.925 153.444C184.834 153.281 184.704 153.143 184.547 153.043C183.806 152.566 183.055 152.109 182.324 151.622C181.8 151.368 181.382 150.936 181.147 150.404L181.177 149.998ZM209.516 154.971C209.519 153.854 209.3 152.748 208.872 151.717C208.445 150.685 207.817 149.749 207.025 148.961C206.233 148.174 205.292 147.552 204.258 147.13C203.224 146.709 202.117 146.497 201 146.506C198.785 146.569 196.681 147.486 195.127 149.066C193.574 150.646 192.692 152.766 192.667 154.981C192.68 157.205 193.566 159.334 195.135 160.909C196.703 162.485 198.828 163.382 201.051 163.406C202.164 163.419 203.268 163.211 204.299 162.792C205.33 162.373 206.268 161.753 207.056 160.967C207.844 160.182 208.468 159.247 208.89 158.217C209.313 157.188 209.526 156.084 209.516 154.971Z" fill="#D1D3D4"/>
<path d="M196.26 175.385C196.09 175.383 195.922 175.352 195.763 175.294L194.819 174.938C193.885 174.593 192.941 174.248 192.017 173.923C191.837 173.843 191.664 173.748 191.5 173.639C191.211 173.48 190.978 173.236 190.832 172.94C190.687 172.644 190.637 172.31 190.688 171.985L190.86 170.888L191.104 169.447C191.104 169.204 191.155 168.96 191.175 168.716C191.192 168.579 191.177 168.44 191.131 168.31C191.085 168.179 191.01 168.061 190.911 167.965C190.312 167.427 189.734 166.889 189.155 166.341L188.871 166.077C188.74 165.949 188.576 165.858 188.397 165.815C188.218 165.772 188.031 165.779 187.856 165.834L186.11 166.24L185.339 166.412H185.217C184.975 166.507 184.716 166.55 184.457 166.539C184.198 166.527 183.943 166.461 183.711 166.346C183.479 166.23 183.273 166.067 183.108 165.867C182.942 165.667 182.82 165.434 182.75 165.184C182.162 163.936 181.644 162.697 181.269 161.753C181.067 161.385 181.017 160.952 181.131 160.548C181.245 160.144 181.513 159.8 181.878 159.591C182.659 158.993 183.329 158.526 183.958 158.11C184.224 157.965 184.44 157.743 184.578 157.473C184.716 157.203 184.769 156.898 184.73 156.597C184.73 156.039 184.669 155.471 184.648 154.902L184.598 153.887C184.6 153.782 184.575 153.678 184.525 153.586C184.475 153.493 184.402 153.415 184.314 153.359L183.4 152.781L182.081 151.938C181.463 151.622 180.977 151.097 180.71 150.456C180.7 150.403 180.7 150.348 180.71 150.294V149.969C180.7 149.916 180.7 149.86 180.71 149.807L181.015 148.914L181.624 147.127C181.796 146.66 181.979 146.193 182.172 145.737C182.314 145.35 182.583 145.022 182.935 144.808C183.287 144.594 183.702 144.507 184.111 144.559C184.598 144.559 185.126 144.701 185.562 144.783L186.293 144.915L186.587 144.965C186.84 145.023 187.099 145.054 187.359 145.057C187.522 145.059 187.684 145.017 187.825 144.935C188.698 144.103 189.52 143.24 190.201 142.519C190.275 142.422 190.324 142.309 190.346 142.189C190.367 142.069 190.359 141.945 190.322 141.829C190.241 141.443 190.15 141.058 190.069 140.682C189.987 140.306 189.845 139.667 189.744 139.21C189.653 138.825 189.619 138.428 189.642 138.033C189.661 137.833 189.721 137.64 189.819 137.465C189.917 137.29 190.05 137.138 190.211 137.018C191.585 136.12 193.087 135.435 194.667 134.988C194.991 134.887 195.339 134.894 195.659 135.007C195.979 135.121 196.254 135.335 196.443 135.617C196.636 135.891 196.828 136.155 197.031 136.419C197.397 136.906 197.762 137.434 198.107 137.891C198.225 138.11 198.406 138.289 198.627 138.403C198.848 138.517 199.099 138.562 199.346 138.53C199.965 138.53 200.594 138.459 201.223 138.439H202.238C202.335 138.434 202.429 138.405 202.511 138.353C202.593 138.302 202.66 138.23 202.705 138.145L203.284 137.251L203.842 136.399C204.086 136.023 204.319 135.658 204.583 135.303C204.776 134.994 205.069 134.762 205.413 134.646C205.757 134.529 206.131 134.535 206.471 134.663C208.065 135.211 209.293 135.678 210.44 136.094C210.786 136.236 211.075 136.49 211.259 136.816C211.443 137.142 211.512 137.521 211.455 137.891C211.404 138.398 211.313 138.906 211.231 139.383C211.181 139.626 211.14 139.87 211.099 140.114C211.059 140.357 210.998 140.773 210.967 141.129C210.946 141.275 210.961 141.425 211.01 141.565C211.06 141.704 211.143 141.83 211.252 141.93L211.749 142.397C212.287 142.905 212.825 143.412 213.343 143.93C213.472 144.081 213.644 144.19 213.835 144.244C214.026 144.298 214.229 144.295 214.418 144.235L215.799 143.92L217.25 143.595C217.67 143.466 218.122 143.499 218.518 143.687C218.914 143.875 219.226 144.204 219.392 144.61C219.94 145.747 220.407 146.884 220.955 148.041C221.198 148.455 221.268 148.948 221.15 149.413C221.032 149.878 220.736 150.279 220.326 150.528C220.031 150.761 219.717 150.974 219.412 151.187L218.803 151.624C218.458 151.877 218.113 152.151 217.788 152.426C217.701 152.496 217.631 152.586 217.586 152.688C217.54 152.791 217.519 152.902 217.524 153.014V153.512C217.524 154.313 217.524 155.115 217.595 155.907C217.6 156.092 217.653 156.273 217.75 156.431C217.846 156.59 217.981 156.72 218.143 156.81L218.824 157.216L219.778 157.775C220.129 157.985 220.468 158.215 220.793 158.465C221.113 158.681 221.348 159.001 221.459 159.371C221.57 159.741 221.55 160.138 221.402 160.495C220.965 161.693 220.519 162.88 220.062 164.068C219.982 164.27 219.876 164.461 219.747 164.636C219.588 164.921 219.344 165.149 219.05 165.289C218.755 165.429 218.424 165.474 218.103 165.418L215.535 164.991H215.301C215.033 164.918 214.749 164.929 214.487 165.024C214.225 165.118 213.999 165.291 213.84 165.519C213.495 165.925 213.119 166.311 212.734 166.696L212.267 167.174C212.082 167.348 211.95 167.571 211.887 167.817C211.824 168.063 211.833 168.322 211.911 168.564C212.125 169.396 212.338 170.239 212.51 171.091C212.588 171.308 212.622 171.539 212.609 171.769C212.597 172 212.538 172.225 212.437 172.432C212.335 172.639 212.194 172.824 212.02 172.976C211.846 173.127 211.643 173.242 211.424 173.314C210.358 173.822 209.191 174.329 207.872 174.908C207.506 175.097 207.083 175.145 206.684 175.042C206.285 174.939 205.938 174.692 205.71 174.35C205.324 173.873 204.979 173.335 204.624 172.878L204.38 172.543C203.558 171.386 203.497 171.355 202.076 171.426L200.229 171.528C200.021 171.533 199.819 171.591 199.641 171.698C199.463 171.805 199.316 171.956 199.214 172.137L198.838 172.756C198.595 173.182 198.341 173.598 198.077 174.015C197.851 174.376 197.593 174.716 197.306 175.03C197.017 175.28 196.642 175.408 196.26 175.385ZM188.14 164.748C188.652 164.746 189.145 164.947 189.51 165.306L189.784 165.57L191.53 167.194C191.757 167.378 191.937 167.615 192.053 167.884C192.17 168.152 192.22 168.445 192.2 168.737C192.194 169.016 192.167 169.294 192.119 169.569C192.048 170.056 191.967 170.584 191.885 171.031L191.713 172.117C191.688 172.236 191.705 172.361 191.76 172.469C191.816 172.578 191.906 172.665 192.017 172.715C192.134 172.804 192.26 172.879 192.393 172.939L195.194 173.954L196.138 174.309C196.26 174.309 196.402 174.37 196.585 174.177C196.825 173.93 197.043 173.662 197.234 173.375C197.488 172.969 197.732 172.563 197.975 172.147L198.361 171.518C198.552 171.192 198.822 170.92 199.147 170.728C199.472 170.536 199.841 170.431 200.219 170.422L202.076 170.32C203.842 170.229 204.228 170.411 205.263 171.863L205.497 172.198C205.842 172.685 206.187 173.162 206.512 173.629C206.556 173.718 206.619 173.796 206.697 173.858C206.774 173.92 206.865 173.964 206.961 173.989C207.057 174.013 207.158 174.016 207.255 173.997C207.353 173.979 207.445 173.94 207.527 173.883C208.836 173.335 209.983 172.868 211.038 172.309C211.627 172.015 211.698 171.873 211.566 171.203C211.394 170.371 211.191 169.538 210.978 168.716C210.858 168.309 210.852 167.876 210.959 167.465C211.066 167.054 211.283 166.679 211.587 166.382L212.064 165.895C212.429 165.529 212.784 165.164 213.079 164.768C213.359 164.397 213.743 164.119 214.182 163.967C214.621 163.815 215.096 163.797 215.545 163.915H215.707L218.275 164.352C218.396 164.375 218.522 164.358 218.632 164.303C218.742 164.248 218.831 164.158 218.884 164.047C218.978 163.92 219.059 163.784 219.128 163.641C219.575 162.454 220.021 161.266 220.458 160.079C220.522 159.929 220.53 159.761 220.48 159.606C220.429 159.451 220.324 159.319 220.184 159.236C219.887 159.009 219.575 158.802 219.25 158.617L218.326 158.059L217.636 157.653C217.336 157.473 217.086 157.221 216.909 156.919C216.731 156.618 216.632 156.277 216.621 155.927C216.621 155.115 216.621 154.313 216.55 153.512V152.943C216.542 152.683 216.594 152.424 216.701 152.187C216.809 151.949 216.969 151.739 217.169 151.573C217.514 151.268 217.869 150.984 218.245 150.71L218.874 150.264C219.169 150.061 219.453 149.858 219.737 149.634C220.275 149.208 220.336 148.964 220.072 148.345C219.575 147.208 219.057 146.082 218.519 144.955C218.488 144.855 218.435 144.762 218.366 144.682C218.297 144.603 218.212 144.538 218.116 144.494C218.021 144.449 217.917 144.424 217.812 144.422C217.706 144.419 217.602 144.438 217.504 144.478L216.073 144.803L214.672 145.118C214.313 145.217 213.934 145.215 213.576 145.113C213.218 145.011 212.895 144.812 212.642 144.539C212.135 144.021 211.627 143.524 211.079 143.037L210.582 142.57C210.368 142.36 210.204 142.106 210.101 141.825C209.997 141.544 209.957 141.244 209.983 140.946C209.983 140.581 210.064 140.225 210.125 139.87C210.186 139.515 210.216 139.373 210.257 139.119C210.353 138.656 210.424 138.189 210.47 137.718C210.504 137.568 210.484 137.41 210.413 137.273C210.343 137.136 210.226 137.027 210.084 136.967C208.948 136.531 207.74 136.084 206.156 135.546C206.021 135.489 205.869 135.486 205.732 135.537C205.594 135.588 205.481 135.689 205.415 135.82C205.162 136.155 204.928 136.51 204.705 136.835L204.157 137.688L203.558 138.601C203.421 138.817 203.235 138.998 203.014 139.127C202.793 139.256 202.545 139.33 202.289 139.342H201.274C200.665 139.342 200.056 139.342 199.437 139.434C199.013 139.478 198.585 139.401 198.204 139.21C197.823 139.02 197.504 138.724 197.285 138.358C196.95 137.86 196.595 137.393 196.27 136.916C196.067 136.642 195.864 136.378 195.671 136.104C195.605 135.987 195.499 135.897 195.373 135.851C195.246 135.804 195.108 135.804 194.981 135.851C193.5 136.267 192.093 136.911 190.81 137.759C190.752 137.839 190.716 137.934 190.708 138.033C190.694 138.33 190.722 138.627 190.789 138.916C190.891 139.403 190.992 139.88 191.104 140.367C191.216 140.855 191.276 141.139 191.368 141.524C191.441 141.8 191.445 142.09 191.38 142.368C191.314 142.646 191.181 142.904 190.992 143.118C190.302 143.859 189.47 144.732 188.577 145.584C188.251 145.845 187.846 145.985 187.43 145.98C187.088 145.978 186.748 145.941 186.415 145.869L186.141 145.818L185.389 145.696C184.933 145.615 184.476 145.524 184.009 145.473C183.818 145.447 183.625 145.488 183.461 145.59C183.298 145.692 183.176 145.848 183.116 146.031C182.933 146.478 182.75 146.924 182.588 147.371L181.979 149.147L181.705 150.162C181.918 150.539 182.24 150.844 182.629 151.035L183.958 151.888L184.872 152.466C185.098 152.607 185.286 152.803 185.417 153.035C185.548 153.267 185.619 153.529 185.623 153.796L185.674 154.811C185.674 155.369 185.674 155.927 185.755 156.475C185.804 156.959 185.714 157.446 185.494 157.88C185.275 158.314 184.936 158.675 184.517 158.922C183.908 159.307 183.268 159.764 182.487 160.343C182.04 160.678 181.999 160.83 182.192 161.358C182.568 162.291 183.085 163.52 183.654 164.738C184.019 165.509 184.131 165.57 185.024 165.407L185.877 165.215L187.602 164.809C187.779 164.768 187.959 164.747 188.14 164.748ZM201.031 163.915C198.67 163.899 196.412 162.952 194.747 161.279C193.082 159.606 192.144 157.344 192.139 154.983C192.14 153.809 192.374 152.647 192.829 151.565C193.284 150.483 193.95 149.502 194.788 148.68C196.431 147.024 198.648 146.065 200.98 146.001C202.163 145.987 203.336 146.209 204.432 146.653C205.529 147.097 206.525 147.755 207.365 148.588C208.205 149.421 208.87 150.413 209.323 151.506C209.776 152.598 210.007 153.77 210.003 154.953C210.036 156.086 209.84 157.215 209.429 158.271C209.017 159.328 208.398 160.291 207.608 161.104C206.771 161.998 205.758 162.709 204.633 163.193C203.508 163.677 202.296 163.923 201.071 163.915H201.031ZM200.929 147.016C198.871 147.073 196.917 147.928 195.479 149.401C194.736 150.129 194.146 150.997 193.744 151.956C193.341 152.914 193.134 153.944 193.134 154.983C193.137 157.075 193.966 159.081 195.441 160.564C196.917 162.047 198.918 162.887 201.01 162.9C202.099 162.91 203.178 162.694 204.178 162.266C205.179 161.838 206.081 161.207 206.826 160.414C207.525 159.7 208.072 158.854 208.437 157.924C208.801 156.995 208.975 156.002 208.948 155.004C208.954 153.952 208.752 152.91 208.351 151.939C207.95 150.967 207.36 150.084 206.614 149.344C205.868 148.603 204.982 148.018 204.008 147.623C203.034 147.229 201.99 147.033 200.939 147.046L200.929 147.016Z" fill="#231F20"/>
<path d="M97.9166 184.466C98.4241 182.436 98.9316 180.406 99.429 178.376C99.703 177.361 100.028 176.346 100.353 175.271C100.519 174.622 100.904 174.051 101.441 173.652C101.979 173.252 102.637 173.05 103.306 173.078C104.92 173.078 106.524 173.322 108.128 173.444C108.989 173.557 109.858 173.594 110.726 173.555C111.363 173.517 111.968 173.263 112.441 172.835C114.116 170.937 115.71 168.967 117.273 166.988C117.536 166.621 117.703 166.194 117.76 165.745C117.817 165.297 117.761 164.842 117.597 164.42C117.029 162.532 116.4 160.665 115.842 158.767C115.592 158.041 115.455 157.281 115.436 156.513C115.431 156.231 115.483 155.95 115.589 155.689C115.696 155.427 115.854 155.19 116.055 154.991C118.823 152.82 121.903 151.079 125.19 149.825C125.674 149.623 126.212 149.587 126.718 149.723C127.225 149.859 127.673 150.159 127.991 150.576C129.351 152.139 130.762 153.621 132.051 155.255C132.484 155.866 133.084 156.339 133.779 156.618C134.473 156.897 135.234 156.97 135.969 156.828C138.06 156.493 140.171 156.27 142.272 155.986C142.657 155.93 143.022 155.782 143.337 155.554C143.652 155.326 143.907 155.025 144.079 154.676C144.728 153.499 145.337 152.301 145.977 151.114C146.535 150.099 147.073 149.084 147.662 148.069C147.914 147.565 148.334 147.166 148.849 146.938C149.363 146.71 149.941 146.668 150.483 146.82C153.528 147.571 156.492 148.353 159.476 149.216C160.041 149.386 160.529 149.745 160.86 150.233C161.191 150.721 161.344 151.308 161.293 151.895C161.293 153.529 161.039 155.153 160.928 156.787C160.867 157.559 160.816 158.33 160.826 159.102C160.809 159.597 160.908 160.089 161.116 160.539C161.324 160.988 161.635 161.383 162.024 161.69C163.689 163.009 165.374 164.298 166.977 165.679C167.445 166.102 168.019 166.389 168.638 166.509C169.257 166.629 169.897 166.577 170.489 166.359C172.519 165.73 174.549 165.039 176.579 164.41C177.243 164.121 177.993 164.102 178.671 164.356C179.349 164.609 179.902 165.117 180.213 165.77C181.624 168.155 182.984 170.571 184.273 172.997C185.227 174.773 185.034 175.859 183.552 177.25C182.537 178.194 181.461 179.036 180.436 179.94C179.695 180.599 178.975 181.269 178.284 181.97C177.99 182.258 177.766 182.61 177.63 182.999C177.495 183.389 177.451 183.804 177.503 184.213C177.736 186.395 177.96 188.577 178.254 190.749C178.322 191.345 178.546 191.913 178.902 192.396C179.258 192.878 179.735 193.259 180.284 193.5C181.532 194.109 182.801 194.698 184.05 195.317C184.831 195.692 185.59 196.112 186.323 196.575C186.852 196.86 187.264 197.319 187.491 197.875C187.717 198.431 187.742 199.048 187.561 199.62C186.831 202.341 186.069 205.051 185.298 207.74C185.157 208.151 184.973 208.546 184.75 208.918C184.565 209.366 184.244 209.745 183.832 210.001C183.421 210.258 182.94 210.379 182.456 210.349C180.538 210.207 178.619 210.044 176.701 209.892C176.559 209.892 176.407 209.892 176.264 209.892C175.453 209.743 174.615 209.845 173.862 210.184C173.109 210.523 172.478 211.083 172.052 211.79C171.098 213.14 170.022 214.389 168.946 215.678C168.455 216.248 168.13 216.942 168.004 217.685C167.879 218.427 167.959 219.19 168.236 219.89C168.865 221.687 169.474 223.483 170.012 225.31C170.55 227.137 170.266 228.122 168.55 229.137C166.084 230.588 163.577 231.979 161.05 233.318C160.495 233.687 159.819 233.83 159.162 233.717C158.505 233.603 157.917 233.243 157.517 232.709C156.391 231.522 155.345 230.253 154.29 229.005C152.006 226.325 151.478 226.112 147.987 226.589L143.927 227.178C143.276 227.242 142.654 227.474 142.12 227.851C141.586 228.229 141.159 228.738 140.882 229.329C140.171 230.781 139.491 232.243 138.74 233.674C138.335 234.412 137.863 235.112 137.329 235.765C137.097 236.094 136.768 236.343 136.387 236.476C136.007 236.609 135.594 236.619 135.208 236.506C132.366 235.714 129.514 234.932 126.672 234.13C126.28 233.998 125.906 233.821 125.555 233.603C125.111 233.407 124.739 233.076 124.493 232.657C124.247 232.238 124.139 231.752 124.185 231.268C124.317 229.37 124.479 227.472 124.611 225.574C124.642 224.996 124.642 224.416 124.611 223.838C124.619 223.368 124.517 222.903 124.315 222.478C124.112 222.054 123.814 221.682 123.444 221.392C121.82 220.144 120.216 218.875 118.612 217.606C118.155 217.229 117.605 216.981 117.02 216.888C116.434 216.795 115.835 216.861 115.283 217.078C113.477 217.698 111.67 218.256 109.853 218.845C109.787 218.869 109.719 218.89 109.65 218.905C107.275 219.555 106.463 219.311 105.225 217.18C103.844 214.815 102.565 212.379 101.327 209.943C100.566 208.441 100.759 207.537 102.027 206.39C103.296 205.244 104.808 203.934 106.27 202.797C106.99 202.305 107.549 201.611 107.876 200.802C108.203 199.992 108.283 199.105 108.107 198.25C107.813 196.301 107.59 194.332 107.316 192.383C107.275 191.973 107.134 191.579 106.903 191.237C106.673 190.895 106.361 190.616 105.996 190.425C104.26 189.521 102.525 188.638 100.809 187.714C99.6068 187.252 98.6071 186.378 97.9877 185.248L97.9166 184.466ZM161.415 190.049C161.207 187.583 160.513 185.183 159.372 182.988C158.231 180.792 156.667 178.844 154.769 177.257C152.871 175.669 150.677 174.474 148.315 173.739C145.952 173.004 143.467 172.745 141.003 172.977C132.386 173.677 123.261 182.112 124.236 193.277C124.682 198.183 127.042 202.715 130.805 205.895C134.568 209.075 139.431 210.645 144.343 210.268C156.33 209.263 162.643 198.26 161.415 190.049Z" fill="#3766E8"/>
<path d="M135.736 237.036C135.502 237.037 135.269 237.002 135.045 236.935L132.721 236.295C130.691 235.717 128.57 235.148 126.499 234.559C126.144 234.439 125.803 234.279 125.484 234.082L125.322 233.991C124.791 233.748 124.348 233.346 124.056 232.84C123.763 232.335 123.634 231.751 123.688 231.169C123.748 230.317 123.809 229.454 123.88 228.601C123.962 227.586 124.043 226.521 124.114 225.485C124.145 224.924 124.145 224.362 124.114 223.8C124.115 223.406 124.023 223.018 123.847 222.665C123.671 222.313 123.415 222.006 123.099 221.77C121.637 220.654 120.186 219.507 118.744 218.37L118.257 217.984C117.867 217.659 117.395 217.446 116.892 217.369C116.389 217.292 115.875 217.354 115.405 217.548C114.136 217.974 112.857 218.391 111.579 218.797L109.975 219.304L109.741 219.385C107.102 220.106 106.077 219.7 104.748 217.416C103.225 214.797 101.855 212.158 100.83 210.149C100.401 209.486 100.246 208.683 100.397 207.909C100.549 207.135 100.995 206.449 101.642 205.997C103.245 204.546 104.606 203.399 105.925 202.384C106.568 201.944 107.067 201.324 107.36 200.602C107.652 199.88 107.725 199.087 107.569 198.324C107.376 197.106 107.224 195.878 107.062 194.66C106.97 193.919 106.879 193.178 106.778 192.437C106.742 192.108 106.626 191.792 106.44 191.518C106.254 191.244 106.004 191.019 105.712 190.864L103.56 189.747L100.515 188.154C99.2068 187.646 98.1256 186.684 97.4701 185.444C97.4643 185.39 97.4643 185.335 97.4701 185.281V184.591C97.455 184.528 97.455 184.462 97.4701 184.398L97.9065 182.591C98.2618 181.17 98.6069 179.739 98.9824 178.318C99.2666 177.222 99.5914 176.156 99.9162 175.172C100.113 174.436 100.549 173.788 101.155 173.328C101.762 172.868 102.505 172.624 103.266 172.634H103.357C104.433 172.634 105.519 172.766 106.564 172.858L108.209 173L108.858 173.061C109.473 173.121 110.091 173.121 110.706 173.061C111.219 173.033 111.71 172.841 112.106 172.512C113.883 170.482 115.537 168.452 116.917 166.686C117.129 166.383 117.261 166.033 117.301 165.666C117.342 165.299 117.29 164.927 117.151 164.585C116.907 163.743 116.633 162.921 116.369 162.088C116.034 161.073 115.71 159.987 115.354 158.922C115.094 158.145 114.951 157.335 114.928 156.516C114.927 156.157 114.999 155.802 115.141 155.472C115.282 155.142 115.489 154.844 115.75 154.598C118.56 152.394 121.688 150.628 125.027 149.36C125.608 149.125 126.25 149.085 126.856 149.246C127.462 149.407 127.999 149.761 128.387 150.254C128.864 150.802 129.341 151.35 129.828 151.888C130.711 152.903 131.625 153.918 132.477 154.933C132.853 155.475 133.379 155.895 133.99 156.142C134.601 156.39 135.272 156.452 135.918 156.323C137.278 156.11 138.669 155.938 139.978 155.775L142.201 155.491C142.505 155.453 142.794 155.34 143.044 155.163C143.294 154.986 143.496 154.75 143.632 154.476C144.018 153.776 144.394 153.075 144.759 152.365C145.023 151.888 145.277 151.35 145.53 150.913L145.835 150.365C146.281 149.523 146.738 148.68 147.225 147.868C147.532 147.27 148.036 146.795 148.651 146.523C149.266 146.252 149.956 146.2 150.605 146.376C154.239 147.29 157.02 148.031 159.608 148.782C160.285 148.976 160.873 149.399 161.272 149.978C161.672 150.558 161.859 151.257 161.801 151.959C161.801 153.055 161.679 154.171 161.577 155.237C161.517 155.785 161.466 156.333 161.425 156.882C161.374 157.602 161.324 158.374 161.334 159.145C161.316 159.566 161.399 159.986 161.576 160.369C161.752 160.752 162.017 161.087 162.349 161.347L163.506 162.251C164.765 163.266 166.074 164.281 167.322 165.296C167.725 165.667 168.224 165.918 168.762 166.02C169.3 166.122 169.856 166.072 170.367 165.874C171.382 165.57 172.397 165.245 173.362 164.92L176.488 163.905C177.261 163.577 178.132 163.56 178.918 163.856C179.705 164.153 180.346 164.741 180.71 165.499C182.121 167.884 183.501 170.32 184.77 172.736C185.785 174.695 185.592 176.055 183.958 177.608C183.359 178.166 182.72 178.704 182.101 179.212C181.674 179.577 181.238 179.932 180.822 180.308C180.04 180.998 179.35 181.647 178.701 182.338C178.458 182.573 178.274 182.861 178.162 183.18C178.051 183.499 178.017 183.84 178.061 184.175L178.203 185.484C178.386 187.22 178.579 188.966 178.802 190.701C178.857 191.211 179.046 191.697 179.348 192.11C179.651 192.524 180.058 192.85 180.528 193.056L182.101 193.817C182.832 194.162 183.573 194.518 184.303 194.883C185.097 195.267 185.87 195.694 186.618 196.162C187.241 196.5 187.727 197.044 187.992 197.702C188.257 198.36 188.284 199.09 188.069 199.765C187.338 202.485 186.577 205.196 185.806 207.885C185.672 208.297 185.491 208.692 185.268 209.063V209.164C185.02 209.696 184.614 210.137 184.105 210.428C183.596 210.719 183.009 210.845 182.426 210.788L178.457 210.473L176.528 210.321H176.204C175.485 210.19 174.744 210.281 174.078 210.582C173.413 210.883 172.855 211.38 172.479 212.006C171.799 212.97 171.037 213.884 170.296 214.777C169.972 215.153 169.657 215.538 169.342 215.924C168.909 216.428 168.623 217.041 168.516 217.696C168.408 218.351 168.484 219.024 168.733 219.639C169.322 221.354 169.951 223.202 170.509 225.09C171.149 227.262 170.723 228.368 168.814 229.495C166.561 230.824 164.105 232.194 161.293 233.687C160.645 234.12 159.855 234.287 159.086 234.155C158.317 234.023 157.629 233.601 157.162 232.976C156.228 231.961 155.335 230.946 154.472 229.931L153.914 229.271C151.742 226.724 151.356 226.571 148.058 227.028L145.713 227.363L143.988 227.617C143.418 227.667 142.872 227.867 142.403 228.194C141.935 228.522 141.561 228.967 141.318 229.484C141.074 229.972 140.841 230.499 140.608 230.946C140.141 231.961 139.674 232.885 139.166 233.839C138.749 234.607 138.26 235.335 137.705 236.011C137.478 236.323 137.183 236.577 136.841 236.755C136.499 236.933 136.121 237.029 135.736 237.036ZM116.552 216.289C117.415 216.294 118.25 216.595 118.917 217.142L119.404 217.538C120.846 218.675 122.287 219.811 123.748 220.928C124.181 221.263 124.53 221.694 124.766 222.187C125.002 222.681 125.12 223.223 125.109 223.77C125.14 224.362 125.14 224.955 125.109 225.546C125.037 226.561 124.956 227.637 124.875 228.683C124.804 229.535 124.743 230.388 124.682 231.24C124.64 231.628 124.725 232.019 124.925 232.354C125.124 232.689 125.428 232.95 125.789 233.098L125.951 233.189C126.217 233.35 126.5 233.483 126.793 233.585L133.015 235.321L135.34 235.96C135.631 236.045 135.942 236.035 136.226 235.931C136.511 235.827 136.755 235.634 136.923 235.382C137.443 234.752 137.898 234.072 138.283 233.352C138.781 232.418 139.237 231.454 139.704 230.499C139.938 230.002 140.171 229.484 140.415 229.028C140.731 228.361 141.214 227.788 141.817 227.363C142.419 226.938 143.122 226.676 143.856 226.602L145.581 226.348L147.936 226.013C151.6 225.506 152.29 225.77 154.696 228.601L155.264 229.271C156.107 230.286 156.99 231.301 157.903 232.316C158.228 232.769 158.717 233.076 159.266 233.171C159.815 233.266 160.379 233.141 160.837 232.824C163.618 231.342 166.064 229.972 168.307 228.652C169.809 227.769 170.053 227.13 169.545 225.404C169.038 223.679 168.368 221.71 167.779 220.004C167.473 219.224 167.386 218.376 167.525 217.55C167.664 216.724 168.026 215.951 168.571 215.315L169.525 214.158C170.256 213.285 171.007 212.382 171.667 211.448C172.146 210.667 172.85 210.048 173.687 209.673C174.523 209.299 175.454 209.185 176.356 209.347H176.579L178.548 209.499L182.517 209.814C182.905 209.857 183.296 209.774 183.633 209.576C183.97 209.379 184.233 209.078 184.384 208.718L184.445 208.616C184.628 208.311 184.777 207.988 184.892 207.652C185.663 204.942 186.415 202.242 187.155 199.532C187.318 199.065 187.305 198.554 187.118 198.097C186.931 197.639 186.584 197.265 186.14 197.045C185.423 196.594 184.681 196.184 183.918 195.817C183.197 195.451 182.466 195.106 181.735 194.802L180.152 194.041C179.534 193.759 178.998 193.322 178.598 192.772C178.198 192.223 177.947 191.579 177.868 190.904C177.635 189.158 177.452 187.413 177.259 185.667L177.117 184.358C177.058 183.872 177.112 183.38 177.274 182.919C177.436 182.458 177.702 182.04 178.051 181.698C178.711 181.018 179.421 180.338 180.223 179.668C180.649 179.293 181.086 178.927 181.522 178.562C182.131 178.054 182.75 177.547 183.329 176.989C184.638 175.75 184.791 174.898 183.948 173.345C182.639 170.939 181.268 168.513 179.888 166.128C179.763 165.853 179.585 165.606 179.364 165.4C179.143 165.194 178.884 165.034 178.601 164.929C178.317 164.825 178.016 164.777 177.715 164.789C177.413 164.802 177.117 164.874 176.843 165.002C175.828 165.316 174.762 165.651 173.727 166.017L170.682 166.981C170.01 167.225 169.285 167.281 168.584 167.143C167.883 167.005 167.233 166.679 166.703 166.199C165.475 165.184 164.176 164.169 162.917 163.154L161.76 162.241C161.309 161.888 160.948 161.434 160.706 160.916C160.465 160.397 160.349 159.828 160.37 159.257C160.37 158.445 160.37 157.653 160.471 156.902C160.471 156.354 160.562 155.795 160.613 155.247C160.715 154.232 160.816 153.106 160.837 152.04C160.874 151.566 160.751 151.094 160.488 150.698C160.225 150.302 159.836 150.006 159.385 149.858C156.797 149.107 154.026 148.376 150.412 147.462C149.976 147.334 149.508 147.366 149.093 147.552C148.678 147.738 148.343 148.066 148.149 148.477C147.662 149.279 147.225 150.111 146.779 150.944L146.474 151.492L145.713 152.933C145.337 153.644 144.962 154.354 144.566 155.065C144.345 155.471 144.03 155.819 143.646 156.079C143.263 156.339 142.823 156.502 142.364 156.557L140.141 156.841C138.801 157.003 137.42 157.176 136.081 157.389C135.259 157.553 134.408 157.475 133.63 157.165C132.852 156.855 132.18 156.327 131.696 155.643C130.853 154.628 129.95 153.613 129.067 152.598L127.616 150.954C127.364 150.615 127.006 150.371 126.6 150.261C126.193 150.15 125.76 150.18 125.372 150.345C122.129 151.573 119.091 153.284 116.359 155.42C116.087 155.732 115.939 156.133 115.943 156.547C115.967 157.265 116.097 157.977 116.329 158.658C116.633 159.673 116.968 160.759 117.344 161.804C117.608 162.637 117.872 163.469 118.125 164.311C118.316 164.813 118.378 165.355 118.306 165.887C118.233 166.419 118.028 166.924 117.709 167.356C116.329 169.112 114.664 171.193 112.868 173.223C112.307 173.735 111.594 174.048 110.838 174.116C110.161 174.16 109.481 174.14 108.808 174.055H108.188L106.433 173.812C105.418 173.72 104.342 173.619 103.296 173.588C102.736 173.56 102.184 173.729 101.737 174.067C101.29 174.405 100.976 174.889 100.85 175.436C100.535 176.451 100.211 177.466 99.9365 178.481C99.561 179.902 99.2159 181.323 98.8708 182.744L98.4445 184.469V185.017C99.0296 185.989 99.9175 186.741 100.972 187.159L104.017 188.752L106.179 189.879C106.617 190.106 106.991 190.438 107.269 190.846C107.548 191.253 107.72 191.723 107.772 192.214C107.874 192.955 107.965 193.696 108.067 194.437C108.219 195.655 108.371 196.862 108.564 198.08C108.76 199.032 108.671 200.02 108.311 200.922C107.95 201.825 107.332 202.601 106.534 203.155C105.235 204.17 103.895 205.287 102.312 206.718C101.205 207.733 101.073 208.383 101.723 209.662C102.738 211.692 104.108 214.28 105.61 216.878C106.707 218.766 107.255 218.979 109.467 218.37L109.65 218.309L111.254 217.792C112.533 217.386 113.801 216.98 115.07 216.553C115.546 216.385 116.047 216.296 116.552 216.289ZM142.77 210.859C137.982 210.842 133.374 209.035 129.851 205.793C126.327 202.552 124.144 198.11 123.728 193.34C123.511 190.826 123.8 188.295 124.578 185.894C125.355 183.494 126.606 181.273 128.255 179.364C130.671 176.431 133.91 174.289 137.554 173.212C141.198 172.136 145.081 172.176 148.702 173.325C152.324 174.475 155.518 176.682 157.874 179.663C160.231 182.644 161.64 186.262 161.923 190.052C162.199 192.468 161.987 194.915 161.3 197.248C160.613 199.58 159.465 201.752 157.923 203.632C156.287 205.705 154.239 207.415 151.909 208.655C149.578 209.896 147.016 210.639 144.383 210.839C143.849 210.846 143.311 210.849 142.77 210.849V210.859ZM142.638 173.446C142.11 173.446 141.623 173.446 141.044 173.507C136.331 174.032 132.007 176.369 128.986 180.023C127.439 181.832 126.266 183.929 125.536 186.195C124.806 188.46 124.533 190.847 124.733 193.218C125.06 196.843 126.464 200.287 128.766 203.106C131.067 205.925 134.16 207.99 137.646 209.035C141.132 210.08 144.852 210.058 148.324 208.97C151.797 207.882 154.865 205.779 157.132 202.932C158.587 201.159 159.672 199.111 160.323 196.911C160.973 194.711 161.175 192.403 160.918 190.123C160.555 185.542 158.465 181.27 155.071 178.171C151.677 175.073 147.233 173.381 142.638 173.436V173.446Z" fill="#231F20"/>
<path d="M113.356 58.0094C113.763 57.5534 113.723 56.8541 113.267 56.4473C112.811 56.0406 112.111 56.0806 111.705 56.5366L105.428 63.5736C105.021 64.0296 105.061 64.729 105.517 65.1357C105.973 65.5424 106.673 65.5024 107.079 65.0464L113.356 58.0094Z" fill="#231F20"/>
<path d="M106.26 65.9249C105.864 65.9244 105.482 65.7801 105.184 65.5189C105.026 65.3773 104.898 65.2056 104.808 65.0138C104.717 64.8221 104.666 64.6142 104.656 64.4024C104.64 64.1919 104.668 63.9804 104.738 63.7812C104.807 63.582 104.918 63.3995 105.062 63.2453L111.335 56.2012C111.622 55.8873 112.021 55.6993 112.445 55.6778C112.87 55.6564 113.286 55.8034 113.602 56.0868C113.919 56.3702 114.112 56.7672 114.137 57.1915C114.163 57.6158 114.021 58.0332 113.74 58.353L107.468 65.3869C107.328 65.548 107.157 65.6788 106.965 65.7713C106.773 65.8638 106.564 65.9161 106.351 65.9249H106.26ZM112.543 56.6782C112.458 56.6773 112.374 56.695 112.297 56.7301C112.22 56.7651 112.151 56.8168 112.096 56.8812L105.813 63.9152C105.712 64.038 105.658 64.1927 105.661 64.3516C105.666 64.4295 105.686 64.5056 105.721 64.5754C105.756 64.6451 105.805 64.7071 105.864 64.7576C105.984 64.8628 106.141 64.9174 106.301 64.9099C106.455 64.8987 106.6 64.8299 106.707 64.717L113.03 57.6729C113.13 57.5541 113.181 57.4017 113.172 57.2466C113.17 57.1678 113.152 57.0902 113.119 57.0186C113.086 56.9471 113.038 56.883 112.979 56.8305C112.859 56.7244 112.703 56.6697 112.543 56.6782Z" fill="#231F20"/>
<path d="M113.274 56.9632C113.15 56.9607 113.031 56.9139 112.939 56.8312C112.891 56.784 112.853 56.7279 112.828 56.6661C112.802 56.6042 112.789 56.5379 112.789 56.4709C112.789 56.4039 112.802 56.3376 112.828 56.2757C112.853 56.2139 112.891 56.1577 112.939 56.1106L119.029 49.3304C119.072 49.2764 119.126 49.2319 119.187 49.1996C119.248 49.1672 119.315 49.1477 119.384 49.1422C119.453 49.1367 119.523 49.1454 119.588 49.1677C119.654 49.19 119.714 49.2255 119.765 49.2719C119.816 49.3183 119.858 49.3748 119.886 49.4377C119.915 49.5007 119.93 49.5688 119.932 49.638C119.933 49.7071 119.92 49.7759 119.894 49.8399C119.868 49.9039 119.829 49.962 119.78 50.0104L113.69 56.7906C113.638 56.8495 113.574 56.8957 113.502 56.9256C113.43 56.9555 113.352 56.9684 113.274 56.9632Z" fill="#231F20"/>
<path d="M119.516 50.6996L118.369 50.73L118.278 49.5932L120.45 47.4414L120.927 47.8677L121.404 48.294L119.516 50.6996Z" fill="#231F20"/>
<path d="M99.835 63.3794L104.057 61.9482C104.057 61.9482 107.59 57.3503 108.869 57.3909C110.147 57.4315 107.691 60.8622 107.854 60.9637C108.016 61.0652 113.558 58.3044 113.852 59.6848C114.147 61.0652 112.573 63.7448 111.589 64.4045C110.604 65.0643 99.8046 69.4795 99.8046 69.4795L99.835 63.3794Z" fill="white"/>
<path d="M99.835 70.0156C99.733 70.0164 99.6334 69.9843 99.5508 69.9243C99.482 69.8788 99.4256 69.817 99.3866 69.7444C99.3477 69.6717 99.3273 69.5906 99.3275 69.5081V63.4181C99.3268 63.3122 99.3598 63.2088 99.4219 63.123C99.484 63.0372 99.5718 62.9735 99.6726 62.9411L103.733 61.5505C104.687 60.3122 107.458 56.9221 108.808 56.9221C108.957 56.9185 109.105 56.9553 109.235 57.0285C109.366 57.1017 109.474 57.2087 109.549 57.3383C109.884 57.927 109.478 58.8506 108.808 60.0889C110.949 59.2262 112.868 58.5157 113.812 58.9826C113.936 59.0456 114.044 59.1358 114.128 59.2465C114.213 59.3572 114.271 59.4856 114.299 59.622C114.654 61.2866 112.888 64.1185 111.832 64.8493C110.777 65.5801 101.053 69.5589 99.9467 70.0156C99.9096 70.0204 99.8721 70.0204 99.835 70.0156ZM100.343 63.7429V68.7469C104.646 66.9808 110.675 64.4331 111.325 63.9865C112.198 63.3775 113.619 60.9415 113.355 59.7844C113.04 59.622 111.589 60.0382 109.072 61.0633C108.057 61.4896 107.884 61.5404 107.63 61.4186C107.508 61.3474 107.415 61.2362 107.366 61.1039C107.275 60.8197 107.366 60.6066 107.793 59.8859C108.161 59.2627 108.464 58.6028 108.696 57.9168C107.985 58.1604 106.128 60.0382 104.433 62.2509C104.37 62.3311 104.286 62.3911 104.189 62.4234L100.343 63.7429Z" fill="#231F20"/>
<path d="M33.4236 142.344C33.4236 142.587 32.8451 148.434 33.4236 148.434C34.0022 148.434 39.0975 149.449 39.0975 149.449V142.344H33.4236Z" fill="white"/>
<path d="M39.0974 149.959H39.0061C36.5498 149.492 33.7687 148.944 33.4236 148.944C33.2572 148.932 33.0999 148.864 32.977 148.751C32.6928 148.437 32.4796 147.736 32.8856 142.753C32.8856 142.519 32.8856 142.357 32.8856 142.306C32.8908 142.174 32.9462 142.049 33.0406 141.956C33.1349 141.864 33.261 141.811 33.3931 141.809H39.067C39.2016 141.809 39.3306 141.862 39.4258 141.957C39.521 142.052 39.5745 142.181 39.5745 142.316V149.421C39.5733 149.496 39.5565 149.57 39.525 149.638C39.4936 149.707 39.4482 149.767 39.3918 149.817C39.3112 149.894 39.2081 149.944 39.0974 149.959ZM33.7281 147.99C34.6923 148.112 37.2907 148.589 38.5899 148.843V142.854H33.86C33.6541 144.558 33.6099 146.278 33.7281 147.99Z" fill="#231F20"/>
<path d="M29.5665 73.75C29.4853 74.3387 31.7894 129.727 33.0987 143.673C33.0987 143.673 38.5391 144.983 39.1887 144.983C39.8383 144.983 48.6283 85.5037 48.6283 85.5037L29.5665 73.75Z" fill="#231F20"/>
<path d="M39.1989 145.494C38.5188 145.494 33.9006 144.398 32.9769 144.174C32.8741 144.149 32.7816 144.093 32.7125 144.013C32.6433 143.933 32.6009 143.833 32.5912 143.728C31.3428 130.401 28.9474 74.4945 29.0692 73.6927C29.0811 73.61 29.1133 73.5315 29.1629 73.4642C29.2125 73.3969 29.2779 73.3429 29.3534 73.307C29.4283 73.267 29.512 73.2461 29.597 73.2461C29.6819 73.2461 29.7656 73.267 29.8406 73.307L48.8921 85.0505C48.9765 85.1035 49.0441 85.1793 49.0872 85.2691C49.1303 85.3589 49.1472 85.4591 49.1357 85.558C49.1357 85.7103 46.9129 100.6 44.6596 115.308C40.0413 145.494 39.8282 145.494 39.1989 145.494ZM33.5656 143.271C35.7174 143.778 37.991 144.286 38.8639 144.438C39.8079 140.774 44.8017 107.949 48.0801 85.7509L30.0943 74.6671C30.2973 81.8837 32.3781 130.167 33.5656 143.271Z" fill="#231F20"/>
<path d="M48.6181 115.051C48.6181 115.051 44.6191 119.791 44.1217 121.669L49.9275 122.399C49.9275 122.399 55.236 116.441 55.4796 116.36C55.7232 116.279 48.6181 115.051 48.6181 115.051Z" fill="white"/>
<path d="M49.9275 122.91H49.8666L44.0608 122.169C43.9893 122.162 43.9203 122.14 43.8588 122.103C43.7973 122.066 43.7449 122.016 43.7055 121.956C43.6645 121.895 43.6369 121.827 43.6247 121.755C43.6124 121.683 43.6158 121.61 43.6345 121.539C44.1521 119.57 48.07 114.922 48.2324 114.719C48.2904 114.651 48.3648 114.6 48.4484 114.57C48.5319 114.54 48.6218 114.531 48.7095 114.546C55.9566 115.805 55.9566 115.805 55.9972 116.312C56.0008 116.406 55.9803 116.499 55.9376 116.583C55.895 116.666 55.8316 116.737 55.7536 116.789C55.3374 117.145 52.2011 120.616 50.303 122.747C50.2547 122.798 50.1965 122.839 50.132 122.867C50.0674 122.895 49.9978 122.91 49.9275 122.91ZM44.8525 121.245L49.7448 121.864C52.4345 118.819 53.8048 117.368 54.5051 116.627C53.2161 116.373 50.6684 115.916 48.8414 115.612C47.3273 117.357 45.9846 119.243 44.8322 121.245H44.8525Z" fill="#231F20"/>
<path d="M32.0026 63.7031C32.0026 63.7031 27.2118 77.4361 30.267 82.8765C33.3221 88.3169 64.3101 94.4272 64.3101 94.4272L46.8013 115.742L52.8913 117.924C52.8913 117.924 80.0629 110.728 82.3263 100.923C84.5898 91.1183 56.9513 73.711 56.9513 73.711" fill="#231F20"/>
<path d="M52.81 118.472H52.6375L46.5475 116.29C46.472 116.263 46.4039 116.219 46.3491 116.161C46.2944 116.103 46.2545 116.032 46.2328 115.955C46.2087 115.877 46.2044 115.795 46.2204 115.715C46.2363 115.635 46.272 115.561 46.3242 115.498L63.295 94.7616C58.22 93.7466 32.6724 88.2656 29.8 83.1297C26.6738 77.5472 31.3022 64.1086 31.5052 63.5402C31.5512 63.4135 31.6448 63.3098 31.7661 63.251C31.8874 63.1922 32.0269 63.1831 32.1548 63.2256C32.2182 63.2471 32.2767 63.2812 32.3266 63.3259C32.3766 63.3705 32.417 63.4248 32.4454 63.4855C32.4739 63.5462 32.4898 63.6119 32.4921 63.6789C32.4945 63.7459 32.4833 63.8126 32.4593 63.8752C32.4593 64.0071 27.7801 77.4457 30.683 82.6324C33.0886 86.936 55.7941 92.2444 64.3303 93.9293C64.4166 93.947 64.4971 93.9859 64.5644 94.0427C64.6318 94.0994 64.6839 94.1721 64.716 94.2541C64.7446 94.3379 64.7512 94.4276 64.7352 94.5147C64.7192 94.6018 64.6811 94.6833 64.6246 94.7515L47.6031 115.549L52.8303 117.437C55.0126 116.838 79.6669 109.875 81.7578 100.852C83.9198 91.5035 56.8497 74.35 56.5757 74.1774C56.4613 74.1061 56.3799 73.9922 56.3494 73.8609C56.319 73.7295 56.3419 73.5915 56.4133 73.4771C56.4846 73.3627 56.5985 73.2813 56.7298 73.2508C56.8612 73.2204 56.9992 73.2433 57.1136 73.3147C58.2606 74.0353 85.0667 91.0366 82.7525 101.085C80.4383 111.134 54.0686 118.157 52.942 118.452L52.81 118.472Z" fill="#231F20"/>
<path d="M63.6605 29.4259C61.5457 28.8743 59.6222 27.7546 58.0983 26.188C57.3928 25.5022 56.9146 24.6166 56.728 23.6505C56.6487 23.1686 56.7274 22.6738 56.9524 22.2403C57.1774 21.8067 57.5367 21.4576 57.9765 21.245C57.5203 20.9466 57.1429 20.5427 56.8761 20.0674C56.6093 19.5921 56.461 19.0594 56.4438 18.5146C56.4091 17.4524 56.6615 16.4004 57.1746 15.4696C57.4259 14.8255 57.8374 14.2562 58.3703 13.8157C58.9032 13.3752 59.5397 13.078 60.2196 12.9524C59.702 11.9374 59.2046 10.6382 59.6309 9.55219C59.9082 9.01932 60.3083 8.56007 60.7982 8.21239C61.7077 7.46738 62.6865 6.81139 63.7214 6.25344C63.9707 6.06061 64.268 5.93975 64.5812 5.90396C64.8943 5.86817 65.2113 5.91884 65.4976 6.05045C65.782 4.95127 66.368 3.95348 67.1894 3.16971C68.0109 2.38594 69.035 1.8474 70.1463 1.61489C71.2503 1.35957 72.408 1.48105 73.4349 1.95999C74.4042 2.63558 75.3112 3.39648 76.145 4.2336C77.0701 3.97427 78.0433 3.93747 78.9853 4.12623C79.9274 4.31498 80.8113 4.72393 81.5651 5.31965C82.0892 5.85601 82.4599 6.52317 82.6384 7.25156C82.817 7.97995 82.7968 8.74289 82.5801 9.46085C83.7708 10.0881 84.81 10.968 85.6251 12.0389C86.0241 12.5743 86.2987 13.192 86.4286 13.847C86.5585 14.502 86.5406 15.1777 86.3762 15.8249C86.1852 16.4637 85.7898 17.0222 85.2507 17.4146C84.7117 17.807 84.0587 18.0116 83.3921 17.997C83.935 18.5541 84.2569 19.2894 84.298 20.0662C84.3391 20.843 84.0965 21.6082 83.6154 22.2194C83.1031 22.8054 82.4279 23.2255 81.6759 23.4261C80.9238 23.6268 80.1291 23.5989 79.393 23.346C79.1926 23.255 78.9733 23.2133 78.7535 23.2242C78.4969 23.3055 78.2659 23.4524 78.0836 23.6505C77.4036 24.1783 76.5611 24.0261 75.8405 24.3712C74.8604 24.9721 73.9304 25.6509 73.0594 26.4012C72.1579 27.0428 71.2228 27.6358 70.258 28.1774C69.2432 28.9198 68.1548 29.5558 67.01 30.0755C65.995 30.4104 65.3657 29.9638 64.371 29.6695L63.6605 29.4259Z" fill="white"/>
<path d="M66.3401 30.6957C65.8507 30.674 65.3693 30.564 64.9191 30.3709C64.7096 30.2892 64.4962 30.218 64.2796 30.1577L63.5184 29.9243C61.3222 29.3427 59.3257 28.1743 57.743 26.5443C56.9427 25.7854 56.3998 24.7952 56.1901 23.7125C56.1278 23.2545 56.1754 22.7883 56.329 22.3523C56.4825 21.9164 56.7376 21.5233 57.0731 21.2054C56.3808 20.5061 55.966 19.5791 55.9059 18.5969C55.8523 17.4219 56.1264 16.2552 56.6976 15.2271C56.9605 14.6191 57.3431 14.0703 57.8227 13.6134C58.3022 13.1565 58.8689 12.8009 59.4888 12.5678C59.2278 12.0832 59.0705 11.5496 59.0268 11.0009C58.9831 10.4522 59.0541 9.90044 59.2351 9.38065C59.5358 8.77087 59.982 8.24449 60.5343 7.84801C61.4821 7.07565 62.5018 6.39588 63.5793 5.81801C64.0784 5.50232 64.6647 5.35306 65.254 5.3917C65.6356 4.32134 66.2861 3.36707 67.1428 2.62054C67.9995 1.87401 69.0338 1.36028 70.1463 1.1287C71.3568 0.851435 72.6252 0.987212 73.7496 1.5144C74.6894 2.16249 75.5754 2.88549 76.3987 3.67635C77.37 3.44925 78.3803 3.44639 79.3528 3.66798C80.3254 3.88957 81.2347 4.3298 82.0117 4.95525C82.5578 5.50687 82.9608 6.18368 83.1855 6.92671C83.4102 7.66974 83.4497 8.45643 83.3007 9.21825C84.4149 9.85199 85.3832 10.7131 86.1427 11.7456C86.586 12.3455 86.8898 13.0368 87.032 13.769C87.1742 14.5012 87.1513 15.2559 86.9649 15.9782C86.7822 16.5605 86.4573 17.0881 86.0196 17.5134C85.5819 17.9387 85.0452 18.2483 84.4578 18.4142C84.8048 19.0609 84.9569 19.7943 84.8957 20.5257C84.8344 21.2571 84.5625 21.955 84.1127 22.5351C83.5385 23.2066 82.7748 23.6889 81.9218 23.9189C81.0687 24.149 80.166 24.1159 79.3321 23.8241C79.2064 23.7694 79.0727 23.7352 78.9362 23.7226C78.8269 23.7768 78.7274 23.8488 78.6419 23.9358L78.4998 24.0474C78.051 24.3601 77.5311 24.5555 76.9874 24.6158C76.7055 24.6518 76.4292 24.7234 76.1653 24.829C75.5176 25.1872 74.9117 25.6161 74.3586 26.1079C74.0541 26.3616 73.7496 26.6052 73.4552 26.8184C72.5421 27.4697 71.5933 28.0694 70.6132 28.6149C70.258 28.8179 69.9129 29.0514 69.5982 29.295C68.8979 29.828 68.1211 30.2523 67.2942 30.5536C66.9876 30.6591 66.6641 30.7073 66.3401 30.6957ZM63.8127 28.96L64.5638 29.1732L65.2642 29.4168C65.7722 29.6762 66.3595 29.7342 66.9085 29.5792C67.6351 29.2973 68.3184 28.9146 68.9385 28.4424C69.3039 28.1886 69.6693 27.945 70.0448 27.7319C70.8974 27.2345 71.8921 26.6458 72.8056 25.9861C73.0797 25.7831 73.3639 25.5496 73.6582 25.3162C74.279 24.7701 74.9601 24.2968 75.6882 23.9053C76.0392 23.7575 76.4075 23.6552 76.7844 23.6008C77.1462 23.5649 77.4942 23.4431 77.7994 23.2456L77.9111 23.1441C78.133 22.9295 78.4109 22.7818 78.7129 22.7178C78.9896 22.6862 79.2697 22.7283 79.5249 22.8396C80.1691 23.072 80.8682 23.1063 81.532 22.9381C82.1959 22.7698 82.7942 22.4068 83.25 21.8956C83.653 21.3854 83.8575 20.7465 83.8258 20.0972C83.7941 19.4478 83.5282 18.8319 83.0774 18.3634C82.998 18.2921 82.9431 18.1976 82.9205 18.0934C82.8978 17.9891 82.9086 17.8803 82.9513 17.7826C82.994 17.6848 83.0665 17.6029 83.1584 17.5487C83.2502 17.4944 83.3569 17.4705 83.4631 17.4804C84.0147 17.4871 84.5534 17.3132 84.9969 16.9851C85.4404 16.6571 85.7644 16.1929 85.9194 15.6635C86.062 15.0897 86.075 14.4914 85.9574 13.912C85.8397 13.3326 85.5945 12.7867 85.2394 12.314C84.4777 11.3063 83.5041 10.4782 82.3872 9.88815C82.2873 9.83103 82.2098 9.74165 82.1674 9.63469C82.125 9.52772 82.1202 9.40951 82.1538 9.29945C82.3391 8.66654 82.3512 7.99549 82.1887 7.35633C82.0262 6.71717 81.6952 6.13334 81.2301 5.66575C80.5412 5.14084 79.7401 4.78247 78.8896 4.61871C78.0391 4.45495 77.1623 4.49024 76.3277 4.7218C76.2113 4.75614 76.0866 4.74854 75.9753 4.7003C75.864 4.65207 75.7732 4.56628 75.7187 4.45791C74.9353 3.73139 74.1082 3.05346 73.2421 2.42791C72.3211 1.9925 71.2789 1.88505 70.2884 2.1234C69.2697 2.33468 68.3304 2.82696 67.577 3.5445C66.8236 4.26203 66.2861 5.17617 66.0254 6.1834C66.005 6.26459 65.966 6.3399 65.9113 6.40333C65.8567 6.46677 65.788 6.51658 65.7108 6.5488C65.6326 6.57982 65.5478 6.5905 65.4644 6.57985C65.381 6.5692 65.3016 6.53756 65.2337 6.48791C64.9394 6.27476 64.4014 6.4879 63.9954 6.72135C62.9883 7.26482 62.0335 7.90021 61.1433 8.6194C60.7212 8.91847 60.3738 9.31099 60.1283 9.76635C59.7426 10.6596 60.2298 11.7964 60.7068 12.7505C60.7468 12.8254 60.7677 12.9091 60.7677 12.9941C60.7677 13.079 60.7468 13.1627 60.7068 13.2377C60.6534 13.3066 60.5837 13.3612 60.504 13.3966C60.4243 13.4321 60.3371 13.4472 60.2501 13.4407C58.8291 13.5219 57.9156 15.0342 57.5908 15.6838C57.1092 16.5444 56.8706 17.5198 56.9006 18.5055C56.9188 18.966 57.0484 19.4153 57.2782 19.8147C57.508 20.2142 57.8312 20.5521 58.2201 20.7994C58.302 20.8499 58.3681 20.9223 58.4112 21.0084C58.4542 21.0944 58.4724 21.1908 58.4637 21.2866C58.4559 21.3813 58.4212 21.4717 58.3636 21.5472C58.3061 21.6228 58.2281 21.6803 58.1389 21.7129C57.803 21.885 57.5311 22.1602 57.3631 22.4982C57.1951 22.8361 57.1397 23.219 57.2051 23.5907C57.3792 24.4502 57.8112 25.2362 58.4434 25.844C59.9115 27.3352 61.7511 28.4074 63.7721 28.9499L63.8127 28.96Z" fill="#231F20"/>
<path d="M78.7535 24.0391C78.7535 24.0391 80.3572 29.2765 79.4944 30.0073C78.6317 30.7381 76.8148 29.5607 76.8148 29.5607" fill="white"/>
<path d="M78.7637 30.758C77.9645 30.694 77.1953 30.4248 76.5307 29.9765C76.4684 29.9431 76.4139 29.8971 76.3704 29.8414C76.327 29.7858 76.2957 29.7216 76.2784 29.6532C76.2612 29.5847 76.2584 29.5134 76.2703 29.4438C76.2822 29.3742 76.3085 29.3078 76.3475 29.2489C76.3865 29.1901 76.4374 29.14 76.4968 29.1019C76.5563 29.0638 76.6231 29.0386 76.6929 29.0278C76.7626 29.0169 76.8339 29.0208 76.9021 29.0391C76.9703 29.0574 77.0339 29.0897 77.0889 29.134C77.6979 29.5299 78.7738 29.9562 79.1189 29.6212C79.464 29.2863 78.987 26.698 78.2156 24.191C78.1953 24.1277 78.1879 24.061 78.1939 23.9948C78.1998 23.9286 78.219 23.8643 78.2502 23.8056C78.2814 23.747 78.3241 23.6952 78.3757 23.6533C78.4272 23.6114 78.4867 23.5802 78.5505 23.5617C78.6138 23.5399 78.6808 23.5314 78.7475 23.5367C78.8141 23.5419 78.879 23.5609 78.938 23.5923C78.9971 23.6237 79.049 23.6669 79.0906 23.7193C79.1322 23.7717 79.1626 23.832 79.1798 23.8966C79.8193 25.9266 80.7531 29.5705 79.7685 30.4028C79.4831 30.6309 79.1291 30.756 78.7637 30.758Z" fill="#231F20"/>
<path d="M80.6312 14.1932C80.8647 14.4276 81.0084 14.7365 81.0372 15.0661C81.2051 16.2225 81.1534 17.4002 80.885 18.5374C80.4453 20.7951 79.8622 23.0225 79.1392 25.206C78.2663 28.1089 77.3223 31.0016 76.3073 33.8639C75.6679 35.6808 70.8771 34.3105 70.2173 33.5188L68.8268 41.0298C68.8268 41.0298 66.3502 40.9791 63.0108 38.066C59.6715 35.153 59.9658 34.2293 59.9658 34.2293L62.7469 25.8962C62.7469 25.8962 65.9036 26.8503 68.8369 23.6327C69.3038 23.1252 69.6997 22.2219 70.2579 21.826C70.8162 21.4302 71.7398 21.4403 72.3488 20.7197C72.6272 20.3862 72.8237 19.9922 72.9224 19.5692C73.0211 19.1461 73.0193 18.7059 72.9172 18.2837C72.9172 18.101 72.8259 17.8777 72.9172 17.7457C73.0114 17.6849 73.1199 17.6499 73.2319 17.6442C73.5387 17.5826 73.8302 17.4607 74.0895 17.2856C74.3488 17.1105 74.5709 16.8857 74.7427 16.6242C74.9145 16.3627 75.0327 16.0697 75.0905 15.7622C75.1482 15.4546 75.1444 15.1387 75.0792 14.8327C76.287 15.1879 77.4441 14.2135 78.3373 13.3203C78.0531 13.6045 80.1948 13.9598 80.2252 13.9699C80.3746 14.0154 80.5128 14.0915 80.6312 14.1932Z" fill="white"/>
<path d="M68.8065 41.5341C68.6949 41.5341 66.0965 41.4529 62.7165 38.4383C59.499 35.6268 59.367 34.4697 59.4584 34.0941L62.2598 25.7305C62.3057 25.608 62.3956 25.5069 62.5119 25.4469C62.6281 25.3869 62.7626 25.3722 62.8891 25.4057C63.0007 25.4057 65.792 26.2076 68.4919 23.2844C68.6759 23.0716 68.8423 22.8442 68.9892 22.6043C69.2511 22.1461 69.5952 21.7401 70.0042 21.4066C70.3161 21.1989 70.6586 21.0413 71.0192 20.9397C71.4047 20.8624 71.7582 20.6715 72.0342 20.3916C72.266 20.1137 72.4291 19.7851 72.5102 19.4324C72.5913 19.0797 72.5882 18.7129 72.5011 18.3616C72.4381 18.1915 72.4218 18.0077 72.454 17.8292C72.4861 17.6507 72.5655 17.484 72.6838 17.3466C72.8392 17.2097 73.0354 17.1276 73.2421 17.1132C73.4855 17.0711 73.7172 16.9779 73.9219 16.8397C74.1266 16.7015 74.2997 16.5214 74.4296 16.3113C74.5675 16.1123 74.6629 15.8871 74.7101 15.6496C74.7572 15.4121 74.7551 15.1675 74.7037 14.9309C74.6782 14.8439 74.6771 14.7515 74.7003 14.6639C74.7236 14.5762 74.7704 14.4966 74.8356 14.4336C74.9014 14.3727 74.9815 14.3296 75.0685 14.3083C75.1555 14.287 75.2465 14.2882 75.333 14.3118C76.2871 14.596 77.3021 13.7231 78.0836 12.9314C78.1308 12.8838 78.1869 12.846 78.2488 12.8203C78.3106 12.7945 78.377 12.7812 78.444 12.7812C78.5109 12.7812 78.5773 12.7945 78.6391 12.8203C78.701 12.846 78.7571 12.8838 78.8043 12.9314C78.845 12.9772 78.8792 13.0284 78.9058 13.0836C79.3722 13.2389 79.851 13.3544 80.3369 13.4287H80.5196C80.715 13.4987 80.897 13.6017 81.0576 13.7332C81.3715 14.0455 81.5746 14.4518 81.6361 14.8903C81.8151 16.11 81.7669 17.3523 81.494 18.5545C81.0986 20.6156 80.5732 22.6497 79.9208 24.6445L79.7279 25.2738C78.855 28.1868 77.9009 31.0999 76.8859 33.952C76.7585 34.2738 76.5437 34.5537 76.2657 34.7599C75.9877 34.9662 75.6576 35.0906 75.3127 35.1193C73.7127 35.2756 72.1007 34.9876 70.6538 34.287L69.4054 41.0469C69.402 41.1197 69.3833 41.1909 69.3505 41.256C69.3177 41.3211 69.2715 41.3785 69.215 41.4245C69.1584 41.4705 69.0928 41.504 69.0224 41.5229C68.9521 41.5418 68.8785 41.5456 68.8065 41.5341ZM60.4023 34.2971C60.4023 34.49 60.788 35.4542 63.3255 37.6771C64.7411 39.0372 66.4924 39.9969 68.4005 40.4582L69.7099 33.4141C69.7251 33.3195 69.7679 33.2315 69.8329 33.161C69.8979 33.0906 69.9822 33.041 70.0753 33.0182C70.1681 32.9935 70.266 32.9957 70.3576 33.0244C70.4493 33.0532 70.5308 33.1073 70.5929 33.1806C71.9241 33.9864 73.4793 34.3422 75.0285 34.1956C75.4751 34.1144 75.7491 33.9419 75.8405 33.6881C76.8555 30.8563 77.7893 27.9432 78.6622 25.0505L78.855 24.4212C79.4928 22.4658 80.0081 20.4725 80.3978 18.453C80.6473 17.375 80.6989 16.2607 80.5501 15.1644C80.4689 14.799 80.4181 14.6569 80.3166 14.5757C80.2479 14.5173 80.1687 14.4725 80.0832 14.4437C79.503 14.3535 78.9323 14.2108 78.378 14.0174C77.678 14.8161 76.7109 15.3321 75.6578 15.4689C75.6382 15.9973 75.4731 16.5101 75.1807 16.9508C74.9785 17.2672 74.7141 17.5393 74.4035 17.7504C74.0929 17.9615 73.7427 18.1073 73.374 18.1789C73.4916 18.6792 73.4914 19.2 73.3733 19.7003C73.2553 20.2005 73.0228 20.6665 72.694 21.0615C72.3122 21.4836 71.8144 21.7837 71.2628 21.9243C70.9959 21.9942 70.7421 22.1073 70.5117 22.2592C70.2129 22.5217 69.9622 22.8342 69.7708 23.1829C69.59 23.4695 69.3864 23.7411 69.1618 23.9949C68.4265 24.892 67.4787 25.5913 66.4045 26.0291C65.3304 26.4669 64.1638 26.6295 63.0109 26.5019L60.4023 34.2971Z" fill="#231F20"/>
<path d="M76.8757 31.7097C76.0284 31.6322 75.2363 31.2557 74.6412 30.6476C74.0461 30.0395 73.6868 29.2394 73.6277 28.3906" fill="white"/>
<path d="M76.8758 32.1768C75.9067 32.1016 74.9968 31.6812 74.3114 30.9921C73.626 30.3029 73.2105 29.3908 73.1406 28.4213C73.1204 28.2867 73.1545 28.1496 73.2354 28.0402C73.3163 27.9307 73.4373 27.8579 73.5719 27.8377C73.7065 27.8175 73.8436 27.8516 73.9531 27.9325C74.0625 28.0134 74.1354 28.1345 74.1556 28.2691C74.1895 29.0048 74.4889 29.7034 74.9984 30.2353C75.5079 30.7671 76.1929 31.0963 76.9265 31.1618C77.0611 31.1618 77.1902 31.2153 77.2854 31.3105C77.3806 31.4057 77.434 31.5347 77.434 31.6693C77.434 31.8039 77.3806 31.933 77.2854 32.0282C77.1902 32.1234 77.0611 32.1768 76.9265 32.1768H76.8758Z" fill="#231F20"/>
<path d="M72.6127 24.2695C72.7455 23.5155 72.6683 22.7394 72.3894 22.0263C72.2448 21.4558 72.0192 20.9089 71.7195 20.4023C71.5643 20.1501 71.3557 19.9349 71.1085 19.7719C70.8612 19.6088 70.5813 19.5018 70.2884 19.4584C70.0279 19.4484 69.7683 19.4939 69.5268 19.5919C69.2853 19.6899 69.0674 19.8381 68.8877 20.0268C68.5231 20.4057 68.252 20.8645 68.096 21.3666C67.7308 22.4502 67.6578 23.6109 67.8841 24.7317C68.1104 25.8525 68.6281 26.8939 69.385 27.7509L69.2734 27.5378" fill="white"/>
<path d="M69.385 28.2595C69.3129 28.2608 69.2414 28.247 69.175 28.219C69.1086 28.191 69.0487 28.1495 68.9993 28.0971C68.1947 27.1627 67.6471 26.035 67.4104 24.8248C67.1738 23.6147 67.2561 22.3638 67.6493 21.1951C67.831 20.6256 68.1399 20.105 68.5527 19.6726C68.7847 19.4302 69.0661 19.2404 69.3778 19.1161C69.6895 18.9918 70.0242 18.9358 70.3594 18.9519C70.7301 18.9988 71.0856 19.128 71.3999 19.3299C71.7143 19.5319 71.9795 19.8015 72.1762 20.1192C72.5027 20.6701 72.7488 21.2648 72.907 21.8853C73.218 22.6862 73.2988 23.5581 73.1405 24.4025C73.1026 24.5321 73.0156 24.6417 72.8981 24.7081C72.7805 24.7745 72.6417 24.7923 72.5112 24.7577C72.3824 24.7221 72.2728 24.6371 72.2063 24.5212C72.1398 24.4053 72.1217 24.2678 72.1559 24.1386C72.2651 23.4775 72.1877 22.7992 71.9326 22.1796C71.8077 21.6507 71.6023 21.144 71.3236 20.6774C71.2157 20.4928 71.0692 20.3337 70.8939 20.211C70.7187 20.0884 70.5191 20.0051 70.3086 19.9669C70.1186 19.9594 69.9291 19.9936 69.7537 20.0673C69.5784 20.1409 69.4213 20.2522 69.2936 20.3932C68.9645 20.7199 68.7176 21.1199 68.573 21.5605C68.2653 22.4851 68.184 23.4701 68.3359 24.4327C68.4878 25.3952 68.8684 26.3073 69.4459 27.0922C69.5551 27.1381 69.6449 27.2206 69.6996 27.3257L69.8113 27.549C69.8625 27.6605 69.8733 27.7863 69.8418 27.9048C69.8103 28.0234 69.7385 28.1272 69.6387 28.1986C69.5595 28.237 69.473 28.2578 69.385 28.2595Z" fill="#231F20"/>
<path d="M70.197 33.5189C68.9058 32.6426 67.8944 31.4127 67.284 29.9766C67.284 29.9766 66.1472 34.4629 69.5779 36.8583L70.197 33.5189Z" fill="#231F20"/>
<path d="M69.5779 37.3659C69.4727 37.3667 69.3698 37.3348 69.2835 37.2745C65.6194 34.7066 66.746 30.0477 66.7968 29.8549C66.8233 29.7473 66.8843 29.6514 66.9704 29.5818C67.0566 29.5121 67.1631 29.4726 67.2738 29.4692C67.3845 29.4646 67.4934 29.497 67.5835 29.5614C67.6736 29.6257 67.7397 29.7183 67.7712 29.8244C68.3458 31.1491 69.2858 32.2828 70.4812 33.0927C70.5636 33.1486 70.6278 33.2275 70.6657 33.3195C70.7036 33.4115 70.7135 33.5127 70.6944 33.6104L70.0752 36.9497C70.0597 37.0327 70.0238 37.1105 69.9706 37.1761C69.9174 37.2417 69.8487 37.2929 69.7707 37.3253C69.7101 37.3524 69.6443 37.3662 69.5779 37.3659ZM67.6088 31.7123C67.5752 32.4914 67.7021 33.2691 67.9814 33.9972C68.2608 34.7253 68.6867 35.3882 69.2328 35.9449L69.6388 33.7626C68.8647 33.183 68.1807 32.4921 67.6088 31.7123Z" fill="#231F20"/>
<path d="M77.7397 21.1193C77.9299 20.5505 77.9031 20.0288 77.6798 19.9541C77.4565 19.8795 77.1213 20.2801 76.9311 20.8489C76.7409 21.4178 76.7677 21.9394 76.991 22.0141C77.2142 22.0888 77.5495 21.6882 77.7397 21.1193Z" fill="#231F20"/>
<path d="M73.3638 41.0267C72.8868 39.5854 63.5995 28.4509 56.8498 31.1508C50.1 33.8507 35.89 54.3334 32.0026 63.7018L57.4994 75.8818C57.4994 75.8818 76.0028 48.964 73.3638 41.0267Z" fill="#3766E8"/>
<path d="M62.28 56.0696C62.28 56.0696 64.5942 68.7064 73.3537 72.4111C82.1131 76.1159 101.286 70.8886 101.286 70.8886V61.2766C101.286 61.2766 89.2993 66.0369 83.4225 61.2766C77.5456 56.5162 73.3537 41.0273 73.3537 41.0273L62.28 56.0696Z" fill="#3766E8"/>
<path d="M44.1216 121.672C44.1216 121.672 41.0766 127.224 41.9191 127.762C42.7615 128.3 55.7738 127.874 55.4896 127.112C55.2054 126.351 49.9274 122.393 49.9274 122.393L44.1216 121.672Z" fill="#231F20"/>
<path d="M45.6341 128.542C44.2979 128.637 42.9551 128.521 41.6553 128.197C41.3305 128.004 40.3764 127.405 43.6853 121.427C43.7346 121.338 43.809 121.265 43.8992 121.219C43.9895 121.172 44.0916 121.152 44.1928 121.163L49.9884 121.904C50.0762 121.913 50.1601 121.944 50.232 121.995C51.856 123.213 55.6724 126.126 55.9668 126.938C56.0098 127.059 56.0134 127.189 55.9769 127.312C55.9403 127.434 55.8657 127.542 55.7638 127.618C55.1142 128.136 49.6027 128.542 45.6341 128.542ZM42.2643 127.365C43.5939 127.74 52.5158 127.365 54.7183 126.949C53.1282 125.51 51.4648 124.155 49.7347 122.889L44.4059 122.219C43.2793 124.299 42.2135 126.715 42.2643 127.365Z" fill="#231F20"/>
<path d="M33.4235 148.438C33.4235 148.438 32.5912 154.324 33.1698 154.649C33.7483 154.974 47.8061 154.73 47.1463 153.634C46.4866 152.538 39.0974 149.463 39.0974 149.463L33.4235 148.438Z" fill="#231F20"/>
<path d="M36.5701 155.306C35.349 155.358 34.1257 155.297 32.9161 155.123C32.6319 154.96 32.033 154.625 32.9161 148.393C32.9402 148.261 33.0124 148.141 33.1191 148.058C33.2309 147.979 33.3692 147.946 33.5048 147.967L39.1888 148.982C39.222 148.973 39.257 148.973 39.2903 148.982C41.0665 149.703 46.9028 152.159 47.593 153.367C47.6666 153.495 47.6947 153.643 47.6726 153.789C47.6504 153.935 47.5794 154.069 47.4712 154.169C46.649 155.001 40.6098 155.306 36.5701 155.306ZM33.5251 154.26C34.8649 154.453 44.3653 154.26 46.4359 153.59C44.058 152.155 41.5582 150.932 38.9655 149.936L33.8905 149.063C33.5936 150.779 33.4678 152.52 33.5149 154.26H33.5251Z" fill="#231F20"/>
<path d="M47.8772 90.9376H47.7554C47.1768 90.7346 33.6976 85.9743 30.0335 83.2033C29.954 83.1428 29.9019 83.0531 29.8886 82.9542C29.8753 82.8552 29.9018 82.755 29.9624 82.6755C30.023 82.5961 30.1126 82.544 30.2116 82.5307C30.3106 82.5174 30.4108 82.5439 30.4902 82.6045C34.063 85.2942 47.867 90.1662 48.0091 90.217C48.1041 90.2515 48.1817 90.3218 48.2254 90.4129C48.269 90.504 48.2752 90.6086 48.2426 90.7042C48.211 90.7744 48.1596 90.8339 48.0947 90.8754C48.0298 90.9169 47.9542 90.9385 47.8772 90.9376Z" fill="white"/>
<path d="M83.1687 74.4939C81.4838 74.4939 79.6467 74.4229 77.6573 74.2503C65.051 73.1744 59.5903 53.7372 59.3873 52.9353C59.3531 52.8034 59.3723 52.6634 59.4407 52.5456C59.5091 52.4278 59.6212 52.3417 59.7527 52.306C59.8818 52.2718 60.0193 52.2899 60.1352 52.3564C60.2512 52.4229 60.3362 52.5324 60.3718 52.6613C60.3718 52.8541 65.8731 72.2406 77.7791 73.2658C89.8779 74.2808 96.5261 71.5403 96.587 71.5098C96.7123 71.4589 96.8526 71.4591 96.9778 71.5103C97.103 71.5615 97.2032 71.6597 97.2569 71.7839C97.308 71.9065 97.309 72.0443 97.2597 72.1676C97.2104 72.291 97.1146 72.3901 96.993 72.4436C96.7291 72.5248 92.0094 74.4939 83.1687 74.4939Z" fill="#231F20"/>
<path d="M80.8037 58.8605C80.7276 58.8594 80.6527 58.8416 80.5843 58.8083C80.5159 58.7749 80.4556 58.7269 80.4079 58.6676C79.129 57.0436 73.7698 46.4876 73.0593 42.6814C72.8114 40.854 71.8791 39.1889 70.4507 38.0225C70.3909 37.9884 70.3386 37.9424 70.2971 37.8874C70.2556 37.8324 70.2257 37.7695 70.2093 37.7026C70.1929 37.6357 70.1903 37.5661 70.2016 37.4982C70.213 37.4302 70.238 37.3652 70.2753 37.3073C70.3126 37.2493 70.3612 37.1996 70.4184 37.161C70.4755 37.1225 70.5399 37.096 70.6076 37.0831C70.6753 37.0703 70.7449 37.0713 70.8121 37.0863C70.8794 37.1012 70.9429 37.1297 70.9988 37.1699C72.6719 38.4794 73.7651 40.3925 74.0438 42.4987C74.734 46.1425 80.0425 56.5767 81.1488 58.0383C81.1912 58.0899 81.2228 58.1494 81.2417 58.2134C81.2606 58.2774 81.2665 58.3445 81.2589 58.4108C81.2513 58.4771 81.2305 58.5412 81.1976 58.5993C81.1648 58.6573 81.1206 58.7082 81.0676 58.7488C80.9919 58.8101 80.9005 58.8488 80.8037 58.8605Z" fill="#231F20"/>
</svg>
