<svg width="26" height="26" viewBox="0 0 26 26" fill="none" xmlns="http://www.w3.org/2000/svg">
<path d="M13 0.5C19.9037 0.5 25.5 6.09625 25.5 13C25.5 19.9037 19.9037 25.5 13 25.5C6.09625 25.5 0.5 19.9037 0.5 13C0.5 6.09625 6.09625 0.5 13 0.5ZM9.02875 17.1788C8.535 16.5825 7.92125 16.37 7.18 16.5425L6.9925 16.5938L6.255 17.8638C6.11591 18.0902 6.06984 18.3617 6.12644 18.6213C6.18304 18.8809 6.33792 19.1086 6.55863 19.2566C6.77934 19.4046 7.04877 19.4615 7.31046 19.4153C7.57215 19.3691 7.80582 19.2234 7.9625 19.0087L8.04 18.8925L9.0275 17.1788H9.02875ZM14.5125 8.825C13.9025 9.33 13.2875 10.8212 14.15 12.3087L17.95 18.8912C18.0816 19.1149 18.2927 19.2806 18.5412 19.3553C18.7897 19.43 19.0572 19.4081 19.2903 19.2941C19.5234 19.1801 19.7048 18.9823 19.7984 18.7403C19.892 18.4983 19.8908 18.2299 19.795 17.9888L19.7337 17.8638L18.7312 16.1237H20.2188C20.3539 16.1241 20.4877 16.0977 20.6126 16.0461C20.7375 15.9945 20.851 15.9187 20.9465 15.8231C21.042 15.7275 21.1176 15.6139 21.1691 15.489C21.2205 15.364 21.2467 15.2301 21.2463 15.095C21.2469 14.8443 21.1557 14.6021 20.9898 14.4142C20.824 14.2262 20.595 14.1056 20.3463 14.075L20.2175 14.0675H17.5425L14.8 9.32125L14.5125 8.82625V8.825ZM14.86 5.02C14.6441 4.89601 14.3907 4.85429 14.1465 4.90253C13.9023 4.95078 13.6837 5.08574 13.5312 5.2825L13.4537 5.3975L12.995 6.18875L12.5463 5.3975C12.4147 5.17387 12.2035 5.00815 11.955 4.93346C11.7065 4.85877 11.439 4.88061 11.2059 4.99463C10.9729 5.10864 10.7914 5.30642 10.6978 5.54843C10.6043 5.79044 10.6055 6.05885 10.7013 6.3L10.7625 6.425L11.81 8.24625L8.45375 14.0625H5.8325C5.69747 14.0622 5.56371 14.0885 5.4389 14.14C5.31409 14.1916 5.20069 14.2672 5.10521 14.3627C5.00973 14.4582 4.93406 14.5716 4.88254 14.6964C4.83102 14.8212 4.80467 14.955 4.805 15.09C4.805 15.6163 5.195 16.0475 5.70375 16.1112L5.8325 16.1187H15.1825C15.6075 15.3187 15.1075 14.1825 14.17 14.0713L14.0187 14.0625H10.8275L15.2375 6.425C15.3737 6.18862 15.4105 5.90781 15.3397 5.64432C15.2689 5.38083 15.0964 5.15626 14.86 5.02Z" fill="#343434"/>
</svg>
