<svg width="108" height="108" viewBox="0 0 108 108" fill="none" xmlns="http://www.w3.org/2000/svg">
<path d="M106.417 35.5889L100.555 34.0179L102.982 31.1294C103.452 30.5709 103.603 29.8111 103.384 29.1149C103.165 28.4186 102.605 27.8828 101.901 27.6938L17.3719 5.02985C16.8253 4.88335 16.2422 4.95967 15.7517 5.24281C15.2613 5.52595 14.9034 5.99242 14.7566 6.53922L12.0864 16.5035C12.036 16.6127 11.9922 16.7266 11.9599 16.8467C11.9276 16.9668 11.9087 17.0872 11.8977 17.207L6.4503 37.5357C6.14501 38.6744 6.82097 39.8448 7.9594 40.1504L47.1888 50.6706L38.934 81.7652H25.1503C24.3001 79.2773 21.9581 77.4762 19.1956 77.4343V74.8877C19.1956 69.2481 14.3046 64.6597 8.29297 64.6597H2.13489C0.955896 64.6597 0 65.6156 0 66.7946V100.908C0 102.087 0.955896 103.043 2.13489 103.043H8.29297C14.3046 103.043 19.1956 98.455 19.1956 92.8151V90.2212C21.9045 90.1802 24.2104 88.448 25.1007 86.035H40.5762C41.5444 86.035 42.3914 85.3836 42.6396 84.448L51.3128 51.7767L72.0786 57.3456C73.0962 57.6186 74.1343 57.7571 75.1641 57.7571C77.6043 57.7571 79.9689 56.98 81.9915 55.544L99.7932 60.3141C99.975 60.363 100.161 60.3867 100.346 60.3867C100.717 60.3867 101.086 60.2896 101.413 60.1006C101.904 59.8175 102.261 59.351 102.408 58.8042L107.927 38.2036C108.232 37.0649 107.556 35.8942 106.417 35.5889ZM14.9261 92.8154C14.9261 95.3658 13.1325 97.5463 10.6189 98.3944V75.1561C10.6189 73.9771 9.66304 73.0212 8.48405 73.0212C7.30505 73.0212 6.34916 73.9771 6.34916 75.1561V98.7733H4.26978V68.9295H8.29297C11.9503 68.9295 14.9258 71.6023 14.9258 74.8877V92.8154H14.9261ZM19.1958 85.9491V81.7065C20.3225 81.7583 21.224 82.6886 21.224 83.8278C21.224 84.967 20.3225 85.8973 19.1958 85.9491ZM73.1853 53.2215L11.1273 36.5792L15.5639 20.0226L81.5055 37.6915C81.6904 37.7411 81.8764 37.7646 82.0592 37.7646C83.0018 37.7646 83.8646 37.1356 84.1202 36.1816C84.4255 35.0427 83.7493 33.8722 82.6106 33.5669L16.6692 15.898L18.3283 9.7066L97.5564 30.9498L80.4765 51.2753C78.9845 52.7024 77.1018 53.487 75.1646 53.487C74.5081 53.487 73.8423 53.3976 73.1853 53.2215ZM98.8363 55.6369L85.4113 52.0396L97.5233 37.6261L103.25 39.1609L98.8363 55.6369Z" fill="#CED4DA"/>
</svg>
