<svg width="410" height="293" viewBox="0 0 410 293" fill="none" xmlns="http://www.w3.org/2000/svg">
<path opacity="0.45" d="M217.351 292.385C323.424 292.385 409.414 280.466 409.414 265.762C409.414 251.058 323.424 239.139 217.351 239.139C111.278 239.139 25.2881 251.058 25.2881 265.762C25.2881 280.466 111.278 292.385 217.351 292.385Z" fill="#E6E6E6"/>
<path d="M98.3153 267.012C98.3153 267.012 96.9914 271.313 93.2314 271.84C89.4714 272.368 88.6506 276.141 92.1326 276.92C95.6145 277.698 104.22 272.83 104.22 272.83L103.664 267.355L98.3153 267.012Z" fill="#0F0F0F"/>
<path opacity="0.58" d="M320.723 245.034C320.723 245.034 308.556 241.775 305.868 230.522C305.868 230.522 324.681 226.656 325.303 246.023L320.723 245.034Z" fill="#9077F7"/>
<path opacity="0.73" d="M322.219 243.818C322.219 243.818 313.666 230.48 321.08 217.934C321.08 217.934 335.445 226.944 329.156 243.818H322.219Z" fill="#9077F7"/>
<path d="M324.403 243.821C324.403 243.821 328.825 229.678 342.382 226.947C342.382 226.947 345.03 236.103 333.67 243.821H324.403Z" fill="#9077F7"/>
<path d="M315.586 243.543L318.115 260.338H333.644L335.855 243.543H315.586Z" fill="#24285B"/>
<path d="M292.099 0H140.999V265.759H292.099V0Z" fill="#C9C9C9"/>
<path d="M278.568 30.793H153.496V220.838H278.568V30.793Z" fill="white"/>
<path d="M252.899 94.4238H180.572V194.981H252.899V94.4238Z" fill="#E6E6E6"/>
<path opacity="0.08" d="M221.957 113.276L224.936 98.922L238.176 110.585L251.084 154.187L255.056 152.208L258.67 160.771L252.911 163.752L263.661 185.679C263.661 185.679 233.211 231.155 174.296 211.458L165.69 222.184L199.451 265.721H140.999L141.952 202.962L140.999 135.15V98.8692C140.999 98.8692 152.676 96.2307 157.535 103.632C160.414 108.01 161.442 113.344 160.395 118.474L155.43 119.173L157.535 144.029L177.606 171.589L192.831 197.394L216.556 197.064L239.169 188.819L247.245 176.576L237.183 155.467L221.957 113.276Z" fill="black"/>
<path opacity="0.56" d="M216.555 257.278C224.723 257.278 231.344 250.68 231.344 242.541C231.344 234.402 224.723 227.805 216.555 227.805C208.388 227.805 201.767 234.402 201.767 242.541C201.767 250.68 208.388 257.278 216.555 257.278Z" fill="white"/>
<path opacity="0.12" d="M246.132 10.5566H203.766V16.7177H246.132V10.5566Z" fill="black"/>
<path d="M188.423 21.1845C192.232 21.1845 195.32 18.1072 195.32 14.311C195.32 10.5149 192.232 7.4375 188.423 7.4375C184.613 7.4375 181.525 10.5149 181.525 14.311C181.525 18.1072 184.613 21.1845 188.423 21.1845Z" fill="white"/>
<path d="M120.147 108.604C120.147 108.604 118.387 115.926 118.903 121.045C118.954 121.54 119.103 122.02 119.34 122.457C119.577 122.894 119.899 123.281 120.286 123.595C120.673 123.908 121.119 124.143 121.597 124.285C122.075 124.427 122.577 124.474 123.073 124.423C124.687 124.346 126.245 123.807 127.56 122.872C128.875 121.936 129.891 120.642 130.487 119.145L133.691 112.971C134.201 111.669 134.292 110.241 133.953 108.885C133.614 107.528 132.861 106.31 131.798 105.398C128.038 101.744 120.981 104.092 120.147 108.604Z" fill="#F4A28C"/>
<path d="M133.571 115.941L137.675 136.298L125.138 139.398L127.19 119.649L133.571 115.941Z" fill="#F4A28C"/>
<path d="M127.124 116.165C127.124 116.165 127.613 113.302 129.771 113.843C131.929 114.384 131.228 118.514 128.236 118.474L127.124 116.165Z" fill="#F4A28C"/>
<path d="M119.274 113.273L116.771 115.833C116.628 115.977 116.524 116.155 116.469 116.351C116.413 116.546 116.409 116.752 116.455 116.95C116.501 117.147 116.597 117.33 116.733 117.481C116.87 117.632 117.042 117.746 117.235 117.812L120.015 118.775L119.274 113.273Z" fill="#F4A28C"/>
<path opacity="0.31" d="M126.859 122.854C128.259 121.974 129.507 120.874 130.553 119.596C130.553 119.596 132.38 127.05 126.158 129.649L126.859 122.854Z" fill="#CE8172"/>
<path d="M119.75 98.8149C119.75 98.8149 114.176 103.973 120.65 107.179C127.124 110.385 127.627 109.013 127.627 109.013C127.627 109.013 124.291 117.72 130.487 119.172L133.902 117.852C133.902 117.852 141.422 108.155 137.795 103.736C137.795 103.709 132.684 90.1075 119.75 98.8149Z" fill="#24285B"/>
<path d="M126.819 137.362C126.819 137.362 167.609 128.588 174.706 146.386C181.802 164.183 153.894 220.266 153.894 220.266L115.049 218.208C115.049 218.208 67.5996 160.515 126.819 137.362Z" fill="#FAF5FF"/>
<path opacity="0.08" d="M133.585 162.072L147.248 169.144C147.248 169.144 147.023 198.709 126.145 218.802L115.037 218.208C114.007 217.008 113.06 215.738 112.204 214.409C111.277 212.812 133.585 162.072 133.585 162.072Z" fill="black"/>
<path d="M126.568 117.142C126.568 117.142 129.362 111.746 131.864 114.503C134.366 117.261 129.68 122.406 126.568 117.142Z" fill="#F4A28C"/>
<path d="M57.4979 145.637L100.486 127.668L134.22 157.22C134.22 157.22 131.294 197.511 108.257 218.501C105.566 220.996 102.378 222.899 98.9003 224.086C95.423 225.274 91.734 225.72 88.0726 225.395C84.4112 225.07 80.8592 223.982 77.647 222.201C74.4348 220.421 71.634 217.987 69.4265 215.058C60.0398 202.67 51.5005 181.126 57.4979 145.637Z" fill="#194DDE"/>
<path opacity="0.57" d="M69.1618 155.942L97.6396 144.068L120.014 163.66C120.014 163.66 118.068 190.402 102.803 204.321C101.015 205.977 98.8982 207.24 96.5887 208.028C94.2792 208.816 91.8292 209.11 89.3979 208.893C86.9667 208.675 84.6087 207.95 82.4771 206.764C80.3456 205.579 78.4883 203.96 77.026 202.012C70.8432 193.779 65.1635 179.491 69.1618 155.942Z" fill="white"/>
<path d="M152.556 140.122C155.222 138.262 158.421 137.311 161.674 137.414C164.926 137.516 168.059 138.665 170.602 140.689C176.294 145.082 184.304 153.631 189.6 169.173C198.563 195.559 217.641 197.221 240.161 177.471L246.039 185.031C246.039 185.031 196.604 233.528 158.739 178.263C142.693 154.885 146.321 144.634 152.556 140.122Z" fill="#FAF5FF"/>
<path opacity="0.2" d="M152.556 140.122C155.222 138.262 158.421 137.311 161.674 137.414C164.926 137.516 168.059 138.665 170.602 140.689C176.294 145.082 184.304 153.631 189.6 169.173C198.563 195.559 217.641 197.221 240.161 177.471L246.039 185.031C246.039 185.031 196.604 233.528 158.739 178.263C142.693 154.885 146.321 144.634 152.556 140.122Z" fill="white"/>
<path d="M115.05 218.213L98.2093 231.406C94.273 234.491 91.4675 238.783 90.2277 243.618C88.9878 248.452 89.3828 253.56 91.3513 258.148L95.8527 268.623H103.796L101.479 254.876C100.99 251.986 101.406 249.015 102.671 246.369C103.936 243.723 105.988 241.529 108.549 240.087C119.612 233.845 131.174 228.528 143.117 224.189L153.934 220.231L115.05 218.213Z" fill="#24285B"/>
<path d="M236.759 163.776L209.618 118.854L210.77 102.336L225.399 111.558L244.755 160.754L236.759 163.776Z" fill="#E0E8FC"/>
<path d="M233.463 164.421L236.084 169.434L240.109 167.337L249.721 185.701L255.083 182.917L245.471 164.553L249.496 162.468L246.874 157.455L233.463 164.421Z" fill="#194DDE"/>
<path opacity="0.08" d="M210.771 102.336L240.506 160.768L244.041 158.934L225.4 111.558L210.771 102.336Z" fill="black"/>
<path d="M153.894 220.254L188.581 266.35L179.804 270.796C179.804 270.796 151.776 234.159 126.476 226.481L153.894 220.254Z" fill="#24285B"/>
<path d="M241.591 179.306C241.591 179.306 245.259 171.826 248.383 171.048C251.508 170.269 258.299 180.124 244.981 183.673L241.591 179.306Z" fill="#F4A28C"/>
<path d="M186.185 267.975C186.185 267.975 188.939 271.51 192.672 270.613C196.406 269.716 198.511 272.988 195.545 274.967C192.58 276.946 182.783 275.481 182.783 275.481L181.313 270.204L186.185 267.975Z" fill="#0F0F0F"/>
<path opacity="0.45" d="M40.605 122.326C63.0305 122.326 81.21 104.21 81.21 81.8632C81.21 59.5162 63.0305 41.4004 40.605 41.4004C18.1795 41.4004 0 59.5162 0 81.8632C0 104.21 18.1795 122.326 40.605 122.326Z" fill="#E6E6E6"/>
<path d="M59.4452 74.0417C58.8248 70.8179 57.3841 67.8068 55.261 65.2969C53.1379 62.7871 50.4036 60.8626 47.32 59.7078C44.2365 58.553 40.907 58.2066 37.6506 58.7018C34.3942 59.197 31.3199 60.5173 28.7224 62.536C26.1248 64.5547 24.091 67.2043 22.8158 70.231C21.5406 73.2576 21.0667 76.5599 21.4395 79.8213C21.8123 83.0828 23.0194 86.1943 24.945 88.8576C26.8707 91.5209 29.4504 93.6468 32.437 95.0317L34.7009 106.747L40.2879 105.678L38.5668 96.7336C39.4949 96.8262 40.4284 96.8527 41.3603 96.8127L42.9755 105.164L48.5625 104.095L46.9605 95.7441C47.9516 95.3807 48.9123 94.9395 49.8334 94.4248L51.581 103.475L57.168 102.407L54.8644 90.4405C56.8464 88.2449 58.2913 85.6219 59.0861 82.7768C59.8808 79.9318 60.0037 76.942 59.4452 74.0417ZM34.0124 86.4035C30.7953 87.0236 27.6179 84.5565 26.9162 80.8888C26.2145 77.2212 28.2401 73.7646 31.4573 73.1446C34.6744 72.5245 37.8386 75.0048 38.5535 78.6592C39.2685 82.3137 37.2693 85.7834 34.0522 86.3903L34.0124 86.4035ZM49.5687 83.4219C46.3647 84.042 43.1873 81.5749 42.4724 77.9072C41.7575 74.2396 43.7963 70.783 47.0135 70.163C50.2306 69.5429 53.3948 72.0232 54.1098 75.6776C54.8247 79.3321 52.8255 82.8018 49.6084 83.4087L49.5687 83.4219Z" fill="white"/>
<path opacity="0.45" d="M368.61 134.883C391.036 134.883 409.215 116.767 409.215 94.4198C409.215 72.0728 391.036 53.957 368.61 53.957C346.185 53.957 328.005 72.0728 328.005 94.4198C328.005 116.767 346.185 134.883 368.61 134.883Z" fill="#E6E6E6"/>
<path d="M388.998 96.0707C389.929 92.9217 390.032 89.5872 389.299 86.3869C388.565 83.1866 387.019 80.2276 384.809 77.7935C382.598 75.3594 379.797 73.5318 376.675 72.4857C373.552 71.4396 370.213 71.2101 366.975 71.8192C363.738 72.4283 360.713 73.8556 358.188 75.9643C355.663 78.0731 353.724 80.7926 352.557 83.8623C351.389 86.932 351.032 90.249 351.52 93.4955C352.008 96.742 353.325 99.8093 355.344 102.403L352.034 113.868L357.502 115.464L360.083 106.717C360.863 107.214 361.677 107.654 362.519 108.037L360.057 116.256L365.525 117.852L367.921 109.659C368.964 109.808 370.019 109.866 371.072 109.831L368.424 118.683L373.892 120.28L377.334 108.591C380.12 107.548 382.623 105.874 384.648 103.701C386.672 101.528 388.161 98.916 388.998 96.0707ZM360.706 95.4638C357.568 94.5403 355.873 90.8991 356.932 87.3238C357.992 83.7485 361.381 81.5849 364.519 82.5084C367.656 83.4319 369.351 87.0731 368.292 90.6484C367.233 94.2237 363.843 96.3874 360.706 95.4638ZM375.865 99.9099C372.727 98.9864 371.032 95.3451 372.091 91.7698C373.151 88.1945 376.54 86.0309 379.678 86.9544C382.815 87.8779 384.51 91.506 383.464 95.0944C382.418 98.6829 379.042 100.82 375.865 99.9099Z" fill="white"/>
<path opacity="0.45" d="M254.13 50.6602H180.572V75.6872H254.13V50.6602Z" fill="#E6E6E6"/>
<path d="M191.957 66.4784C193.822 66.4784 195.333 64.9722 195.333 63.1142C195.333 61.2562 193.822 59.75 191.957 59.75C190.093 59.75 188.581 61.2562 188.581 63.1142C188.581 64.9722 190.093 66.4784 191.957 66.4784Z" fill="#C9C9C9"/>
<path d="M203.768 66.4784C205.632 66.4784 207.144 64.9722 207.144 63.1142C207.144 61.2562 205.632 59.75 203.768 59.75C201.903 59.75 200.392 61.2562 200.392 63.1142C200.392 64.9722 201.903 66.4784 203.768 66.4784Z" fill="#C9C9C9"/>
<path d="M216.119 66.4784C217.984 66.4784 219.495 64.9722 219.495 63.1142C219.495 61.2562 217.984 59.75 216.119 59.75C214.255 59.75 212.743 61.2562 212.743 63.1142C212.743 64.9722 214.255 66.4784 216.119 66.4784Z" fill="#C9C9C9"/>
<path d="M227.929 66.4784C229.794 66.4784 231.305 64.9722 231.305 63.1142C231.305 61.2562 229.794 59.75 227.929 59.75C226.065 59.75 224.553 61.2562 224.553 63.1142C224.553 64.9722 226.065 66.4784 227.929 66.4784Z" fill="#C9C9C9"/>
<path d="M240.666 66.4784C242.53 66.4784 244.042 64.9722 244.042 63.1142C244.042 61.2562 242.53 59.75 240.666 59.75C238.801 59.75 237.29 61.2562 237.29 63.1142C237.29 64.9722 238.801 66.4784 240.666 66.4784Z" fill="#C9C9C9"/>
</svg>
