<svg width="148" height="143" viewBox="0 0 148 143" fill="none" xmlns="http://www.w3.org/2000/svg">
<path d="M95.5798 117.045C89.0851 112.2 86.5581 103.39 86.6643 95.213C86.7175 91.0916 87.4555 86.6835 90.3014 83.7329C91.7236 82.3593 93.3959 81.278 95.2255 80.5492C101.012 78.0047 108.711 77.5926 112.726 82.5144C113.834 84.0085 114.709 85.6665 115.318 87.4302C117.731 93.4669 119.895 99.5993 121.812 105.827C123.702 111.938 125.751 121.596 117.207 122.14C110.252 122.588 101.307 121.297 95.5798 117.045Z" fill="white"/>
<path d="M114.599 122.532C108.316 122.532 100.629 121.176 95.4039 117.288C89.535 112.928 86.2405 104.882 86.3585 95.1877C86.4294 89.8478 87.6457 86.0251 90.0841 83.4985C91.5385 82.0992 93.244 80.9943 95.1087 80.2432C101.013 77.6449 108.854 77.2567 112.963 82.2979C114.092 83.8148 114.982 85.4992 115.602 87.2914C118.011 93.3182 120.202 99.5182 122.097 105.718C124.193 112.504 124.329 117.109 122.504 119.791C121.418 121.385 119.641 122.275 117.22 122.431C116.394 122.502 115.514 122.532 114.599 122.532ZM103.634 79.0008C100.786 79.0454 97.9754 79.6669 95.3684 80.8285C93.5726 81.5556 91.9311 82.6242 90.5329 83.9763C88.2066 86.3655 87.0493 90.0688 86.9903 95.2475C86.8722 104.715 90.0782 112.569 95.7876 116.822C101.645 121.176 110.696 122.281 117.226 121.863C119.446 121.72 121.07 120.92 122.044 119.474C123.756 116.959 123.597 112.527 121.56 105.939C119.647 99.7571 117.462 93.569 115.065 87.5602C114.468 85.8274 113.612 84.1977 112.526 82.728C110.336 80.07 107.065 79.0008 103.634 79.0008Z" fill="#231F20"/>
<path d="M27.3559 86.1563L8.53906 78.3018C15.2286 63.835 22.7742 55.2458 28.0231 51.883C34.6654 46.2922 51.1383 45.9099 66.2472 45.3126C71.0815 45.0267 75.9303 45.5063 80.6182 46.7342C98.2424 51.662 114.627 77.4775 114.627 77.4775L93.2356 80.3923C93.2356 80.3923 95.9929 106.506 98.4136 138.331C98.4136 138.331 70.7522 144.626 27.5626 142.177C27.533 142.201 27.7928 90.6839 27.3559 86.1563Z" fill="#3766E8"/>
<path d="M68.2074 42.7263L70.5691 54.1946C70.5691 54.1946 68.0539 61.8102 60.4315 61.0098C58.1796 60.7504 56.013 59.9871 54.089 58.7752C52.165 57.5633 50.5318 55.9333 49.3079 54.0034L46.6038 32.9186C46.6038 32.9186 51.6873 29.2213 48.4813 17.3887C54.8684 19.1976 61.6193 19.2326 68.0244 17.4902C68.0244 17.4902 73.1021 30.0754 72.9781 36.0067C72.8541 41.9379 68.2074 42.7263 68.2074 42.7263Z" fill="white"/>
<path d="M61.5304 61.3744C61.1518 61.3747 60.7734 61.3548 60.3968 61.3147C52.7213 60.5023 49.0783 54.2187 49.037 54.147C49.0199 54.1111 49.008 54.0729 49.0016 54.0335L46.2915 32.9487C46.2854 32.8932 46.2936 32.8371 46.3153 32.7858C46.3371 32.7345 46.3716 32.6897 46.4155 32.656C47.3806 31.7901 48.0915 30.6721 48.4702 29.4246C49.2377 27.2802 49.8046 23.4515 48.1809 17.4785C48.1672 17.4243 48.1682 17.3675 48.1838 17.3138C48.1994 17.2602 48.229 17.2119 48.2694 17.1739C48.3093 17.1348 48.3593 17.1079 48.4136 17.0963C48.4679 17.0847 48.5244 17.0888 48.5765 17.1081C54.9074 18.8771 61.5899 18.9081 67.9365 17.1977C68.0078 17.1762 68.0845 17.1827 68.1513 17.2159C68.2181 17.2491 68.27 17.3066 68.2967 17.3769C68.5092 17.8966 73.398 30.0935 73.274 35.9949C73.1677 41.1855 69.6369 42.619 68.5506 42.9356L70.8532 54.1112C70.8681 54.1639 70.8681 54.2197 70.8532 54.2724C70.8296 54.368 68.4325 61.3744 61.5304 61.3744ZM49.5979 53.9021C50.8085 55.7671 52.4087 57.3407 54.2858 58.512C56.1628 59.6834 58.271 60.424 60.4617 60.6815C67.4288 61.4102 69.9558 54.9832 70.251 54.153L67.8893 42.7684C67.8816 42.7279 67.882 42.6864 67.8903 42.6461C67.8987 42.6058 67.9149 42.5676 67.9379 42.5337C67.961 42.4998 67.9905 42.4709 68.0247 42.4486C68.0589 42.4263 68.0972 42.4112 68.1373 42.404C68.3144 42.3741 72.5359 41.5499 72.6481 35.983C72.7603 30.661 68.5151 19.6586 67.8184 17.8608C61.6109 19.4694 55.1028 19.4694 48.8953 17.8608C51.5758 28.3494 47.7145 32.3275 46.8997 33.0442L49.5979 53.9021Z" fill="#231F20"/>
<path d="M50.8717 31.9628C50.4879 30.9693 49.7932 30.1302 48.8938 29.5736C48.0342 29.0936 47.0996 28.7663 46.1306 28.606C45.6115 28.4597 45.0663 28.4352 44.5364 28.5343C44.1721 28.6424 43.8329 28.8231 43.5386 29.0659C42.7935 29.5664 42.2508 30.321 42.0094 31.1923C41.8991 31.9135 41.9619 32.651 42.1925 33.3426C42.3879 34.1087 42.6817 34.8457 43.0663 35.5347C43.4662 36.2128 43.9951 36.8039 44.6222 37.2739C45.2494 37.7438 45.9625 38.0833 46.7202 38.2728C47.4779 38.4622 48.2652 38.4977 49.0366 38.3774C49.808 38.257 50.5481 37.9831 51.2142 37.5715" fill="white"/>
<path d="M48.1221 38.761C47.0495 38.7616 45.9953 38.4793 45.0634 37.942C44.1316 37.4046 43.3543 36.6308 42.8083 35.6969C42.408 34.9853 42.106 34.2216 41.9108 33.4271C41.6621 32.69 41.5952 31.9026 41.716 31.1334C41.973 30.1879 42.5577 29.3674 43.3633 28.8219C43.6901 28.5531 44.0649 28.3503 44.4674 28.2246C45.0418 28.1136 45.6338 28.1381 46.1973 28.2962C47.2026 28.4583 48.1719 28.7979 49.0609 29.2997C50.0143 29.8912 50.7519 30.78 51.1628 31.8323C51.1789 31.8698 51.1872 31.9102 51.1872 31.9511C51.1873 31.992 51.179 32.0324 51.1629 32.07C51.1469 32.1075 51.1234 32.1412 51.0939 32.1692C51.0644 32.1972 51.0296 32.2187 50.9916 32.2325C50.9163 32.262 50.8327 32.2603 50.7587 32.2279C50.6846 32.1955 50.6262 32.1349 50.596 32.0593C50.237 31.129 49.5855 30.3441 48.742 29.8253C47.9115 29.3643 47.0088 29.0511 46.0733 28.8995C45.6013 28.7623 45.1046 28.7357 44.6209 28.8219C44.2936 28.92 43.9886 29.0823 43.7234 29.2997C43.0446 29.7641 42.5459 30.4523 42.3123 31.2469C42.2142 31.9191 42.277 32.6053 42.4953 33.2479C42.6796 33.9895 42.9616 34.7027 43.3337 35.3683C43.7124 36.0122 44.2138 36.5736 44.8087 37.0198C45.4037 37.466 46.0803 37.7883 46.7993 37.9678C47.5184 38.1473 48.2655 38.1804 48.9973 38.0654C49.7292 37.9504 50.4311 37.6894 51.0624 37.2976C51.0964 37.276 51.1343 37.2614 51.1739 37.2547C51.2136 37.2481 51.2541 37.2496 51.2932 37.259C51.3322 37.2685 51.369 37.2858 51.4014 37.3098C51.4337 37.3339 51.461 37.3643 51.4816 37.3992C51.5029 37.4331 51.5172 37.471 51.5237 37.5106C51.5302 37.5502 51.5287 37.5908 51.5193 37.6298C51.5099 37.6689 51.4929 37.7056 51.4692 37.7378C51.4454 37.77 51.4155 37.797 51.3812 37.8173C50.402 38.4306 49.2738 38.7573 48.1221 38.761Z" fill="#231F20"/>
<path d="M69.1106 48.4613C67.7688 48.802 66.3703 48.8476 65.0096 48.5952C63.6489 48.3427 62.3575 47.7981 61.2225 46.9979C57.55 44.2682 57.5855 42.3867 57.5855 42.3867C57.5855 42.3867 63.2181 44.5848 67.9297 42.9482L69.1106 48.4613Z" fill="#231F20"/>
<path d="M66.702 49.0577C64.6741 49.0797 62.693 48.441 61.0517 47.2359C57.2966 44.4465 57.2907 42.4574 57.2966 42.3798C57.2964 42.3321 57.3082 42.2851 57.3309 42.2433C57.3536 42.2015 57.3865 42.1662 57.4264 42.1409C57.4674 42.1189 57.513 42.1074 57.5593 42.1074C57.6056 42.1074 57.6512 42.1189 57.6921 42.1409C57.7512 42.1409 63.2835 44.2792 67.8298 42.6964C67.8674 42.6774 67.9088 42.6676 67.9508 42.6676C67.9928 42.6676 68.0342 42.6774 68.0718 42.6964C68.1079 42.7157 68.1393 42.7429 68.1638 42.7759C68.1883 42.809 68.2053 42.8471 68.2135 42.8875L69.3944 48.4066C69.4109 48.4793 69.3993 48.5557 69.362 48.6201C69.3247 48.6845 69.2645 48.7321 69.1936 48.753C68.3797 48.9636 67.5421 49.066 66.702 49.0577ZM57.9814 42.8397C58.2117 43.5266 58.9557 44.9422 61.4 46.758C62.4611 47.5028 63.6624 48.0186 64.929 48.2735C66.1957 48.5283 67.5006 48.5167 68.7626 48.2393L67.7117 43.3594C63.7971 44.554 59.4457 43.3594 57.9814 42.8397Z" fill="#231F20"/>
<path d="M61.4058 25.5605C61.4058 25.5605 66.2295 30.7093 65.4856 31.8741C64.7417 33.0388 62.067 32.8178 62.067 32.8178" fill="white"/>
<path d="M62.5931 33.1351C62.4102 33.1456 62.2269 33.1456 62.044 33.1351C62.0053 33.1316 61.9676 33.1204 61.9331 33.1021C61.8986 33.0838 61.868 33.0589 61.8431 33.0286C61.7927 32.9676 61.7683 32.8888 61.7754 32.8096C61.7824 32.7304 61.8203 32.6573 61.8806 32.6063C61.941 32.5553 62.0189 32.5307 62.0972 32.5378C62.788 32.5916 64.7069 32.5378 65.2382 31.7315C65.622 31.1341 63.4315 28.1476 61.1879 25.7584C61.1604 25.7312 61.1386 25.6986 61.1237 25.6627C61.1088 25.6268 61.1011 25.5883 61.1011 25.5494C61.1011 25.5104 61.1088 25.4719 61.1237 25.436C61.1386 25.4001 61.1604 25.3675 61.1879 25.3403C61.2154 25.3123 61.248 25.2901 61.284 25.2749C61.32 25.2598 61.3585 25.252 61.3975 25.252C61.4365 25.252 61.4751 25.2598 61.511 25.2749C61.547 25.2901 61.5797 25.3123 61.6071 25.3403C62.788 26.5827 66.5313 30.7519 65.7401 32.0182C65.1438 32.9977 63.467 33.1351 62.5931 33.1351Z" fill="#231F20"/>
<path d="M55.364 27.7988C55.8571 27.5981 56.0299 26.8647 55.7499 26.1608C55.4699 25.457 54.8432 25.0491 54.3501 25.2498C53.857 25.4506 53.6842 26.1839 53.9642 26.8878C54.2442 27.5916 54.8709 27.9995 55.364 27.7988Z" fill="#231F20"/>
<path d="M65.3835 26.1464C65.8766 25.9457 66.0494 25.2124 65.7694 24.5085C65.4894 23.8046 64.8627 23.3967 64.3696 23.5975C63.8765 23.7982 63.7038 24.5315 63.9838 25.2354C64.2637 25.9393 64.8904 26.3472 65.3835 26.1464Z" fill="#231F20"/>
<path d="M62.1077 39.6154C60.3364 39.6154 58.7068 38.5522 57.3075 36.4915C56.5101 35.2898 55.8784 33.9836 55.43 32.6091C55.4076 32.533 55.4155 32.4512 55.4519 32.3809C55.4882 32.3106 55.5503 32.2575 55.6248 32.2328C55.7 32.2102 55.7809 32.2181 55.8504 32.2549C55.9198 32.2917 55.9724 32.3545 55.9968 32.4299C55.9968 32.5075 58.3939 40.0156 63.0819 38.8748C67.7699 37.7339 67.7049 32.2328 67.699 31.9998C67.699 31.9206 67.7301 31.8447 67.7855 31.7886C67.8408 31.7326 67.9159 31.7012 67.9942 31.7012C68.0725 31.7012 68.1476 31.7326 68.203 31.7886C68.2583 31.8447 68.2894 31.9206 68.2894 31.9998C68.2894 32.0655 68.4075 38.2058 63.2236 39.4721C62.8585 39.564 62.4839 39.6121 62.1077 39.6154Z" fill="#231F20"/>
<path d="M144.201 24.4785H83.8476C82.1487 24.4785 80.7715 25.8718 80.7715 27.5905V108.424C80.7715 110.142 82.1487 111.536 83.8476 111.536H144.201C145.9 111.536 147.277 110.142 147.277 108.424V27.5905C147.277 25.8718 145.9 24.4785 144.201 24.4785Z" fill="#231F20"/>
<path d="M143.205 29.8125H84.8469V106.202H143.205V29.8125Z" fill="white"/>
<path d="M143.203 106.478H84.8453C84.7743 106.476 84.7067 106.447 84.657 106.395C84.6074 106.344 84.5796 106.275 84.5796 106.203V29.8137C84.5796 29.7424 84.6076 29.6741 84.6574 29.6236C84.7072 29.5732 84.7748 29.5449 84.8453 29.5449H143.203C143.274 29.5449 143.342 29.573 143.393 29.6233C143.444 29.6735 143.473 29.7419 143.475 29.8137V106.203C143.473 106.275 143.444 106.344 143.393 106.396C143.343 106.447 143.274 106.476 143.203 106.478ZM85.1169 105.934H142.931V30.0765H85.1169V105.934Z" fill="#231F20"/>
<path d="M129.276 21.4028H120.88C120.572 19.7913 119.719 18.3385 118.468 17.2938C117.216 16.2491 115.644 15.6777 114.022 15.6777C112.399 15.6777 110.828 16.2491 109.576 17.2938C108.325 18.3385 107.472 19.7913 107.164 21.4028H98.7978C98.2648 21.4028 97.7536 21.6166 97.3762 21.9973C96.9988 22.378 96.786 22.8945 96.7844 23.4336V30.5356C96.7844 31.0758 96.9965 31.5939 97.3741 31.9758C97.7517 32.3578 98.2638 32.5724 98.7978 32.5724H129.299C129.826 32.5615 130.327 32.3421 130.696 31.9613C131.065 31.5805 131.271 31.0686 131.271 30.5356V23.4336C131.27 22.8976 131.059 22.3837 130.686 22.0036C130.312 21.6234 129.805 21.4075 129.276 21.4028ZM114.025 22.3286C113.675 22.3286 113.332 22.2235 113.041 22.0266C112.749 21.8297 112.522 21.5499 112.388 21.2225C112.254 20.895 112.219 20.5347 112.288 20.1871C112.356 19.8395 112.525 19.5202 112.772 19.2696C113.02 19.019 113.336 18.8484 113.679 18.7792C114.023 18.7101 114.379 18.7456 114.703 18.8812C115.026 19.0168 115.303 19.2465 115.498 19.5412C115.692 19.8359 115.796 20.1823 115.796 20.5367C115.796 20.772 115.75 21.0051 115.661 21.2225C115.572 21.4399 115.442 21.6374 115.277 21.8038C115.113 21.9702 114.918 22.1022 114.703 22.1922C114.488 22.2823 114.257 22.3286 114.025 22.3286Z" fill="#3766E8"/>
<path d="M107.33 54.3082H93.2362C93.1646 54.3067 93.0964 54.2773 93.0458 54.2261C92.9952 54.1749 92.9661 54.1059 92.9646 54.0335V38.7962C92.9661 38.7239 92.9952 38.6548 93.0458 38.6036C93.0964 38.5524 93.1646 38.523 93.2362 38.5215H107.33C107.402 38.5215 107.471 38.5504 107.522 38.602C107.573 38.6535 107.601 38.7234 107.601 38.7962V54.0335C107.601 54.1064 107.573 54.1762 107.522 54.2278C107.471 54.2793 107.402 54.3082 107.33 54.3082ZM93.4842 53.7528H107.064V39.071H93.4842V53.7528Z" fill="#D1D3D4"/>
<path d="M110.635 42.5252C110.56 42.6498 110.475 42.7677 110.381 42.8776L101.271 52.0761C100.958 52.3927 100.716 52.3986 100.409 52.0761C98.6963 50.2961 96.99 48.5042 95.2896 46.7003C95.2254 46.6511 95.1738 46.587 95.1393 46.5134C95.1048 46.4398 95.0882 46.3589 95.0911 46.2775C95.094 46.196 95.1163 46.1165 95.1559 46.0456C95.1956 45.9747 95.2516 45.9145 95.3191 45.8701L96.6062 44.6755C96.6514 44.616 96.7095 44.5678 96.7761 44.5347C96.8426 44.5015 96.9158 44.4843 96.99 44.4843C97.0642 44.4843 97.1373 44.5015 97.2039 44.5347C97.2704 44.5678 97.3285 44.616 97.3738 44.6755L100.403 47.7994C100.721 48.1219 100.958 48.1219 101.271 47.7994L108.356 40.6735C108.402 40.6033 108.465 40.5458 108.538 40.5059C108.612 40.4661 108.694 40.4453 108.778 40.4453C108.861 40.4453 108.944 40.4661 109.017 40.5059C109.091 40.5458 109.154 40.6033 109.2 40.6735C109.596 41.0797 109.997 41.4859 110.381 41.8682C110.47 41.9766 110.553 42.0903 110.629 42.2086L110.635 42.5252Z" fill="#3766E8"/>
<path d="M135.875 44.2977H115.636C115.57 44.2879 115.509 44.2544 115.466 44.2034C115.422 44.1524 115.398 44.0873 115.398 44.0199C115.398 43.9526 115.422 43.8874 115.466 43.8364C115.509 43.7854 115.57 43.752 115.636 43.7422H135.875C135.941 43.752 136.001 43.7854 136.045 43.8364C136.089 43.8874 136.112 43.9526 136.112 44.0199C136.112 44.0873 136.089 44.1524 136.045 44.2034C136.001 44.2544 135.941 44.2879 135.875 44.2977Z" fill="#D1D3D4"/>
<path d="M130.491 49.0827H115.636C115.6 49.0835 115.564 49.077 115.531 49.0635C115.498 49.0499 115.467 49.0297 115.442 49.0041C115.417 48.9784 115.397 48.9478 115.383 48.9141C115.37 48.8804 115.364 48.8443 115.364 48.808C115.364 48.7351 115.393 48.6652 115.444 48.6137C115.495 48.5621 115.564 48.5332 115.636 48.5332H130.491C130.563 48.5347 130.631 48.5642 130.681 48.6154C130.732 48.6666 130.761 48.7356 130.763 48.808C130.763 48.8808 130.734 48.9507 130.683 49.0022C130.632 49.0538 130.563 49.0827 130.491 49.0827Z" fill="#D1D3D4"/>
<path d="M107.33 75.1129H93.2362C93.1646 75.1114 93.0964 75.0819 93.0458 75.0307C92.9952 74.9795 92.9661 74.9105 92.9646 74.8381V59.6069C92.9646 59.5708 92.9716 59.535 92.9853 59.5017C92.9989 59.4684 93.0189 59.4381 93.0442 59.4126C93.0694 59.3871 93.0993 59.3668 93.1323 59.353C93.1652 59.3392 93.2005 59.3321 93.2362 59.3321H107.33C107.366 59.3313 107.401 59.3378 107.435 59.3513C107.468 59.3649 107.498 59.3851 107.523 59.4108C107.549 59.4364 107.569 59.4671 107.582 59.5008C107.596 59.5345 107.602 59.5705 107.601 59.6069V74.8381C107.601 74.911 107.573 74.9809 107.522 75.0324C107.471 75.0839 107.402 75.1129 107.33 75.1129ZM93.4842 74.5634H107.064V59.8816H93.4842V74.5634Z" fill="#D1D3D4"/>
<path d="M110.635 63.3269C110.56 63.4534 110.475 63.5733 110.381 63.6853L101.271 72.8837C101.225 72.9578 101.161 73.0189 101.086 73.0613C101.011 73.1036 100.926 73.1259 100.84 73.1259C100.753 73.1259 100.668 73.1036 100.593 73.0613C100.518 73.0189 100.454 72.9578 100.409 72.8837C98.6963 71.0998 96.99 69.3079 95.2896 67.508C95.2254 67.4588 95.1738 67.3947 95.1393 67.3211C95.1048 67.2475 95.0882 67.1665 95.0911 67.0851C95.094 67.0037 95.1163 66.9242 95.1559 66.8533C95.1956 66.7824 95.2516 66.7222 95.3191 66.6778L96.6062 65.4831C96.6521 65.4247 96.7104 65.3775 96.7769 65.345C96.8433 65.3125 96.9162 65.2957 96.99 65.2957C97.0638 65.2957 97.1366 65.3125 97.2031 65.345C97.2695 65.3775 97.3279 65.4247 97.3738 65.4831L100.403 68.6071C100.721 68.9296 100.958 68.9356 101.271 68.6071L108.356 61.4812C108.401 61.4097 108.464 61.3509 108.537 61.3101C108.611 61.2694 108.694 61.248 108.778 61.248C108.862 61.248 108.945 61.2694 109.018 61.3101C109.092 61.3509 109.155 61.4097 109.2 61.4812C109.596 61.8874 109.997 62.2876 110.381 62.6758C110.47 62.7843 110.553 62.898 110.629 63.0163L110.635 63.3269Z" fill="#3766E8"/>
<path d="M135.876 65.1023H115.636C115.564 65.1023 115.495 65.0733 115.444 65.0218C115.393 64.9703 115.365 64.9004 115.365 64.8275C115.365 64.7546 115.393 64.6847 115.444 64.6332C115.495 64.5817 115.564 64.5527 115.636 64.5527H135.876C135.948 64.5527 136.017 64.5817 136.068 64.6332C136.119 64.6847 136.147 64.7546 136.147 64.8275C136.147 64.9004 136.119 64.9703 136.068 65.0218C136.017 65.0733 135.948 65.1023 135.876 65.1023Z" fill="#D1D3D4"/>
<path d="M130.491 69.8914H115.636C115.564 69.8914 115.495 69.8624 115.444 69.8109C115.393 69.7594 115.364 69.6895 115.364 69.6166C115.364 69.5803 115.37 69.5442 115.383 69.5105C115.397 69.4768 115.417 69.4462 115.442 69.4205C115.467 69.3948 115.498 69.3746 115.531 69.3611C115.564 69.3476 115.6 69.341 115.636 69.3419H130.491C130.563 69.3419 130.632 69.3708 130.683 69.4223C130.734 69.4739 130.763 69.5438 130.763 69.6166C130.761 69.689 130.732 69.758 130.681 69.8092C130.631 69.8604 130.563 69.8898 130.491 69.8914Z" fill="#D1D3D4"/>
<path d="M107.33 95.9219H93.2362C93.1646 95.9203 93.0964 95.8909 93.0458 95.8397C92.9952 95.7885 92.9661 95.7195 92.9646 95.6471V80.392C92.9661 80.3196 92.9952 80.2506 93.0458 80.1994C93.0964 80.1482 93.1646 80.1187 93.2362 80.1172H107.33C107.402 80.1172 107.471 80.1461 107.522 80.1977C107.573 80.2492 107.601 80.3191 107.601 80.392V95.6292C107.604 95.6667 107.598 95.7044 107.586 95.7398C107.573 95.7753 107.554 95.8077 107.528 95.8352C107.503 95.8626 107.472 95.8845 107.438 95.8994C107.404 95.9143 107.367 95.9219 107.33 95.9219ZM93.4842 95.3723H107.064V80.6846H93.4842V95.3723Z" fill="#D1D3D4"/>
<path d="M135.875 85.911H115.636C115.57 85.9012 115.509 85.8677 115.466 85.8167C115.422 85.7657 115.398 85.7006 115.398 85.6332C115.398 85.5658 115.422 85.5007 115.466 85.4497C115.509 85.3987 115.57 85.3653 115.636 85.3555H135.875C135.941 85.3653 136.001 85.3987 136.045 85.4497C136.089 85.5007 136.112 85.5658 136.112 85.6332C136.112 85.7006 136.089 85.7657 136.045 85.8167C136.001 85.8677 135.941 85.9012 135.875 85.911Z" fill="#D1D3D4"/>
<path d="M130.491 90.696H115.636C115.6 90.6968 115.564 90.6903 115.531 90.6768C115.498 90.6633 115.467 90.643 115.442 90.6174C115.417 90.5917 115.397 90.5611 115.383 90.5274C115.37 90.4937 115.364 90.4576 115.364 90.4212C115.364 90.3484 115.393 90.2785 115.444 90.227C115.495 90.1754 115.564 90.1465 115.636 90.1465H130.491C130.563 90.148 130.631 90.1774 130.681 90.2287C130.732 90.2799 130.761 90.3489 130.763 90.4212C130.763 90.4941 130.734 90.564 130.683 90.6155C130.632 90.6671 130.563 90.696 130.491 90.696Z" fill="#D1D3D4"/>
<path d="M34.1045 81.5154L24.9942 103.377L45.2812 85.6547L58.1938 90.0807C58.1938 90.0807 55.3125 109.553 37.6765 125.997C20.0405 142.44 1.83182 139.287 0.786766 123.894C-0.258287 108.502 10.4697 78.6543 10.4697 78.6543" fill="white"/>
<path d="M14.7681 137.291C12.6851 137.311 10.6173 136.93 8.67496 136.168C3.79805 134.203 0.887248 129.849 0.491663 123.918C-0.541582 108.639 10.0802 78.851 10.1864 78.5224C10.2139 78.4432 10.2712 78.3783 10.346 78.3419C10.4207 78.3055 10.5067 78.3006 10.585 78.3283C10.6633 78.356 10.7275 78.4141 10.7635 78.4897C10.7995 78.5653 10.8043 78.6523 10.7769 78.7315C10.6706 79.0301 0.0960762 108.698 1.11751 123.846C1.49538 129.526 4.27038 133.689 8.91703 135.565C16.6811 138.689 27.6276 134.926 37.4877 125.739C53.7539 110.574 57.4441 92.5949 57.8633 90.2595L45.3699 85.9708L25.2128 103.579C25.1602 103.622 25.0954 103.645 25.0283 103.647C24.9612 103.648 24.8955 103.627 24.8412 103.587C24.787 103.547 24.7472 103.49 24.7279 103.425C24.7086 103.36 24.711 103.291 24.7345 103.227L33.8507 81.3895C33.8666 81.3503 33.89 81.3146 33.9195 81.2845C33.949 81.2544 33.9841 81.2305 34.0227 81.2142C34.0614 81.1978 34.1029 81.1893 34.1448 81.1892C34.1867 81.189 34.2282 81.1972 34.267 81.2133C34.3057 81.2294 34.341 81.253 34.3707 81.2829C34.4004 81.3128 34.4241 81.3482 34.4402 81.3873C34.4564 81.4264 34.4648 81.4684 34.465 81.5108C34.4651 81.5532 34.457 81.5952 34.4411 81.6344L25.8445 102.283L45.0688 85.4213C45.1094 85.3855 45.1586 85.3611 45.2114 85.3506C45.2643 85.3402 45.3189 85.3439 45.3699 85.3616L58.2766 89.7936C58.344 89.8165 58.4015 89.8624 58.4391 89.9234C58.4768 89.9844 58.4924 90.0567 58.4832 90.1281C58.4537 90.3252 55.3835 109.899 37.8715 126.223C30.2078 133.379 21.8473 137.291 14.7681 137.291Z" fill="#231F20"/>
<path d="M50.4707 53.7773L73.5327 72.3177L74.1585 73.4167L77.2229 78.8104L71.3363 77.0125L70.1318 76.6422L47.0698 58.1078L50.4707 53.7773Z" fill="#231F20"/>
<path d="M77.2241 79.1084H77.1355L70.0504 76.9402C70.0141 76.9282 69.9801 76.91 69.95 76.8864L46.888 58.37C46.8282 58.3185 46.7901 58.2458 46.7817 58.1669C46.7765 58.1289 46.779 58.0902 46.7892 58.0532C46.7993 58.0162 46.8169 57.9817 46.8407 57.9518L50.2416 53.6214C50.2912 53.5612 50.3618 53.5226 50.4388 53.5137C50.5157 53.5048 50.5931 53.5262 50.6549 53.5736L73.7169 72.0901C73.7465 72.1121 73.7707 72.1407 73.7878 72.1737L77.4779 78.6664C77.5109 78.7158 77.5286 78.774 77.5286 78.8336C77.5286 78.8932 77.5109 78.9515 77.4779 79.0009C77.4478 79.0387 77.4088 79.0683 77.3644 79.0871C77.3201 79.1059 77.2719 79.1132 77.2241 79.1084ZM70.2747 76.3727L76.5982 78.308L73.3095 72.5141L50.5191 54.1948L47.4843 58.0594L70.2747 76.3727Z" fill="#231F20"/>
<path d="M74.1594 73.416L77.2237 78.8097L71.3372 77.0118L74.1594 73.416Z" fill="#3766E8"/>
<path d="M77.2238 79.1215C77.1945 79.1271 77.1645 79.1271 77.1352 79.1215L71.231 77.3296C71.1838 77.3146 71.1409 77.2883 71.106 77.2529C71.071 77.2176 71.045 77.1742 71.0302 77.1265C71.0158 77.0782 71.0126 77.0273 71.0208 76.9776C71.029 76.9279 71.0484 76.8807 71.0774 76.8398L73.8997 73.2559C73.9307 73.2156 73.9714 73.184 74.0179 73.1641C74.0644 73.1443 74.1152 73.1368 74.1654 73.1425C74.2145 73.1463 74.262 73.1618 74.3041 73.1878C74.3462 73.2137 74.3816 73.2494 74.4074 73.2918L77.4659 78.6675C77.5006 78.7185 77.5193 78.7789 77.5193 78.8408C77.5193 78.9026 77.5006 78.9631 77.4659 79.014C77.4362 79.0494 77.3991 79.0774 77.3571 79.0961C77.3152 79.1147 77.2696 79.1234 77.2238 79.1215ZM71.8568 76.8458L76.5802 78.2912L74.124 73.9667L71.8568 76.8458Z" fill="#231F20"/>
<path d="M76.3147 78.1009L76.3111 78.1056C76.2137 78.2296 76.2341 78.4099 76.3567 78.5084L77.2858 79.2553C77.4083 79.3538 77.5866 79.3332 77.684 79.2092L77.6877 79.2046C77.785 79.0806 77.7646 78.9002 77.6421 78.8017L76.7129 78.0548C76.5904 77.9563 76.4121 77.977 76.3147 78.1009Z" fill="white"/>
<path d="M77.4663 79.6277C77.3331 79.6269 77.2041 79.5806 77.1002 79.4963L76.1733 78.7496C76.0522 78.6522 75.9738 78.5107 75.9548 78.3554C75.9456 78.2771 75.9518 78.1977 75.9731 78.1219C75.9944 78.046 76.0303 77.9752 76.0788 77.9134C76.1762 77.7903 76.3178 77.7112 76.4726 77.6933C76.6275 77.6754 76.783 77.7202 76.9054 77.8178L77.8324 78.5645C77.893 78.6134 77.9435 78.6739 77.9809 78.7426C78.0184 78.8113 78.0422 78.8867 78.0508 78.9647C78.0616 79.0421 78.0562 79.1209 78.0348 79.1961C78.0135 79.2712 77.9767 79.3409 77.9268 79.4007C77.8718 79.4711 77.8019 79.528 77.7222 79.5673C77.6424 79.6066 77.555 79.6273 77.4663 79.6277Z" fill="#231F20"/>
<path d="M41.8336 52.9498L44.3276 49.7744C44.5516 49.4892 44.8785 49.3056 45.2364 49.2642C45.5942 49.2228 45.9536 49.3268 46.2356 49.5535L57.1913 58.3601L53.0076 63.6866L42.052 54.88C41.77 54.6534 41.5886 54.3227 41.5476 53.9607C41.5067 53.5987 41.6095 53.2351 41.8336 52.9498Z" fill="#231F20"/>
<path d="M53.0103 63.9846C52.9444 63.9859 52.88 63.9649 52.8273 63.9249L41.869 55.1146C41.6987 54.9785 41.5567 54.8097 41.4512 54.6178C41.3456 54.426 41.2785 54.2149 41.2539 53.9968C41.2292 53.7787 41.2473 53.5578 41.3073 53.3467C41.3673 53.1357 41.4679 52.9388 41.6033 52.7672L44.0949 49.5956C44.3676 49.249 44.7651 49.0261 45.2001 48.9757C45.6352 48.9253 46.0722 49.0516 46.4153 49.3268L57.3736 58.131C57.4344 58.1803 57.4735 58.2519 57.4824 58.3302C57.4912 58.4086 57.4691 58.4873 57.4208 58.5491L53.2406 63.8771C53.2169 63.9074 53.1875 63.9325 53.154 63.951C53.1205 63.9694 53.0837 63.9809 53.0458 63.9846H53.0103ZM45.3938 49.5537H45.2698C45.1309 49.5684 44.9963 49.6108 44.8736 49.6785C44.751 49.7462 44.6429 49.8377 44.5554 49.948L42.0638 53.1256C41.9769 53.2362 41.9124 53.363 41.874 53.4988C41.8356 53.6346 41.824 53.7768 41.8399 53.9171C41.8558 54.0574 41.8989 54.1932 41.9667 54.3167C42.0345 54.4402 42.1257 54.549 42.2351 54.6368L52.9631 63.2619L56.7772 58.3998L46.0551 49.7807C45.866 49.6323 45.6332 49.5524 45.3938 49.5537Z" fill="#231F20"/>
<path d="M48.788 62.6941C48.7194 62.6951 48.6525 62.6718 48.599 62.6284C48.3688 62.4432 42.8837 58.0889 42.1634 57.402C41.3309 56.6076 41.7383 54.8814 41.756 54.8097C41.7748 54.7305 41.8239 54.6621 41.8926 54.6195C41.9612 54.5769 42.0438 54.5637 42.1221 54.5827C42.2004 54.6017 42.268 54.6514 42.3101 54.7209C42.3521 54.7903 42.3652 54.8738 42.3464 54.953C42.252 55.3532 42.1043 56.5001 42.5826 56.954C43.2793 57.617 48.9179 62.1028 48.9769 62.1446C49.0394 62.1951 49.0799 62.2684 49.0899 62.3487C49.0998 62.429 49.0783 62.5101 49.03 62.5746C49.0008 62.6112 48.9639 62.6409 48.9221 62.6615C48.8803 62.6821 48.8345 62.6933 48.788 62.6941Z" fill="#231F20"/>
<path d="M43.7819 56.4166C43.7105 56.4173 43.6413 56.3919 43.5871 56.3449C43.5563 56.3195 43.5309 56.2882 43.5122 56.2528C43.4934 56.2174 43.4818 56.1786 43.478 56.1386C43.4741 56.0986 43.4781 56.0583 43.4898 56.0199C43.5014 55.9815 43.5204 55.9458 43.5457 55.9149L47.7377 50.79C47.7896 50.7268 47.864 50.687 47.9447 50.6792C48.0255 50.6713 48.106 50.6961 48.1688 50.7482C48.1999 50.7741 48.2256 50.8061 48.2444 50.8422C48.2631 50.8784 48.2744 50.918 48.2777 50.9586C48.281 50.9993 48.2762 51.0402 48.2636 51.079C48.251 51.1177 48.2307 51.1535 48.2042 51.1842L44.0122 56.3031C43.985 56.3387 43.9501 56.3674 43.9101 56.3871C43.8702 56.4067 43.8263 56.4169 43.7819 56.4166Z" fill="white"/>
<path d="M57.6141 91.4912C58.2045 90.4996 58.6769 87.9073 58.6769 87.9073C58.6769 87.9073 63.7368 88.3195 64.7996 86.7486C65.8623 85.1777 69.0447 74.026 67.982 72.1266C66.9192 70.2271 62.8394 67.587 61.6172 67.0913C60.395 66.5955 55.4059 67.587 55.4059 67.587L59.3263 63.6209C59.3263 63.6209 65.697 67.4198 68.5547 67.1689C71.4123 66.9181 72.233 65.8489 70.7629 64.1167C69.2927 62.3845 58.5942 57.5046 56.7993 57.7554C55.0044 58.0063 47.0809 65.5204 46.9156 66.5955C46.7503 67.6707 40.6335 88.5584 41.9383 90.87" fill="white"/>
<path d="M57.6167 91.7959C57.5635 91.7924 57.5123 91.7738 57.4691 91.7422C57.4344 91.7223 57.404 91.6957 57.3796 91.6639C57.3551 91.6321 57.3372 91.5957 57.3267 91.5568C57.3163 91.5179 57.3136 91.4773 57.3188 91.4374C57.324 91.3974 57.3369 91.3589 57.3569 91.3241C57.8268 90.214 58.1714 89.0539 58.3843 87.8657C58.3998 87.7919 58.4413 87.7264 58.5011 87.6814C58.5608 87.6363 58.6347 87.6148 58.709 87.6208C60.067 87.7283 63.769 87.7582 64.5542 86.5934C65.5698 85.1002 68.6872 74.0142 67.7307 72.2999C66.6975 70.4602 62.6294 67.844 61.5076 67.3961C60.5748 67.0138 56.8374 67.635 55.4735 67.9038C55.41 67.9176 55.3438 67.9099 55.2851 67.8818C55.2264 67.8537 55.1785 67.8069 55.1487 67.7485C55.118 67.6899 55.1066 67.623 55.1162 67.5575C55.1257 67.4919 55.1558 67.4312 55.2019 67.3841L59.1223 63.418C59.1709 63.3705 59.2334 63.3401 59.3004 63.3315C59.3675 63.3229 59.4355 63.3365 59.4943 63.3702C59.5533 63.4061 65.8 67.1093 68.5396 66.8824C69.9979 66.7569 70.9013 66.3985 71.1316 65.8789C71.3618 65.3592 70.9131 64.7799 70.5411 64.3319C69.1595 62.6953 58.5555 57.8571 56.8492 58.0781C55.2491 58.2931 47.4319 65.634 47.2193 66.6554C47.1839 66.8764 46.9595 67.7246 46.4872 69.4747C45.0466 74.8146 41.2265 88.9946 42.2066 90.7268C42.2473 90.7981 42.2583 90.8828 42.2373 90.9623C42.2163 91.0418 42.1649 91.1096 42.0944 91.1508C42.0236 91.1904 41.9404 91.2007 41.8622 91.1796C41.7841 91.1584 41.7171 91.1074 41.6752 91.0374C40.7069 89.3171 43.1336 79.5811 45.8968 69.3134C46.2806 67.8858 46.5876 66.7569 46.6171 66.5598C46.8119 65.2935 54.8831 57.7197 56.7606 57.4629C58.6382 57.206 69.4429 62.092 70.9958 63.9257C71.7043 64.7619 71.9345 65.4966 71.6925 66.1059C71.3795 66.8764 70.3345 67.3363 68.5868 67.4916C65.9181 67.7305 60.5157 64.6783 59.3821 64.0153L56.3178 67.1153C57.8706 66.8465 60.7637 66.4224 61.732 66.8167C62.9128 67.3005 67.1403 70.0003 68.2267 71.9893C69.3131 73.9783 66.1366 85.3032 65.0325 86.9219C64.011 88.4271 60.0552 88.3017 58.8979 88.23C58.6891 89.3963 58.3381 90.5319 57.8529 91.6108C57.8329 91.6598 57.8005 91.7026 57.7591 91.7351C57.7177 91.7676 57.6686 91.7885 57.6167 91.7959Z" fill="#231F20"/>
<path d="M53.7769 72.5679C53.7769 72.5679 60.4723 71.4152 61.9424 71.8273C63.4126 72.2394 67.6578 76.8685 67.6578 76.8685" fill="white"/>
<path d="M67.6574 77.1744C67.6155 77.1752 67.5739 77.1671 67.5352 77.1506C67.4966 77.1342 67.4618 77.1097 67.433 77.0789C66.2522 75.8066 62.9989 72.4438 61.8594 72.1272C60.7199 71.8107 55.6717 72.5573 53.8237 72.8739C53.7448 72.8861 53.6643 72.8667 53.5993 72.8199C53.5342 72.773 53.4898 72.7024 53.4754 72.623C53.4678 72.5833 53.4682 72.5424 53.4767 72.5029C53.4852 72.4633 53.5015 72.426 53.5247 72.393C53.5479 72.3601 53.5774 72.3322 53.6116 72.3112C53.6457 72.2901 53.6838 72.2763 53.7233 72.2706C54.0008 72.2228 60.5073 71.076 62.0247 71.5299C63.5421 71.9839 67.4389 76.1769 67.8817 76.6608C67.938 76.7179 67.9696 76.7952 67.9696 76.8758C67.9696 76.9564 67.938 77.0337 67.8817 77.0908C67.8529 77.1208 67.8177 77.1439 67.7789 77.1583C67.7401 77.1728 67.6986 77.1783 67.6574 77.1744Z" fill="#231F20"/>
<path d="M58.6792 87.9362C58.6792 87.9362 59.8187 84.4659 59.5767 82.1543L58.6792 87.9362Z" fill="white"/>
<path d="M58.679 88.2471C58.6308 88.2467 58.5834 88.2348 58.5406 88.2124C58.4978 88.19 58.4609 88.1577 58.4327 88.1181C58.4045 88.0786 58.386 88.0329 58.3785 87.9847C58.371 87.9366 58.3748 87.8873 58.3897 87.841C58.3897 87.8051 59.5055 84.4065 59.2694 82.1845C59.2653 82.1444 59.2691 82.104 59.2806 82.0654C59.2921 82.0269 59.311 81.9911 59.3362 81.9599C59.3615 81.9288 59.3926 81.9031 59.4277 81.8842C59.4629 81.8654 59.5014 81.8537 59.541 81.85C59.5806 81.845 59.6207 81.848 59.6592 81.8589C59.6976 81.8697 59.7335 81.8882 59.7648 81.9132C59.7961 81.9382 59.8222 81.9693 59.8416 82.0045C59.8609 82.0398 59.8731 82.0787 59.8775 82.1188C60.1255 84.4722 59.0155 87.8887 58.9683 88.0321C58.9477 88.0936 58.9089 88.1473 58.8571 88.1858C58.8054 88.2242 58.7432 88.2456 58.679 88.2471Z" fill="#231F20"/>
<path d="M54.999 82.3217C55.3297 82.2381 60.9623 82.3993 61.2871 82.3217H54.999Z" fill="white"/>
<path d="M60.4849 82.6507C59.9889 82.6507 59.245 82.6507 58.1232 82.6507C56.842 82.6507 55.2419 82.6088 55.0471 82.6507C54.9691 82.6634 54.8893 82.6458 54.8236 82.6015C54.7579 82.5572 54.7112 82.4894 54.6928 82.4117C54.6751 82.3349 54.6881 82.2541 54.729 82.187C54.7699 82.1198 54.8355 82.0718 54.9113 82.0534C55.983 81.9926 57.0573 81.9926 58.1291 82.0534C59.4162 82.0534 61.0104 82.0952 61.2052 82.0534C61.2833 82.0391 61.3639 82.0561 61.4299 82.1006C61.496 82.1452 61.5424 82.2138 61.5595 82.2923C61.5776 82.369 61.5656 82.4499 61.5259 82.5179C61.4863 82.5858 61.4221 82.6356 61.3469 82.6566C61.0597 82.6732 60.7718 82.6712 60.4849 82.6507Z" fill="#231F20"/>
<path d="M52.7439 77.1123C52.7439 77.1123 57.5618 76.0372 59.829 76.515C62.0962 76.9928 66.1997 81.9684 66.6071 82.3805" fill="white"/>
<path d="M66.5958 82.7107C66.516 82.7105 66.4395 82.6783 66.3832 82.6211C66.3242 82.5614 66.2002 82.424 66.0231 82.2209C64.9426 80.9905 61.6421 77.2454 59.7527 76.8452C57.5623 76.3673 52.827 77.4126 52.7798 77.4425C52.7008 77.4584 52.6187 77.4423 52.5514 77.3976C52.484 77.3529 52.4367 77.2832 52.4196 77.2036C52.4101 77.1643 52.4086 77.1235 52.4151 77.0836C52.4216 77.0437 52.4361 77.0056 52.4576 76.9715C52.4792 76.9374 52.5073 76.9081 52.5404 76.8854C52.5734 76.8627 52.6107 76.847 52.6499 76.8392C52.8507 76.7914 57.5563 75.7581 59.8826 76.2419C61.7484 76.6481 64.5411 79.6167 66.4777 81.8148C66.643 82.0059 66.7611 82.1373 66.8142 82.1911C66.8708 82.2492 66.9026 82.3275 66.9026 82.4091C66.9026 82.4907 66.8708 82.569 66.8142 82.6271C66.7548 82.6825 66.6765 82.7124 66.5958 82.7107Z" fill="#231F20"/>
<path d="M134.435 111.303C134.573 110.352 134.662 109.395 134.701 108.436C134.765 106.446 134.458 104.463 133.797 102.588C133.596 101.752 133.142 101 132.498 100.438C131.82 99.9299 130.727 99.912 130.231 100.605C129.735 101.298 129.983 102.056 130.149 102.791C130.587 104.78 130.685 106.831 130.438 108.854C130.125 106.136 129.771 103.311 128.301 101.011C127.995 100.474 127.561 100.024 127.037 99.703C126.772 99.5488 126.47 99.4706 126.164 99.4769C125.858 99.4832 125.56 99.5738 125.301 99.7388C124.551 100.294 124.61 101.417 124.711 102.355C124.95 104.752 124.914 107.17 124.605 109.559C124.772 107.459 124.62 105.346 124.156 103.293C123.849 101.949 123.247 100.462 121.953 100.037C121.674 99.9348 121.371 99.9141 121.08 99.9777C120.787 100.078 120.527 100.257 120.327 100.494C120.126 100.732 119.993 101.02 119.94 101.328C119.843 101.941 119.843 102.566 119.94 103.179C120.183 105.592 120.11 108.026 119.722 110.419C120.025 108.321 119.945 106.185 119.486 104.117C119.364 103.287 119.039 102.5 118.541 101.829C118.283 101.502 117.931 101.263 117.534 101.145C117.136 101.027 116.713 101.037 116.321 101.172C116.04 101.326 115.797 101.543 115.611 101.806C115.425 102.069 115.3 102.371 115.246 102.69C115.148 103.33 115.126 103.979 115.181 104.625C115.236 107.066 114.79 109.493 113.871 111.751C113.103 113.632 112.099 115.711 112.294 117.813C112.489 119.916 114.183 121.851 116.203 122.669C118.269 123.392 120.497 123.497 122.621 122.974C129.623 121.57 135.403 118.196 137.883 111.422" fill="white"/>
<path d="M119.693 123.596C118.463 123.614 117.241 123.397 116.091 122.957C113.824 122.037 112.177 119.97 112 117.838C111.834 115.885 112.637 113.943 113.346 112.241L113.594 111.644C114.497 109.423 114.936 107.038 114.881 104.637V104.339C114.835 103.768 114.863 103.194 114.964 102.63C115.024 102.263 115.168 101.916 115.384 101.615C115.6 101.314 115.883 101.069 116.209 100.898C116.662 100.743 117.15 100.73 117.609 100.861C118.069 100.992 118.478 101.261 118.784 101.633C119.222 102.19 119.528 102.842 119.675 103.538C119.675 103.431 119.675 103.323 119.646 103.222V103.072C119.547 102.479 119.547 101.874 119.646 101.28C119.709 100.917 119.869 100.578 120.108 100.299C120.347 100.02 120.657 99.8122 121.004 99.6976C121.351 99.6191 121.714 99.6419 122.049 99.7633C123.23 100.146 124.015 101.316 124.452 103.24C124.452 103.305 124.481 103.377 124.499 103.443C124.475 103.096 124.446 102.75 124.41 102.403C124.304 101.34 124.269 100.146 125.137 99.5065C125.44 99.3053 125.794 99.1937 126.156 99.1843C126.519 99.1748 126.878 99.2677 127.191 99.4527C127.761 99.7981 128.236 100.283 128.573 100.862C129.377 102.195 129.935 103.664 130.22 105.199C130.15 104.419 130.03 103.645 129.86 102.881C129.689 102.105 129.482 101.161 129.996 100.444C130.123 100.271 130.283 100.125 130.466 100.016C130.65 99.9058 130.853 99.8342 131.065 99.8051C131.639 99.7185 132.223 99.8621 132.694 100.205C133.386 100.809 133.877 101.614 134.099 102.511C134.781 104.424 135.094 106.452 135.02 108.484C135.02 108.777 134.979 109.039 134.967 109.284C134.934 109.987 134.861 110.687 134.749 111.381C134.75 111.427 134.742 111.473 134.724 111.516C134.705 111.559 134.678 111.596 134.643 111.627C134.609 111.657 134.568 111.679 134.523 111.692C134.479 111.704 134.433 111.706 134.388 111.698C134.342 111.69 134.3 111.671 134.262 111.644C134.225 111.617 134.195 111.582 134.173 111.541C134.151 111.5 134.138 111.455 134.135 111.409C134.133 111.363 134.141 111.316 134.158 111.273C134.268 110.601 134.339 109.923 134.371 109.243C134.371 108.998 134.4 108.735 134.424 108.436C134.494 106.488 134.192 104.545 133.533 102.714C133.35 101.939 132.938 101.239 132.352 100.707C132.01 100.461 131.586 100.358 131.171 100.42C131.039 100.436 130.913 100.479 130.798 100.545C130.683 100.612 130.583 100.702 130.504 100.809C130.149 101.304 130.315 102.063 130.462 102.732C130.916 104.761 131.018 106.855 130.763 108.92C130.753 108.994 130.718 109.062 130.662 109.111C130.607 109.16 130.536 109.188 130.462 109.189C130.388 109.188 130.316 109.159 130.261 109.109C130.205 109.058 130.17 108.989 130.161 108.914C129.866 106.369 129.529 103.485 128.071 101.197C127.784 100.704 127.378 100.292 126.89 100.002C126.678 99.8745 126.435 99.807 126.188 99.807C125.94 99.807 125.698 99.8745 125.485 100.002C124.895 100.456 124.895 101.448 125.007 102.344C125.244 104.765 125.206 107.206 124.895 109.619C124.882 109.697 124.84 109.768 124.777 109.817C124.715 109.866 124.637 109.889 124.558 109.882C124.479 109.874 124.406 109.835 124.356 109.774C124.305 109.712 124.28 109.633 124.286 109.553C124.456 107.484 124.306 105.4 123.844 103.377C123.46 101.681 122.787 100.659 121.848 100.349C121.621 100.264 121.376 100.246 121.139 100.295C120.904 100.384 120.696 100.534 120.537 100.73C120.377 100.926 120.271 101.161 120.23 101.412C120.145 101.944 120.145 102.487 120.23 103.019V103.168C120.476 105.608 120.403 108.07 120.012 110.491C119.997 110.57 119.953 110.641 119.888 110.688C119.823 110.735 119.742 110.754 119.663 110.742C119.624 110.736 119.585 110.722 119.551 110.701C119.517 110.68 119.487 110.653 119.463 110.62C119.439 110.587 119.422 110.55 119.413 110.51C119.404 110.47 119.403 110.429 119.41 110.389C119.707 108.328 119.629 106.228 119.179 104.195C119.065 103.418 118.763 102.682 118.3 102.051C118.088 101.77 117.796 101.561 117.463 101.454C117.13 101.347 116.773 101.347 116.44 101.454C116.201 101.585 115.995 101.77 115.839 101.995C115.682 102.22 115.578 102.478 115.536 102.75C115.45 103.265 115.426 103.788 115.465 104.309V104.607C115.532 107.095 115.084 109.569 114.149 111.871L113.901 112.468C113.186 114.194 112.442 115.974 112.596 117.778C112.761 119.695 114.255 121.547 116.316 122.377C118.01 123.064 120.112 123.16 122.562 122.67C130.356 121.105 135.416 117.294 137.601 111.321C137.628 111.242 137.685 111.177 137.76 111.141C137.835 111.104 137.921 111.099 137.999 111.127C138.077 111.155 138.142 111.213 138.178 111.288C138.214 111.364 138.218 111.451 138.191 111.53C135.924 117.724 130.71 121.684 122.698 123.285C121.709 123.489 120.702 123.593 119.693 123.596Z" fill="#231F20"/>
<path d="M15.0874 111.38C15.0406 111.381 14.9944 111.37 14.9524 111.35C14.9104 111.329 14.8737 111.299 14.8453 111.261C14.8205 111.229 14.8022 111.192 14.7914 111.153C14.7806 111.113 14.7776 111.072 14.7826 111.032C14.7875 110.991 14.8003 110.952 14.8202 110.917C14.84 110.881 14.8666 110.85 14.8984 110.825L24.8117 103.132C24.843 103.107 24.8789 103.088 24.9173 103.078C24.9557 103.067 24.9958 103.064 25.0353 103.069C25.0749 103.074 25.113 103.087 25.1476 103.107C25.1822 103.127 25.2125 103.154 25.2368 103.185C25.2616 103.218 25.2799 103.254 25.2907 103.294C25.3014 103.333 25.3044 103.374 25.2995 103.415C25.2946 103.455 25.2818 103.494 25.2619 103.53C25.242 103.565 25.2154 103.596 25.1837 103.622L15.2704 111.315C15.2182 111.357 15.1539 111.38 15.0874 111.38Z" fill="#231F20"/>
<path d="M42.3709 27.4179C42.3029 27.4185 42.2367 27.3958 42.1831 27.3535C42.1295 27.3112 42.0916 27.2518 42.0756 27.1849C41.1723 23.3562 40.3044 19.4916 39.4896 15.6868L39.4069 15.2926C38.9696 13.6225 38.7512 11.9014 38.7575 10.1737C38.8696 8.30413 40.2276 8.22051 41.438 8.26232C41.5206 7.37916 41.7914 6.52459 42.2317 5.75743C42.672 4.99028 43.2714 4.32874 43.9886 3.81838C47.6138 1.2858 51.4929 2.43263 55.2421 3.54362C57.7219 4.2783 60.2903 5.03688 62.7051 4.67252C64.3069 4.3377 65.8483 3.75548 67.275 2.94631C67.7946 2.6835 68.3142 2.42666 68.8396 2.18773C69.3651 1.94881 74.7734 -0.416515 76.0901 2.27136C76.4561 3.02396 76.155 3.86019 75.8126 4.57695C75.1351 5.97799 74.3453 7.32045 73.4509 8.59084C74.0948 8.16264 74.7815 7.80427 75.4996 7.52166C76.8406 6.93707 78.3528 6.89855 79.7212 7.41415C80.2804 7.63255 80.7575 8.0233 81.0851 8.53111C81.7227 9.59431 81.4452 11.0039 80.2526 12.7122C79.202 14.2219 78.0478 15.655 76.7986 17.0009C77.1469 16.8157 77.4953 16.5947 77.8318 16.4036C78.9595 15.6868 80.1286 14.9462 81.4629 15.2986C81.7015 15.3521 81.926 15.4566 82.1215 15.6049C82.317 15.7532 82.4789 15.942 82.5966 16.1587C83.0217 17.0666 82.2718 18.0581 82.0061 18.3866C79.863 21.2129 77.1577 23.553 74.0649 25.2556C73.9936 25.2939 73.9102 25.3022 73.8328 25.2788C73.7554 25.2553 73.6903 25.2019 73.6516 25.1302C73.6138 25.058 73.6055 24.9737 73.6287 24.8954C73.652 24.8171 73.7047 24.7513 73.7756 24.7121C76.7933 23.0519 79.4325 20.7686 81.522 18.0103C82.0357 17.3234 82.201 16.8157 82.0179 16.4215C81.9397 16.2864 81.8339 16.1697 81.7077 16.0791C81.5815 15.9885 81.4377 15.926 81.2858 15.8959C80.2053 15.6092 79.2016 16.2483 78.1329 16.9232C77.3814 17.4681 76.5396 17.8727 75.6472 18.1178C75.5829 18.1321 75.5158 18.1246 75.4561 18.0966C75.3963 18.0685 75.3474 18.0214 75.3166 17.9625C75.2866 17.9034 75.2762 17.8361 75.2868 17.7705C75.2974 17.7049 75.3286 17.6445 75.3756 17.5982C76.9757 15.992 78.4337 14.2472 79.733 12.3837C80.7721 10.8845 81.0437 9.7078 80.5419 8.87157C80.2749 8.47812 79.896 8.17607 79.4555 8.00548C78.2317 7.55491 76.8837 7.59552 75.6886 8.11897C74.4586 8.65867 73.3018 9.3552 72.2464 10.1916C72.1877 10.2422 72.112 10.2681 72.0349 10.2639C71.9579 10.2597 71.8854 10.2258 71.8323 10.1691C71.7793 10.1124 71.7498 10.0373 71.75 9.9592C71.7501 9.88114 71.7799 9.80612 71.8331 9.74961C73.1678 8.07913 74.3088 6.25941 75.2339 4.32609C75.5114 3.72878 75.7653 3.07772 75.5114 2.53417C74.6494 0.772123 70.9179 1.90103 69.064 2.74323C68.5444 2.98215 68.0308 3.23302 67.5171 3.48986C66.044 4.33131 64.4505 4.93584 62.7937 5.28177C60.243 5.66405 57.6097 4.88755 55.065 4.13495C51.2804 3.01799 47.7142 1.96076 44.3311 4.32609C43.6501 4.81208 43.0877 5.44881 42.6866 6.18784C42.2855 6.92687 42.0564 7.74872 42.0166 8.59084C42.0168 8.6314 42.0085 8.67154 41.9922 8.70861C41.9759 8.74568 41.952 8.77883 41.9221 8.80587C41.8615 8.85923 41.784 8.8889 41.7037 8.88949C40.1272 8.82379 39.4364 8.92533 39.342 10.2095C39.3419 11.8807 39.5542 13.5449 39.9737 15.1612L40.0623 15.5614C40.8712 19.3543 41.7391 23.2188 42.6425 27.0416C42.6521 27.0808 42.6539 27.1216 42.6478 27.1615C42.6418 27.2015 42.6279 27.2398 42.607 27.2743C42.5861 27.3088 42.5586 27.3387 42.5262 27.3623C42.4938 27.3859 42.457 27.4028 42.4181 27.4119L42.3709 27.4179Z" fill="#231F20"/>
</svg>
