<svg width="139" height="74" viewBox="0 0 139 74" fill="none" xmlns="http://www.w3.org/2000/svg">
<path opacity="0.3" d="M69.5 73.9953C107.697 73.9953 138.662 71.5706 138.662 68.5797C138.662 65.5887 107.697 63.1641 69.5 63.1641C31.3031 63.1641 0.338379 65.5887 0.338379 68.5797C0.338379 71.5706 31.3031 73.9953 69.5 73.9953Z" fill="#E6E6E6"/>
<path d="M14.9256 36.1484C14.9256 36.1484 7.83714 39.5625 6.91367 47.3765C5.99021 55.1905 3.36945 70.3107 22.634 69.4358C41.8985 68.561 50.9835 67.5026 46.4389 52.7921C41.8942 38.0817 14.9256 36.1484 14.9256 36.1484Z" fill="#FF7E17"/>
<path opacity="0.09" d="M14.2119 40.2218C14.0138 41.3262 14.1524 42.4645 14.6097 43.4894C15.0671 44.5143 15.8221 45.3786 16.7771 45.9703C19.3893 47.6773 23.4124 53.7971 26.5333 56.8911C27.0232 57.3714 27.4105 57.9456 27.6721 58.5793C27.9337 59.213 28.064 59.893 28.0553 60.5783C28.0644 60.9289 28.1562 61.2725 28.3233 61.581C28.4905 61.8895 28.7283 62.1542 29.0173 62.3536C31.1849 64.1204 40.2784 65.0081 45.366 59.5669C50.4537 54.1257 43.7457 51.4328 43.7457 51.4328L21.3944 39.3555L14.2119 40.2218Z" fill="black"/>
<path d="M63.6214 66.8711C63.7728 67.2227 64.0005 67.5364 64.2881 67.7896C64.5757 68.0427 64.916 68.2289 65.2845 68.3349C66.473 68.6037 67.1186 70.0633 64.5192 69.8243C61.9198 69.5853 60.4961 69.995 60.8681 68.5696C61.24 67.1442 61.0733 66.9308 61.0733 66.9308L63.6214 66.8711Z" fill="#F4A28C"/>
<path d="M46.1699 65.8513C46.1215 66.2309 46.1582 66.6166 46.2772 66.9804C46.3962 67.3443 46.5947 67.6772 46.8582 67.9552C47.7432 68.8087 47.5551 70.3792 45.4388 68.8514C43.3225 67.3236 41.886 66.9523 42.9335 65.9195C43.9809 64.8868 43.9467 64.6094 43.9467 64.6094L46.1699 65.8513Z" fill="#F4A28C"/>
<path d="M48.4271 47.8359C48.4271 47.8359 64.3184 47.9981 64.1645 66.9164L60.4151 67.548C60.4151 67.548 59.6968 47.5756 39.0386 57.0881L40.116 49.2186L48.4271 47.8359Z" fill="#24285B"/>
<path opacity="0.09" d="M48.4271 47.8359C48.4271 47.8359 64.3184 47.9981 64.1645 66.9164L60.4151 67.548C60.4151 67.548 59.6968 47.5756 39.0386 57.0881L40.116 49.2186L48.4271 47.8359Z" fill="black"/>
<path d="M49.6885 30.4097L51.0651 30.7768L50.0861 29.7227L49.6885 30.4097Z" fill="#FFD200"/>
<path d="M28.0293 39.7731C28.0293 39.7731 30.774 46.6951 37.4777 45.4831C44.1814 44.2711 46.7252 30.2264 46.7252 30.2264C46.7252 30.2264 49.3802 28.5194 48.0933 26.5861C46.8064 24.6529 44.7244 28.8181 44.7244 28.8181C44.7244 28.8181 41.8385 40.6437 35.588 36.8113L28.0293 39.7731Z" fill="#F4A28C"/>
<path opacity="0.09" d="M28.0293 39.7731C28.0293 39.7731 30.774 46.6951 37.4777 45.4831C44.1814 44.2711 46.7252 30.2264 46.7252 30.2264C46.7252 30.2264 49.3802 28.5194 48.0933 26.5861C46.8064 24.6529 44.7244 28.8181 44.7244 28.8181C44.7244 28.8181 41.8385 40.6437 35.588 36.8113L28.0293 39.7731Z" fill="black"/>
<path d="M28.0936 25.7L29.5472 26.003C29.5472 26.003 40.74 32.0672 38.6579 38.1443C36.5758 44.2214 41.1248 49.9912 41.1248 49.9912L31.3899 56.8194C31.3899 56.8194 18.6709 50.5119 20.5734 33.1683C20.5734 33.1854 21.4584 25.0982 28.0936 25.7Z" fill="#3766E8"/>
<path d="M53.8248 29.1264L51.9907 28.2461L44.454 43.892L46.2881 44.7723L53.8248 29.1264Z" fill="#E6E6E6"/>
<path d="M27.5635 18.0781L25.5498 25.1709L29.5472 25.9988L29.4061 20.5064L27.5635 18.0781Z" fill="#F4A28C"/>
<path opacity="0.31" d="M29.4875 21.7084C29 21.5199 28.578 21.1937 28.2733 20.7695C28.2733 20.7695 28.1707 22.1181 29.4875 23.616V21.7084Z" fill="#CE8172"/>
<path d="M31.702 18.2855C31.5817 19.5317 31.2941 20.7561 30.847 21.9258C30.786 22.0616 30.6987 22.1839 30.5901 22.2859C30.4815 22.3878 30.3538 22.4672 30.2142 22.5196C30.0747 22.572 29.9262 22.5963 29.7772 22.591C29.6283 22.5858 29.4818 22.5511 29.3463 22.4891C28.8963 22.3162 28.506 22.0172 28.2223 21.628C27.9386 21.2388 27.7737 20.7761 27.7474 20.2955L27.431 18.2428C27.4091 17.8256 27.5179 17.412 27.7424 17.0594C27.9669 16.7068 28.2959 16.4328 28.6837 16.2755C30.1159 15.5969 31.8773 16.9412 31.702 18.2855Z" fill="#F4A28C"/>
<path d="M29.0085 19.7617C29.0085 19.7617 29.141 18.9082 28.4869 18.857C27.8328 18.8058 27.6318 20.0434 28.4869 20.3165L29.0085 19.7617Z" fill="#F4A28C"/>
<path d="M31.5054 19.6914L31.9714 20.6559C31.9982 20.7104 32.0107 20.7708 32.0077 20.8315C32.0047 20.8921 31.9863 20.951 31.9542 21.0027C31.9222 21.0543 31.8775 21.0969 31.8244 21.1266C31.7713 21.1562 31.7116 21.172 31.6507 21.1723H30.77L31.5054 19.6914Z" fill="#F4A28C"/>
<path d="M50.3496 29.9419L43.4238 25.9688L43.0262 26.6593L49.952 30.6325L50.3496 29.9419Z" fill="#24285B"/>
<path opacity="0.18" d="M33.6215 53.0607L31.3898 56.8333C31.3898 56.8333 23.2924 52.9241 20.9709 42.3234C18.6494 31.7226 26.3193 35.8494 26.3193 35.8494L33.6215 53.0607Z" fill="black"/>
<path d="M31.3901 56.835C31.3901 56.835 38.8933 41.5654 49.9877 41.6252C61.0821 41.6849 46.6701 66.2578 46.6701 66.2578L42.9933 64.7727C42.9933 64.7727 48.4401 54.2274 47.0463 50.8347C45.6526 47.4419 43.5619 70.8583 31.3901 56.835Z" fill="#24285B"/>
<path d="M24.9685 26.5592C24.9685 26.5592 28.3075 24.8522 30.0048 28.3004C31.7021 31.7487 30.364 46.5061 37.2472 47.2742C44.1304 48.0424 47.6234 40.8728 47.6234 40.8728C47.6234 40.8728 48.192 37.8514 49.1411 37.3606C50.0902 36.8698 50.9154 40.0278 49.1411 41.8714C49.1411 41.8714 46.1056 53.2574 36.4777 53.5135C26.8497 53.7696 15.4688 34.3519 24.9685 26.5592Z" fill="#F4A28C"/>
<path d="M31.719 15.377C31.719 15.377 33.9122 17.9375 31.0692 18.4923C28.2261 19.0471 27.6489 19.5422 27.9183 22.4143C28.1876 25.2864 29.312 27.928 25.5497 29.746C21.7875 31.564 25.0367 34.53 24.327 38.0679C23.6173 41.6057 20.321 44.0425 16.0842 41.6271C11.8474 39.2116 9.24373 33.0705 13.7713 29.379C18.2988 25.6875 24.032 24.7999 24.032 18.8593C24.032 12.9188 28.7819 12.6116 31.719 15.377Z" fill="#24285B"/>
<path d="M49.8656 41.6992L47.0532 40.6289L46.4486 42.212L49.2609 43.2823L49.8656 41.6992Z" fill="#3766E8"/>
<path opacity="0.44" d="M49.8656 41.6992L47.0532 40.6289L46.4486 42.212L49.2609 43.2823L49.8656 41.6992Z" fill="white"/>
<path d="M121.205 35.0977C121.205 35.0977 135.399 37.4918 134.741 47.3756C134.219 55.2365 138.285 70.3097 119.025 69.4477C99.7648 68.5856 90.6755 67.5145 95.2158 52.804C99.7562 38.0935 121.205 35.0977 121.205 35.0977Z" fill="#FF7E17"/>
<path opacity="0.09" d="M127.443 40.2224C127.642 41.3268 127.503 42.4651 127.046 43.49C126.588 44.5149 125.833 45.3792 124.878 45.9709C122.266 47.6779 118.247 53.7977 115.122 56.8917C114.633 57.3726 114.246 57.947 113.985 58.5805C113.723 59.2141 113.592 59.8937 113.6 60.5789C113.591 60.9295 113.499 61.2731 113.332 61.5816C113.165 61.8901 112.927 62.1548 112.638 62.3542C110.47 64.121 101.377 65.0087 96.2936 59.5675C91.2102 54.1263 97.9097 51.4334 97.9097 51.4334L119.949 36.2023C119.188 35.8012 126.541 37.2521 127.443 40.2224Z" fill="black"/>
<path d="M78.0503 66.8711C77.8984 67.2232 77.67 67.5372 77.3817 67.7903C77.0933 68.0435 76.7521 68.2295 76.3829 68.3349C75.1944 68.6037 74.5488 70.0633 77.1482 69.8243C79.7476 69.5853 81.1755 69.995 80.7993 68.5696C80.4231 67.1442 80.5984 66.9308 80.5984 66.9308L78.0503 66.8711Z" fill="#F4A28C"/>
<path d="M90.4788 67.5457C90.3939 67.9199 90.2267 68.2707 89.9893 68.5725C89.752 68.8744 89.4504 69.1198 89.1064 69.2911C87.9906 69.7734 87.6186 71.3225 90.1325 70.6184C92.6464 69.9142 94.1214 70.0508 93.4929 68.7193C92.8644 67.3878 92.9927 67.1445 92.9927 67.1445L90.4788 67.5457Z" fill="#F4A28C"/>
<path d="M93.2278 47.8359C93.2278 47.8359 77.3365 47.9981 77.4904 66.9164L81.2441 67.548C81.2441 67.548 81.9623 47.5756 102.621 57.0881L101.543 49.2186L93.2278 47.8359Z" fill="#24285B"/>
<path opacity="0.09" d="M93.2278 47.8359C93.2278 47.8359 77.3365 47.9981 77.4904 66.9164L81.2441 67.548C81.2441 67.548 81.9623 47.5756 102.621 57.0881L101.543 49.2186L93.2278 47.8359Z" fill="black"/>
<path d="M93.801 30.5577C93.801 30.5577 88.1362 33.4597 86.1952 32.1324C84.2542 30.8052 83.7027 23.418 83.7027 23.418L81.0435 24.0069C81.0435 24.0069 80.0217 38.6021 84.5235 40.1171C89.0254 41.6321 96.8621 37.7572 96.8621 37.7572L93.801 30.5577Z" fill="#F4A28C"/>
<path d="M109.282 30.5484C107.413 34.2527 103.322 39.2159 94.643 40.1335L92.7832 30.8258C92.7832 30.8258 99.3843 26.6606 106.374 26.1314C106.911 26.0965 107.448 26.2043 107.93 26.4439C108.411 26.6834 108.821 27.0462 109.116 27.4951C109.412 27.944 109.583 28.4631 109.612 28.9995C109.641 29.5358 109.527 30.0703 109.282 30.5484Z" fill="#3766E8"/>
<path opacity="0.46" d="M109.282 30.5484C107.413 34.2527 103.322 39.2159 94.643 40.1335L92.7832 30.8258C92.7832 30.8258 99.3843 26.6606 106.374 26.1314C106.911 26.0965 107.448 26.2043 107.93 26.4439C108.411 26.6834 108.821 27.0462 109.116 27.4951C109.412 27.944 109.583 28.4631 109.612 28.9995C109.641 29.5358 109.527 30.0703 109.282 30.5484Z" fill="white"/>
<path d="M83.57 23.445C83.7026 23.4152 83.8351 20.5943 83.4931 20.8546C83.2622 21.0653 83.0998 21.3403 83.0271 21.6441C83.0271 21.6441 83.0271 19.6469 81.9967 19.8688C80.9664 20.0907 80.6158 22.3909 81.0219 24.0041L83.5529 23.5389" fill="#F4A28C"/>
<path d="M107.756 17.6596C107.614 18.7019 107.614 19.7584 107.756 20.8006C107.78 20.9231 107.828 21.0397 107.897 21.1436C107.967 21.2474 108.056 21.3365 108.16 21.4055C108.264 21.4746 108.381 21.5223 108.504 21.546C108.627 21.5696 108.753 21.5686 108.876 21.5432C109.273 21.4855 109.646 21.3148 109.949 21.0514C110.253 20.7881 110.474 20.4433 110.586 20.058L111.236 18.4406C111.331 18.1027 111.32 17.7435 111.204 17.412C111.088 17.0806 110.872 16.793 110.586 16.5885C109.564 15.7691 107.858 16.5159 107.756 17.6596Z" fill="#F4A28C"/>
<path d="M111.124 18.7305L111.77 24.8886L108.345 25.0039L109.252 20.4759L111.124 18.7305Z" fill="#F4A28C"/>
<path d="M108.222 17.7664C108.804 17.8197 109.391 17.8053 109.97 17.7238C109.793 17.9695 109.689 18.2609 109.673 18.5635C109.656 18.8661 109.727 19.1671 109.876 19.4308C110.021 19.6918 110.253 19.8939 110.532 20.0023C110.811 20.1106 111.119 20.1183 111.403 20.024L111.501 17.5957C111.527 17.2495 111.458 16.9028 111.302 16.5925C111.146 16.2821 110.909 16.0197 110.616 15.8332C110.362 15.6735 110.098 15.5309 109.825 15.4065C109.141 15.0907 108.093 15.5003 107.491 14.9797C107.43 14.9295 107.357 14.8958 107.279 14.882C107.201 14.8683 107.121 14.8748 107.047 14.901C106.973 14.9272 106.906 14.9722 106.854 15.0316C106.802 15.091 106.767 15.1628 106.751 15.24C106.606 15.9698 106.674 17.1348 107.653 17.5915C107.831 17.6818 108.024 17.741 108.222 17.7664Z" fill="#0F0F0F"/>
<path d="M109.688 19.3815C109.688 19.3815 109.739 18.656 110.282 18.7414C110.825 18.8267 110.757 19.8765 110.009 19.932L109.688 19.3815Z" fill="#F4A28C"/>
<path d="M107.653 18.8516L107.084 19.5472C107.053 19.5874 107.032 19.6349 107.023 19.6852C107.015 19.7355 107.019 19.7871 107.036 19.8354C107.052 19.8837 107.08 19.9271 107.118 19.9617C107.156 19.9963 107.201 20.0211 107.251 20.0337L107.965 20.2087L107.653 18.8516Z" fill="#F4A28C"/>
<path opacity="0.31" d="M109.008 21.4568C109.439 21.3731 109.836 21.1654 110.15 20.8594C109.973 21.7373 109.469 22.5153 108.739 23.0359L109.008 21.4568Z" fill="#CE8172"/>
<path d="M119.183 30.9622C118.485 29.1051 117.217 27.5154 115.56 26.4196C113.904 25.3238 111.943 24.7779 109.957 24.8596L108.439 24.9108C108.439 24.9108 97.7725 24.8638 96.9645 34.5598C96.1565 44.2559 100.547 51.9376 100.547 51.9376L114.882 52.4582C114.882 52.4582 122.279 39.5145 119.183 30.9622Z" fill="#3766E8"/>
<path opacity="0.08" d="M111.962 29.8945C111.962 29.8945 109.919 37.0897 110.68 44.063C111.441 51.0363 109.44 52.2611 109.44 52.2611L114.895 52.4574C114.895 52.4574 116.516 49.6578 116.956 48.1898C117.396 46.7217 119.752 30.1719 111.962 29.8945Z" fill="black"/>
<path d="M116.887 27.289C120.188 29.8069 124.318 34.7402 123.608 43.4248L114.1 43.523C114.1 43.523 111.227 36.2681 112.018 29.3247C112.084 28.7942 112.29 28.2908 112.614 27.865C112.938 27.4393 113.368 27.1064 113.862 26.8999C114.356 26.6934 114.896 26.6207 115.427 26.689C115.958 26.7573 116.462 26.9643 116.887 27.289Z" fill="#3766E8"/>
<path opacity="0.46" d="M116.887 27.289C120.188 29.8069 124.318 34.7402 123.608 43.4248L114.1 43.523C114.1 43.523 111.227 36.2681 112.018 29.3247C112.084 28.7942 112.29 28.2908 112.614 27.865C112.938 27.4393 113.368 27.1064 113.862 26.8999C114.356 26.6934 114.896 26.6207 115.427 26.689C115.958 26.7573 116.462 26.9643 116.887 27.289Z" fill="white"/>
<path d="M122.711 43.4375C122.711 43.4375 122.954 56.2873 119.243 63.6788L117.217 63.3758C117.217 63.3758 118.893 51.0765 115.541 43.5143L122.711 43.4375Z" fill="#F4A28C"/>
<path d="M119.243 63.678C119.243 63.678 118.367 67.9029 116.097 66.3623C113.826 64.8217 117.217 63.375 117.217 63.375L119.243 63.678Z" fill="#F4A28C"/>
<path d="M114.733 52.8192C114.733 52.8192 102.762 41.5655 91.6718 41.6252C80.5817 41.685 89.1066 69.0873 89.1066 69.0873L92.7706 67.6022C92.7706 67.6022 93.1981 54.2275 94.5833 50.8347C95.9685 47.442 101.492 69.8342 114.733 52.8192Z" fill="#24285B"/>
<path d="M97.2126 7.69841H80.043V10.8735H75.5753V0.00390625H48.2646V16.4513H75.5753V11.6801H80.043V18.0346H93.3819L95.9471 21.948V18.0346H97.2126V7.69841Z" fill="#E6E6E6"/>
<path opacity="0.09" d="M85.2033 14.1021C85.7795 14.1021 86.2465 13.6359 86.2465 13.0608C86.2465 12.4857 85.7795 12.0195 85.2033 12.0195C84.6272 12.0195 84.1602 12.4857 84.1602 13.0608C84.1602 13.6359 84.6272 14.1021 85.2033 14.1021Z" fill="black"/>
<path opacity="0.09" d="M88.6276 14.1021C89.2038 14.1021 89.6708 13.6359 89.6708 13.0608C89.6708 12.4857 89.2038 12.0195 88.6276 12.0195C88.0515 12.0195 87.5845 12.4857 87.5845 13.0608C87.5845 13.6359 88.0515 14.1021 88.6276 14.1021Z" fill="black"/>
<path opacity="0.09" d="M92.0524 14.1021C92.6286 14.1021 93.0956 13.6359 93.0956 13.0608C93.0956 12.4857 92.6286 12.0195 92.0524 12.0195C91.4763 12.0195 91.0093 12.4857 91.0093 13.0608C91.0093 13.6359 91.4763 14.1021 92.0524 14.1021Z" fill="black"/>
<path opacity="0.09" d="M56.7553 8.8826C57.5203 8.8826 58.1405 8.26354 58.1405 7.4999C58.1405 6.73625 57.5203 6.11719 56.7553 6.11719C55.9903 6.11719 55.3701 6.73625 55.3701 7.4999C55.3701 8.26354 55.9903 8.8826 56.7553 8.8826Z" fill="black"/>
<path opacity="0.09" d="M61.2958 8.8826C62.0609 8.8826 62.681 8.26354 62.681 7.4999C62.681 6.73625 62.0609 6.11719 61.2958 6.11719C60.5308 6.11719 59.9106 6.73625 59.9106 7.4999C59.9106 8.26354 60.5308 8.8826 61.2958 8.8826Z" fill="black"/>
<path opacity="0.09" d="M65.8359 8.8826C66.6009 8.8826 67.2211 8.26354 67.2211 7.4999C67.2211 6.73625 66.6009 6.11719 65.8359 6.11719C65.0709 6.11719 64.4507 6.73625 64.4507 7.4999C64.4507 8.26354 65.0709 8.8826 65.8359 8.8826Z" fill="black"/>
</svg>
