<svg width="115" height="115" viewBox="0 0 115 115" fill="none" xmlns="http://www.w3.org/2000/svg">
<path d="M109.247 41.2109H5.74683V68.0443H109.247V41.2109ZM105.413 64.2109H9.58016V45.0443H105.413V64.2109Z" fill="#CED4DA"/>
<path d="M19.1698 60.377C22.3455 60.377 24.9198 57.8026 24.9198 54.627C24.9198 51.4513 22.3455 48.877 19.1698 48.877C15.9941 48.877 13.4198 51.4513 13.4198 54.627C13.4198 57.8026 15.9941 60.377 19.1698 60.377ZM19.1698 52.7103C20.2283 52.7103 21.0865 53.5685 21.0865 54.627C21.0865 55.6854 20.2283 56.5436 19.1698 56.5436C18.1113 56.5436 17.2531 55.6854 17.2531 54.627C17.2531 53.5685 18.1113 52.7103 19.1698 52.7103Z" fill="#CED4DA"/>
<path d="M49.8333 60.377H99.6666C100.725 60.377 101.583 59.5188 101.583 58.4603V50.7936C101.583 49.7351 100.725 48.877 99.6666 48.877H49.8333C48.7748 48.877 47.9166 49.7351 47.9166 50.7936V58.4603C47.9166 59.5188 48.7748 60.377 49.8333 60.377ZM51.75 52.7103H97.75V56.5436H51.75V52.7103Z" fill="#CED4DA"/>
<path d="M113.083 35.4609H1.91667C0.858187 35.4609 0 36.3191 0 37.3776V71.8776C0 72.9361 0.858187 73.7943 1.91667 73.7943H11.5V79.5443H30.6667V73.7943H84.3333V79.5443H103.5V73.7943H113.083C114.142 73.7943 115 72.9361 115 71.8776V37.3776C115 36.3191 114.142 35.4609 113.083 35.4609ZM26.8333 75.711H15.3333V73.7943H26.8333V75.711ZM99.6667 75.711H88.1667V73.7943H99.6667V75.711ZM111.167 69.961H3.83333V39.2943H111.167V69.961Z" fill="#CED4DA"/>
<path d="M32.5833 52.7109H28.75V56.5443H32.5833V52.7109Z" fill="#CED4DA"/>
<path d="M38.3302 52.7109H34.4968V56.5443H38.3302V52.7109Z" fill="#CED4DA"/>
<path d="M44.0849 52.7109H40.2516V56.5443H44.0849V52.7109Z" fill="#CED4DA"/>
</svg>
