<svg width="149" height="115" viewBox="0 0 149 115" fill="none" xmlns="http://www.w3.org/2000/svg">
<path d="M143.247 41.2109H39.7468V68.0443H143.247V41.2109ZM139.413 64.2109H43.5802V45.0443H139.413V64.2109Z" fill="#CED4DA"/>
<path d="M53.1698 60.377C56.3455 60.377 58.9198 57.8026 58.9198 54.627C58.9198 51.4513 56.3455 48.877 53.1698 48.877C49.9941 48.877 47.4198 51.4513 47.4198 54.627C47.4198 57.8026 49.9941 60.377 53.1698 60.377ZM53.1698 52.7103C54.2283 52.7103 55.0865 53.5685 55.0865 54.627C55.0865 55.6854 54.2283 56.5436 53.1698 56.5436C52.1113 56.5436 51.2531 55.6854 51.2531 54.627C51.2531 53.5685 52.1113 52.7103 53.1698 52.7103Z" fill="#CED4DA"/>
<path d="M83.8333 60.377H133.667C134.725 60.377 135.583 59.5188 135.583 58.4603V50.7936C135.583 49.7351 134.725 48.877 133.667 48.877H83.8333C82.7748 48.877 81.9166 49.7351 81.9166 50.7936V58.4603C81.9166 59.5188 82.7748 60.377 83.8333 60.377ZM85.75 52.7103H131.75V56.5436H85.75V52.7103Z" fill="#CED4DA"/>
<path d="M147.083 35.4609H35.9167C34.8582 35.4609 34 36.3191 34 37.3776V71.8776C34 72.9361 34.8582 73.7943 35.9167 73.7943H45.5V79.5443H64.6667V73.7943H118.333V79.5443H137.5V73.7943H147.083C148.142 73.7943 149 72.9361 149 71.8776V37.3776C149 36.3191 148.142 35.4609 147.083 35.4609ZM60.8333 75.711H49.3333V73.7943H60.8333V75.711ZM133.667 75.711H122.167V73.7943H133.667V75.711ZM145.167 69.961H37.8333V39.2943H145.167V69.961Z" fill="#CED4DA"/>
<path d="M66.5833 52.7109H62.75V56.5443H66.5833V52.7109Z" fill="#CED4DA"/>
<path d="M72.3302 52.7109H68.4968V56.5443H72.3302V52.7109Z" fill="#CED4DA"/>
<path d="M78.0849 52.7109H74.2516V56.5443H78.0849V52.7109Z" fill="#CED4DA"/>
<path fill-rule="evenodd" clip-rule="evenodd" d="M30.5 62.4577C15.059 62.4577 2.54163 49.9403 2.54163 34.4993C2.54163 19.0584 15.059 6.54102 30.5 6.54102C45.9409 6.54102 58.4583 19.0584 58.4583 34.4993C58.4583 49.9403 45.9409 62.4577 30.5 62.4577ZM30.5 57.3743C43.1335 57.3743 53.375 47.1329 53.375 34.4993C53.375 21.8658 43.1335 11.6243 30.5 11.6243C17.8664 11.6243 7.62496 21.8658 7.62496 34.4993C7.62496 47.1329 17.8664 57.3743 30.5 57.3743ZM22.1306 46.4634L30.5001 38.0939L38.8695 46.4634L42.464 42.8689L34.0945 34.4995L42.464 26.13L38.8695 22.5356L30.5001 30.905L22.1306 22.5356L18.5362 26.13L26.9056 34.4995L18.5362 42.8689L22.1306 46.4634Z" fill="#CED4DA"/>
</svg>
