<svg width="350" height="345" viewBox="0 0 350 345" fill="none" xmlns="http://www.w3.org/2000/svg">
<path opacity="0.45" d="M121.819 59.4024C38.6438 55.0233 -22.6772 138.046 8.05929 215.502C13.3693 229.16 21.585 241.5 32.1373 251.668C100.283 317.05 246.257 294.947 291.622 260.868C336.988 226.788 355.568 123.541 314.871 90.9539C264.215 50.4923 197.327 63.3808 121.819 59.4024Z" fill="#E6E6E6"/>
<path d="M184.922 238.445L227.055 289.212L283.238 226.123L238.148 186.531L184.922 238.445Z" fill="#F4A28C"/>
<path d="M207.728 276.778L273.663 217.723L350 282.76L258.371 344.467L207.728 276.778Z" fill="white"/>
<path opacity="0.08" d="M212.785 222.805L295.449 319.504L258.372 344.466L207.729 276.777L212.979 272.287L186.704 240.583L212.785 222.805Z" fill="black"/>
<path d="M71.1899 176.062C71.1899 176.062 115.658 237.853 158.15 240.215C200.642 242.578 223.367 240.45 241.035 199.174L71.1899 176.062Z" fill="#F4A28C"/>
<path opacity="0.08" d="M71.1899 176.062C71.1899 176.062 115.658 237.853 158.15 240.215C200.642 242.578 223.367 240.45 241.035 199.174L71.1899 176.062Z" fill="black"/>
<path d="M207.729 0H83.498V222.808H207.729V0Z" fill="#C9C9C9"/>
<path d="M196.609 25.4062H93.7761V182.211H196.609V25.4062Z" fill="white"/>
<path opacity="0.56" d="M145.993 214.438C152.707 214.438 158.15 208.995 158.15 202.281C158.15 195.568 152.707 190.125 145.993 190.125C139.279 190.125 133.837 195.568 133.837 202.281C133.837 208.995 139.279 214.438 145.993 214.438Z" fill="white"/>
<path opacity="0.12" d="M169.933 8.70117H135.108V13.7848H169.933V8.70117Z" fill="black"/>
<path d="M122.495 17.4763C125.631 17.4763 128.173 14.9344 128.173 11.7987C128.173 8.66305 125.631 6.12109 122.495 6.12109C119.36 6.12109 116.818 8.66305 116.818 11.7987C116.818 14.9344 119.36 17.4763 122.495 17.4763Z" fill="white"/>
<path opacity="0.08" d="M110.878 175.508C110.878 175.508 118.766 189.64 109.151 194.005C99.5363 198.37 83.498 191.242 83.498 191.242V180.826L110.878 175.508Z" fill="black"/>
<path opacity="0.08" d="M108.64 135.129C108.64 135.129 117.481 155.228 107.88 159.608C98.2792 163.987 83.498 156.375 83.498 156.375V145.89L108.64 135.129Z" fill="black"/>
<path opacity="0.08" d="M108.64 116.428C108.64 116.428 116.182 132.452 106.568 136.831C96.953 141.21 83.498 137.66 83.498 137.66V127.244L108.64 116.428Z" fill="black"/>
<path d="M77.0194 92.5662C77.0194 92.5662 58.1078 118.164 77.0194 122.957C95.931 127.751 116.072 128.483 106.844 106.519C97.6163 84.554 77.0194 92.5662 77.0194 92.5662Z" fill="#F4A28C"/>
<path d="M77.0194 119.463C77.0194 119.463 58.1078 145.074 77.0194 149.854C95.931 154.633 113.53 155.877 108.129 132.655C104.358 116.396 77.0194 119.463 77.0194 119.463Z" fill="#F4A28C"/>
<path d="M77.0194 148.779C77.0194 148.779 58.1078 174.391 77.0194 179.17C95.931 183.95 110.795 191.603 111.886 168.368C112.618 152.606 77.0194 148.779 77.0194 148.779Z" fill="#F4A28C"/>
<path opacity="0.46" d="M90.9577 102.889L89.2724 115.502C89.2201 115.897 89.2467 116.299 89.3505 116.685C89.4543 117.07 89.6334 117.431 89.8773 117.747C90.1213 118.063 90.4254 118.328 90.772 118.525C91.1187 118.723 91.501 118.851 91.8971 118.9L96.0413 119.425C97.7452 119.66 99.4753 119.25 100.893 118.277C102.311 117.303 103.315 115.836 103.708 114.162L104.758 109.893C104.987 108.996 105.034 108.063 104.896 107.148C104.757 106.233 104.436 105.355 103.951 104.566C103.467 103.777 102.829 103.094 102.075 102.557C101.321 102.02 100.467 101.64 99.5639 101.439L94.7152 100.292C94.2958 100.187 93.8589 100.173 93.4335 100.25C93.0081 100.327 92.6042 100.494 92.2485 100.74C91.8929 100.986 91.5938 101.305 91.3712 101.676C91.1486 102.046 91.0076 102.46 90.9577 102.889Z" fill="white"/>
<path opacity="0.08" d="M68.8965 109.892C68.8965 109.892 67.6947 115.072 69.601 117.614H178.014V88.1348L68.8965 109.892Z" fill="black"/>
<path d="M182.049 25.4062H63.7856V109.894H182.049V25.4062Z" fill="#24285B"/>
<path d="M146.2 168.309C157.37 168.309 166.424 159.255 166.424 148.085C166.424 136.916 157.37 127.861 146.2 127.861C135.031 127.861 125.977 136.916 125.977 148.085C125.977 159.255 135.031 168.309 146.2 168.309Z" fill="#194DDE"/>
<path d="M138.699 148.255L145.51 156.102L154.669 141.68" stroke="white" stroke-width="3.045" stroke-linecap="round" stroke-linejoin="round"/>
<path d="M140.468 108.373L145.192 122.201L150.4 108.373H140.468Z" fill="#24285B"/>
<path d="M130.342 50.1023H127.178V42.5874C127.213 41.9575 127.118 41.3272 126.901 40.735C126.684 40.1428 126.348 39.6011 125.914 39.143C125.48 38.6849 124.958 38.3201 124.378 38.0707C123.799 37.8214 123.175 37.6928 122.544 37.6928C121.913 37.6928 121.289 37.8214 120.709 38.0707C120.13 38.3201 119.607 38.6849 119.173 39.143C118.74 39.6011 118.404 40.1428 118.186 40.735C117.969 41.3272 117.875 41.9575 117.909 42.5874V50.1023H114.69V42.5874C114.775 40.5616 115.64 38.647 117.103 37.2436C118.567 35.8402 120.516 35.0566 122.544 35.0566C124.571 35.0566 126.521 35.8402 127.984 37.2436C129.448 38.647 130.312 40.5616 130.397 42.5874L130.342 50.1023Z" fill="#FF879D"/>
<path opacity="0.46" d="M130.342 50.1023H127.178V42.5874C127.213 41.9575 127.118 41.3272 126.901 40.735C126.684 40.1428 126.348 39.6011 125.914 39.143C125.48 38.6849 124.958 38.3201 124.378 38.0707C123.799 37.8214 123.175 37.6928 122.544 37.6928C121.913 37.6928 121.289 37.8214 120.709 38.0707C120.13 38.3201 119.607 38.6849 119.173 39.143C118.74 39.6011 118.404 40.1428 118.186 40.735C117.969 41.3272 117.875 41.9575 117.909 42.5874V50.1023H114.69V42.5874C114.775 40.5616 115.64 38.647 117.103 37.2436C118.567 35.8402 120.516 35.0566 122.544 35.0566C124.571 35.0566 126.521 35.8402 127.984 37.2436C129.448 38.647 130.312 40.5616 130.397 42.5874L130.342 50.1023Z" fill="white"/>
<path d="M134.5 44.3555H110.478V63.5019H134.5V44.3555Z" fill="#FF879D"/>
<path d="M124.678 51.3185C124.683 50.8945 124.581 50.476 124.382 50.1014C124.184 49.7267 123.895 49.4077 123.541 49.1733C123.188 48.939 122.781 48.7968 122.359 48.7597C121.936 48.7227 121.511 48.7919 121.122 48.961C120.734 49.1302 120.393 49.394 120.132 49.7283C119.872 50.0627 119.699 50.457 119.629 50.8753C119.56 51.2936 119.596 51.7227 119.735 52.1234C119.873 52.5241 120.11 52.8838 120.423 53.1696V58.5571H123.905V53.1281C124.147 52.8931 124.341 52.6119 124.474 52.3012C124.606 51.9905 124.676 51.6564 124.678 51.3185Z" fill="#24285B"/>
<path d="M160.83 73.9355H86.5098V92.557H160.83V73.9355Z" fill="white"/>
<path d="M160.843 73.9355H141.739V92.557H160.843V73.9355Z" fill="#9077F7"/>
<path d="M95.1299 85.7446C96.5031 85.7446 97.6164 84.6313 97.6164 83.258C97.6164 81.8848 96.5031 80.7715 95.1299 80.7715C93.7566 80.7715 92.6433 81.8848 92.6433 83.258C92.6433 84.6313 93.7566 85.7446 95.1299 85.7446Z" fill="#24285B"/>
<path d="M104.358 85.7446C105.731 85.7446 106.844 84.6313 106.844 83.258C106.844 81.8848 105.731 80.7715 104.358 80.7715C102.985 80.7715 101.871 81.8848 101.871 83.258C101.871 84.6313 102.985 85.7446 104.358 85.7446Z" fill="#24285B"/>
<path d="M113.364 85.7446C114.738 85.7446 115.851 84.6313 115.851 83.258C115.851 81.8848 114.738 80.7715 113.364 80.7715C111.991 80.7715 110.878 81.8848 110.878 83.258C110.878 84.6313 111.991 85.7446 113.364 85.7446Z" fill="#24285B"/>
<path d="M122.592 85.7446C123.966 85.7446 125.079 84.6313 125.079 83.258C125.079 81.8848 123.966 80.7715 122.592 80.7715C121.219 80.7715 120.106 81.8848 120.106 83.258C120.106 84.6313 121.219 85.7446 122.592 85.7446Z" fill="#24285B"/>
<path d="M132.014 85.7446C133.387 85.7446 134.5 84.6313 134.5 83.258C134.5 81.8848 133.387 80.7715 132.014 80.7715C130.64 80.7715 129.527 81.8848 129.527 83.258C129.527 84.6313 130.64 85.7446 132.014 85.7446Z" fill="#24285B"/>
<path d="M223.421 102.461C223.131 97.7362 222.952 93.0117 223.007 88.7846C223.104 80.0955 214.608 73.4923 206.43 76.3519C202.286 77.7333 198.97 81.2697 198.97 88.7846C198.97 103.731 203.653 125.268 206.292 136.209C207.403 140.828 207.711 145.603 207.203 150.327C205.49 166.475 202.769 204.589 214.677 207.13C228.491 210.073 261.99 205.21 235.771 149.346C228.744 134.632 224.555 118.726 223.421 102.461Z" fill="#F4A28C"/>
<path opacity="0.46" d="M91.4688 163.518L91.1372 174.652C91.1205 175.004 91.1746 175.356 91.2963 175.687C91.4179 176.018 91.6047 176.321 91.8455 176.579C92.0863 176.836 92.3763 177.043 92.6983 177.187C93.0204 177.33 93.3679 177.408 93.7205 177.415L97.326 177.512C98.8264 177.549 100.288 177.031 101.43 176.057C102.572 175.083 103.314 173.722 103.515 172.235L104.04 168.436C104.154 167.635 104.108 166.819 103.904 166.036C103.699 165.253 103.341 164.518 102.85 163.875C102.359 163.232 101.744 162.694 101.042 162.291C100.341 161.888 99.5656 161.629 98.7626 161.529L94.4526 160.976C94.0867 160.93 93.7151 160.96 93.3616 161.066C93.0081 161.171 92.6804 161.349 92.3996 161.588C92.1188 161.828 91.891 162.123 91.7307 162.455C91.5704 162.787 91.4812 163.149 91.4688 163.518Z" fill="white"/>
<path opacity="0.46" d="M89.7144 129.826L88.0291 142.466C87.9749 142.862 87.9999 143.266 88.1028 143.653C88.2057 144.04 88.3844 144.403 88.6286 144.72C88.8727 145.037 89.1775 145.303 89.5251 145.502C89.8728 145.701 90.2564 145.828 90.6538 145.878L94.798 146.403C96.5013 146.622 98.2256 146.207 99.6422 145.236C101.059 144.265 102.069 142.807 102.479 141.14L103.515 136.871C103.734 135.974 103.774 135.042 103.632 134.129C103.489 133.216 103.167 132.341 102.684 131.554C102.201 130.766 101.567 130.082 100.818 129.541C100.069 129.001 99.22 128.614 98.3206 128.403L93.4719 127.27C93.0556 127.165 92.6218 127.149 92.199 127.224C91.7762 127.299 91.3741 127.462 91.0191 127.704C90.6641 127.945 90.3643 128.259 90.1394 128.625C89.9145 128.991 89.7697 129.4 89.7144 129.826Z" fill="white"/>
</svg>
