<svg width="108" height="95" viewBox="0 0 108 95" fill="none" xmlns="http://www.w3.org/2000/svg">
<path d="M24.955 44.2117L15.0386 40.7178C15.4602 40.1293 21.0171 27.3603 26.2451 24.814C30.8112 21.8252 39.2899 22.3762 48.8732 23.0399C51.9472 23.1915 54.9785 23.8168 57.8579 24.8933C68.6596 29.1427 70.2028 43.2307 70.2028 43.2307L60.2653 46.6244C60.2653 46.6244 61.8801 65.7633 63.4021 75.769C63.4021 75.769 50.9518 83.028 23.8082 78.5782C23.8082 78.5949 24.9086 47.0418 24.955 44.2117Z" fill="#3766E8"/>
<path d="M49.4214 31.0633L44.9017 52.7569L37.3252 27.7114L49.4214 31.0633Z" fill="#231F20"/>
<path d="M44.9016 52.9657C44.9486 52.9631 44.9933 52.9454 45.0291 52.9152C45.0649 52.8851 45.0897 52.8441 45.0998 52.7987L49.6195 31.0926C49.6301 31.0413 49.6208 30.9879 49.5935 30.9431C49.5661 30.8982 49.5228 30.8652 49.472 30.8505L37.3758 27.5111C37.3396 27.5007 37.3013 27.5002 37.2649 27.5098C37.2285 27.5193 37.1954 27.5386 37.1692 27.5654C37.142 27.5912 37.1228 27.6242 37.1138 27.6604C37.1049 27.6966 37.1065 27.7346 37.1186 27.7699L44.7077 52.8154C44.72 52.8574 44.7454 52.8945 44.7802 52.9215C44.815 52.9485 44.8575 52.9639 44.9016 52.9657ZM49.1768 31.2137L44.8637 51.9096L37.6372 28.0121L49.1768 31.2137Z" fill="#231F20"/>
<path d="M39.564 1.37234C40.4072 1.25546 40.9764 1.56435 41.7395 1.74802C42.7429 1.99012 42.4605 2.01517 43.3543 1.4433C45.4624 0.107539 48.2029 0.70863 50.5513 1.52678C52.8997 2.34493 55.3998 3.34258 57.7904 2.66635C56.9671 3.56167 55.8236 4.10377 54.603 4.17743C56.5677 5.31282 59.4263 4.43623 61.0621 6.00574C59.5014 7.95481 57.7626 9.75736 55.8678 11.3905C57.2797 11.1715 58.6518 10.7496 59.9406 10.1382C57.5522 12.7195 54.6302 14.7611 51.3734 16.1241C48.9955 17.1593 46.4194 17.9023 43.8265 17.7312C39.6567 17.4515 35.3942 14.2081 35.0653 9.94623C34.8419 7.03678 35.9592 1.86907 39.564 1.37234Z" fill="white"/>
<path d="M44.5854 17.9771C46.6598 17.9771 48.9154 17.4344 51.4577 16.3074C54.7431 14.9352 57.69 12.8762 60.0966 10.2714C60.1294 10.2358 60.1486 10.19 60.1511 10.1419C60.1537 10.0938 60.1393 10.0464 60.1105 10.0076C60.0817 9.96874 60.0403 9.94097 59.9932 9.92896C59.9461 9.91694 59.8963 9.92142 59.8521 9.94164C58.8031 10.4298 57.6991 10.7927 56.5635 11.0228C58.2523 9.51245 59.812 7.86636 61.2266 6.10134C61.2615 6.06299 61.2809 6.01316 61.2809 5.9615C61.2809 5.90984 61.2615 5.86001 61.2266 5.82166C60.2737 4.9075 58.9372 4.7781 57.6428 4.65287C56.8714 4.60306 56.1085 4.46294 55.3703 4.23545C56.371 4.02495 57.2787 3.50621 57.9633 2.75359C57.991 2.7184 58.006 2.67506 58.006 2.63045C58.006 2.58584 57.991 2.54251 57.9633 2.50731C57.9398 2.46819 57.9039 2.43792 57.8611 2.42129C57.8184 2.40466 57.7712 2.40262 57.7272 2.41548C55.5769 3.02074 53.3213 2.22764 51.1373 1.45958L50.6145 1.28009C48.5402 0.553767 45.513 -0.235164 43.2363 1.21747L42.899 1.43871C42.5364 1.68499 42.5406 1.68081 42.0557 1.56393L41.769 1.49297C41.5709 1.44706 41.3854 1.39279 41.2041 1.33435C40.667 1.13138 40.0895 1.05562 39.5176 1.11312C35.917 1.66412 34.6058 6.71912 34.8588 9.97503C35.2129 14.5667 39.7832 17.6807 43.8139 17.952C44.0668 17.9687 44.3282 17.9771 44.5854 17.9771ZM59.1016 10.7347C56.8584 12.9505 54.2062 14.7191 51.2891 15.9442C48.4896 17.1631 46.0526 17.6807 43.8434 17.5346C38.8894 17.2006 35.5418 13.3353 35.2762 9.94581C35.0358 6.84435 36.2417 2.0398 39.5935 1.56393C40.1062 1.51442 40.6235 1.58595 41.1029 1.77265C41.2884 1.83109 41.4865 1.88953 41.6931 1.93962L41.9714 2.0064C42.587 2.16085 42.6502 2.1525 43.1393 1.82274L43.4681 1.60568C45.5762 0.253223 48.4854 1.01711 50.4796 1.71003L51.0024 1.8937C52.9966 2.59497 55.0583 3.31712 57.0905 3.01657C56.3742 3.57612 55.5013 3.90401 54.5903 3.95577C54.5451 3.95807 54.5018 3.97473 54.4669 4.00331C54.4319 4.03188 54.4072 4.07083 54.3964 4.1144C54.3852 4.15836 54.389 4.20476 54.4074 4.24632C54.4257 4.28787 54.4574 4.32223 54.4976 4.34398C55.4209 4.87828 56.5213 4.98681 57.588 5.087C58.7939 5.20805 59.9364 5.31658 60.7754 6.01368C59.2485 7.89543 57.5554 9.6388 55.7161 11.2231C55.6814 11.252 55.6572 11.2913 55.6473 11.335C55.6374 11.3788 55.6423 11.4245 55.6613 11.4652C55.6801 11.5068 55.7121 11.5411 55.7524 11.563C55.7928 11.5848 55.8392 11.593 55.8847 11.5863C56.9855 11.4211 58.0644 11.1355 59.1016 10.7347Z" fill="#231F20"/>
<path d="M49.1219 23.8666L49.4213 31.063C49.4213 31.063 46.4953 35.1329 42.0093 33.2503C37.5233 31.3677 37.3251 27.7111 37.3251 27.7111L38.7671 13.9946C38.7671 13.9946 42.5363 12.7423 42.7598 5.12012C46.3084 7.37087 50.4037 8.63397 54.6156 8.77675C54.6156 8.77675 55.3914 17.2004 54.2277 20.69C53.064 24.1797 49.1219 23.8666 49.1219 23.8666Z" fill="white"/>
<path d="M44.3452 33.952C47.5579 33.952 49.569 31.2178 49.5943 31.1845C49.6213 31.1468 49.6347 31.1012 49.6322 31.055L49.3413 24.0841C50.2351 24.0841 53.3972 23.8545 54.4302 20.7447C55.5896 17.255 54.8518 9.09436 54.8265 8.75207C54.8224 8.70107 54.7995 8.65334 54.7622 8.61794C54.7249 8.58254 54.6758 8.56194 54.6241 8.56006C50.4548 8.41182 46.4012 7.16386 42.8821 4.94516C42.8515 4.92169 42.8149 4.9072 42.7763 4.90337C42.7378 4.89953 42.6989 4.9065 42.6642 4.92348C42.6295 4.94045 42.6003 4.96675 42.5799 4.99937C42.5596 5.03199 42.5489 5.06961 42.5491 5.10796C42.4352 8.96078 41.3896 11.1147 40.5337 12.2501C40.0733 12.9174 39.4398 13.4495 38.6997 13.7904C38.6614 13.8029 38.6275 13.8261 38.6021 13.8572C38.5767 13.8883 38.5608 13.926 38.5564 13.9657L37.1355 27.6906C37.1355 27.7616 37.3885 31.5309 41.9419 33.4427C42.7002 33.7709 43.5176 33.9441 44.3452 33.952ZM49.2064 31.0091C48.8311 31.5017 46.1328 34.766 42.0895 33.067C37.7764 31.2554 37.5403 27.7449 37.5361 27.7073L38.9611 14.1494C39.6399 13.853 42.6545 12.1666 42.958 5.50869C46.4258 7.59664 50.3675 8.78935 54.4218 8.97748C54.5272 10.2298 55.0668 17.4971 54.0297 20.6236C52.9335 23.9129 49.2949 23.6708 49.1347 23.6583C49.1054 23.6564 49.0759 23.6607 49.0483 23.6707C49.0208 23.6808 48.9956 23.6965 48.9745 23.7167C48.9533 23.7373 48.9367 23.762 48.9258 23.7894C48.9149 23.8167 48.9099 23.846 48.9112 23.8754L49.2064 31.0091Z" fill="#231F20"/>
<path d="M40.7192 17.618C39.7468 17.8587 38.7176 17.7087 37.8565 17.2006C37.2708 16.8288 36.7917 16.314 36.4654 15.7057C36.139 15.0975 35.9763 14.4162 35.9929 13.7276C35.9641 13.2184 36.0505 12.7093 36.2459 12.2374C36.3469 12.0031 36.4973 11.7928 36.6871 11.6207C36.8769 11.4487 37.1016 11.3188 37.3463 11.2398C37.9621 11.1405 38.5938 11.2415 39.1466 11.5278C39.9898 11.8618 40.0531 12.3251 40.5885 12.9596C40.5295 12.9053 40.4747 12.73 40.4199 12.6757" fill="white"/>
<path d="M39.7874 17.9436C40.1189 17.9436 40.449 17.9015 40.7697 17.8184C40.7974 17.8115 40.8235 17.7993 40.8464 17.7825C40.8693 17.7657 40.8887 17.7446 40.9034 17.7203C40.918 17.6961 40.9278 17.6693 40.932 17.6413C40.9362 17.6134 40.9348 17.5849 40.9278 17.5575C40.9209 17.5301 40.9086 17.5043 40.8916 17.4816C40.8746 17.4589 40.8533 17.4397 40.8288 17.4252C40.8044 17.4106 40.7772 17.401 40.749 17.3969C40.7208 17.3927 40.692 17.3941 40.6643 17.4009C40.2113 17.5168 39.7395 17.5425 39.2763 17.4766C38.8131 17.4107 38.3678 17.2544 37.966 17.0169C37.4096 16.6647 36.9549 16.1758 36.6461 15.5979C36.3372 15.02 36.1848 14.3728 36.2036 13.7193C36.1742 13.2414 36.2549 12.7632 36.4398 12.3209C36.5282 12.1141 36.6601 11.9283 36.8265 11.7758C36.993 11.6232 37.1902 11.5074 37.4052 11.4359C37.9154 11.294 38.4593 11.4819 39.0664 11.7156C39.4826 11.866 39.8279 12.1633 40.0361 12.5505C40.1496 12.7249 40.272 12.8935 40.4029 13.0555L40.4409 13.0973C40.4799 13.1334 40.5313 13.1535 40.5847 13.1536C40.6381 13.1537 40.6895 13.1337 40.7286 13.0976C40.7677 13.0616 40.7915 13.0122 40.7952 12.9594C40.7989 12.9067 40.7823 12.8545 40.7487 12.8134C40.7487 12.8134 40.7191 12.7592 40.7065 12.73C40.676 12.6566 40.6332 12.5889 40.58 12.5296C40.556 12.5091 40.529 12.4922 40.4999 12.4795L40.3987 12.3376C40.1453 11.8759 39.7321 11.5202 39.2351 11.3358C38.6402 11.0342 37.9627 10.9317 37.3041 11.0436C37.03 11.1306 36.778 11.2747 36.5649 11.4662C36.3518 11.6578 36.1826 11.8922 36.0687 12.1539C35.8566 12.6551 35.7629 13.1976 35.7947 13.7401C35.7776 14.4636 35.9495 15.1792 36.2937 15.8176C36.6379 16.456 37.1428 16.9956 37.7594 17.3842C38.3721 17.7483 39.0728 17.9415 39.7874 17.9436Z" fill="#231F20"/>
<path d="M49.278 27.6691C48.4477 27.691 47.6246 27.5125 46.8797 27.1488C46.1349 26.7852 45.4906 26.2474 45.0028 25.582C43.2699 23.282 43.7042 21.6582 43.7042 21.6582C43.7042 21.6582 45.9556 23.9833 49.122 23.8747L49.278 27.6691Z" fill="#231F20"/>
<path d="M49.0714 27.8656C49.2021 27.8656 49.278 27.8656 49.2991 27.8656C49.3527 27.8603 49.4023 27.8348 49.4376 27.7945C49.4729 27.7541 49.4912 27.7019 49.4888 27.6485L49.3286 23.8667C49.3286 23.8393 49.323 23.8121 49.3121 23.787C49.3011 23.7618 49.2851 23.7391 49.2649 23.7204C49.2448 23.7016 49.2209 23.6871 49.1949 23.6778C49.1689 23.6685 49.1412 23.6646 49.1136 23.6663C46.0779 23.7581 43.8813 21.5374 43.856 21.5166C43.8304 21.4901 43.7983 21.4708 43.7627 21.4605C43.7272 21.4502 43.6896 21.4494 43.6537 21.4581C43.6175 21.4682 43.5845 21.4873 43.5579 21.5136C43.5313 21.5399 43.512 21.5726 43.5019 21.6084C43.5019 21.6752 43.0802 23.3532 44.8342 25.7075C45.3215 26.3695 45.9585 26.9094 46.6942 27.2842C47.43 27.6589 48.244 27.858 49.0714 27.8656ZM48.9196 24.0795L49.0588 27.4482C48.2995 27.4316 47.5542 27.2427 46.8802 26.8961C46.2063 26.5494 45.6217 26.0543 45.1715 25.4487C44.0078 23.9084 43.8602 22.6812 43.8687 22.0884C45.2595 23.3151 47.041 24.0198 48.9028 24.0795H48.9196Z" fill="#231F20"/>
<path d="M48.519 12.4468C48.519 12.4468 50.5048 16.3956 49.8387 16.955C49.1725 17.5143 47.5915 16.884 47.5915 16.884" fill="white"/>
<path d="M49.0419 17.3929C49.3814 17.4127 49.7172 17.3137 49.9905 17.1133C50.7283 16.4955 49.2063 13.3147 48.7257 12.3505C48.6996 12.3021 48.6557 12.2655 48.603 12.2484C48.5504 12.2313 48.4931 12.235 48.4432 12.2586C48.4182 12.2706 48.3959 12.2874 48.3775 12.308C48.3591 12.3286 48.345 12.3525 48.336 12.3785C48.327 12.4045 48.3233 12.432 48.325 12.4594C48.3268 12.4868 48.334 12.5136 48.3462 12.5383C49.2695 14.375 50.0327 16.5247 49.7207 16.7919C49.2527 17.1842 48.0932 16.8503 47.6843 16.6875C47.6322 16.6681 47.5745 16.6694 47.5234 16.6912C47.4723 16.713 47.4317 16.7536 47.4102 16.8044C47.4 16.8299 47.3949 16.8571 47.3952 16.8845C47.3956 16.912 47.4015 16.9391 47.4124 16.9643C47.4234 16.9895 47.4393 17.0123 47.4591 17.0314C47.479 17.0505 47.5025 17.0656 47.5283 17.0757C48.011 17.2657 48.5228 17.373 49.0419 17.3929Z" fill="#231F20"/>
<path d="M45.424 12.6372C45.0941 12.5663 44.9085 12.1345 45.0097 11.6726C45.1108 11.2108 45.4603 10.8937 45.7902 10.9646C46.1202 11.0354 46.3057 11.4672 46.2046 11.9291C46.1035 12.3909 45.754 12.708 45.424 12.6372Z" fill="#231F20"/>
<path d="M50.2544 12.4363C50.2114 11.9637 50.4503 11.5562 50.7879 11.5261C51.1255 11.4961 51.4341 11.8548 51.477 12.3274C51.52 12.8 51.2811 13.2075 50.9435 13.2376C50.6058 13.2677 50.2973 12.9089 50.2544 12.4363Z" fill="#231F20"/>
<path d="M48.7678 22.3686C49.2593 22.3858 49.7402 22.2256 50.1212 21.9178C51.3481 20.8367 51.2301 18.712 51.2259 18.6243C51.2232 18.5753 51.2032 18.5286 51.1692 18.4928C51.1353 18.4569 51.0897 18.434 51.0403 18.4282C45.4919 17.7853 45.4371 17.8354 45.3486 17.9147C45.3262 17.9348 45.3083 17.9593 45.296 17.9866C45.2837 18.0139 45.2771 18.0434 45.2769 18.0733C45.2733 18.9192 45.4743 19.7536 45.8629 20.5069C46.0984 20.97 46.4371 21.3741 46.8534 21.6887C47.2698 22.0032 47.7528 22.22 48.2661 22.3227C48.4317 22.3523 48.5996 22.3677 48.7678 22.3686ZM50.8085 18.8247C50.8085 19.3298 50.7284 20.8242 49.8514 21.6006C49.6389 21.7602 49.3933 21.8711 49.1323 21.9252C48.8712 21.9794 48.6013 21.9754 48.342 21.9136C47.8915 21.8221 47.4677 21.6308 47.1026 21.3539C46.7375 21.077 46.4405 20.7218 46.2339 20.3149C45.9091 19.684 45.7291 18.9898 45.7069 18.2821C46.4363 18.3322 49.0419 18.6202 50.8085 18.8247Z" fill="#231F20"/>
<path d="M46.0484 20.4148C47.0476 22.2599 49.1135 22.502 49.9821 21.7631C49.6954 21.0452 49.2316 20.3188 48.4769 20.1143C47.657 19.9259 46.7962 20.0325 46.0484 20.4148Z" fill="#231F20"/>
<path d="M48.7678 22.3684C49.2589 22.3837 49.7393 22.2237 50.1212 21.9176C50.1537 21.89 50.1765 21.8529 50.1863 21.8117C50.1962 21.7704 50.1926 21.7271 50.176 21.688C49.7881 20.7029 49.2316 20.106 48.5317 19.914C47.6639 19.7163 46.7535 19.8272 45.9599 20.2271C45.9334 20.2376 45.9098 20.2539 45.8908 20.2749C45.8718 20.2959 45.8579 20.321 45.8502 20.3481C45.8387 20.3737 45.8328 20.4015 45.8328 20.4295C45.8328 20.4576 45.8387 20.4853 45.8502 20.5109C46.0858 20.974 46.4244 21.3781 46.8408 21.6927C47.2571 22.0072 47.7401 22.224 48.2534 22.3267C48.4233 22.3557 48.5954 22.3696 48.7678 22.3684ZM49.7291 21.6964C49.3112 21.94 48.816 22.0189 48.342 21.9176C47.9285 21.8348 47.5372 21.6668 47.1936 21.4244C46.8501 21.182 46.5619 20.8708 46.3478 20.5109C46.9994 20.2246 47.7274 20.1558 48.4221 20.3147C48.9407 20.4608 49.396 20.9242 49.7291 21.6964Z" fill="#231F20"/>
<path d="M57.1453 30.5288C57.0947 30.9671 60.2653 46.6247 60.2653 46.6247L57.1453 30.5288Z" fill="#231F20"/>
<path d="M60.2653 46.8292H60.3243C60.3515 46.8248 60.3776 46.8149 60.4008 46.8001C60.424 46.7853 60.4439 46.766 60.4593 46.7433C60.4747 46.7207 60.4853 46.6951 60.4903 46.6682C60.4954 46.6414 60.4949 46.6138 60.4887 46.5871C59.2239 40.3926 57.3688 31.013 57.3688 30.5455C57.3723 30.5185 57.3702 30.4911 57.3627 30.465C57.3552 30.4388 57.3423 30.4144 57.325 30.3933C57.3076 30.3723 57.2861 30.3549 57.2617 30.3423C57.2374 30.3297 57.2107 30.3221 57.1833 30.3201C57.1275 30.3154 57.0721 30.3324 57.0289 30.3675C56.9856 30.4025 56.9578 30.4529 56.9514 30.5079C56.905 30.9588 59.5485 44.0492 60.0798 46.6664C60.0881 46.7101 60.1108 46.7498 60.1444 46.7793C60.178 46.8087 60.2205 46.8263 60.2653 46.8292Z" fill="#231F20"/>
<path d="M32.2274 10.8695L39.3129 10.1656C40.0844 10.089 40.7726 10.6461 40.85 11.4099L42.4378 27.0765C42.5152 27.8404 41.9525 28.5217 41.181 28.5984L34.0955 29.3023C33.324 29.3789 32.6358 28.8218 32.5584 28.058L30.9706 12.3914C30.8932 11.6275 31.4559 10.9462 32.2274 10.8695Z" fill="#231F20"/>
<path d="M33.9564 29.5265H34.1209L41.204 28.8211C41.63 28.7789 42.0216 28.5709 42.2928 28.243C42.564 27.915 42.6925 27.4938 42.6501 27.0721L41.0607 11.3894C41.017 10.9681 40.8067 10.5811 40.4757 10.3128C40.1447 10.0445 39.7199 9.91685 39.2941 9.95766L32.211 10.6631C31.9996 10.684 31.7945 10.7459 31.6074 10.8454C31.4203 10.9448 31.2549 11.0798 31.1205 11.2427C30.9862 11.4055 30.8856 11.593 30.8246 11.7944C30.7636 11.9958 30.7432 12.2071 30.7648 12.4163L32.3543 28.0864C32.394 28.4802 32.5797 28.8454 32.8757 29.1115C33.1716 29.3775 33.5567 29.5254 33.9564 29.5265ZM39.4374 10.3751C39.7129 10.3736 39.9801 10.4682 40.1921 10.6422C40.4334 10.8425 40.585 11.1291 40.6137 11.4395L42.2032 27.1055C42.2338 27.4175 42.1384 27.7289 41.9377 27.9714C41.737 28.2139 41.4474 28.3678 41.1323 28.3995L34.0492 29.1049C33.893 29.1205 33.7353 29.1054 33.585 29.0605C33.4347 29.0156 33.2949 28.9418 33.1735 28.8433C33.0521 28.7448 32.9515 28.6236 32.8775 28.4865C32.8034 28.3495 32.7575 28.1993 32.7422 28.0447L31.1527 12.3829C31.122 12.0704 31.2174 11.7586 31.418 11.5154C31.6186 11.2722 31.9082 11.1174 32.2236 11.0847L39.3067 10.3793L39.4374 10.3751Z" fill="#231F20"/>
<path d="M15.0386 40.7185C15.0386 40.7185 12.1253 46.7586 11.5645 49.1296C9.82323 56.4763 16.4848 66.1856 24.5545 61.3017C27.2022 59.703 28.9772 56.9814 30.1535 54.1429C32.6621 48.0944 33.9185 41.3947 34.3697 34.8913C34.5763 31.9693 34.0282 27.0103 37.6667 25.7831C38.8388 25.3656 40.1964 26.6471 40.4704 26.1212C40.93 25.2154 39.3068 23.0907 36.7476 24.2511C36.7476 24.2511 38.5268 22.4353 40.3566 22.9488C42.1864 23.4622 41.4022 21.6506 40.2428 21.2457C39.1929 20.8783 36.7476 21.1914 35.8917 22.8903C35.8917 22.8903 36.697 20.2355 38.1178 19.9433C39.5387 19.6511 40.0109 19.2754 39.9266 18.8538C39.7832 18.115 38.472 18.2861 37.6962 18.4364C36.9204 18.5867 34.8587 19.7179 34.3233 21.1956C34.3233 21.1956 35.0147 18.858 36.756 17.7727C37.8438 17.0923 38.7334 17.1841 38.5057 16.8335C38.278 16.4828 37.0132 15.5812 35.4111 16.7375C33.8089 17.8937 31.6882 21.5921 31.6882 21.5921C31.6882 21.5921 31.6882 19.0375 31.4605 19.0876C30.2336 19.3923 29.597 22.3644 29.4283 23.3244C29.032 25.5994 28.2942 27.1856 27.2275 29.3061C25.2417 33.2675 22.8807 38.815 21.1014 42.8599" fill="white"/>
<path d="M20.195 62.8294C21.7821 62.7983 23.3292 62.3316 24.6641 61.4811C27.0336 60.0493 28.9435 57.6074 30.3475 54.2221C32.6495 48.6829 34.0746 42.1836 34.5847 34.9079C34.6185 34.4362 34.6311 33.9186 34.648 33.3717C34.7239 30.5166 34.8166 26.9685 37.7384 25.9792C38.2992 25.7913 38.94 26.0418 39.4586 26.2421C39.9772 26.4425 40.4578 26.6303 40.6644 26.2171C40.871 25.8038 40.7066 25.0525 40.1711 24.5056C39.858 24.1943 39.4742 23.9617 39.0517 23.8273C38.6292 23.693 38.1803 23.6608 37.7426 23.7334C38.3961 23.316 39.3532 22.8986 40.306 23.149C41.2589 23.3995 41.5709 23.0614 41.6299 22.8234C41.8154 22.2516 41.1408 21.3374 40.3187 21.0494C39.6846 20.8896 39.0229 20.8689 38.3799 20.9886C37.7369 21.1082 37.128 21.3655 36.5958 21.7423C36.9542 21.0494 37.4897 20.2855 38.1685 20.1477C39.0876 19.9557 40.2765 19.6134 40.1374 18.812C39.9435 17.7976 38.2233 18.1232 37.6625 18.2276C36.8377 18.4687 36.0745 18.8815 35.4237 19.4381C35.8016 18.8437 36.3015 18.3345 36.891 17.9437C37.2863 17.7059 37.7116 17.5206 38.1558 17.3927C38.4804 17.2884 38.6955 17.2216 38.7629 17.0338C38.78 16.9804 38.784 16.9237 38.7745 16.8685C38.7649 16.8133 38.7422 16.7612 38.7081 16.7165C38.3919 16.3277 37.9412 16.0689 37.4433 15.9902C37.0708 15.9363 36.691 15.9596 36.3281 16.0588C35.9652 16.158 35.627 16.3308 35.3352 16.5662C34.1125 17.4554 32.6326 19.7178 31.9623 20.8365C31.9243 19.1167 31.7557 18.9873 31.6882 18.933C31.6259 18.893 31.551 18.8767 31.4774 18.8871C30.1072 19.2294 29.4579 22.3434 29.2934 23.2909C28.9013 25.5409 28.1762 27.0979 27.1137 29.2184C25.5116 32.4117 23.686 36.5901 22.0796 40.2718L20.9792 42.7763C20.968 42.8015 20.962 42.8287 20.9615 42.8562C20.961 42.8837 20.9659 42.911 20.9761 42.9366C20.9863 42.9622 21.0015 42.9856 21.0208 43.0054C21.0402 43.0251 21.0633 43.0409 21.0888 43.0518C21.1404 43.073 21.1982 43.0735 21.2501 43.0533C21.302 43.033 21.344 42.9936 21.3671 42.9433L22.4633 40.4387C24.0696 36.757 25.891 32.5912 27.4889 29.402C28.5683 27.2523 29.3061 25.6703 29.7066 23.3619C29.9975 21.7214 30.6131 19.7512 31.4353 19.3463C31.523 20.0902 31.561 20.839 31.5491 21.5879C31.5504 21.6331 31.5666 21.6766 31.5951 21.7119C31.6236 21.7473 31.6629 21.7725 31.7071 21.7838C31.7514 21.7951 31.7981 21.7919 31.8403 21.7746C31.8825 21.7573 31.9179 21.7269 31.9412 21.688C31.9623 21.6546 34.0493 18.0272 35.6093 16.9044C35.8506 16.7063 36.1303 16.5592 36.4313 16.4724C36.7322 16.3855 37.0479 16.3606 37.359 16.3993C37.7231 16.4602 38.0583 16.6341 38.316 16.896L38.0251 16.9962C37.5487 17.1352 37.0924 17.3344 36.6675 17.5889C34.8799 18.7035 34.1758 21.0327 34.1378 21.1287C34.1205 21.184 34.1261 21.2439 34.1533 21.2952C34.1806 21.3465 34.2274 21.3849 34.2833 21.4021C34.3392 21.4193 34.3997 21.4137 34.4515 21.3867C34.5033 21.3597 34.5421 21.3134 34.5594 21.2581C35.0485 19.8597 37.0427 18.7535 37.7511 18.6408C38.9569 18.4113 39.661 18.4989 39.7369 18.8913C39.8001 19.2085 39.2141 19.5049 38.0926 19.7261C36.5621 20.0392 35.7399 22.7066 35.7062 22.8193C35.6954 22.8678 35.7024 22.9186 35.7261 22.9625C35.7497 23.0064 35.7885 23.0405 35.8352 23.0586C35.882 23.0768 35.9338 23.0778 35.9813 23.0614C36.0288 23.0451 36.0688 23.0125 36.0941 22.9695C36.8867 21.4 39.1972 21.0828 40.188 21.4292C40.8499 21.663 41.3348 22.3935 41.242 22.6815C41.1914 22.836 40.8794 22.8568 40.4325 22.7316C38.5015 22.1931 36.6928 24.0131 36.6127 24.0882C36.5819 24.1261 36.5651 24.1732 36.5651 24.2218C36.5651 24.2704 36.5819 24.3175 36.6127 24.3554C36.6402 24.3954 36.6811 24.4245 36.7282 24.4375C36.7752 24.4505 36.8255 24.4466 36.8699 24.4263C38.5943 23.6416 39.623 24.4973 39.9013 24.7812C40.2976 25.1986 40.4747 25.7037 40.3229 26.0126C40.2428 26.0668 39.8676 25.9207 39.6441 25.8331C39.096 25.6202 38.3413 25.3322 37.6372 25.5701C34.4372 26.6512 34.336 30.3621 34.2643 33.3425C34.2643 33.8852 34.2348 34.3986 34.201 34.8619C33.6951 42.0917 32.2785 48.5493 29.9849 54.0635C28.6147 57.3653 26.7595 59.7404 24.4702 61.1263C21.5821 62.8711 18.5971 62.8335 16.0674 61.0177C12.6734 58.5883 10.7972 53.3872 11.7964 49.1754C12.3445 46.8545 15.2284 40.8687 15.2537 40.8269C15.2658 40.8023 15.273 40.7755 15.2747 40.7481C15.2764 40.7207 15.2727 40.6932 15.2637 40.6672C15.2547 40.6412 15.2406 40.6173 15.2222 40.5967C15.2039 40.5761 15.1816 40.5593 15.1567 40.5473C15.1318 40.5352 15.1047 40.5281 15.077 40.5264C15.0493 40.5247 15.0216 40.5284 14.9954 40.5373C14.9691 40.5463 14.9449 40.5602 14.9241 40.5784C14.9033 40.5966 14.8864 40.6186 14.8742 40.6433C14.7561 40.8937 11.944 46.7293 11.3832 49.0961C10.3334 53.5292 12.2265 58.8096 15.8186 61.3726C17.0842 62.3058 18.617 62.816 20.195 62.8294Z" fill="#231F20"/>
<path d="M35.9887 14.0079C35.5532 14.0079 35.2003 13.6585 35.2003 13.2274C35.2003 12.7963 35.5532 12.4468 35.9887 12.4468C36.4241 12.4468 36.7771 12.7963 36.7771 13.2274C36.7771 13.6585 36.4241 14.0079 35.9887 14.0079Z" fill="white"/>
<path d="M35.9887 14.2203C36.1873 14.2212 36.3817 14.1636 36.5473 14.0549C36.7129 13.9463 36.8421 13.7914 36.9187 13.6099C36.9953 13.4285 37.0158 13.2286 36.9776 13.0356C36.9393 12.8426 36.8441 12.6652 36.7039 12.5259C36.5638 12.3865 36.385 12.2915 36.1902 12.2528C35.9955 12.2141 35.7935 12.2336 35.6099 12.3086C35.4263 12.3837 35.2693 12.511 35.1589 12.6745C35.0484 12.8379 34.9895 13.0302 34.9895 13.2269C34.9906 13.4893 35.0961 13.7407 35.2831 13.9267C35.4701 14.1126 35.7236 14.2181 35.9887 14.2203ZM35.9887 12.655C36.1041 12.6542 36.2172 12.6874 36.3135 12.7503C36.4098 12.8133 36.4851 12.9032 36.5296 13.0087C36.5742 13.1141 36.586 13.2303 36.5637 13.3424C36.5414 13.4545 36.4859 13.5575 36.4043 13.6383C36.3227 13.7192 36.2186 13.7741 36.1054 13.7962C35.9921 13.8183 35.8748 13.8065 35.7683 13.7624C35.6618 13.7183 35.571 13.6438 35.5074 13.5485C35.4438 13.4531 35.4102 13.3411 35.4111 13.2269C35.4094 13.1507 35.4231 13.075 35.4514 13.0042C35.4796 12.9333 35.5219 12.8688 35.5757 12.8144C35.6295 12.7599 35.6938 12.7167 35.7647 12.6872C35.8356 12.6576 35.9117 12.6424 35.9887 12.6425V12.655Z" fill="#231F20"/>
<path d="M17.5767 51.363C17.6178 51.3631 17.6581 51.3513 17.6926 51.3291C17.727 51.3068 17.7542 51.2751 17.7706 51.2378L21.6579 42.1755C21.67 42.1501 21.6768 42.1225 21.6778 42.0944C21.6789 42.0664 21.6742 42.0384 21.6641 42.0121C21.6539 41.9859 21.6386 41.9619 21.6189 41.9417C21.5992 41.9215 21.5756 41.9054 21.5494 41.8945C21.5233 41.8835 21.4952 41.8779 21.4669 41.8779C21.4385 41.878 21.4104 41.8837 21.3843 41.8947C21.3582 41.9058 21.3347 41.9219 21.315 41.9422C21.2954 41.9624 21.2801 41.9864 21.27 42.0127L17.3827 51.075C17.3615 51.1254 17.3611 51.1821 17.3816 51.2328C17.4021 51.2835 17.4419 51.3243 17.4924 51.3463C17.5189 51.3578 17.5477 51.3635 17.5767 51.363Z" fill="#231F20"/>
<path d="M70.2028 43.2317L72.2645 53.3626L79.3687 45.0934C79.3687 45.0934 80.5872 43.0814 81.3672 42.7892C82.2948 42.4469 86.1272 42.2174 87.4047 41.1821C88.6822 40.1469 89.3779 39.9299 89.5128 40.723C89.6477 41.5161 86.1399 43.5949 86.1399 43.5949C86.1399 43.5949 88.931 44.4005 89.5128 44.1709C90.0946 43.9413 91.5197 40.9609 92.1015 40.9609C92.4009 40.9609 93.0291 41.5912 92.443 42.9019C92.9448 41.6497 93.6615 40.2388 94.2686 40.2388C94.8758 40.2388 94.8462 41.2949 94.4668 42.7016C94.4668 42.7016 95.9972 40.2346 96.5749 41.754C97.123 43.1482 93.0923 48.078 92.1648 48.3076C91.2372 48.5372 85.0816 46.6963 85.0816 46.6963C85.0816 46.6963 77.6106 67.8055 66.7667 70.5605C64.0683 71.245 60.2654 46.6254 60.2654 46.6254L70.2028 43.2317Z" fill="white"/>
<path d="M66.6485 70.7813C66.7055 70.7826 66.7623 70.7756 66.8172 70.7604C71.3706 69.6042 75.865 65.2087 80.1697 57.6992C82.1233 54.2513 83.8049 50.6591 85.1996 46.9547C86.3717 47.3012 91.313 48.7246 92.2026 48.5075C92.9953 48.3155 95.2846 45.619 96.2881 43.6988C96.7729 42.7721 96.9289 42.1084 96.7603 41.6785C96.7211 41.5193 96.6354 41.375 96.514 41.2637C96.3925 41.1523 96.2406 41.0788 96.0773 41.0524C95.6557 41.019 95.2088 41.3905 94.8588 41.7828C94.9811 41.0398 94.9347 40.5306 94.7281 40.2592C94.6712 40.186 94.5976 40.127 94.5134 40.0871C94.4291 40.0472 94.3366 40.0275 94.2433 40.0297C93.8216 40.0297 93.3283 40.5264 92.8182 41.499C92.7852 41.3681 92.7296 41.2438 92.6538 41.1317C92.5954 41.027 92.5125 40.9379 92.4119 40.8717C92.3114 40.8056 92.1962 40.7645 92.0761 40.7518C91.6545 40.7518 91.2076 41.4322 90.4909 42.5426C90.1199 43.1144 89.6139 43.895 89.4115 43.9743C89.1038 44.0995 87.7251 43.8115 86.6415 43.5235C87.7377 42.8431 89.8036 41.4364 89.694 40.6934C89.6908 40.5607 89.6494 40.4317 89.5748 40.3216C89.5001 40.2114 89.3952 40.1246 89.2724 40.0714C88.8508 39.9128 88.2647 40.1966 87.2487 41.019C86.4307 41.6827 84.4238 42.0124 82.9566 42.2712C82.3869 42.3451 81.8233 42.4595 81.2701 42.6135C80.448 42.9224 79.297 44.7925 79.1621 45.0054L72.3614 52.9364L70.384 43.2271C70.3779 43.1979 70.3658 43.1701 70.3484 43.1457C70.331 43.1213 70.3087 43.1007 70.2828 43.0852C70.2555 43.0738 70.2261 43.068 70.1964 43.068C70.1667 43.068 70.1374 43.0738 70.11 43.0852L60.1725 46.4789C60.1258 46.4949 60.0863 46.5267 60.0609 46.5687C60.0354 46.6106 60.0257 46.6601 60.0334 46.7085C60.1725 47.6143 63.4906 68.9279 66.1932 70.6937C66.3323 70.7684 66.4913 70.799 66.6485 70.7813ZM85.0773 46.4872C85.0333 46.4869 84.9904 46.5005 84.9548 46.526C84.9191 46.5516 84.8926 46.5877 84.8792 46.6291C84.8033 46.8379 77.3196 67.6632 66.7118 70.3597C66.6652 70.3681 66.6174 70.3665 66.5716 70.355C66.5258 70.3435 66.483 70.3223 66.4461 70.2929C64.4224 68.9697 61.6861 54.4308 60.4972 46.7627L70.0425 43.5068L72.0536 53.4039C72.061 53.4426 72.0798 53.4783 72.1075 53.5065C72.1352 53.5347 72.1708 53.5542 72.2096 53.5626C72.2475 53.5735 72.2878 53.5729 72.3253 53.561C72.3629 53.5491 72.396 53.5264 72.4204 53.4958L79.5247 45.2266C79.8746 44.6589 80.857 43.2021 81.4388 42.985C81.9648 42.8417 82.5001 42.7343 83.0409 42.6636C84.6389 42.4006 86.6289 42.075 87.5354 41.3404C88.6273 40.4554 89.0068 40.4095 89.1375 40.4596C89.2682 40.5097 89.264 40.6349 89.2808 40.7518C89.3399 41.1484 87.6365 42.4507 86.0133 43.415C85.978 43.4359 85.9497 43.4666 85.9318 43.5032C85.9139 43.5399 85.9072 43.581 85.9126 43.6214C85.9179 43.6617 85.9351 43.6997 85.962 43.7305C85.9889 43.7613 86.0243 43.7837 86.0639 43.7948C86.5403 43.9326 88.9562 44.6297 89.5718 44.3625C89.8837 44.2373 90.259 43.6738 90.8366 42.768C91.2118 42.1836 91.8443 41.2068 92.0719 41.1692C92.1667 41.2034 92.246 41.27 92.2954 41.3571C92.394 41.5513 92.4454 41.7658 92.4454 41.9832C92.4454 42.2006 92.394 42.4151 92.2954 42.6093C92.2617 42.6845 92.2321 42.7596 92.2026 42.8348C92.1833 42.8852 92.1845 42.9411 92.2059 42.9907C92.2273 43.0403 92.2673 43.0798 92.3175 43.1009C92.3677 43.1219 92.4241 43.1229 92.475 43.1037C92.5259 43.0844 92.5673 43.0464 92.5905 42.9975C92.6285 42.9141 92.658 42.8348 92.6875 42.7596C93.3832 41.0649 93.9523 40.4554 94.2264 40.4554C94.2553 40.4534 94.2842 40.4585 94.3107 40.4701C94.3371 40.4818 94.3603 40.4996 94.3782 40.5222C94.4498 40.6141 94.6522 41.044 94.218 42.6553C94.2057 42.704 94.2113 42.7554 94.2337 42.8005C94.256 42.8456 94.2938 42.8814 94.3402 42.9015C94.3867 42.9209 94.4386 42.923 94.4865 42.9077C94.5345 42.8924 94.5753 42.8606 94.6016 42.8181C94.96 42.242 95.6388 41.4322 96.0267 41.4781C96.149 41.4781 96.2586 41.6117 96.3513 41.8371C96.4441 42.0625 96.4483 42.4591 95.896 43.5068C94.863 45.4812 92.6453 47.9649 92.1014 48.0985C91.4606 48.2571 87.5817 47.2261 85.1321 46.4956C85.1158 46.4902 85.0987 46.4874 85.0815 46.4872H85.0773Z" fill="#231F20"/>
<path d="M91.1022 44.9882C91.1361 44.9892 91.1697 44.9816 91.2 44.9663C91.2302 44.951 91.256 44.9284 91.2751 44.9006L92.6116 43.0222C92.6277 43.0001 92.6391 42.975 92.6453 42.9485C92.6514 42.922 92.6522 42.8945 92.6475 42.8676C92.6427 42.8408 92.6327 42.8152 92.6178 42.7923C92.603 42.7693 92.5837 42.7496 92.561 42.7342C92.5389 42.7177 92.5136 42.7059 92.4867 42.6994C92.4598 42.693 92.4318 42.6921 92.4046 42.6968C92.3773 42.7015 92.3513 42.7117 92.3282 42.7267C92.305 42.7418 92.2853 42.7613 92.2701 42.7843L90.9336 44.6585C90.9174 44.6809 90.9059 44.7063 90.8996 44.7332C90.8934 44.76 90.8926 44.7879 90.8974 44.815C90.9021 44.8422 90.9122 44.8682 90.927 44.8914C90.9419 44.9147 90.9614 44.9349 90.9842 44.9507C91.0184 44.9754 91.0598 44.9886 91.1022 44.9882Z" fill="#231F20"/>
<path d="M94.4498 42.6973C93.9827 43.4219 93.473 44.1188 92.9236 44.7844L94.4498 42.6973Z" fill="white"/>
<path d="M92.9236 44.9883C92.9529 44.9888 92.9819 44.983 93.0088 44.9715C93.0357 44.96 93.0599 44.943 93.0796 44.9215C93.6385 44.2509 94.1553 43.5469 94.6269 42.8135C94.6574 42.7675 94.6683 42.7114 94.6573 42.6575C94.6462 42.6035 94.6141 42.5561 94.5679 42.5255C94.5202 42.4955 94.4626 42.4852 94.4074 42.4969C94.3521 42.5086 94.3038 42.5414 94.2728 42.5881C93.8122 43.299 93.3111 43.9833 92.7718 44.6377C92.742 44.6665 92.7217 44.7036 92.7136 44.7441C92.7055 44.7846 92.71 44.8265 92.7264 44.8645C92.7428 44.9024 92.7704 44.9345 92.8056 44.9566C92.8408 44.9787 92.8819 44.9898 92.9236 44.9883Z" fill="#231F20"/>
<path d="M94.4414 69.6162H13.5587L0.58136 94.766H107.419L94.4414 69.6162Z" fill="white"/>
<path d="M0.581398 94.975H107.419C107.455 94.9752 107.491 94.9661 107.523 94.9485C107.554 94.931 107.581 94.9056 107.6 94.8748C107.618 94.8436 107.627 94.8084 107.627 94.7725C107.627 94.7367 107.618 94.7015 107.6 94.6703L94.6185 69.5204C94.6016 69.4861 94.5752 69.4573 94.5423 69.4373C94.5095 69.4173 94.4715 69.4071 94.433 69.4077H13.5587C13.5202 69.4071 13.4822 69.4173 13.4494 69.4373C13.4165 69.4573 13.3901 69.4861 13.3732 69.5204L0.391685 94.6703C0.373955 94.7015 0.364639 94.7367 0.364639 94.7725C0.364639 94.8084 0.373955 94.8436 0.391685 94.8748C0.411316 94.9068 0.439293 94.933 0.472679 94.9506C0.506058 94.9683 0.54361 94.9767 0.581398 94.975ZM107.073 94.5576H0.927132L13.6894 69.8293H94.3107L107.073 94.5576Z" fill="#0F0F0F"/>
<path d="M32.2742 83.7667C26.0128 83.7667 20.937 82.2529 20.937 80.3855C20.937 78.5182 26.0128 77.0044 32.2742 77.0044C38.5356 77.0044 43.6115 78.5182 43.6115 80.3855C43.6115 82.2529 38.5356 83.7667 32.2742 83.7667Z" fill="white"/>
<path d="M32.2742 83.9763C37.9492 83.9763 43.8223 82.6322 43.8223 80.3864C43.8223 78.1407 37.9492 76.8008 32.2742 76.8008C26.5993 76.8008 20.722 78.1407 20.722 80.3864C20.722 82.6322 26.5951 83.9763 32.2742 83.9763ZM32.2742 77.2182C38.9315 77.2182 43.4007 78.8545 43.4007 80.3864C43.4007 81.9184 38.9315 83.5589 32.2742 83.5589C25.6169 83.5589 21.1436 81.9184 21.1436 80.3864C21.1436 78.8545 25.6169 77.2182 32.2742 77.2182Z" fill="#0F0F0F"/>
<path d="M86.9619 80.8535L86.8481 82.135L57.7187 86.351L58.0138 85.0069L86.9619 80.8535Z" fill="white"/>
<path d="M57.7187 86.5597H57.7524L86.886 82.3521C86.9325 82.3448 86.9751 82.3224 87.0072 82.2884C87.0393 82.2543 87.059 82.2106 87.0631 82.1643L87.1812 80.8828C87.1835 80.8514 87.1791 80.82 87.1682 80.7904C87.1573 80.7609 87.1401 80.7341 87.1179 80.7116C87.0939 80.6908 87.0657 80.6752 87.0352 80.6658C87.0047 80.6565 86.9725 80.6536 86.9408 80.6574L57.9927 84.8066C57.9501 84.813 57.9105 84.832 57.8789 84.861C57.8473 84.89 57.8253 84.9278 57.8156 84.9694L57.5247 86.3135C57.5168 86.3465 57.5172 86.3809 57.526 86.4137C57.5349 86.4465 57.5518 86.4766 57.5753 86.5013C57.6139 86.5381 57.6651 86.559 57.7187 86.5597ZM86.6499 81.9681L57.9801 86.1173L58.1782 85.2073L86.73 81.0998L86.6499 81.9681Z" fill="#231F20"/>
<path d="M86.9619 80.8579C86.9619 80.8579 80.3341 75.2269 80.1107 75.2812C79.8872 75.3354 50.1043 78.8627 50.1043 78.8627L58.0138 85.0071L86.9619 80.8579Z" fill="white"/>
<path d="M58.0138 85.2156H58.0433L86.9915 81.0664C87.0321 81.0611 87.0702 81.044 87.101 81.0173C87.1317 80.9905 87.1538 80.9553 87.1643 80.9161C87.1767 80.8784 87.1773 80.8379 87.166 80.7999C87.1547 80.7619 87.1321 80.7282 87.1011 80.7032C80.3847 75.0012 80.195 75.0471 80.0643 75.0805C79.6174 75.1556 50.3742 78.6244 50.079 78.6578C50.0371 78.6639 49.9978 78.6817 49.9658 78.709C49.9337 78.7364 49.9101 78.7722 49.8977 78.8123C49.8876 78.8518 49.8893 78.8935 49.9028 78.9321C49.9163 78.9707 49.9409 79.0045 49.9736 79.0293L57.8831 85.1738C57.9209 85.2015 57.9668 85.2162 58.0138 85.2156ZM86.4644 80.7157L58.0644 84.7856L50.6271 79.0126C56.4117 78.3281 78.6308 75.6732 80.077 75.4979C80.5618 75.7693 84.095 78.6996 86.4644 80.7157Z" fill="#231F20"/>
<path d="M57.7187 86.3519L49.9862 80.1448L50.1043 78.8633L58.0138 85.0078L57.7187 86.3519Z" fill="white"/>
<path d="M57.7187 86.559C57.7424 86.5633 57.7667 86.5633 57.7904 86.559C57.8244 86.5469 57.8546 86.5263 57.8783 86.4993C57.9019 86.4722 57.9181 86.4396 57.9253 86.4046L58.2205 85.0605C58.2284 85.0221 58.2255 84.9824 58.2121 84.9456C58.1988 84.9087 58.1754 84.8763 58.1446 84.8518L50.2309 78.7115C50.2014 78.6875 50.1658 78.6721 50.1281 78.667C50.0903 78.6618 50.0519 78.6671 50.017 78.6822C49.9821 78.6973 49.9521 78.7217 49.9303 78.7526C49.9085 78.7836 49.8958 78.8199 49.8936 78.8576L49.7755 80.1349C49.7735 80.1692 49.7792 80.2035 49.7924 80.2352C49.8055 80.267 49.8257 80.2955 49.8514 80.3185L57.588 86.5256C57.6269 86.5504 57.6727 86.5621 57.7187 86.559ZM57.782 85.0897L57.588 85.9746L50.2056 80.0514L50.2772 79.2625L57.782 85.0897Z" fill="#231F20"/>
<path d="M86.962 80.8541L92.561 62.2871L61.859 67.4715L58.0139 85.0075L86.962 80.8541Z" fill="white"/>
<path d="M58.0139 85.2156H58.0434L86.9915 81.0664C87.0314 81.061 87.0689 81.0443 87.0995 81.0184C87.1301 80.9925 87.1527 80.9585 87.1644 80.9203L92.7592 62.3533C92.7693 62.3191 92.7708 62.2829 92.7635 62.2479C92.7561 62.213 92.7402 62.1803 92.717 62.1529C92.6931 62.1264 92.6628 62.1063 92.6288 62.0946C92.5949 62.0829 92.5585 62.08 92.5231 62.0862L61.8211 67.2664C61.7798 67.2738 61.7417 67.2933 61.7116 67.3223C61.6816 67.3513 61.661 67.3885 61.6524 67.4292L57.8073 84.961C57.8003 84.9916 57.8004 85.0234 57.8075 85.054C57.8147 85.0846 57.8287 85.1132 57.8486 85.1376C57.8684 85.1621 57.8936 85.1818 57.9222 85.1953C57.9508 85.2088 57.9822 85.2158 58.0139 85.2156ZM86.7975 80.6824L58.2837 84.769L62.0361 67.6546L92.2617 62.5537L86.7975 80.6824Z" fill="#231F20"/>
<path d="M40.8204 70.7397L41.0902 70.7856C41.9146 70.9041 42.6655 71.3205 43.1983 71.9544C43.4944 72.4035 43.6581 72.9255 43.6707 73.4616C43.6834 73.9978 43.5446 74.5268 43.27 74.9891C42.0642 77.1388 39.1255 77.7315 36.8699 77.9403C36.5524 77.9901 36.2275 77.9658 35.9212 77.8693C35.7768 77.8337 35.6475 77.7538 35.5518 77.6409C35.4562 77.528 35.3991 77.3881 35.3888 77.2411C35.3785 77.0941 35.4155 76.9477 35.4945 76.8228C35.5735 76.6979 35.6904 76.601 35.8285 76.5461C36.0662 76.4345 36.3214 76.3639 36.5832 76.3374C37.9829 76.1078 39.467 75.9199 40.7529 75.298C41.4992 74.9223 42.5448 74.0457 42.0178 73.1357C41.8261 72.8404 41.5503 72.6079 41.2252 72.4678C39.935 71.8584 38.6955 72.3217 37.4306 72.6974C37.3387 72.7299 37.2413 72.744 37.1439 72.7392C37.0231 72.7051 36.9189 72.6287 36.8507 72.5243C36.7825 72.4199 36.7548 72.2945 36.7729 72.1715C36.8151 71.6205 37.3716 71.2573 37.8902 71.057C38.8241 70.7076 39.8323 70.5984 40.8204 70.7397Z" fill="white"/>
<path d="M36.4778 78.1776C36.6169 78.1776 36.7518 78.1776 36.8783 78.1776C40.3187 77.8604 42.4647 76.8586 43.4386 75.1179C43.7355 74.6216 43.8851 74.0525 43.8702 73.4759C43.8553 72.8992 43.6765 72.3384 43.3543 71.8578C42.7936 71.1851 42.003 70.7394 41.1324 70.6056L40.8499 70.5596C39.818 70.4045 38.763 70.5181 37.789 70.8894C37.3463 71.0564 36.5916 71.4488 36.5241 72.1793C36.5007 72.3552 36.5442 72.5335 36.6463 72.6794C36.7485 72.8252 36.9018 72.9282 37.0765 72.9682C37.2037 72.9799 37.3321 72.9627 37.4517 72.9181L37.7848 72.8221C38.9147 72.4798 39.9856 72.1584 41.0902 72.6843C41.3776 72.8047 41.6226 73.0066 41.7943 73.2646C41.8549 73.3615 41.8937 73.4701 41.9083 73.5832C41.9228 73.6962 41.9127 73.8111 41.8787 73.9199C41.6218 74.4647 41.1717 74.8971 40.6138 75.1346C39.4737 75.6285 38.2635 75.9453 37.0259 76.0738L36.5031 76.1573C36.2206 76.1874 35.9454 76.2651 35.6893 76.3869C35.5397 76.46 35.4108 76.5689 35.3144 76.7037C35.2179 76.8386 35.157 76.9951 35.137 77.1591C35.1367 77.3625 35.2003 77.5609 35.3189 77.7269C35.4375 77.8929 35.6052 78.0183 35.799 78.0858C36.0169 78.1603 36.2476 78.1915 36.4778 78.1776ZM40.7867 70.952L41.0481 70.9979C41.8161 71.1128 42.5158 71.5 43.017 72.0874C43.2911 72.5035 43.4416 72.9876 43.4513 73.4843C43.461 73.981 43.3295 74.4704 43.0718 74.8967C42.1696 76.5038 40.1205 77.4346 36.8403 77.7393C36.5584 77.7832 36.2701 77.7632 35.9971 77.6809C35.8871 77.6451 35.7905 77.5774 35.7198 77.4866C35.6492 77.3958 35.6077 77.2861 35.6008 77.1716C35.6179 77.0811 35.6567 76.9959 35.7139 76.9233C35.7711 76.8507 35.8451 76.7927 35.9297 76.7542C36.1466 76.6543 36.3789 76.5908 36.6169 76.5664L37.1313 76.4871C38.4135 76.3538 39.6668 76.0228 40.8457 75.5061C41.4275 75.2139 42.1105 74.6713 42.3087 74.041C42.3594 73.8773 42.3744 73.7048 42.3526 73.5349C42.3308 73.3651 42.2727 73.2018 42.1822 73.0558C41.9705 72.7226 41.6618 72.4607 41.2968 72.3045C40.032 71.7159 38.8472 72.0749 37.6878 72.4214L37.3589 72.5215C37.2938 72.5438 37.2254 72.5551 37.1566 72.5549C37.0385 72.5549 36.9584 72.3587 36.971 72.2126C37.009 71.6909 37.6709 71.3778 37.9534 71.2776C38.8595 70.9343 39.8396 70.8279 40.7993 70.9687L40.7867 70.952Z" fill="#231F20"/>
<path d="M39.7622 68.4395C39.7622 68.4395 37.6541 78.9252 37.4644 79.5555C37.2747 80.1858 32.2701 82.7696 28.2816 80.2359L24.7864 69.5164L39.7622 68.4395Z" fill="white"/>
<path d="M32.1898 81.5459C33.3871 81.5348 34.5726 81.31 35.6892 80.8822C36.5662 80.5483 37.5612 80.0098 37.6666 79.6299C37.8395 78.9996 39.8801 68.9272 39.9686 68.5014C39.9755 68.4697 39.9745 68.4367 39.9657 68.4055C39.9569 68.3742 39.9405 68.3455 39.918 68.3219C39.8967 68.2977 39.87 68.2787 39.84 68.2664C39.81 68.2541 39.7776 68.2488 39.7452 68.251L24.7694 69.3279C24.7376 69.3302 24.7068 69.3396 24.6792 69.3554C24.6517 69.3712 24.6281 69.393 24.6102 69.4191C24.5924 69.4452 24.5807 69.475 24.5762 69.5062C24.5716 69.5374 24.5743 69.5692 24.5839 69.5992L28.0791 80.3187C28.096 80.3645 28.127 80.4039 28.1676 80.4314C29.3702 81.1827 30.7681 81.57 32.1898 81.5459ZM39.5006 68.6642C39.1676 70.313 37.3926 78.9412 37.2619 79.5172C37.2028 79.6591 36.4186 80.2435 35.0273 80.6902C33.636 81.1368 30.9166 81.6461 28.4585 80.1141L25.0856 69.7203L39.5006 68.6642Z" fill="#231F20"/>
<path d="M24.7767 68.8728C24.7049 67.0954 28.0104 65.5213 32.1599 65.3569C36.3093 65.1926 39.7313 66.5003 39.8031 68.2777C39.8749 70.0552 36.5693 71.6293 32.4199 71.7936C28.2705 71.958 24.8485 70.6503 24.7767 68.8728Z" fill="#231F20"/>
<path d="M31.6544 72.1801H32.3838C36.7096 72.0048 40.0361 70.3643 39.9729 68.4441C39.9307 67.4966 39.0706 66.6534 37.5444 66.0732C35.8016 65.4728 33.9557 65.2217 32.114 65.3343C27.7882 65.5096 24.4616 67.1501 24.5249 69.0912C24.5628 70.0387 25.4229 70.8777 26.9492 71.4621C28.4623 71.9752 30.0554 72.2183 31.6544 72.1801ZM32.8349 65.7225C34.3816 65.6936 35.921 65.9396 37.3799 66.4489C38.7207 66.9581 39.488 67.7011 39.5386 68.4483C39.6061 70.0763 36.3217 71.5915 32.3711 71.7502C30.5871 71.8598 28.7988 71.6187 27.1094 71.0405C25.7686 70.5271 25.0013 69.7883 24.9507 69.0411C24.8833 67.4089 28.1676 65.8979 32.1182 65.7351L32.8349 65.7225Z" fill="#231F20"/>
<path d="M61.5175 22.2431C61.5175 22.2431 64.2369 22.0386 65.839 20.3898C64.9113 19.1743 64.4002 17.6971 64.3802 16.1738C64.3802 10.6805 71.3158 6.22656 79.8746 6.22656C88.4334 6.22656 95.3732 10.6805 95.3732 16.1738C95.3732 21.6671 88.4334 26.121 79.8746 26.121C75.1146 26.121 70.852 24.7393 68.0103 22.5687C65.8422 22.7977 63.6511 22.6878 61.5175 22.2431Z" fill="white"/>
<path d="M79.8746 26.3167C88.5388 26.3167 95.584 21.7626 95.584 16.1608C95.584 10.559 88.5388 6.00488 79.8746 6.00488C71.2104 6.00488 64.1694 10.5548 64.1694 16.1608C64.187 17.6617 64.6746 19.1202 65.565 20.3351C64.0219 21.8002 61.5301 22.0048 61.5048 22.0048C61.4544 22.0077 61.4068 22.0289 61.371 22.0643C61.3353 22.0997 61.3139 22.1468 61.3109 22.1968C61.3064 22.2465 61.3201 22.2962 61.3495 22.3368C61.3789 22.3774 61.4221 22.4062 61.4711 22.418C63.5992 22.8607 65.7837 22.9748 67.9471 22.7561C70.9363 25.0269 75.279 26.3167 79.8746 26.3167ZM79.8746 6.42231C88.3069 6.42231 95.1624 10.7886 95.1624 16.1608C95.1624 21.5331 88.3069 25.8993 79.8746 25.8993C75.338 25.8993 71.0586 24.622 68.1368 22.393C68.0951 22.3604 68.0421 22.3454 67.9893 22.3512C66.2288 22.5231 64.4539 22.4867 62.7022 22.2427C63.9366 21.9779 65.0741 21.3831 65.9908 20.5229C66.0231 20.4858 66.0409 20.4384 66.0409 20.3893C66.0409 20.3403 66.0231 20.2929 65.9908 20.2557C65.0888 19.0757 64.5923 17.6406 64.5742 16.1608C64.591 10.7886 71.4465 6.42231 79.8746 6.42231Z" fill="#0F0F0F"/>
</svg>
