<svg width="123" height="100" viewBox="0 0 123 100" fill="none" xmlns="http://www.w3.org/2000/svg">
<g clip-path="url(#clip0)">
<path d="M7.93006 0H115.05C117.01 0 118.78 0.8 120.07 2.08C121.36 3.37 122.15 5.14 122.15 7.1V64.64C122.15 66.6 121.35 68.37 120.07 69.66C118.79 70.94 117.01 71.74 115.05 71.74H7.93006C5.97006 71.74 4.20006 70.94 2.91006 69.66C1.62006 68.37 0.830059 66.6 0.830059 64.64V7.1C0.830059 5.14 1.63006 3.37 2.91006 2.08C4.20006 0.8 5.98006 0 7.93006 0ZM67.1301 35.97L52.9601 26.09V45.77L67.1301 35.97ZM51.5801 17.33L74.4401 33.28C74.8001 33.5 75.1201 33.8 75.3701 34.17C76.3701 35.62 76.0101 37.62 74.5601 38.62L51.7801 54.37C51.2301 54.82 50.5201 55.09 49.7501 55.09C47.9801 55.09 46.5401 53.65 46.5401 51.88V19.95H46.5501C46.5501 19.32 46.7401 18.68 47.1301 18.12C48.1401 16.67 50.1401 16.32 51.5801 17.33ZM62.0401 77.39C65.0301 77.39 67.7401 78.61 69.7001 80.57L69.7101 80.58L69.7201 80.57C70.9501 81.8 71.8901 83.33 72.4201 85.03H119.74C121.51 85.03 122.95 86.47 122.95 88.24C122.95 90.01 121.51 91.45 119.74 91.45H72.4101C71.8801 93.16 70.9501 94.68 69.7101 95.91C67.7501 97.87 65.0301 99.09 62.0401 99.09C59.0401 99.09 56.3301 97.88 54.3701 95.91C53.1401 94.68 52.2001 93.15 51.6701 91.45H3.27006C1.50006 91.45 0.0600586 90.01 0.0600586 88.24C0.0600586 86.47 1.50006 85.03 3.27006 85.03H51.6701C52.2001 83.32 53.1301 81.8 54.3701 80.57C54.4401 80.5 54.5101 80.44 54.5801 80.38C56.5201 78.53 59.1501 77.39 62.0401 77.39ZM65.1801 85.1C64.3801 84.3 63.2701 83.81 62.0401 83.81C60.8701 83.81 59.8101 84.25 59.0201 84.98L58.9001 85.11C58.1001 85.91 57.6001 87.02 57.6001 88.25C57.6001 89.47 58.1001 90.58 58.9001 91.39C59.7001 92.19 60.8101 92.69 62.0401 92.69C63.2601 92.69 64.3701 92.19 65.1801 91.39C65.9301 90.64 66.4101 89.62 66.4701 88.49C66.4601 88.41 66.4601 88.34 66.4601 88.26C66.4601 88.18 66.4601 88.1 66.4701 88.03C66.4101 86.88 65.9301 85.86 65.1801 85.1ZM115.05 6.42H7.93006C7.75006 6.42 7.58006 6.5 7.45006 6.62C7.33006 6.74 7.25006 6.91 7.25006 7.1V64.64C7.25006 64.82 7.33006 64.99 7.45006 65.12C7.57006 65.24 7.74006 65.32 7.93006 65.32H115.05C115.23 65.32 115.4 65.24 115.53 65.12C115.65 65 115.73 64.83 115.73 64.64V7.1C115.73 6.92 115.65 6.75 115.53 6.62C115.41 6.5 115.24 6.42 115.05 6.42Z" fill="#CED4DA"/>
</g>
<defs>
<clipPath id="clip0">
<rect width="122.88" height="99.09" fill="white" transform="translate(0.0600586)"/>
</clipPath>
</defs>
</svg>
