<svg width="428" height="308" viewBox="0 0 428 308" fill="none" xmlns="http://www.w3.org/2000/svg">
<g clip-path="url(#clip0)">
<path d="M427.356 254.919H0.643596C0.477274 254.919 0.317766 254.853 0.200159 254.736C0.0825512 254.619 0.0164795 254.46 0.0164795 254.294C0.0199592 254.129 0.0871454 253.972 0.204007 253.855C0.320869 253.738 0.478365 253.671 0.643596 253.668H427.356C427.522 253.671 427.679 253.738 427.796 253.855C427.913 253.972 427.98 254.129 427.983 254.294C427.983 254.46 427.917 254.619 427.8 254.736C427.682 254.853 427.523 254.919 427.356 254.919Z" fill="#CED4DA"/>
<path d="M396.287 0.789062H39.9066C35.8634 0.789062 32.5857 4.05919 32.5857 8.09309V219.72C32.5857 223.753 35.8634 227.024 39.9066 227.024H396.287C400.33 227.024 403.608 223.753 403.608 219.72V8.09309C403.608 4.05919 400.33 0.789062 396.287 0.789062Z" fill="white"/>
<path d="M396.273 227.702H39.9066C37.783 227.699 35.7475 226.854 34.2471 225.355C32.7467 223.855 31.904 221.823 31.9041 219.704V8.0916C31.9077 5.97644 32.7524 3.94915 34.2528 2.45478C35.7531 0.960406 37.7866 0.121091 39.9066 0.121094H396.273C398.396 0.121094 400.431 0.962275 401.932 2.45959C403.433 3.9569 404.276 5.98768 404.276 8.1052V219.704C404.276 221.823 403.433 223.855 401.933 225.355C400.432 226.854 398.397 227.699 396.273 227.702ZM39.9066 1.48125C38.1458 1.48125 36.4571 2.17913 35.212 3.42136C33.9668 4.66359 33.2674 6.34842 33.2674 8.1052V219.704C33.2673 221.463 33.9664 223.149 35.2111 224.393C36.4558 225.638 38.1445 226.338 39.9066 226.342H396.273C398.035 226.338 399.724 225.638 400.969 224.393C402.213 223.149 402.912 221.463 402.912 219.704V8.0916C402.909 6.33718 402.208 4.65584 400.963 3.41655C399.718 2.17725 398.032 1.48124 396.273 1.48125H39.9066Z" fill="#0F0F0F"/>
<path d="M197.3 162.892H53.9895C53.8232 162.892 53.6637 162.826 53.5461 162.709C53.4285 162.591 53.3624 162.432 53.3624 162.266C53.3659 162.101 53.4331 161.944 53.55 161.828C53.6668 161.711 53.8243 161.644 53.9895 161.641H197.3C197.465 161.644 197.622 161.711 197.739 161.828C197.856 161.944 197.923 162.101 197.927 162.266C197.927 162.348 197.91 162.43 197.879 162.506C197.847 162.582 197.801 162.651 197.743 162.709C197.685 162.767 197.616 162.813 197.54 162.844C197.464 162.876 197.382 162.892 197.3 162.892Z" fill="#CED4DA"/>
<path d="M131.275 215.486C131.109 215.486 130.949 215.42 130.832 215.303C130.714 215.185 130.648 215.026 130.648 214.86V161.977C130.648 161.811 130.714 161.652 130.832 161.535C130.949 161.417 131.109 161.352 131.275 161.352C131.44 161.355 131.598 161.422 131.715 161.539C131.831 161.655 131.899 161.812 131.902 161.977V214.833C131.904 214.917 131.889 215 131.859 215.079C131.828 215.157 131.782 215.228 131.724 215.289C131.666 215.35 131.596 215.398 131.519 215.432C131.442 215.466 131.359 215.484 131.275 215.486Z" fill="#CED4DA"/>
<path d="M378.468 127.662H213.673C213.506 127.662 213.347 127.596 213.229 127.478C213.112 127.361 213.046 127.202 213.046 127.036C213.044 126.953 213.059 126.871 213.09 126.794C213.12 126.718 213.167 126.648 213.225 126.589C213.284 126.531 213.354 126.485 213.431 126.454C213.508 126.423 213.59 126.408 213.673 126.41H378.468C378.551 126.408 378.634 126.423 378.711 126.454C378.788 126.485 378.857 126.531 378.916 126.589C378.975 126.648 379.021 126.718 379.052 126.794C379.082 126.871 379.097 126.953 379.096 127.036C379.096 127.202 379.029 127.361 378.912 127.478C378.794 127.596 378.635 127.662 378.468 127.662Z" fill="#CED4DA"/>
<path d="M378.468 143.74H213.673C213.59 143.742 213.508 143.727 213.431 143.696C213.354 143.665 213.284 143.619 213.225 143.561C213.167 143.502 213.12 143.432 213.09 143.356C213.059 143.279 213.044 143.197 213.046 143.114C213.046 142.948 213.112 142.789 213.229 142.672C213.347 142.554 213.506 142.488 213.673 142.488H378.468C378.635 142.488 378.794 142.554 378.912 142.672C379.029 142.789 379.096 142.948 379.096 143.114C379.097 143.197 379.082 143.279 379.052 143.356C379.021 143.432 378.975 143.502 378.916 143.561C378.857 143.619 378.788 143.665 378.711 143.696C378.634 143.727 378.551 143.742 378.468 143.74Z" fill="#CED4DA"/>
<path d="M378.468 159.829H213.673C213.506 159.829 213.347 159.764 213.229 159.646C213.112 159.529 213.046 159.37 213.046 159.204C213.046 159.038 213.112 158.879 213.229 158.761C213.347 158.644 213.506 158.578 213.673 158.578H378.468C378.551 158.578 378.632 158.594 378.708 158.626C378.785 158.657 378.854 158.703 378.912 158.761C378.97 158.819 379.016 158.888 379.048 158.964C379.079 159.04 379.096 159.122 379.096 159.204C379.096 159.286 379.079 159.367 379.048 159.443C379.016 159.519 378.97 159.588 378.912 159.646C378.854 159.704 378.785 159.75 378.708 159.782C378.632 159.813 378.551 159.829 378.468 159.829Z" fill="#CED4DA"/>
<path d="M378.468 175.921H213.673C213.521 175.899 213.382 175.823 213.281 175.707C213.181 175.59 213.125 175.442 213.125 175.289C213.125 175.135 213.181 174.987 213.281 174.871C213.382 174.755 213.521 174.679 213.673 174.656H378.468C378.621 174.679 378.76 174.755 378.86 174.871C378.961 174.987 379.016 175.135 379.016 175.289C379.016 175.442 378.961 175.59 378.86 175.707C378.76 175.823 378.621 175.899 378.468 175.921Z" fill="#CED4DA"/>
<path d="M378.468 191.997H213.673C213.506 191.997 213.347 191.932 213.229 191.814C213.112 191.697 213.046 191.538 213.046 191.372C213.046 191.206 213.112 191.047 213.229 190.929C213.347 190.812 213.506 190.746 213.673 190.746H378.468C378.551 190.746 378.632 190.762 378.708 190.794C378.785 190.825 378.854 190.871 378.912 190.929C378.97 190.987 379.016 191.056 379.048 191.132C379.079 191.208 379.096 191.29 379.096 191.372C379.096 191.454 379.079 191.535 379.048 191.611C379.016 191.687 378.97 191.756 378.912 191.814C378.854 191.872 378.785 191.918 378.708 191.95C378.632 191.981 378.551 191.997 378.468 191.997Z" fill="#CED4DA"/>
<path d="M386.921 105.954H196.522C196.356 105.954 196.197 105.889 196.079 105.771C195.961 105.654 195.895 105.495 195.895 105.329C195.899 105.164 195.966 105.007 196.083 104.89C196.2 104.774 196.357 104.707 196.522 104.703H386.921C387.086 104.707 387.244 104.774 387.361 104.89C387.477 105.007 387.545 105.164 387.548 105.329C387.548 105.495 387.482 105.654 387.364 105.771C387.247 105.889 387.087 105.954 386.921 105.954Z" fill="#CED4DA"/>
<path d="M275.826 46.3516H215.99C214.424 46.3516 213.155 47.6182 213.155 49.1807V87.9451C213.155 89.5076 214.424 90.7742 215.99 90.7742H275.826C277.392 90.7742 278.661 89.5076 278.661 87.9451V49.1807C278.661 47.6182 277.392 46.3516 275.826 46.3516Z" fill="#3766E8"/>
<path d="M197.041 214.211C196.958 214.213 196.875 214.198 196.798 214.167C196.721 214.136 196.652 214.09 196.593 214.032C196.534 213.973 196.488 213.904 196.457 213.827C196.427 213.75 196.412 213.668 196.413 213.585V33.528C196.413 33.3621 196.48 33.2029 196.597 33.0856C196.715 32.9683 196.874 32.9023 197.041 32.9023C197.206 32.9058 197.363 32.9729 197.48 33.0894C197.597 33.206 197.664 33.3632 197.668 33.528V213.585C197.668 213.667 197.652 213.749 197.62 213.825C197.588 213.901 197.542 213.97 197.484 214.028C197.426 214.086 197.357 214.132 197.281 214.163C197.205 214.195 197.123 214.211 197.041 214.211Z" fill="#CED4DA"/>
<path d="M388.189 33.7045H47.3638C47.1975 33.7045 47.038 33.6385 46.9204 33.5212C46.8028 33.4039 46.7367 33.2447 46.7367 33.0788C46.7402 32.914 46.8074 32.7568 46.9242 32.6402C47.0411 32.5236 47.1986 32.4566 47.3638 32.4531H388.189C388.356 32.4531 388.517 32.5186 388.637 32.6355C388.757 32.7525 388.826 32.9116 388.829 33.0788C388.829 33.1621 388.813 33.2446 388.78 33.3214C388.748 33.3982 388.701 33.4678 388.641 33.5261C388.581 33.5844 388.51 33.6302 388.433 33.6608C388.355 33.6914 388.272 33.7063 388.189 33.7045Z" fill="#CED4DA"/>
<path d="M381.168 215.949H55.012C52.8884 215.949 50.8515 215.108 49.3486 213.611C47.8456 212.114 46.9995 210.083 46.9958 207.964V19.8415C46.9995 17.7214 47.8452 15.6893 49.3477 14.1902C50.8503 12.6911 52.8871 11.8473 55.012 11.8438H381.168C383.293 11.8473 385.33 12.6911 386.832 14.1902C388.335 15.6893 389.18 17.7214 389.184 19.8415V207.964C389.18 210.083 388.334 212.114 386.831 213.611C385.328 215.108 383.291 215.949 381.168 215.949ZM55.012 13.2039C53.2487 13.2075 51.5586 13.908 50.3117 15.152C49.0648 16.396 48.3628 18.0822 48.3591 19.8415V207.964C48.3628 209.723 49.0653 211.407 50.3125 212.649C51.5598 213.891 53.2499 214.588 55.012 214.588H381.168C382.93 214.588 384.62 213.891 385.867 212.649C387.115 211.407 387.817 209.723 387.821 207.964V19.8415C387.817 18.0822 387.115 16.396 385.868 15.152C384.621 13.908 382.931 13.2075 381.168 13.2039H55.012Z" fill="#0F0F0F"/>
<path d="M255.853 227.091L216.727 226.996L177.614 227.091C177.614 227.091 174.164 262.455 151.711 277.594H281.783C259.302 262.496 255.853 227.091 255.853 227.091Z" fill="white"/>
<path d="M281.77 278.274H151.684C151.54 278.274 151.399 278.228 151.284 278.142C151.169 278.057 151.084 277.936 151.043 277.798C150.996 277.659 150.997 277.508 151.047 277.37C151.096 277.232 151.191 277.114 151.315 277.037C173.251 262.292 176.891 227.377 176.932 227.024C176.949 226.855 177.028 226.699 177.154 226.586C177.28 226.473 177.444 226.411 177.613 226.412L216.727 226.316L255.853 226.412C256.022 226.414 256.184 226.477 256.31 226.59C256.435 226.702 256.515 226.857 256.535 227.024C256.535 227.377 260.216 262.292 282.151 277.037C282.271 277.119 282.361 277.237 282.41 277.374C282.459 277.51 282.464 277.659 282.424 277.798C282.38 277.937 282.293 278.058 282.175 278.144C282.058 278.229 281.915 278.275 281.77 278.274ZM153.824 276.914H279.643C260.284 262.374 255.826 232.423 255.253 227.772L216.727 227.677L178.213 227.772C177.627 232.423 173.183 262.374 153.824 276.914Z" fill="#0F0F0F"/>
<path d="M291.626 277.594H141.84C138.181 277.594 135.215 280.553 135.215 284.204V284.449C135.215 288.1 138.181 291.059 141.84 291.059H291.626C295.285 291.059 298.252 288.1 298.252 284.449V284.204C298.252 280.553 295.285 277.594 291.626 277.594Z" fill="white"/>
<path d="M291.626 291.753H141.84C139.904 291.75 138.047 290.98 136.677 289.614C135.308 288.248 134.537 286.395 134.533 284.463V284.204C134.537 282.272 135.308 280.42 136.677 279.053C138.047 277.687 139.904 276.918 141.84 276.914H291.626C293.563 276.918 295.42 277.687 296.789 279.053C298.159 280.42 298.93 282.272 298.933 284.204V284.463C298.93 286.395 298.159 288.248 296.789 289.614C295.42 290.98 293.563 291.75 291.626 291.753ZM141.84 278.274C140.265 278.278 138.755 278.904 137.641 280.015C136.527 281.126 135.9 282.633 135.897 284.204V284.463C135.9 286.035 136.527 287.541 137.641 288.652C138.755 289.764 140.265 290.39 141.84 290.393H291.626C293.202 290.39 294.711 289.764 295.825 288.652C296.939 287.541 297.567 286.035 297.57 284.463V284.204C297.567 282.633 296.939 281.126 295.825 280.015C294.711 278.904 293.202 278.278 291.626 278.274H141.84Z" fill="#0F0F0F"/>
<path d="M69.0403 28.0185C71.397 28.0185 73.3074 26.1124 73.3074 23.7612C73.3074 21.41 71.397 19.5039 69.0403 19.5039C66.6836 19.5039 64.7732 21.41 64.7732 23.7612C64.7732 26.1124 66.6836 28.0185 69.0403 28.0185Z" fill="#3766E8"/>
<path d="M85.7135 28.0185C88.0702 28.0185 89.9807 26.1124 89.9807 23.7612C89.9807 21.41 88.0702 19.5039 85.7135 19.5039C83.3569 19.5039 81.4464 21.41 81.4464 23.7612C81.4464 26.1124 83.3569 28.0185 85.7135 28.0185Z" fill="#0F0F0F"/>
<path d="M102.4 28.0185C104.757 28.0185 106.667 26.1124 106.667 23.7612C106.667 21.41 104.757 19.5039 102.4 19.5039C100.044 19.5039 98.1332 21.41 98.1332 23.7612C98.1332 26.1124 100.044 28.0185 102.4 28.0185Z" fill="#0F0F0F"/>
<path d="M76.8384 245.535L87.963 286.272C87.963 286.272 107.485 290.801 107.049 292.052C106.613 293.304 76.3068 297.398 76.3068 297.398L63.4236 250.391" fill="white"/>
<path d="M76.3068 298.077C76.1575 298.076 76.0127 298.027 75.8944 297.936C75.7762 297.845 75.6912 297.718 75.6524 297.574L62.7692 250.513C62.7445 250.427 62.7374 250.337 62.7481 250.249C62.7589 250.16 62.7874 250.074 62.8319 249.997C62.8764 249.92 62.936 249.852 63.0072 249.798C63.0784 249.744 63.1597 249.705 63.2464 249.683C63.4199 249.637 63.6045 249.661 63.7602 249.75C63.9159 249.84 64.0301 249.986 64.078 250.159L76.8112 296.635C86.8178 295.275 101.991 293.004 105.781 291.916C99.8962 289.902 93.8961 288.24 87.813 286.938C87.6939 286.911 87.5842 286.852 87.4955 286.768C87.4068 286.685 87.3422 286.579 87.3086 286.462L76.1841 245.657C76.1371 245.476 76.1638 245.285 76.2584 245.124C76.353 244.963 76.5077 244.847 76.6885 244.8C76.8693 244.753 77.0613 244.78 77.2224 244.874C77.3835 244.968 77.5004 245.123 77.5474 245.303L88.5765 285.754C95.5566 287.386 106.899 290.216 107.663 291.644C107.759 291.857 107.783 292.096 107.731 292.324C107.567 292.813 107.172 293.983 76.3749 298.118L76.3068 298.077Z" fill="#0F0F0F"/>
<path d="M42.2243 231.973L39.0205 293.724C39.0205 293.724 69.5175 300.32 69.6266 299.532C69.7357 298.743 53.267 287.005 53.267 287.005L58.0522 243.126" fill="white"/>
<path d="M69.3539 300.227C67.8543 300.227 62.2102 299.452 38.816 294.392C38.6562 294.357 38.5139 294.267 38.4142 294.138C38.3145 294.008 38.2636 293.848 38.2707 293.685L41.4744 231.948C41.4835 231.767 41.5639 231.598 41.6982 231.477C41.8324 231.356 42.0094 231.293 42.1902 231.302C42.3709 231.311 42.5407 231.391 42.6622 231.525C42.7836 231.659 42.8468 231.835 42.8377 232.016L39.6612 293.223C49.0953 295.263 63.2054 298.174 67.8815 298.826C65.1549 296.501 57.6432 291.087 52.7353 287.605C52.6386 287.534 52.5625 287.439 52.5146 287.329C52.4667 287.219 52.4488 287.099 52.4626 286.98L57.2205 243.06C57.2291 242.971 57.2553 242.884 57.2977 242.804C57.34 242.725 57.3978 242.655 57.4675 242.598C57.5372 242.541 57.6176 242.499 57.7039 242.473C57.7902 242.447 57.8808 242.439 57.9704 242.448C58.1527 242.469 58.3194 242.56 58.4343 242.703C58.5492 242.846 58.603 243.028 58.5838 243.21L53.8396 286.735C70.4036 298.486 70.2946 299.18 70.1992 299.683C70.1624 299.874 70.0554 300.044 69.8992 300.159C69.8992 300.159 69.7765 300.227 69.3539 300.227Z" fill="#0F0F0F"/>
<path d="M94.4113 285.902L90.3214 292.159L74.2345 294.05L75.8159 300.198C75.8159 300.198 111.262 295.777 112.012 292.553C112.761 289.33 94.4113 285.902 94.4113 285.902Z" fill="#0F0F0F"/>
<path d="M36.1167 295.139L37.0437 288.828L55.6664 293.915L59.2928 289.141C59.2928 289.141 72.9258 299.016 71.0717 301.138C69.2176 303.259 49.0408 299.424 36.1167 295.139Z" fill="#0F0F0F"/>
<path d="M29.8727 81.1982C31.6794 80.6655 33.6191 80.8107 35.3259 81.6063C36.4078 79.0643 38.1007 76.8274 40.2549 75.0933C42.4092 73.3592 44.9584 72.1812 47.6774 71.6636C49.5705 71.3548 51.4851 71.1956 53.4033 71.1875C56.2662 71.1875 59.3472 71.3643 61.5831 73.1189C62.8669 74.2669 63.8029 75.7508 64.2848 77.4023C64.7667 79.0538 64.7753 80.807 64.3097 82.4632C62.6464 89.264 57.4932 90.937 52.817 94.7862C50.5483 96.7749 48.7296 99.2224 47.4815 101.966C46.2334 104.71 45.5845 107.687 45.5779 110.7C45.5779 124.111 49.8314 138.937 35.0941 146.989C25.701 152.103 12.9678 148.145 6.66935 139.508C5.25217 137.637 4.20639 135.514 3.58829 133.251C2.04776 127.144 4.71983 120.752 8.07355 115.42C11.4273 110.088 14.89 105.259 17.6984 99.7916C20.1251 95.031 20.425 89.2912 23.9424 85.0203C25.4695 83.1584 27.5437 81.8216 29.8727 81.1982Z" fill="white"/>
<path d="M25.9329 149.941C22.0942 149.905 18.3164 148.98 14.8976 147.238C11.4788 145.496 8.51266 142.985 6.23318 139.903C4.76648 137.962 3.6838 135.76 3.04306 133.415C1.67976 128.097 3.19303 122.085 7.61012 115.053C8.57806 113.516 9.57327 112.006 10.5548 110.496C12.9692 106.946 15.19 103.268 17.2077 99.4791C18.1027 97.5742 18.8413 95.6001 19.4163 93.576C20.1858 90.3441 21.5746 87.2912 23.5062 84.5854C25.0907 82.6253 27.2425 81.2004 29.6683 80.5049C31.4314 79.9872 33.3147 80.0492 35.0397 80.6818C36.2196 78.1791 37.9823 75.9943 40.1807 74.3096C42.3792 72.625 44.9496 71.4893 47.6775 70.9975C49.6068 70.684 51.5577 70.5203 53.5124 70.5078C56.4026 70.5078 59.6745 70.671 62.1557 72.5752C63.5564 73.797 64.5825 75.3889 65.1155 77.1674C65.6486 78.9458 65.667 80.8384 65.1686 82.6268C63.8053 88.0674 60.4789 90.3389 56.9888 92.7736C55.8437 93.5624 54.6576 94.3785 53.5124 95.3034C51.3194 97.2258 49.5616 99.5917 48.3558 102.244C47.15 104.896 46.5237 107.774 46.5187 110.687C46.5187 113.121 46.6686 115.651 46.805 118.1C47.4457 129.253 48.1683 140.801 35.6805 147.574C32.6869 149.18 29.3312 149.995 25.9329 149.941ZM30.0228 81.8515C27.8799 82.4643 25.9768 83.7175 24.5696 85.4423C22.746 88.0112 21.436 90.9067 20.7114 93.9705C20.1228 96.0716 19.3566 98.1192 18.4211 100.091C16.3847 103.923 14.141 107.642 11.7 111.231C10.7184 112.741 9.72323 114.25 8.76892 115.774C4.55632 122.479 3.12486 128.138 4.36546 133.089C4.96504 135.262 5.97363 137.303 7.33746 139.1C13.7586 147.914 26.1237 151.179 34.8897 146.391C46.5596 140.012 45.9597 129.403 45.3054 118.168C45.169 115.706 45.0191 113.162 45.0191 110.7C45.0236 107.585 45.6949 104.506 46.988 101.67C48.2811 98.8344 50.1662 96.3067 52.5172 94.2561C53.7033 93.2904 54.903 92.4607 56.0754 91.6582C59.5655 89.2644 62.5784 87.1969 63.7644 82.314C64.4597 79.4984 63.9416 75.7308 61.2559 73.6498C59.1156 72.004 56.1027 71.8272 53.4715 71.868C51.5891 71.8683 49.7102 72.0275 47.8547 72.344C45.2489 72.8359 42.8052 73.9624 40.7408 75.6234C38.6764 77.2844 37.0552 79.4285 36.0213 81.8651C35.9393 82.0288 35.7979 82.1552 35.6259 82.2187C35.454 82.28 35.2661 82.28 35.0942 82.2187C33.5159 81.4792 31.7192 81.3484 30.05 81.8515H30.0228Z" fill="#0F0F0F"/>
<path d="M74.4254 125.828C71.3989 126.984 66.4228 128.059 65.1277 123.87C64.928 123.125 64.8634 122.351 64.9368 121.585C65.0595 120.456 65.2645 119.338 65.5503 118.239C66.362 115.163 67.4291 112.16 68.7404 109.262C69.054 108.527 69.6811 107.643 70.4445 107.901C71.208 108.16 71.1807 108.962 71.1671 109.642C71.1671 111.533 70.8535 113.451 70.8944 115.341C74.9025 114.321 77.4246 110.091 81.2419 109.18C82.3189 108.935 83.6277 108.853 83.7504 110.241C83.8867 111.955 80.7784 113.301 79.7422 114.185C80.9047 113.19 82.24 112.415 83.6822 111.9C84.0851 111.725 84.5261 111.655 84.9637 111.696C85.1843 111.727 85.3889 111.828 85.5464 111.985C85.7039 112.142 85.8056 112.347 85.8362 112.567C85.8249 112.746 85.7781 112.921 85.6985 113.082C85.619 113.243 85.5082 113.387 85.3727 113.505C84.7789 114.175 84.1215 114.785 83.4095 115.328C84.111 114.494 85.0699 113.915 86.1361 113.682C86.4011 113.588 86.6888 113.578 86.9598 113.654C87.2307 113.729 87.4716 113.886 87.6494 114.104C88.0993 114.825 87.2404 115.641 86.5042 116.062C87.0882 115.537 87.8045 115.179 88.5764 115.029C88.9621 114.963 89.3582 115.048 89.6829 115.266C90.0076 115.484 90.2361 115.817 90.3215 116.198C90.3064 116.503 90.2256 116.8 90.0844 117.07C89.9431 117.34 89.745 117.576 89.5035 117.763C85.6044 121.639 79.4969 123.897 74.4254 125.828Z" fill="white"/>
<path d="M69.5856 127.54C68.6471 127.568 67.7146 127.382 66.859 126.996C66.2737 126.707 65.7569 126.296 65.3431 125.792C64.9294 125.288 64.6282 124.701 64.4596 124.072C64.222 123.246 64.1434 122.383 64.2278 121.528C64.3514 120.363 64.561 119.208 64.8549 118.073C65.6856 114.94 66.7802 111.882 68.1268 108.933C68.7267 107.573 69.6946 106.866 70.6762 107.206C71.2352 107.396 71.9032 107.967 71.8623 109.6C71.8623 110.416 71.8623 111.232 71.726 112.048C71.5896 112.864 71.6169 113.585 71.5896 114.346C73.0825 113.65 74.4613 112.733 75.6795 111.626C77.2055 110.197 79.0309 109.123 81.0237 108.484C81.4482 108.336 81.8988 108.278 82.3471 108.313C82.7953 108.348 83.2314 108.476 83.6276 108.688C83.8513 108.861 84.0336 109.081 84.161 109.333C84.2883 109.585 84.3576 109.862 84.3637 110.144C84.387 110.428 84.3546 110.715 84.2683 110.987C84.5211 110.946 84.7789 110.946 85.0318 110.987C85.3896 111.058 85.7151 111.241 85.9606 111.511C86.206 111.78 86.3583 112.121 86.3951 112.483C86.4098 112.628 86.4098 112.774 86.3951 112.918C86.7411 112.866 87.095 112.912 87.4159 113.051C87.7368 113.191 88.0115 113.418 88.2082 113.707C88.3243 113.888 88.3988 114.093 88.4264 114.306C89.0726 114.242 89.7181 114.432 90.2259 114.836C90.4203 114.99 90.5819 115.182 90.7012 115.399C90.8206 115.616 90.8954 115.855 90.9212 116.101C90.9169 116.504 90.8229 116.901 90.6461 117.263C90.4693 117.625 90.214 117.944 89.8987 118.196C86.027 122.004 80.2738 124.208 75.216 126.153L74.5343 126.425C72.9584 127.068 71.2859 127.445 69.5856 127.54ZM70.1718 108.498C69.9537 108.498 69.6128 108.919 69.3675 109.477C68.0633 112.376 67.0053 115.379 66.2046 118.454C65.9278 119.522 65.7319 120.608 65.6184 121.705C65.5543 122.389 65.6096 123.08 65.782 123.745C65.8993 124.194 66.1106 124.612 66.402 124.973C66.6934 125.334 67.0582 125.63 67.4725 125.84C69.4765 126.805 72.5303 125.84 74.1799 125.255L74.8615 124.996C79.7967 123.092 85.3999 120.916 89.0808 117.339C89.3534 117.067 89.7215 116.659 89.6942 116.332C89.6775 116.198 89.609 116.076 89.5034 115.992C89.2765 115.822 88.9956 115.74 88.7127 115.761C88.3092 115.827 87.9266 115.985 87.5948 116.223C87.3802 116.41 87.1472 116.574 86.8995 116.713C86.7475 116.797 86.5695 116.822 86.4004 116.781C86.2313 116.741 86.0835 116.639 85.9861 116.496C85.893 116.351 85.8581 116.177 85.8884 116.008C85.9188 115.839 86.0121 115.687 86.1497 115.584L86.7631 115.135C86.9342 115.006 87.0662 114.832 87.1449 114.632C87.0631 114.401 86.7359 114.333 86.3133 114.414C85.8626 114.508 85.43 114.674 85.0318 114.904C84.6463 115.27 84.2413 115.615 83.8184 115.938C83.6857 116.047 83.5165 116.102 83.3448 116.092C83.1731 116.082 83.0115 116.008 82.8924 115.884C82.7734 115.76 82.7057 115.596 82.703 115.424C82.7003 115.252 82.7627 115.086 82.8777 114.959C83.2714 114.511 83.7311 114.126 84.241 113.816C84.4728 113.598 84.6909 113.367 84.9091 113.122C85.1272 112.878 85.1953 112.741 85.1953 112.66C85.1953 112.578 85.059 112.469 84.8818 112.442C84.5641 112.422 84.2462 112.478 83.9548 112.605C83.4502 112.785 82.9583 112.999 82.4824 113.245C82.087 113.53 81.678 113.789 81.2963 114.034C80.927 114.256 80.5719 114.502 80.2329 114.768C80.1666 114.832 80.088 114.881 80.0019 114.914C79.9159 114.946 79.8241 114.961 79.7322 114.957C79.6402 114.953 79.55 114.931 79.467 114.891C79.384 114.852 79.3098 114.796 79.249 114.727C79.1882 114.658 79.1421 114.578 79.1133 114.49C79.0845 114.403 79.0737 114.311 79.0816 114.22C79.0895 114.128 79.1158 114.039 79.159 113.958C79.2023 113.877 79.2615 113.806 79.3332 113.748C80.0673 113.12 80.8672 112.573 81.7189 112.116C82.4824 111.558 83.0822 110.932 83.0822 110.375C83.0822 110.035 82.9323 109.94 82.8914 109.912C82.8505 109.885 82.387 109.695 81.419 109.912C79.6236 110.513 77.9812 111.497 76.6066 112.796C75.047 114.265 73.1865 115.379 71.1534 116.06C71.0538 116.088 70.9493 116.092 70.8477 116.073C70.7461 116.054 70.6502 116.013 70.5672 115.951C70.4864 115.888 70.4203 115.807 70.3733 115.716C70.3263 115.624 70.2994 115.524 70.2945 115.421C70.2945 114.292 70.2945 113.163 70.4308 112.061C70.499 111.273 70.5535 110.484 70.5672 109.695C70.5808 108.906 70.4444 108.661 70.2945 108.62L70.1718 108.498Z" fill="#0F0F0F"/>
<path d="M71.0853 115.516C72.0001 116.619 72.5107 118 72.533 119.432C72.5553 120.863 72.0879 122.26 71.208 123.391H71.6034" fill="white"/>
<path d="M71.2079 124.072C71.0805 124.071 70.9559 124.035 70.8477 123.968C70.7395 123.901 70.6519 123.805 70.5945 123.692C70.5373 123.574 70.5147 123.443 70.5292 123.313C70.5436 123.183 70.5946 123.059 70.6763 122.957C71.4551 121.952 71.8685 120.713 71.8486 119.442C71.8288 118.172 71.377 116.946 70.5672 115.966C70.4497 115.829 70.3916 115.651 70.4056 115.471C70.4197 115.291 70.5048 115.124 70.6422 115.007C70.7796 114.89 70.958 114.832 71.1383 114.846C71.3185 114.86 71.4858 114.945 71.6033 115.082C72.5325 116.19 73.0922 117.56 73.2046 119.001C73.317 120.442 72.9765 121.882 72.2304 123.12C72.2366 123.188 72.2366 123.256 72.2304 123.324C72.236 123.414 72.2238 123.503 72.1945 123.588C72.1653 123.673 72.1196 123.751 72.0601 123.818C72.0005 123.884 71.9283 123.939 71.8476 123.978C71.7669 124.017 71.6792 124.04 71.5897 124.045H71.1943L71.2079 124.072Z" fill="#0F0F0F"/>
<path d="M167.13 71.0938H76.4567C73.942 71.0938 71.9033 73.1277 71.9033 75.6367V113.789C71.9033 116.298 73.942 118.332 76.4567 118.332H167.13C169.645 118.332 171.683 116.298 171.683 113.789V75.6367C171.683 73.1277 169.645 71.0938 167.13 71.0938Z" fill="white"/>
<path d="M167.13 119.011H76.4566C75.7692 119.011 75.0884 118.876 74.4533 118.613C73.8181 118.351 73.241 117.966 72.7549 117.481C72.2688 116.996 71.8831 116.42 71.6201 115.787C71.357 115.153 71.2216 114.474 71.2216 113.788V75.7035C71.2216 74.3182 71.7731 72.9897 72.7549 72.0102C73.7366 71.0307 75.0682 70.4805 76.4566 70.4805H167.13C168.518 70.4805 169.85 71.0307 170.831 72.0102C171.813 72.9897 172.365 74.3182 172.365 75.7035V113.856C172.347 115.229 171.787 116.54 170.808 117.505C169.828 118.47 168.506 119.011 167.13 119.011ZM76.4566 71.7726C75.4298 71.7726 74.445 72.1796 73.7189 72.904C72.9928 73.6284 72.5849 74.611 72.5849 75.6354V113.788C72.5849 114.812 72.9928 115.795 73.7189 116.519C74.445 117.244 75.4298 117.651 76.4566 117.651H167.13C168.157 117.651 169.141 117.244 169.867 116.519C170.594 115.795 171.001 114.812 171.001 113.788V75.7035C171.001 74.679 170.594 73.6964 169.867 72.972C169.141 72.2476 168.157 71.8406 167.13 71.8406L76.4566 71.7726Z" fill="#0F0F0F"/>
<path d="M94.9021 107.358C101.897 107.358 107.567 101.7 107.567 94.7218C107.567 87.7432 101.897 82.0859 94.9021 82.0859C87.9074 82.0859 82.2371 87.7432 82.2371 94.7218C82.2371 101.7 87.9074 107.358 94.9021 107.358Z" fill="#0F0F0F"/>
<path d="M160.749 88.6922H120.518C120.338 88.6922 120.164 88.6206 120.036 88.493C119.909 88.3655 119.837 88.1925 119.837 88.0121C119.837 87.8317 119.909 87.6588 120.036 87.5312C120.164 87.4037 120.338 87.332 120.518 87.332H160.749C160.93 87.332 161.104 87.4037 161.231 87.5312C161.359 87.6588 161.431 87.8317 161.431 88.0121C161.431 88.1925 161.359 88.3655 161.231 88.493C161.104 88.6206 160.93 88.6922 160.749 88.6922Z" fill="#0F0F0F"/>
<path d="M160.749 95.3992H120.518C120.338 95.3992 120.164 95.3276 120.036 95.2C119.909 95.0725 119.837 94.8995 119.837 94.7191C119.837 94.5388 119.909 94.3658 120.036 94.2383C120.164 94.1107 120.338 94.0391 120.518 94.0391H160.749C160.93 94.0391 161.104 94.1107 161.231 94.2383C161.359 94.3658 161.431 94.5388 161.431 94.7191C161.431 94.8995 161.359 95.0725 161.231 95.2C161.104 95.3276 160.93 95.3992 160.749 95.3992Z" fill="#0F0F0F"/>
<path d="M146.776 102.134H120.518C120.338 102.134 120.164 102.062 120.036 101.934C119.909 101.807 119.837 101.634 119.837 101.454C119.837 101.273 119.909 101.1 120.036 100.973C120.164 100.845 120.338 100.773 120.518 100.773H146.776C146.956 100.773 147.13 100.845 147.258 100.973C147.385 101.1 147.457 101.273 147.457 101.454C147.457 101.634 147.385 101.807 147.258 101.934C147.13 102.062 146.956 102.134 146.776 102.134Z" fill="#0F0F0F"/>
<path d="M73.5802 125.336C73.5802 125.336 89.7762 136.109 96.0746 132.871C102.373 129.634 115.338 118.154 115.338 118.154C115.338 118.154 118.405 110.606 121.105 111.136C123.804 111.667 121.282 118.862 121.282 118.862C121.282 118.862 137.301 116.141 137.124 117.787C136.946 119.433 128.48 123.35 124.704 124.071C120.928 124.792 107.281 146.351 98.1196 148.867C88.9582 151.383 79.7559 145.806 69.8447 139.699" fill="white"/>
<path d="M93.4025 150.173C85.509 150.173 77.6837 145.344 69.4766 140.285C69.399 140.239 69.3315 140.178 69.2782 140.105C69.2249 140.032 69.1869 139.95 69.1666 139.862C69.1462 139.774 69.1438 139.683 69.1596 139.595C69.1754 139.506 69.2091 139.421 69.2585 139.346C69.3032 139.269 69.3632 139.202 69.4348 139.149C69.5064 139.096 69.5881 139.058 69.675 139.038C69.7618 139.017 69.8519 139.015 69.9397 139.03C70.0275 139.046 70.1111 139.079 70.1856 139.128C79.8241 145.059 88.9173 150.676 97.9151 148.214C103.205 146.759 110.185 138.571 115.815 132.001C120.314 126.724 122.945 123.732 124.622 123.405C128.33 122.698 135.024 119.42 136.292 117.964C134.479 117.665 127.621 118.454 121.432 119.501C121.316 119.52 121.198 119.508 121.088 119.468C120.978 119.427 120.881 119.359 120.805 119.27C120.727 119.18 120.674 119.071 120.652 118.954C120.631 118.837 120.641 118.716 120.682 118.604C121.337 116.713 122.127 113.286 121.446 112.102C121.407 112.015 121.346 111.939 121.27 111.882C121.194 111.825 121.104 111.788 121.009 111.776C119.551 111.477 117.165 115.53 116.02 118.359C115.977 118.455 115.917 118.543 115.842 118.617C115.297 119.093 102.741 130.206 96.4291 133.443C89.858 136.816 73.9074 126.302 73.253 125.853C73.1207 125.747 73.033 125.595 73.007 125.428C72.981 125.26 73.0185 125.089 73.1124 124.948C73.2062 124.807 73.3495 124.706 73.5142 124.664C73.6789 124.623 73.8531 124.644 74.0028 124.724C78.4199 127.662 90.9486 134.735 95.8156 132.233C101.664 129.24 113.538 118.862 114.82 117.706C115.502 116.074 118.296 109.844 121.296 110.429C121.584 110.484 121.857 110.603 122.093 110.777C122.329 110.951 122.522 111.176 122.659 111.436C123.572 113.027 122.836 116.264 122.332 117.978C127.962 117.053 136.374 115.911 137.587 117.053C137.689 117.154 137.767 117.275 137.816 117.409C137.866 117.543 137.885 117.686 137.873 117.828C137.614 120.086 128.208 124.072 124.895 124.697C123.613 124.942 120.191 128.955 116.879 132.858C111.139 139.564 104.009 147.929 98.3104 149.493C96.713 149.941 95.0619 150.17 93.4025 150.173Z" fill="#0F0F0F"/>
<path d="M67.4181 163.123C68.7813 172.521 69.0676 176.221 82.4961 253.138C82.4961 253.138 51.1403 260.496 39.0342 262.659C30.8544 245.834 27.1598 230.695 21.5839 212.891C17.9712 201.343 15.2309 185.878 20.4251 174.956C21.2567 173.215 29.2729 156.254 29.2729 156.254C29.2729 156.254 67.4726 163.463 67.4181 163.123Z" fill="#0F0F0F"/>
<path d="M40.0429 120.387C40.5201 110.118 38.4479 89.2936 38.4479 89.2936C38.4479 89.2936 51.5628 90.0417 55.9663 83.7578C61.4195 87.9743 62.4829 99.862 61.4195 103.426C59.47 110.444 50.3358 108.866 50.3358 108.866L51.4947 121.706L40.0429 120.387Z" fill="white"/>
<path d="M51.5628 122.411L40.0293 121.051C39.8583 121.03 39.7013 120.946 39.59 120.815C39.4787 120.683 39.4214 120.515 39.4295 120.343C39.9066 110.251 37.8617 89.563 37.8344 89.3589C37.827 89.26 37.8401 89.1607 37.873 89.067C37.9058 88.9734 37.9577 88.8876 38.0253 88.8149C38.0949 88.746 38.1782 88.6923 38.2697 88.6572C38.3612 88.6221 38.459 88.6063 38.557 88.6108C38.6797 88.6108 51.3447 89.2637 55.4755 83.3606C55.5283 83.2842 55.5962 83.2194 55.675 83.1701C55.7538 83.1209 55.8419 83.0882 55.9339 83.0742C56.0258 83.0602 56.1197 83.0651 56.2097 83.0886C56.2997 83.1122 56.3839 83.1538 56.4571 83.211C62.1148 87.6315 63.2736 99.8321 62.2238 103.613C60.4924 109.788 53.6623 109.856 51.222 109.666L52.3127 121.69C52.3252 121.79 52.3132 121.892 52.2776 121.987C52.2419 122.082 52.1838 122.166 52.1082 122.234C52.0356 122.301 51.9492 122.352 51.855 122.382C51.7609 122.413 51.6611 122.423 51.5628 122.411ZM40.7519 119.813L50.813 120.996L49.7224 108.932C49.7093 108.826 49.7223 108.718 49.7603 108.619C49.7983 108.519 49.8602 108.431 49.9405 108.36C50.0168 108.291 50.1082 108.24 50.2076 108.212C50.3069 108.183 50.4115 108.178 50.5131 108.197C50.8676 108.197 59.0746 109.557 60.8333 103.205C61.6785 100.186 60.8333 89.1685 56.0754 84.7072C51.8082 89.8078 42.0743 90.0118 39.1977 89.971C39.5658 93.7794 41.0791 110.55 40.7519 119.813Z" fill="#0F0F0F"/>
<path d="M50.404 108.933C48.3395 108.683 46.383 107.874 44.7463 106.594C44.7463 106.594 47.2412 112.823 51.0857 113.748L50.404 108.933Z" fill="#0F0F0F"/>
<path d="M51.0857 114.375H50.9357C46.8458 113.369 44.2828 107.112 44.1192 106.84C44.0668 106.708 44.0611 106.561 44.1033 106.425C44.1454 106.289 44.2328 106.172 44.351 106.092C44.4727 106.015 44.617 105.981 44.7605 105.996C44.904 106.01 45.0383 106.073 45.1417 106.174C46.8322 107.874 50.3904 108.323 50.4176 108.336C50.5551 108.35 50.6838 108.41 50.7828 108.507C50.8818 108.603 50.9453 108.73 50.963 108.867L51.6446 113.682C51.6626 113.781 51.6545 113.883 51.621 113.979C51.5876 114.074 51.5299 114.159 51.4537 114.226C51.35 114.313 51.2211 114.366 51.0857 114.375ZM46.3141 108.363C47.2174 110.164 48.5931 111.687 50.2949 112.77L49.8178 109.438C48.6081 109.233 47.4303 108.872 46.3141 108.363Z" fill="#0F0F0F"/>
<path d="M60.2879 115.094L90.2805 131.416L83.0414 152.321C83.0414 152.321 45.4007 132.449 45.1417 127.063C44.8826 121.677 60.2879 115.094 60.2879 115.094Z" fill="#3766E8"/>
<path d="M67.8815 166.808C69.7437 156.269 69.8956 145.5 68.3314 134.913C67.1862 128.003 67.6361 123.147 65.3321 119.407C57.6295 106.853 27.6096 110.593 23.2471 119.312C18.8845 128.03 27.0234 159.858 27.0234 159.858L67.8815 166.808Z" fill="#3766E8"/>
<path d="M40.5883 96.5989C40.4209 95.7915 40.0351 95.0452 39.4727 94.4409C38.9104 93.8367 38.1929 93.3976 37.3982 93.1714C37.0395 93.0611 36.6618 93.0259 36.2888 93.068C35.9158 93.1102 35.5555 93.2287 35.2306 93.4162C34.8436 93.745 34.5495 94.169 34.3773 94.6461C34.2051 95.1233 34.1609 95.637 34.249 96.1365C34.3644 97.6978 35.0712 99.1567 36.2258 100.217C37.3768 101.272 38.8893 101.846 40.452 101.822" fill="white"/>
<path d="M40.3702 102.417C38.6649 102.419 37.0207 101.784 35.7622 100.635C34.4881 99.4587 33.7045 97.8466 33.5673 96.1198C33.4753 95.5113 33.5453 94.8894 33.7702 94.3165C33.9951 93.7435 34.3671 93.2397 34.8488 92.8554C35.2521 92.6066 35.7044 92.4474 36.1749 92.3887C36.6455 92.33 37.1231 92.3732 37.5754 92.5154C38.4918 92.7742 39.3195 93.2788 39.9685 93.9742C40.6175 94.6697 41.063 95.5294 41.2563 96.4598C41.2885 96.6381 41.2494 96.8219 41.1475 96.9719C41.0456 97.1218 40.8889 97.2261 40.711 97.2623C40.5339 97.2941 40.3514 97.2547 40.2033 97.1528C40.0552 97.0509 39.9534 96.8947 39.9203 96.7182C39.7707 96.036 39.438 95.4073 38.9577 94.8994C38.4774 94.3914 37.8676 94.0234 37.1937 93.8347C36.9335 93.7426 36.6565 93.7071 36.3814 93.7305C36.1063 93.754 35.8394 93.8359 35.5986 93.9707C35.3282 94.231 35.1241 94.5519 35.0031 94.9068C34.8822 95.2616 34.848 95.6402 34.9033 96.011C35.0014 97.3948 35.6256 98.689 36.6484 99.629C37.6802 100.549 39.0281 101.036 40.4111 100.989C40.5908 100.993 40.7621 101.065 40.8892 101.192C41.0163 101.319 41.0892 101.49 41.0927 101.669C41.0927 101.85 41.0209 102.023 40.8931 102.15C40.7652 102.278 40.5919 102.349 40.4111 102.349L40.3702 102.417Z" fill="#0F0F0F"/>
<path d="M56.7347 91.5664C57.0654 91.4635 57.177 90.8801 56.9842 90.2634C56.7913 89.6467 56.3669 89.2302 56.0363 89.3332C55.7056 89.4361 55.594 90.0195 55.7869 90.6362C55.9797 91.2529 56.4041 91.6694 56.7347 91.5664Z" fill="#0F0F0F"/>
<path d="M59.17 103.929C58.355 104.451 57.4624 104.841 56.5252 105.085C55.9147 105.315 55.2534 105.377 54.6106 105.264C53.9679 105.152 53.3672 104.869 52.8716 104.446C52.5178 104.012 52.2537 103.513 52.0945 102.977" fill="white"/>
<path d="M55.0801 105.967C54.5759 105.996 54.0715 105.916 53.601 105.733C53.1305 105.55 52.705 105.268 52.3535 104.906C51.9375 104.407 51.6269 103.828 51.4401 103.206C51.4075 103.123 51.3918 103.035 51.3941 102.946C51.3964 102.856 51.4166 102.769 51.4535 102.688C51.4903 102.606 51.5431 102.533 51.6087 102.473C51.6743 102.413 51.7514 102.366 51.8355 102.336C51.9195 102.303 52.0093 102.287 52.0996 102.289C52.1898 102.291 52.2787 102.311 52.3612 102.348C52.4436 102.385 52.5179 102.437 52.5798 102.503C52.6417 102.569 52.6899 102.646 52.7216 102.73C52.8515 103.189 53.0691 103.619 53.3624 103.995C54.194 104.906 55.8572 104.566 56.348 104.43C57.211 104.197 58.0337 103.834 58.7883 103.356C58.9402 103.259 59.1246 103.226 59.3009 103.264C59.4772 103.302 59.6312 103.409 59.729 103.56C59.779 103.634 59.8135 103.718 59.8303 103.806C59.8471 103.894 59.8459 103.985 59.8268 104.072C59.8077 104.16 59.7711 104.243 59.7192 104.316C59.6672 104.389 59.601 104.451 59.5245 104.498C58.6489 105.058 57.6926 105.48 56.6888 105.75C56.164 105.89 55.6234 105.963 55.0801 105.967Z" fill="#0F0F0F"/>
<path d="M59.2519 91.6445C59.2519 91.6445 64.5142 97.6292 63.2191 98.9213C61.924 100.213 58.8838 99.5742 58.8838 99.5742" fill="white"/>
<path d="M60.5606 100.42C59.9476 100.415 59.3362 100.356 58.7338 100.243C58.6458 100.223 58.5626 100.187 58.4889 100.135C58.4152 100.084 58.3524 100.018 58.3043 99.9424C58.2561 99.8666 58.2235 99.7819 58.2083 99.6934C58.1931 99.6049 58.1956 99.5142 58.2157 99.4267C58.2335 99.3395 58.2685 99.2567 58.3188 99.1833C58.3691 99.1098 58.4337 99.0472 58.5086 98.999C58.5836 98.9508 58.6675 98.9181 58.7553 98.9028C58.8431 98.8875 58.9332 98.8899 59.02 98.9098C59.7699 99.0594 61.8966 99.2907 62.7419 98.4474C63.0282 97.8489 61.1195 94.8157 58.7338 92.0954C58.608 91.966 58.5377 91.7928 58.5377 91.6126C58.5377 91.4323 58.608 91.2591 58.7338 91.1297C58.796 91.0664 58.8702 91.0161 58.9521 90.9817C59.0341 90.9474 59.122 90.9297 59.2109 90.9297C59.2998 90.9297 59.3878 90.9474 59.4697 90.9817C59.5516 91.0161 59.6259 91.0664 59.6881 91.1297C61.8148 93.5372 65.1413 97.8217 63.6416 99.2907C62.7931 100.039 61.6932 100.442 60.5606 100.42Z" fill="#0F0F0F"/>
<path d="M82.9869 153.058C82.8729 153.057 82.7608 153.029 82.6597 152.976C82.4552 152.867 61.7603 141.837 54.2077 137.743C54.1292 137.701 54.0598 137.645 54.0035 137.576C53.9472 137.508 53.9051 137.429 53.8797 137.344C53.8543 137.259 53.8461 137.17 53.8556 137.082C53.8651 136.994 53.8921 136.909 53.935 136.831C53.9766 136.751 54.0337 136.68 54.103 136.623C54.1723 136.565 54.2524 136.522 54.3387 136.495C54.4249 136.469 54.5156 136.459 54.6054 136.468C54.6953 136.477 54.7825 136.503 54.862 136.546C62.4011 140.626 83.096 151.657 83.3005 151.779C83.3801 151.82 83.4508 151.875 83.5085 151.943C83.5662 152.011 83.6097 152.09 83.6364 152.175C83.663 152.26 83.6724 152.349 83.6639 152.438C83.6554 152.526 83.6291 152.612 83.5868 152.691C83.5297 152.801 83.4437 152.893 83.338 152.957C83.2323 153.022 83.1109 153.057 82.9869 153.058Z" fill="#0F0F0F"/>
<path d="M340.787 162.428L343.309 162.36C344.398 162.315 345.476 162.589 346.411 163.147C347.346 163.705 348.097 164.524 348.571 165.502L397.773 301.123C398.427 302.919 397.118 304.428 394.855 304.496L392.347 304.564C391.257 304.605 390.179 304.33 389.243 303.773C388.306 303.215 387.552 302.399 387.071 301.422L337.91 165.788C337.27 163.992 338.565 162.483 340.787 162.428Z" fill="white"/>
<path d="M392.238 305.244C391.032 305.265 389.845 304.938 388.822 304.3C387.798 303.663 386.982 302.744 386.471 301.653L337.27 166.06C337.095 165.616 337.03 165.138 337.079 164.664C337.129 164.191 337.293 163.736 337.556 163.339C337.939 162.845 338.434 162.447 339 162.18C339.566 161.913 340.188 161.784 340.814 161.802L343.323 161.734C344.552 161.692 345.768 162.008 346.821 162.643C347.874 163.278 348.719 164.205 349.253 165.311L398.454 300.946C398.63 301.389 398.696 301.868 398.646 302.341C398.596 302.815 398.432 303.27 398.168 303.666C397.787 304.16 397.295 304.557 396.731 304.824C396.167 305.091 395.547 305.221 394.923 305.203L392.401 305.271L392.238 305.244ZM340.855 163.108C340.445 163.085 340.036 163.158 339.66 163.321C339.283 163.484 338.95 163.732 338.687 164.046C338.543 164.268 338.455 164.521 338.431 164.784C338.407 165.048 338.448 165.313 338.551 165.556L387.752 301.191C388.185 302.032 388.847 302.734 389.662 303.216C390.478 303.697 391.413 303.938 392.36 303.911L394.883 303.843C395.292 303.857 395.7 303.779 396.075 303.614C396.451 303.449 396.784 303.202 397.05 302.891C397.192 302.669 397.278 302.415 397.299 302.151C397.321 301.888 397.277 301.624 397.173 301.381L347.971 165.747C347.547 164.899 346.887 164.191 346.069 163.709C345.252 163.226 344.312 162.989 343.363 163.026L340.855 163.094V163.108Z" fill="#CED4DA"/>
<path d="M343.513 173.079L297.816 173.855C296.991 173.883 296.176 173.673 295.467 173.251C294.759 172.829 294.187 172.212 293.821 171.474C293.33 170.114 294.326 168.972 296.03 168.931L341.728 168.155C342.553 168.124 343.369 168.332 344.079 168.755C344.788 169.177 345.358 169.796 345.722 170.536C346.24 171.896 345.258 173.038 343.513 173.079Z" fill="white"/>
<path d="M297.734 174.533C296.787 174.546 295.856 174.286 295.053 173.784C294.25 173.282 293.609 172.56 293.208 171.704C293.063 171.34 293.009 170.947 293.052 170.558C293.095 170.169 293.233 169.797 293.453 169.473C293.756 169.078 294.149 168.761 294.6 168.548C295.05 168.336 295.545 168.233 296.043 168.249L341.741 167.419C342.71 167.375 343.671 167.62 344.499 168.124C345.328 168.628 345.986 169.368 346.39 170.248C346.534 170.609 346.589 170.999 346.549 171.385C346.508 171.772 346.374 172.142 346.158 172.465C345.857 172.863 345.465 173.184 345.014 173.399C344.563 173.614 344.067 173.719 343.568 173.703L297.87 174.478L297.734 174.533ZM341.864 168.779H341.782L296.071 169.555C295.788 169.537 295.505 169.586 295.245 169.697C294.984 169.808 294.754 169.978 294.571 170.194C294.479 170.341 294.424 170.508 294.409 170.68C294.395 170.853 294.423 171.027 294.489 171.187C294.802 171.794 295.283 172.299 295.875 172.642C296.467 172.984 297.146 173.149 297.829 173.118L343.527 172.343C343.81 172.361 344.093 172.312 344.353 172.201C344.613 172.09 344.844 171.92 345.027 171.704C345.122 171.558 345.179 171.391 345.193 171.218C345.208 171.044 345.179 170.87 345.108 170.711C344.801 170.119 344.335 169.625 343.762 169.284C343.189 168.943 342.531 168.768 341.864 168.779Z" fill="#CED4DA"/>
<path d="M350.412 191.997L304.714 192.772C303.889 192.803 303.072 192.595 302.363 192.173C301.654 191.75 301.083 191.131 300.719 190.392C300.229 189.031 301.21 187.889 302.928 187.848L348.626 187.073C349.45 187.045 350.266 187.254 350.974 187.676C351.682 188.099 352.254 188.715 352.62 189.453C353.056 190.813 352.116 191.901 350.412 191.997Z" fill="white"/>
<path d="M304.591 193.453C303.646 193.465 302.717 193.204 301.917 192.703C301.116 192.201 300.478 191.479 300.079 190.624C299.934 190.263 299.88 189.873 299.92 189.487C299.961 189.1 300.094 188.73 300.31 188.407C300.614 188.007 301.008 187.687 301.461 187.471C301.914 187.256 302.413 187.152 302.914 187.169L348.612 186.394C349.579 186.36 350.535 186.61 351.362 187.113C352.188 187.616 352.848 188.349 353.261 189.223C353.404 189.586 353.458 189.978 353.418 190.366C353.378 190.754 353.244 191.127 353.029 191.453C352.723 191.848 352.327 192.164 351.874 192.377C351.422 192.589 350.925 192.692 350.425 192.678L304.728 193.453H304.591ZM348.735 187.822H348.639L302.942 188.597C302.659 188.578 302.376 188.626 302.115 188.738C301.854 188.849 301.624 189.02 301.442 189.236C301.347 189.382 301.289 189.549 301.275 189.722C301.261 189.896 301.29 190.07 301.36 190.229C301.672 190.838 302.152 191.344 302.745 191.686C303.337 192.029 304.016 192.194 304.7 192.161L350.398 191.385C350.681 191.404 350.964 191.356 351.225 191.245C351.485 191.134 351.716 190.963 351.898 190.746C351.99 190.599 352.045 190.432 352.059 190.26C352.073 190.087 352.046 189.913 351.98 189.753C351.67 189.164 351.203 188.671 350.63 188.331C350.058 187.99 349.402 187.814 348.735 187.822Z" fill="#CED4DA"/>
<path d="M357.269 210.947L311.571 211.709C310.748 211.741 309.932 211.535 309.223 211.115C308.514 210.695 307.942 210.079 307.577 209.342C307.086 207.982 308.081 206.839 309.786 206.785L355.483 206.023C356.309 205.988 357.127 206.195 357.837 206.618C358.547 207.041 359.117 207.662 359.478 208.404C359.969 209.75 358.987 210.947 357.269 210.947Z" fill="white"/>
<path d="M311.462 212.388C310.515 212.401 309.584 212.141 308.781 211.639C307.978 211.138 307.338 210.415 306.936 209.559C306.79 209.196 306.736 208.802 306.779 208.413C306.822 208.024 306.96 207.651 307.181 207.328C307.485 206.934 307.878 206.616 308.328 206.401C308.778 206.186 309.273 206.079 309.772 206.091L355.47 205.329C356.438 205.286 357.398 205.533 358.226 206.037C359.054 206.54 359.713 207.279 360.118 208.158C360.263 208.519 360.317 208.909 360.277 209.295C360.237 209.681 360.103 210.052 359.887 210.375C359.583 210.771 359.191 211.089 358.74 211.304C358.29 211.519 357.795 211.625 357.296 211.613L311.599 212.375L311.462 212.388ZM355.592 206.689H355.51L309.799 207.451C309.517 207.439 309.236 207.491 308.977 207.601C308.717 207.712 308.486 207.879 308.299 208.09C308.206 208.239 308.151 208.409 308.14 208.585C308.128 208.76 308.159 208.936 308.231 209.097C308.54 209.704 309.018 210.208 309.609 210.549C310.199 210.889 310.877 211.051 311.558 211.014L357.255 210.253C357.538 210.267 357.82 210.217 358.08 210.106C358.339 209.996 358.57 209.827 358.755 209.613C358.85 209.468 358.908 209.301 358.922 209.127C358.936 208.954 358.907 208.78 358.837 208.621C358.53 208.029 358.064 207.535 357.49 207.194C356.917 206.853 356.26 206.678 355.592 206.689Z" fill="#CED4DA"/>
<path d="M364.14 229.852L318.442 230.628C317.617 230.659 316.8 230.451 316.091 230.028C315.382 229.606 314.811 228.987 314.448 228.247C313.957 226.887 314.939 225.745 316.656 225.704L362.354 224.929C363.179 224.899 363.995 225.108 364.704 225.53C365.413 225.952 365.984 226.57 366.349 227.309C366.839 228.628 365.844 229.812 364.14 229.852Z" fill="white"/>
<path d="M318.32 231.349C317.374 231.361 316.445 231.1 315.645 230.598C314.844 230.097 314.206 229.375 313.807 228.52C313.664 228.156 313.61 227.764 313.65 227.376C313.691 226.988 313.824 226.615 314.039 226.289C314.345 225.894 314.74 225.577 315.193 225.364C315.646 225.151 316.143 225.049 316.643 225.065L362.341 224.29C363.309 224.249 364.268 224.496 365.096 224.999C365.923 225.503 366.582 226.241 366.989 227.119C367.134 227.479 367.188 227.869 367.148 228.256C367.108 228.642 366.974 229.013 366.758 229.336C366.454 229.734 366.059 230.054 365.606 230.269C365.153 230.485 364.655 230.589 364.154 230.573L318.456 231.349H318.32ZM362.463 225.65H362.368L316.67 226.425C316.387 226.406 316.104 226.454 315.843 226.565C315.583 226.676 315.352 226.847 315.17 227.064C315.075 227.21 315.018 227.377 315.004 227.55C314.989 227.724 315.018 227.898 315.089 228.057C315.401 228.665 315.882 229.169 316.475 229.512C317.067 229.854 317.745 230.02 318.429 229.989L364.126 229.213C364.409 229.232 364.692 229.184 364.953 229.073C365.214 228.962 365.444 228.791 365.626 228.574C365.718 228.427 365.773 228.26 365.788 228.087C365.802 227.915 365.774 227.741 365.708 227.581C365.405 226.983 364.941 226.482 364.368 226.133C363.794 225.784 363.135 225.603 362.463 225.609V225.65Z" fill="#CED4DA"/>
<path d="M370.998 248.787L325.3 249.549C324.476 249.581 323.661 249.373 322.954 248.95C322.247 248.528 321.679 247.909 321.319 247.169C320.814 245.808 321.81 244.68 323.514 244.625L369.212 243.863C370.036 243.827 370.853 244.032 371.563 244.452C372.272 244.873 372.843 245.491 373.206 246.23C373.697 247.59 372.715 248.733 370.998 248.787Z" fill="white"/>
<path d="M325.191 250.226C324.245 250.24 323.315 249.98 322.515 249.478C321.714 248.976 321.076 248.253 320.678 247.397C320.528 247.038 320.47 246.647 320.511 246.259C320.551 245.872 320.688 245.501 320.91 245.18C321.212 244.783 321.604 244.463 322.055 244.248C322.505 244.033 323.001 243.928 323.5 243.942L369.198 243.181C370.165 243.137 371.124 243.381 371.952 243.883C372.78 244.384 373.439 245.12 373.847 245.996C373.991 246.359 374.046 246.752 374.005 247.14C373.965 247.528 373.831 247.901 373.615 248.227C373.31 248.62 372.916 248.937 372.467 249.152C372.017 249.367 371.523 249.474 371.025 249.465L325.327 250.226H325.191ZM369.321 244.527H369.239L323.527 245.289C323.246 245.277 322.965 245.329 322.705 245.44C322.446 245.55 322.214 245.717 322.028 245.928C321.938 246.076 321.885 246.244 321.873 246.417C321.861 246.589 321.891 246.762 321.96 246.921C322.269 247.529 322.747 248.034 323.337 248.377C323.927 248.719 324.604 248.885 325.286 248.853L370.984 248.091C371.266 248.106 371.548 248.055 371.808 247.945C372.068 247.834 372.299 247.665 372.484 247.452C372.579 247.303 372.636 247.134 372.65 246.959C372.665 246.783 372.635 246.607 372.565 246.445C372.256 245.856 371.789 245.365 371.216 245.026C370.643 244.688 369.987 244.515 369.321 244.527Z" fill="#CED4DA"/>
<path d="M377.869 267.704L332.171 268.479C331.345 268.511 330.529 268.302 329.82 267.88C329.111 267.457 328.54 266.839 328.176 266.099C327.685 264.739 328.667 263.596 330.385 263.555L376.083 262.78C376.908 262.75 377.724 262.959 378.432 263.382C379.141 263.804 379.712 264.422 380.077 265.16C380.568 266.521 379.573 267.663 377.869 267.704Z" fill="white"/>
<path d="M332.048 269.161C331.103 269.173 330.174 268.912 329.373 268.41C328.573 267.908 327.935 267.187 327.536 266.331C327.391 265.969 327.337 265.576 327.377 265.188C327.417 264.799 327.551 264.426 327.767 264.101C328.073 263.706 328.469 263.389 328.922 263.176C329.374 262.963 329.871 262.861 330.371 262.877L376.069 262.101C377.037 262.064 377.994 262.313 378.821 262.816C379.648 263.319 380.308 264.055 380.718 264.93C380.862 265.291 380.917 265.681 380.876 266.068C380.836 266.454 380.702 266.824 380.486 267.148C380.182 267.546 379.787 267.866 379.335 268.081C378.882 268.297 378.384 268.401 377.882 268.385L332.184 269.161H332.048ZM376.233 263.461H376.137L330.439 264.237C330.157 264.218 329.873 264.266 329.613 264.377C329.352 264.488 329.122 264.659 328.94 264.876C328.845 265.022 328.787 265.189 328.773 265.362C328.759 265.536 328.788 265.71 328.858 265.869C329.169 266.477 329.65 266.983 330.243 267.326C330.835 267.669 331.514 267.833 332.198 267.8L377.896 267.025C378.178 267.042 378.461 266.993 378.721 266.882C378.981 266.771 379.212 266.601 379.395 266.386C379.487 266.239 379.543 266.072 379.557 265.899C379.571 265.727 379.544 265.553 379.477 265.393C379.169 264.803 378.702 264.309 378.129 263.968C377.556 263.627 376.9 263.452 376.233 263.461Z" fill="#CED4DA"/>
<path d="M384.726 286.622L339.042 287.397C338.216 287.429 337.4 287.221 336.691 286.798C335.982 286.376 335.411 285.757 335.047 285.017C334.543 283.657 335.538 282.515 337.242 282.474L382.94 281.698C383.765 281.667 384.582 281.875 385.291 282.298C386 282.72 386.571 283.339 386.935 284.079C387.425 285.439 386.444 286.581 384.726 286.622Z" fill="white"/>
<path d="M338.919 288.079C337.973 288.093 337.044 287.833 336.243 287.331C335.442 286.829 334.804 286.106 334.407 285.25C334.258 284.89 334.202 284.499 334.243 284.112C334.283 283.725 334.419 283.354 334.638 283.033C334.938 282.634 335.331 282.313 335.782 282.097C336.232 281.882 336.729 281.778 337.229 281.795L382.926 281.02C383.895 280.981 384.853 281.228 385.68 281.732C386.507 282.235 387.167 282.972 387.575 283.849C387.72 284.212 387.774 284.604 387.734 284.992C387.693 285.381 387.56 285.754 387.343 286.079C387.04 286.473 386.646 286.79 386.196 287.003C385.746 287.215 385.251 287.318 384.753 287.304L339.055 288.079H338.919ZM383.049 282.38H382.967L337.256 283.155C336.973 283.137 336.69 283.186 336.43 283.297C336.169 283.408 335.939 283.578 335.756 283.794C335.666 283.942 335.614 284.11 335.602 284.283C335.59 284.455 335.619 284.628 335.688 284.787C335.996 285.396 336.474 285.902 337.064 286.245C337.655 286.588 338.332 286.752 339.015 286.719L384.712 285.943C384.995 285.964 385.279 285.917 385.54 285.806C385.801 285.695 386.032 285.523 386.212 285.304C386.307 285.158 386.364 284.991 386.379 284.818C386.393 284.645 386.364 284.47 386.294 284.311C385.987 283.72 385.52 283.226 384.947 282.884C384.374 282.543 383.716 282.368 383.049 282.38Z" fill="#CED4DA"/>
<path d="M291.585 163.339L294.094 163.258C295.183 163.217 296.262 163.492 297.198 164.05C298.134 164.607 298.889 165.424 299.37 166.4L348.571 302.034C349.212 303.83 347.917 305.34 345.654 305.394H343.132C342.045 305.44 340.967 305.169 340.033 304.613C339.098 304.057 338.346 303.242 337.869 302.266L288.668 166.631C288.013 164.863 289.322 163.339 291.585 163.339Z" fill="white"/>
<path d="M342.995 306.155C341.791 306.177 340.605 305.851 339.582 305.217C338.559 304.582 337.741 303.665 337.229 302.578L288.027 166.889C287.851 166.446 287.785 165.967 287.835 165.493C287.885 165.02 288.049 164.565 288.313 164.168C288.695 163.676 289.188 163.282 289.752 163.017C290.316 162.752 290.935 162.625 291.558 162.645L294.08 162.577C295.313 162.52 296.534 162.83 297.59 163.467C298.646 164.104 299.488 165.039 300.01 166.154L349.212 301.789C349.387 302.232 349.452 302.71 349.402 303.184C349.352 303.657 349.189 304.112 348.926 304.509C348.543 305.004 348.048 305.401 347.482 305.668C346.915 305.935 346.294 306.065 345.667 306.046H343.159L342.995 306.155ZM291.599 164.032C291.191 164.009 290.784 164.082 290.41 164.245C290.036 164.408 289.705 164.657 289.445 164.971C289.297 165.191 289.207 165.444 289.183 165.708C289.159 165.972 289.202 166.238 289.309 166.481L338.51 302.074C338.936 302.921 339.596 303.628 340.413 304.11C341.23 304.592 342.169 304.83 343.118 304.795H345.626C346.036 304.819 346.446 304.746 346.822 304.583C347.199 304.42 347.532 304.171 347.794 303.856C347.939 303.635 348.027 303.381 348.05 303.118C348.074 302.855 348.033 302.59 347.93 302.346L298.729 166.712C298.306 165.863 297.646 165.154 296.828 164.672C296.011 164.189 295.07 163.953 294.121 163.991L291.599 164.032Z" fill="#CED4DA"/>
<path d="M325.94 83.5956C316.138 89.2675 304.796 93.7016 293.289 91.4709C283.528 89.5939 274.721 83.0924 271.259 73.6801C270.563 71.8303 270.127 69.8853 269.391 68.0355C269.091 67.301 268.627 66.4849 267.837 66.4169C266.555 66.3081 266.119 68.0763 266.269 69.3412C266.392 70.3613 266.514 71.2998 266.542 72.3063C266.542 73 266.542 74.809 267.155 75.3259L258.43 66.8929C258.028 66.4344 257.51 66.0915 256.93 65.9C256.639 65.8137 256.326 65.8435 256.056 65.983C255.787 66.1225 255.582 66.361 255.485 66.6481C255.464 66.899 255.5 67.1514 255.59 67.3868C255.679 67.6221 255.821 67.8345 256.003 68.0083L259.48 72.4832C257.939 71.1611 256.333 69.9173 254.667 68.7563C252.431 67.2194 251.736 69.4772 253.058 71.1774L256.589 75.7067C255.423 74.5131 254.165 73.4125 252.827 72.4152C252.431 72.1159 251.9 71.8303 251.463 72.1023C251.338 72.2108 251.249 72.3548 251.207 72.5151C251.166 72.6755 251.174 72.8446 251.232 73C251.35 73.3135 251.536 73.5969 251.777 73.8297L255.063 77.5701C254.49 76.9989 251.654 74.333 250.891 75.7883C250.455 76.618 252.077 77.9374 252.568 78.427C255.771 81.5554 259.016 84.5477 262.329 87.4993C271.231 95.4426 281.415 102.801 293.426 105.508C306.582 108.486 321.033 105.1 332.116 97.5236" fill="white"/>
<path d="M303.201 107.194C299.849 107.203 296.506 106.838 293.235 106.106C279.956 103.1 268.955 94.2994 261.879 87.9475C258.212 84.6695 255.063 81.6908 252.118 78.8481L251.886 78.644C251.054 77.8688 249.678 76.5902 250.305 75.4069C250.401 75.2003 250.547 75.0211 250.73 74.8856C250.914 74.7502 251.128 74.6628 251.354 74.6316H251.627L251.273 74.2371C250.975 73.9286 250.743 73.5631 250.591 73.1626C250.492 72.868 250.487 72.5499 250.578 72.2526C250.668 71.9552 250.849 71.6933 251.095 71.5032C251.278 71.3769 251.49 71.2973 251.711 71.2712C251.932 71.2451 252.156 71.2734 252.363 71.3536C251.964 70.8956 251.729 70.3174 251.697 69.7111C251.665 69.1047 251.837 68.5051 252.186 68.0076C252.431 67.7492 253.358 67.0011 255.035 68.1572L255.553 68.5245L255.444 68.3885C255.215 68.1437 255.04 67.8539 254.93 67.5378C254.82 67.2216 254.776 66.886 254.804 66.5523C254.846 66.3432 254.931 66.1451 255.053 65.9697C255.175 65.7944 255.331 65.6455 255.512 65.5321C255.74 65.3842 255.994 65.2839 256.262 65.2371C256.529 65.1904 256.803 65.1982 257.067 65.2601C257.765 65.4809 258.391 65.8849 258.88 66.4299L265.887 73.2306V72.4009C265.86 71.6 265.791 70.801 265.683 70.0071L265.615 69.4902C265.532 68.9397 265.563 68.3782 265.706 67.8402C265.849 67.3022 266.101 66.7991 266.446 66.3618C266.633 66.1636 266.863 66.0104 267.118 65.9138C267.373 65.8172 267.647 65.7797 267.918 65.8042C268.818 65.8858 269.541 66.5795 270.045 67.858C270.454 68.8645 270.768 69.9119 271.081 70.9184C271.395 71.9249 271.613 72.6594 271.927 73.5163C275.212 82.2757 283.487 88.9268 293.521 90.8718C302.942 92.708 313.466 90.151 325.695 83.0781C325.772 83.0222 325.86 82.983 325.954 82.9631C326.047 82.9432 326.143 82.9431 326.237 82.9627C326.33 82.9823 326.418 83.0213 326.495 83.077C326.573 83.1328 326.637 83.2041 326.685 83.2863C326.733 83.3686 326.763 83.46 326.774 83.5546C326.784 83.6492 326.774 83.7449 326.745 83.8355C326.716 83.9261 326.668 84.0097 326.605 84.0807C326.541 84.1517 326.464 84.2087 326.377 84.2479C313.848 91.4975 303.023 94.0954 293.262 92.2048C282.765 90.1782 274.094 83.187 270.645 73.9923C270.318 73.1082 270.045 72.2105 269.773 71.272C269.5 70.3335 269.159 69.2726 268.777 68.3205C268.573 67.79 268.232 67.1643 267.796 67.1235C267.725 67.1165 267.653 67.1264 267.587 67.1524C267.52 67.1784 267.461 67.2198 267.414 67.2732C267.016 67.8688 266.86 68.5935 266.978 69.2998V69.803C267.073 70.6463 267.169 71.4488 267.196 72.3057C267.196 74.3596 267.523 74.7812 267.591 74.8628C267.656 74.9239 267.708 74.9976 267.744 75.0795C267.78 75.1614 267.798 75.2496 267.798 75.3389C267.798 75.4281 267.78 75.5164 267.744 75.5982C267.708 75.6801 267.656 75.7539 267.591 75.8149C267.529 75.8783 267.455 75.9286 267.373 75.9629C267.291 75.9973 267.203 76.015 267.114 76.015C267.025 76.015 266.937 75.9973 266.855 75.9629C266.773 75.9286 266.699 75.8783 266.637 75.8149L257.912 67.3956C257.593 67.0299 257.191 66.7454 256.739 66.5659C256.561 66.5353 256.377 66.569 256.221 66.6611C256.195 66.675 256.171 66.6943 256.153 66.7177C256.134 66.7411 256.12 66.7681 256.112 66.7971C256.112 66.9875 256.358 67.3548 256.494 67.5316L259.984 72.0201C260.079 72.1538 260.123 72.3174 260.107 72.4806C260.091 72.6439 260.016 72.7958 259.896 72.9085C259.777 73.0211 259.621 73.0868 259.456 73.0935C259.292 73.1003 259.131 73.0475 259.002 72.945C257.478 71.6332 255.885 70.4029 254.231 69.259C253.672 68.8781 253.277 68.8101 253.154 68.9325C253.031 69.0549 252.936 69.9118 253.549 70.7007L257.08 75.2301C257.191 75.3668 257.244 75.5408 257.229 75.7157C257.213 75.8907 257.131 76.0529 256.998 76.1686C256.87 76.2861 256.702 76.3514 256.528 76.3514C256.354 76.3514 256.186 76.2861 256.058 76.1686C254.916 75.0009 253.685 73.9232 252.377 72.945C252.222 72.8051 252.035 72.7068 251.832 72.6594C251.832 72.6594 251.832 72.6594 251.832 72.7954C251.928 73.0076 252.062 73.201 252.227 73.3666L255.526 77.1071C255.647 77.2335 255.714 77.4016 255.714 77.5763C255.714 77.7511 255.647 77.9191 255.526 78.0456C255.397 78.167 255.226 78.2347 255.049 78.2347C254.872 78.2347 254.701 78.167 254.572 78.0456C253.208 76.6854 251.954 75.9781 251.545 76.0461C251.463 76.223 251.545 76.6174 252.786 77.7055L253.031 77.9504C255.921 80.7795 259.112 83.731 262.765 86.9954C269.773 93.2521 280.597 101.957 293.562 104.841C306.091 107.683 320.351 104.732 331.735 96.9653C331.808 96.9088 331.892 96.8677 331.981 96.8445C332.071 96.8214 332.164 96.8166 332.255 96.8306C332.347 96.8445 332.434 96.8769 332.513 96.9258C332.591 96.9746 332.659 97.0389 332.712 97.1147C332.765 97.1904 332.801 97.2761 332.82 97.3666C332.839 97.457 332.838 97.5502 332.82 97.6406C332.801 97.7309 332.764 97.8166 332.711 97.8922C332.658 97.9679 332.59 98.032 332.512 98.0807C323.873 103.97 313.664 107.144 303.201 107.194Z" fill="#0F0F0F"/>
<path d="M371.461 232.938L372.688 241.901C372.688 241.901 347.685 244.485 348.653 242.336C350.485 239.221 352.497 236.214 354.679 233.332" fill="white"/>
<path d="M353.929 243.861C350.834 243.861 348.571 243.629 348.121 242.99C348.022 242.857 347.961 242.699 347.945 242.534C347.928 242.369 347.956 242.202 348.026 242.052C349.88 238.892 351.919 235.845 354.133 232.925C354.244 232.784 354.405 232.691 354.583 232.665C354.761 232.64 354.942 232.684 355.088 232.789C355.232 232.897 355.328 233.058 355.354 233.237C355.379 233.416 355.333 233.597 355.224 233.741C355.224 233.809 350.684 239.875 349.444 242.256C351.516 242.881 362.068 242.256 371.924 241.304L370.779 233.02C370.756 232.84 370.805 232.658 370.916 232.514C371.028 232.369 371.192 232.275 371.372 232.252C371.553 232.228 371.736 232.278 371.88 232.389C372.025 232.499 372.119 232.663 372.143 232.844L373.383 241.807C373.396 241.898 373.39 241.99 373.367 242.079C373.344 242.168 373.303 242.251 373.247 242.324C373.128 242.469 372.956 242.561 372.77 242.582C367.262 243.153 359.314 243.861 353.929 243.861Z" fill="#0F0F0F"/>
<path d="M336.424 198.554C336.424 198.554 341.646 205.097 340.691 206.294C339.737 207.491 312.062 208.851 313.248 205.981C314.434 203.111 321.851 197.004 321.851 197.004" fill="white"/>
<path d="M324.141 208.373C319.138 208.373 314.598 208.06 313.235 207.244C312.949 207.121 312.723 206.891 312.606 206.604C312.488 206.316 312.489 205.994 312.607 205.707C313.848 202.715 321.087 196.73 321.401 196.472C321.54 196.359 321.719 196.306 321.897 196.324C322.076 196.342 322.241 196.429 322.355 196.567C322.413 196.636 322.457 196.717 322.483 196.803C322.51 196.889 322.519 196.98 322.51 197.07C322.501 197.16 322.475 197.247 322.432 197.326C322.389 197.406 322.33 197.476 322.26 197.533C320.283 199.151 315.02 203.803 313.93 206.088C316.057 207.639 337.583 206.891 340.119 205.843C340.119 204.986 338.237 201.94 335.879 198.975C335.821 198.906 335.778 198.827 335.751 198.742C335.725 198.657 335.716 198.567 335.725 198.478C335.734 198.39 335.76 198.303 335.803 198.225C335.846 198.147 335.904 198.078 335.974 198.022C336.118 197.91 336.3 197.859 336.481 197.879C336.662 197.9 336.827 197.99 336.942 198.131C339.478 201.314 342.273 205.381 341.209 206.714C340.487 207.639 331.735 208.373 324.141 208.373Z" fill="#0F0F0F"/>
<path d="M326.718 128.504C326.718 128.504 295.484 147.845 295.88 158.305C296.139 165.405 317.992 201.068 317.992 201.068L338.946 199.912C338.946 199.912 319.86 170.818 324.073 166.561C328.285 162.304 351.693 150.566 351.693 150.566L352.116 234.202C352.116 234.202 373.506 232.705 373.506 231.495C373.506 230.284 378.128 132.054 378.128 132.054L326.718 128.504Z" fill="#0F0F0F"/>
<path d="M372.02 38.6163C371.923 37.3174 371.379 36.092 370.479 35.1479C370.012 34.7042 369.402 34.4403 368.758 34.4029C368.114 34.3656 367.478 34.5572 366.962 34.9438C367.126 32.6316 365.026 30.8634 362.981 29.7072C360.43 28.3084 357.667 27.3344 354.802 26.8237C352.908 26.5164 350.994 26.3573 349.076 26.3477C346.199 26.3477 343.132 26.5245 340.896 28.2791C339.607 29.4232 338.667 30.9069 338.185 32.5597C337.703 34.2126 337.697 35.9676 338.169 37.6233C339.15 40.9391 341.039 43.9161 343.622 46.2195C346.539 49.2764 350.162 51.5739 354.174 52.9115C356.562 53.5811 359.029 53.9288 361.509 53.9452C365.476 54.0812 367.194 52.2178 369.225 49.1983C371.479 46.1574 372.479 42.3704 372.02 38.6163Z" fill="white"/>
<path d="M361.782 54.637H361.386C358.847 54.6134 356.321 54.2567 353.875 53.5761C349.737 52.2309 345.993 49.896 342.968 46.7753C340.289 44.3851 338.334 41.2942 337.324 37.8527C336.824 36.0655 336.84 34.1737 337.371 32.3954C337.902 30.6171 338.925 29.0245 340.323 27.8011C342.805 25.8969 346.09 25.6793 348.98 25.7337C350.931 25.7387 352.878 25.9025 354.802 26.2233C357.759 26.7354 360.61 27.7328 363.24 29.1749C364.713 29.9774 367.017 31.5823 367.494 33.8946C368.081 33.737 368.698 33.7292 369.289 33.8718C369.88 34.0144 370.425 34.3029 370.875 34.7107C371.893 35.7608 372.515 37.1308 372.634 38.5871C373.165 42.2732 372.197 45.7824 369.607 49.6316C367.753 52.4335 365.94 54.637 361.782 54.637ZM348.38 27.0122C345.867 26.8175 343.358 27.448 341.237 28.8076C338.51 30.8887 338.033 34.6563 338.715 37.4582C339.671 40.6531 341.498 43.5206 343.991 45.7416C346.832 48.7188 350.361 50.9558 354.27 52.2567C356.599 52.9124 359.007 53.251 361.427 53.2632C364.863 53.3856 366.417 51.9847 368.544 48.8155C370.757 45.9373 371.764 42.314 371.352 38.7096C371.271 37.5616 370.789 36.4784 369.989 35.6492C369.651 35.3166 369.206 35.1127 368.733 35.0729C368.26 35.0331 367.788 35.1601 367.398 35.4316C367.303 35.5291 367.179 35.5936 367.044 35.6156C366.909 35.6377 366.77 35.6161 366.649 35.554C366.524 35.4986 366.419 35.4063 366.348 35.2896C366.277 35.1728 366.244 35.0372 366.253 34.9011C366.403 32.7113 364.045 31.0791 362.627 30.3038C360.13 28.9275 357.421 27.9759 354.611 27.4883C352.754 27.1836 350.876 27.0289 348.994 27.0258L348.38 27.0122Z" fill="#0F0F0F"/>
<path d="M362.436 75.541C361.959 65.2718 364.045 44.4479 364.045 44.4479C364.045 44.4479 350.93 45.196 346.513 38.8984C341.059 43.1285 340.01 55.0163 340.991 58.5663C342.954 65.5983 352.089 64.0069 352.089 64.0069L350.916 76.8468L362.436 75.541Z" fill="white"/>
<path d="M350.916 77.5665C350.739 77.5648 350.569 77.4969 350.439 77.3761C350.37 77.304 350.316 77.2186 350.281 77.1251C350.245 77.0315 350.23 76.9318 350.234 76.832L351.339 64.8082C348.898 64.9987 342.055 64.9307 340.337 58.7556C339.287 54.9879 340.446 42.7874 346.09 38.3532C346.243 38.2412 346.434 38.1925 346.622 38.2172C346.713 38.2307 346.8 38.263 346.877 38.3123C346.955 38.3615 347.021 38.4264 347.072 38.5029C351.162 44.4059 363.867 43.7531 364.004 43.7531C364.102 43.7439 364.201 43.7575 364.294 43.7929C364.386 43.8283 364.469 43.8845 364.535 43.9571C364.604 44.029 364.655 44.1151 364.686 44.2092C364.716 44.3033 364.725 44.403 364.713 44.5011C364.713 44.7052 362.654 65.3931 363.118 75.4855C363.129 75.658 363.073 75.8281 362.961 75.9601C362.849 76.0921 362.69 76.1755 362.518 76.1927L350.998 77.5529L350.916 77.5665ZM352.089 63.3665C352.26 63.3665 352.425 63.4295 352.552 63.5433C352.626 63.6152 352.684 63.7023 352.722 63.7985C352.76 63.8947 352.776 63.9979 352.77 64.101L351.68 76.1111L361.741 74.9278C361.414 65.706 362.927 48.9353 363.281 45.154C360.432 45.154 350.684 44.9908 346.417 39.8902C341.618 44.3379 340.814 55.3688 341.646 58.3883C343.418 64.7266 351.625 63.4345 351.979 63.3801L352.089 63.3665Z" fill="#0F0F0F"/>
<path d="M352.089 64.0504C352.089 64.0504 355.865 63.5743 357.733 61.7109C357.733 61.7109 355.238 67.9404 351.393 68.8653L352.089 64.0504Z" fill="#0F0F0F"/>
<path d="M351.393 69.4904C351.318 69.4915 351.243 69.4776 351.172 69.4496C351.102 69.4216 351.038 69.38 350.984 69.3272C350.909 69.2598 350.85 69.175 350.815 69.0803C350.779 68.9855 350.767 68.8836 350.78 68.7831L351.475 63.9546C351.495 63.8223 351.558 63.7001 351.654 63.6068C351.75 63.5135 351.874 63.4541 352.007 63.4377C352.007 63.4377 355.606 62.9617 357.296 61.2751C357.4 61.1746 357.534 61.112 357.677 61.0971C357.821 61.0823 357.965 61.1163 358.087 61.1935C358.205 61.2733 358.293 61.3909 358.335 61.5269C358.377 61.6629 358.371 61.8091 358.319 61.9415C358.21 62.2136 355.66 68.4703 351.502 69.4632L351.393 69.4904ZM352.647 64.5939L352.157 67.9262C353.863 66.8441 355.243 65.3212 356.151 63.5193C355.033 64.0216 353.856 64.3825 352.647 64.5939Z" fill="#0F0F0F"/>
<path d="M343.922 68.9023L313.998 85.2242L321.237 106.211C321.237 106.211 358.878 86.3395 359.123 80.9669C359.369 75.5943 343.922 68.9023 343.922 68.9023Z" fill="#3766E8"/>
<path d="M325.94 129.079C325.94 129.079 327.372 107.711 330.03 91.4298C331.175 84.5066 330.739 79.6645 333.043 75.924C340.746 63.3562 370.766 67.1102 375.128 75.8288C379.491 84.5474 378.128 132.058 378.128 132.058L325.94 129.079Z" fill="#3766E8"/>
<path d="M361.904 51.8096C362.071 51.0034 362.457 50.2585 363.02 49.6564C363.582 49.0542 364.3 48.6181 365.094 48.3956C365.45 48.2814 365.826 48.2442 366.198 48.2864C366.569 48.3286 366.927 48.4493 367.248 48.6404C367.627 48.9614 367.917 49.3735 368.091 49.8377C368.265 50.3018 368.318 50.8027 368.244 51.2927C368.129 52.8489 367.423 54.3026 366.27 55.3568C365.117 56.411 363.604 56.9861 362.041 56.9646" fill="white"/>
<path d="M362.122 57.5731H362.027C361.937 57.5713 361.849 57.552 361.767 57.5162C361.685 57.4804 361.611 57.4288 361.549 57.3643C361.487 57.2999 361.438 57.2239 361.406 57.1407C361.373 57.0575 361.357 56.9688 361.359 56.8794C361.359 56.7896 361.377 56.7006 361.412 56.6179C361.448 56.5353 361.499 56.4605 361.564 56.3983C361.629 56.336 361.706 56.2875 361.79 56.2557C361.874 56.2238 361.964 56.2093 362.054 56.213C363.435 56.271 364.783 55.7821 365.803 54.8528C366.831 53.9151 367.46 52.6206 367.562 51.2348C367.614 50.8642 367.578 50.4865 367.457 50.1322C367.337 49.7779 367.134 49.4567 366.867 49.1946C366.626 49.0605 366.359 48.9791 366.084 48.9557C365.809 48.9322 365.532 48.9673 365.272 49.0585C364.596 49.2445 363.985 49.6117 363.504 50.1201C363.024 50.6285 362.692 51.2586 362.545 51.9421C362.509 52.1168 362.406 52.2709 362.259 52.3722C362.112 52.4736 361.931 52.5143 361.754 52.4861C361.576 52.4499 361.42 52.3457 361.318 52.1957C361.216 52.0458 361.177 51.862 361.209 51.6836C361.4 50.752 361.844 49.8908 362.493 49.1949C363.143 48.499 363.972 47.9952 364.89 47.7392C365.342 47.5934 365.82 47.5483 366.291 47.607C366.762 47.6658 367.215 47.827 367.616 48.0792C368.097 48.4611 368.467 48.963 368.69 49.534C368.913 50.105 368.98 50.7247 368.884 51.33C368.76 53.0475 367.987 54.654 366.722 55.8253C365.457 56.9967 363.794 57.6456 362.068 57.6411L362.122 57.5731Z" fill="#0F0F0F"/>
<path d="M346.681 45.7796C346.873 45.1629 346.762 44.5795 346.431 44.4765C346.101 44.3736 345.676 44.7901 345.483 45.4068C345.29 46.0235 345.402 46.6069 345.733 46.7098C346.063 46.8127 346.488 46.3963 346.681 45.7796Z" fill="#0F0F0F"/>
<path d="M343.309 59.0849C344.127 59.6019 345.018 59.9917 345.954 60.241C346.567 60.4708 347.23 60.5326 347.875 60.4202C348.52 60.3078 349.123 60.0252 349.621 59.6018C349.965 59.1615 350.228 58.6642 350.398 58.1328" fill="white"/>
<path d="M347.412 61.1229C346.86 61.1207 346.31 61.0476 345.776 60.9053C344.775 60.6299 343.819 60.2083 342.941 59.6539C342.789 59.5564 342.682 59.4028 342.644 59.2269C342.606 59.0509 342.639 58.867 342.736 58.7154C342.783 58.6391 342.846 58.573 342.919 58.5212C342.992 58.4694 343.075 58.4328 343.163 58.4138C343.251 58.3947 343.342 58.3935 343.43 58.4103C343.518 58.4271 343.602 58.4615 343.677 58.5114C344.436 58.9902 345.264 59.3524 346.131 59.5859C346.622 59.7084 348.285 60.062 349.117 59.1507C349.4 58.7679 349.616 58.3403 349.757 57.8857C349.821 57.7187 349.949 57.5837 350.112 57.5098C350.276 57.436 350.462 57.4294 350.63 57.4913C350.8 57.5527 350.938 57.6789 351.015 57.8421C351.092 58.0053 351.1 58.1923 351.039 58.3618C350.846 58.9817 350.536 59.5589 350.125 60.062C349.773 60.4184 349.349 60.6971 348.882 60.8798C348.414 61.0626 347.914 61.1454 347.412 61.1229Z" fill="#0F0F0F"/>
<path d="M343.241 46.8008C343.241 46.8008 337.978 52.7855 339.26 54.0776C340.541 55.3697 343.609 54.7169 343.609 54.7169" fill="white"/>
<path d="M341.932 55.5759C340.79 55.6533 339.662 55.2878 338.783 54.5558C337.27 53.046 340.61 48.7615 342.723 46.3949C342.852 46.2694 343.026 46.1992 343.207 46.1992C343.387 46.1992 343.561 46.2694 343.691 46.3949C343.755 46.4581 343.805 46.5333 343.84 46.6162C343.874 46.699 343.892 46.7879 343.892 46.8777C343.892 46.9675 343.874 47.0564 343.84 47.1393C343.805 47.2221 343.755 47.2974 343.691 47.3606C341.305 50.0809 339.41 53.114 339.71 53.7261C340.541 54.5422 342.668 54.3246 343.418 54.1749C343.599 54.1389 343.786 54.1759 343.94 54.278C344.093 54.38 344.2 54.5386 344.236 54.719C344.272 54.8994 344.235 55.0867 344.133 55.2397C344.03 55.3928 343.871 55.499 343.691 55.5351C343.107 55.6096 342.518 55.6233 341.932 55.5759Z" fill="#0F0F0F"/>
<path d="M321.237 106.851C321.114 106.853 320.993 106.821 320.887 106.759C320.781 106.696 320.695 106.606 320.637 106.498C320.554 106.338 320.535 106.153 320.586 105.98C320.637 105.808 320.753 105.661 320.91 105.573C321.114 105.464 341.823 94.433 349.362 90.3525C349.44 90.3097 349.525 90.2828 349.613 90.2734C349.702 90.2639 349.791 90.2721 349.876 90.2974C349.961 90.3227 350.04 90.3647 350.109 90.4209C350.177 90.477 350.234 90.5463 350.275 90.6246C350.32 90.7027 350.349 90.7891 350.36 90.8785C350.371 90.968 350.363 91.0587 350.337 91.1452C350.312 91.2317 350.269 91.3121 350.212 91.3815C350.154 91.451 350.083 91.5082 350.003 91.5495C342.464 95.6299 321.769 106.661 321.551 106.77C321.455 106.824 321.347 106.852 321.237 106.851Z" fill="#0F0F0F"/>
<path d="M138.432 210.126C138.341 210.125 138.25 210.104 138.168 210.064C138.086 210.024 138.013 209.966 137.955 209.895C137.902 209.832 137.862 209.759 137.837 209.68C137.813 209.601 137.804 209.518 137.812 209.436C137.819 209.354 137.843 209.274 137.882 209.201C137.92 209.128 137.973 209.064 138.037 209.011L190.824 165.867C190.953 165.763 191.118 165.714 191.283 165.729C191.449 165.744 191.602 165.823 191.71 165.949C191.762 166.013 191.801 166.087 191.825 166.166C191.848 166.245 191.856 166.328 191.847 166.41C191.838 166.493 191.813 166.572 191.773 166.645C191.733 166.717 191.679 166.781 191.615 166.833L138.909 209.977C138.777 210.088 138.605 210.142 138.432 210.126Z" fill="#CED4DA"/>
<path d="M191.151 210.126C191.006 210.124 190.866 210.071 190.756 209.977L138.037 166.833C137.973 166.78 137.92 166.716 137.882 166.643C137.843 166.57 137.819 166.49 137.812 166.408C137.804 166.325 137.813 166.243 137.837 166.164C137.862 166.085 137.902 166.012 137.955 165.949C138.063 165.823 138.216 165.744 138.382 165.729C138.547 165.714 138.712 165.763 138.841 165.867L191.546 209.011C191.611 209.063 191.665 209.126 191.705 209.199C191.745 209.271 191.77 209.351 191.779 209.433C191.788 209.515 191.78 209.599 191.757 209.678C191.733 209.757 191.694 209.831 191.642 209.895C191.581 209.967 191.506 210.024 191.422 210.064C191.337 210.104 191.245 210.125 191.151 210.126Z" fill="#CED4DA"/>
<path d="M351.693 151.235C351.539 151.243 351.387 151.198 351.263 151.107C351.139 151.016 351.05 150.885 351.011 150.736C350.973 150.587 350.987 150.429 351.052 150.29C351.116 150.15 351.227 150.037 351.366 149.97C351.448 149.97 358.551 146.148 360.35 142.734C360.392 142.656 360.448 142.586 360.517 142.53C360.586 142.474 360.665 142.432 360.75 142.407C360.835 142.381 360.924 142.373 361.012 142.383C361.1 142.392 361.186 142.419 361.264 142.462C361.343 142.502 361.414 142.558 361.472 142.626C361.529 142.694 361.573 142.772 361.6 142.857C361.626 142.942 361.636 143.032 361.627 143.12C361.618 143.209 361.592 143.295 361.55 143.373C359.559 147.154 352.307 151.004 352.007 151.167C351.907 151.209 351.801 151.232 351.693 151.235Z" fill="white"/>
<path d="M42.9877 228.939C42.8647 228.941 42.7437 228.909 42.6379 228.846C42.532 228.784 42.4455 228.694 42.3878 228.585C39.7566 223.716 31.3996 212.699 31.3178 212.59C31.25 212.521 31.1977 212.439 31.1644 212.348C31.1311 212.257 31.1175 212.161 31.1245 212.064C31.1315 211.968 31.159 211.874 31.2051 211.789C31.2513 211.705 31.315 211.63 31.392 211.572C31.4691 211.514 31.5578 211.472 31.6521 211.451C31.7464 211.429 31.8443 211.428 31.9391 211.447C32.034 211.466 32.1237 211.505 32.2023 211.562C32.2808 211.618 32.3465 211.69 32.3948 211.774C32.7356 212.223 40.9018 222.982 43.5875 227.946C43.6299 228.024 43.6561 228.111 43.6646 228.199C43.6732 228.288 43.6638 228.377 43.6371 228.462C43.6104 228.547 43.567 228.626 43.5093 228.694C43.4516 228.762 43.3808 228.817 43.3012 228.857C43.2057 228.912 43.0975 228.94 42.9877 228.939Z" fill="white"/>
</g>
<defs>
<clipPath id="clip0">
<rect width="428" height="307" fill="white" transform="translate(0 0.0195312)"/>
</clipPath>
</defs>
</svg>
