<svg width="24" height="26" viewBox="0 0 24 26" fill="none" xmlns="http://www.w3.org/2000/svg">
<path d="M1.51125 0.265625L14.24 12.9981L1.5125 25.7306C1.28618 25.6355 1.09304 25.4755 0.957365 25.2709C0.821694 25.0663 0.749549 24.8261 0.750002 24.5806V1.41562C0.750098 1.1704 0.822321 0.930622 0.957679 0.726141C1.09304 0.521659 1.28555 0.361507 1.51125 0.265625ZM15.1238 13.8819L18.0013 16.7594L4.33 24.6756L15.1238 13.8819ZM19.1225 9.88437L22.6313 11.9169C22.8207 12.0268 22.9779 12.1845 23.0872 12.3742C23.1965 12.564 23.254 12.7791 23.254 12.9981C23.254 13.2171 23.1965 13.4323 23.0872 13.622C22.9779 13.8118 22.8207 13.9695 22.6313 14.0794L19.1213 16.1119L16.0075 12.9981L19.1225 9.88437ZM4.33 1.32062L18.0025 9.23562L15.1238 12.1144L4.33 1.32062Z" fill="#343434"/>
</svg>
