<svg width="115" height="115" viewBox="0 0 115 115" fill="none" xmlns="http://www.w3.org/2000/svg">
<path d="M5.75 88.1667V111.167C5.75 112.225 6.60801 113.083 7.66667 113.083H42.1667C43.2253 113.083 44.0833 112.225 44.0833 111.167V88.1667C44.0743 80.7613 38.072 74.759 30.6667 74.75H19.1667C11.7613 74.759 5.75898 80.7613 5.75 88.1667ZM30.6667 78.5833C35.957 78.5901 40.2433 82.8764 40.25 88.1667V109.25H9.58333V88.1667C9.59007 82.8764 13.8764 78.5901 19.1667 78.5833H30.6667Z" fill="#CED4DA"/>
<path d="M109.25 1.91602H5.75C2.57477 1.91602 0 4.49079 0 7.66602V65.166C0 68.3412 2.57477 70.916 5.75 70.916H15.525C20.7419 76.0296 29.0914 76.0296 34.3083 70.916H49.8333V76.2138L44.2847 87.3095C43.9875 87.904 44.0197 88.6093 44.3686 89.1738C44.719 89.739 45.3352 90.0827 46 90.0827H69C69.6663 90.0864 70.2863 89.7443 70.6382 89.1783C70.99 88.6122 71.0222 87.9047 70.725 87.3095L65.1667 76.2138V70.916H109.25C112.425 70.916 115 68.3412 115 65.166V7.66602C115 4.49079 112.425 1.91602 109.25 1.91602ZM15.3333 48.8744V44.0827C15.3333 43.024 16.1913 42.166 17.25 42.166H32.5833C33.642 42.166 34.5 43.024 34.5 44.0827V49.8327C34.5 50.4361 34.7845 51.0044 35.2667 51.366L38.3333 53.666H21.7212L15.3333 48.8744ZM34.5 38.6853V38.3327H55.5833V47.916H38.3333V44.0827C38.3228 41.6554 36.7895 39.4947 34.5 38.6853ZM59.4167 38.3327H80.5V47.916H59.4167V38.3327ZM59.4167 34.4994V24.916H80.5V34.4994H59.4167ZM55.5833 34.4994H34.5V24.916H55.5833V34.4994ZM38.1529 59.1001C38.0481 58.558 37.9073 58.0234 37.7336 57.4994H44.0833C44.9084 57.4994 45.6406 56.9715 45.9019 56.1891C46.1632 55.406 45.8937 54.545 45.2333 54.0494L42.1667 51.7494H55.5833V61.3327H38.3333C38.3318 60.5847 38.2704 59.8383 38.1529 59.1001ZM59.4167 51.7494H80.5V61.3327H59.4167V51.7494ZM84.3333 51.7494H105.417V61.3327H84.3333V51.7494ZM105.417 47.916H84.3333V38.3327H105.417V47.916ZM105.417 34.4994H84.3333V24.916H105.417V34.4994ZM105.417 21.0827H84.3333V11.4993H105.417V21.0827ZM80.5 21.0827H59.4167V11.4993H80.5V21.0827ZM55.5833 21.0827H34.5V11.4993H55.5833V21.0827ZM30.6667 21.0827H9.58333V11.4993H30.6667V21.0827ZM9.58333 24.916H30.6667V34.4994H9.58333V24.916ZM9.58333 38.3327H17.25C14.0748 38.3327 11.5 40.9075 11.5 44.0827V47.916H9.58333V38.3327ZM9.58333 51.7494H12.7788L14.4282 52.9855C13.0191 54.7479 12.081 56.8405 11.7029 59.0649C11.5674 59.8136 11.4993 60.5728 11.5 61.3327H9.58333V51.7494ZM24.9167 70.916C20.8497 70.9205 17.226 68.3487 15.8874 64.5087C15.519 63.4904 15.3318 62.4153 15.3333 61.3327C15.3326 60.7951 15.3812 60.2606 15.4793 59.732C15.7556 58.1013 16.4519 56.5702 17.4986 55.2899L19.9333 57.116C20.2658 57.3646 20.6686 57.4994 21.0833 57.4994H33.6607C33.9894 58.2031 34.2275 58.9451 34.3697 59.7088C34.4543 60.2463 34.4985 60.7891 34.5 61.3327C34.5007 62.4258 34.3098 63.5106 33.937 64.5371C32.5916 68.3645 28.9739 70.9235 24.9167 70.916ZM61.525 77.5225L65.8989 86.2494H49.1011L53.475 77.5225C53.6038 77.256 53.6697 76.9625 53.6667 76.666V70.916H61.3333V76.666C61.3303 76.9625 61.3962 77.256 61.525 77.5225ZM111.167 65.166C111.167 66.2247 110.309 67.0827 109.25 67.0827H36.9917C37.1983 66.6724 37.3832 66.2524 37.5457 65.8234C37.6221 65.6085 37.655 65.3824 37.7224 65.166H107.333C108.392 65.166 109.25 64.308 109.25 63.2494V9.58268C109.25 8.52402 108.392 7.66602 107.333 7.66602H7.66667C6.60801 7.66602 5.75 8.52402 5.75 9.58268V63.2494C5.75 64.308 6.60801 65.166 7.66667 65.166H12.1094C12.1731 65.3727 12.2038 65.592 12.2757 65.7949C12.4426 66.2337 12.6313 66.6634 12.8417 67.0827H5.75C4.69134 67.0827 3.83333 66.2247 3.83333 65.166V7.66602C3.83333 6.60736 4.69134 5.74935 5.75 5.74935H109.25C110.309 5.74935 111.167 6.60736 111.167 7.66602V65.166Z" fill="#CED4DA"/>
</svg>
