<svg width="417" height="330" viewBox="0 0 417 330" fill="none" xmlns="http://www.w3.org/2000/svg">
<path opacity="0.3" d="M82.6244 53.6872C38.0579 70.076 7.93509 87.0826 1.41637 137.274C-4.07723 179.619 3.28261 263.653 80.5347 276.98C230.86 302.923 370.565 299.322 397.626 227.524C425.357 153.899 433.926 77.8827 349.721 59.7328C290.159 46.8925 169.655 21.6982 82.6244 53.6872Z" fill="#E6E6E6"/>
<path opacity="0.45" d="M194.297 329.247C291.647 329.247 370.565 320.144 370.565 308.916C370.565 297.687 291.647 288.584 194.297 288.584C96.9463 288.584 18.0283 297.687 18.0283 308.916C18.0283 320.144 96.9463 329.247 194.297 329.247Z" fill="#E6E6E6"/>
<path d="M332.938 36.0508H120.869V299.323H332.938V36.0508Z" fill="#E6E6E6"/>
<path opacity="0.08" d="M332.938 36.0508H120.869V111.213H332.938V36.0508Z" fill="black"/>
<path d="M169.642 75.4023L166.103 74.3477L166.642 72.5781L170.181 73.8906L170.075 69.8594H171.868L171.751 73.9492L175.231 72.6602L175.771 74.4414L172.173 75.5078L174.493 78.6836L173.04 79.7852L170.86 76.4102L168.751 79.7031L167.286 78.6367L169.642 75.4023ZM179.978 75.4023L176.438 74.3477L176.978 72.5781L180.517 73.8906L180.411 69.8594H182.204L182.087 73.9492L185.567 72.6602L186.106 74.4414L182.509 75.5078L184.829 78.6836L183.376 79.7852L181.196 76.4102L179.087 79.7031L177.622 78.6367L179.978 75.4023ZM190.313 75.4023L186.774 74.3477L187.313 72.5781L190.853 73.8906L190.747 69.8594H192.54L192.423 73.9492L195.903 72.6602L196.442 74.4414L192.845 75.5078L195.165 78.6836L193.712 79.7852L191.532 76.4102L189.423 79.7031L187.958 78.6367L190.313 75.4023ZM200.649 75.4023L197.11 74.3477L197.649 72.5781L201.188 73.8906L201.083 69.8594H202.876L202.759 73.9492L206.239 72.6602L206.778 74.4414L203.181 75.5078L205.501 78.6836L204.048 79.7852L201.868 76.4102L199.759 79.7031L198.294 78.6367L200.649 75.4023ZM210.985 75.4023L207.446 74.3477L207.985 72.5781L211.524 73.8906L211.419 69.8594H213.212L213.095 73.9492L216.575 72.6602L217.114 74.4414L213.517 75.5078L215.837 78.6836L214.384 79.7852L212.204 76.4102L210.095 79.7031L208.63 78.6367L210.985 75.4023ZM221.321 75.4023L217.782 74.3477L218.321 72.5781L221.86 73.8906L221.755 69.8594H223.548L223.431 73.9492L226.911 72.6602L227.45 74.4414L223.853 75.5078L226.173 78.6836L224.72 79.7852L222.54 76.4102L220.431 79.7031L218.966 78.6367L221.321 75.4023ZM231.657 75.4023L228.118 74.3477L228.657 72.5781L232.196 73.8906L232.091 69.8594H233.884L233.767 73.9492L237.247 72.6602L237.786 74.4414L234.188 75.5078L236.509 78.6836L235.056 79.7852L232.876 76.4102L230.767 79.7031L229.302 78.6367L231.657 75.4023ZM241.993 75.4023L238.454 74.3477L238.993 72.5781L242.532 73.8906L242.427 69.8594H244.22L244.103 73.9492L247.583 72.6602L248.122 74.4414L244.524 75.5078L246.845 78.6836L245.392 79.7852L243.212 76.4102L241.103 79.7031L239.638 78.6367L241.993 75.4023ZM252.329 75.4023L248.79 74.3477L249.329 72.5781L252.868 73.8906L252.763 69.8594H254.556L254.438 73.9492L257.919 72.6602L258.458 74.4414L254.86 75.5078L257.181 78.6836L255.728 79.7852L253.548 76.4102L251.438 79.7031L249.974 78.6367L252.329 75.4023ZM262.665 75.4023L259.126 74.3477L259.665 72.5781L263.204 73.8906L263.099 69.8594H264.892L264.774 73.9492L268.255 72.6602L268.794 74.4414L265.196 75.5078L267.517 78.6836L266.063 79.7852L263.884 76.4102L261.774 79.7031L260.31 78.6367L262.665 75.4023Z" fill="black"/>
<path opacity="0.08" d="M177.369 130.678H135.418V161.261H177.369V130.678Z" fill="black"/>
<path opacity="0.08" d="M224.748 130.678H182.797V161.261H224.748V130.678Z" fill="black"/>
<path opacity="0.08" d="M272.141 130.678H230.189V161.261H272.141V130.678Z" fill="black"/>
<path opacity="0.08" d="M319.533 130.678H277.582V161.261H319.533V130.678Z" fill="black"/>
<path opacity="0.08" d="M177.369 168.738H135.418V199.321H177.369V168.738Z" fill="black"/>
<path opacity="0.08" d="M224.748 168.738H182.797V199.321H224.748V168.738Z" fill="black"/>
<path opacity="0.08" d="M272.141 168.738H230.189V199.321H272.141V168.738Z" fill="black"/>
<path opacity="0.08" d="M319.533 168.738H277.582V199.321H319.533V168.738Z" fill="black"/>
<path opacity="0.08" d="M177.369 206.799H135.418V237.382H177.369V206.799Z" fill="black"/>
<path opacity="0.08" d="M224.748 206.799H182.797V237.382H224.748V206.799Z" fill="black"/>
<path opacity="0.08" d="M272.141 206.799H230.189V237.382H272.141V206.799Z" fill="black"/>
<path opacity="0.08" d="M224.748 244.873H135.418V275.456H224.748V244.873Z" fill="black"/>
<path opacity="0.08" d="M272.141 244.873H230.189V275.456H272.141V244.873Z" fill="black"/>
<path d="M319.859 244.904H277.13V275.98H319.859V244.904Z" fill="#F0F0F0"/>
<path d="M319.859 207.354H277.13V238.43H319.859V207.354Z" fill="#F0F0F0"/>
<path opacity="0.2" d="M200.145 156.37C207.171 156.37 212.867 150.674 212.867 143.648C212.867 136.622 207.171 130.926 200.145 130.926C193.119 130.926 187.423 136.622 187.423 143.648C187.423 150.674 193.119 156.37 200.145 156.37Z" fill="#FF7E17"/>
<path opacity="0.08" d="M202.366 161.393L173.137 204.763L148.85 199.427L126.205 164.731V219.601C138.204 229.695 155.447 241.562 167.065 238.106C186.503 232.323 215.075 204.487 202.366 161.393Z" fill="black"/>
<path d="M200.146 150.022C203.666 150.022 206.52 147.168 206.52 143.648C206.52 140.127 203.666 137.273 200.146 137.273C196.625 137.273 193.771 140.127 193.771 143.648C193.771 147.168 196.625 150.022 200.146 150.022Z" fill="#FF7E17"/>
<path d="M58.0085 149.758C58.0085 149.758 28.6348 171.798 44.2876 219.151C59.9405 266.503 93.3883 243.478 93.3883 243.478V204.733L58.0085 149.758Z" fill="white"/>
<path opacity="0.46" d="M58.0085 149.758C58.0085 149.758 28.6348 171.798 44.2876 219.151C59.9405 266.503 93.3883 243.478 93.3883 243.478V204.733L58.0085 149.758Z" fill="white"/>
<path d="M132.421 313.477L138.322 318.09C138.553 318.267 138.722 318.513 138.806 318.792C138.89 319.071 138.885 319.369 138.79 319.645C138.696 319.92 138.518 320.159 138.281 320.328C138.043 320.497 137.759 320.588 137.468 320.587H129.99C128.944 320.587 127.941 320.171 127.202 319.432C126.462 318.692 126.047 317.69 126.047 316.644V313.529L132.421 313.477Z" fill="white"/>
<path d="M69.4024 313.477L63.5014 318.09C63.2706 318.267 63.1012 318.513 63.0172 318.792C62.9332 319.071 62.9387 319.369 63.033 319.645C63.1273 319.92 63.3056 320.159 63.5429 320.328C63.7801 320.497 64.0644 320.588 64.3557 320.587H71.8207C72.8664 320.587 73.8692 320.171 74.6086 319.432C75.3481 318.692 75.7635 317.69 75.7635 316.644V313.529L69.4024 313.477Z" fill="white"/>
<path d="M93.3877 143.597L94.3997 126.88C94.3997 126.88 95.5956 116.116 100.971 118.074C106.346 120.032 111.971 130.612 109.067 133.845C107.503 135.619 105.847 134.542 103.81 134.739C101.996 134.91 102.312 134.634 102.312 136.461V142.848L93.3877 143.597Z" fill="#F4A28C"/>
<path d="M88.026 142.834C88.026 142.834 54.4599 139.838 50.0702 162.548C45.6806 185.258 76.9205 227.985 76.9205 227.985L120.449 226.237C120.449 226.237 188.081 131.256 88.026 142.834Z" fill="white"/>
<path opacity="0.08" d="M117.636 151.98C117.636 151.98 91.6006 167.752 104.375 191.618C112.589 206.969 91.6006 227.366 91.6006 227.366L120.514 226.236C120.514 226.236 131.028 210.57 133.197 204.472C135.365 198.374 117.636 151.98 117.636 151.98Z" fill="black"/>
<path d="M76.9203 227.932L67.0371 313.477L76.7101 313.49L98.3165 244.82L122.657 313.503H133.723L120.449 226.236L76.9203 227.932Z" fill="#24285B"/>
<path d="M93.3882 136.71H98.6452C98.6452 136.71 99.7886 127.037 103.495 125.184C107.201 123.331 110.894 119.835 107.608 116.641C104.323 113.448 99.6309 109.742 94.1505 113.553C88.67 117.364 86.7118 126.511 93.3882 136.71Z" fill="#24285B"/>
<path d="M115.047 157.382C115.523 155.15 116.571 153.08 118.09 151.376C119.609 149.672 121.545 148.393 123.708 147.665C125.871 146.937 128.187 146.785 130.427 147.224C132.667 147.662 134.754 148.677 136.482 150.167C140.636 153.729 144.749 159.196 147.614 167.633C150.799 177.271 155.613 186.29 161.848 194.3C162.653 195.306 163.698 196.094 164.887 196.592C166.075 197.091 167.37 197.283 168.652 197.152C169.934 197.022 171.163 196.572 172.227 195.844C173.29 195.116 174.155 194.133 174.741 192.985L192.076 158.723L202.366 164.4C202.366 164.4 190.433 215.446 172.73 220.388C156.906 224.791 106.623 195.075 115.047 157.382Z" fill="white"/>
<path opacity="0.46" d="M115.047 157.382C115.523 155.15 116.571 153.08 118.09 151.376C119.609 149.672 121.545 148.393 123.708 147.665C125.871 146.937 128.187 146.785 130.427 147.224C132.667 147.662 134.754 148.677 136.482 150.167C140.636 153.729 144.749 159.196 147.614 167.633C150.799 177.271 155.613 186.29 161.848 194.3C162.653 195.306 163.698 196.094 164.887 196.592C166.075 197.091 167.37 197.283 168.652 197.152C169.934 197.022 171.163 196.572 172.227 195.844C173.29 195.116 174.155 194.133 174.741 192.985L192.076 158.723L202.366 164.4C202.366 164.4 190.433 215.446 172.73 220.388C156.906 224.791 106.623 195.075 115.047 157.382Z" fill="white"/>
<path d="M194.297 159.945C194.297 159.945 196.189 143.188 200.303 141.847C204.417 140.507 200.303 151.98 200.303 151.98C200.303 151.98 211.632 153.294 202.366 164.4L194.297 159.945Z" fill="#F4A28C"/>
<path opacity="0.08" d="M332.951 129.283H287.018V187.518H332.951V129.283Z" fill="black"/>
<path d="M363.073 122.477H292.051V180.711H363.073V122.477Z" fill="#3766E8"/>
<g clip-path="url(#clip0)">
<path d="M336.507 146.495H335.028V143.536C335.028 139.392 331.772 136.137 327.629 136.137C323.485 136.137 320.229 139.392 320.229 143.536V146.495H318.75C317.122 146.495 315.79 147.827 315.79 149.455V164.253C315.79 165.881 317.122 167.213 318.75 167.213H336.507C338.135 167.213 339.467 165.881 339.467 164.253V149.455C339.467 147.827 338.135 146.495 336.507 146.495ZM327.629 159.814C326.001 159.814 324.669 158.482 324.669 156.854C324.669 155.226 326.001 153.894 327.629 153.894C329.256 153.894 330.588 155.226 330.588 156.854C330.588 158.482 329.256 159.814 327.629 159.814ZM332.216 146.495H323.041V143.536C323.041 141.02 325.113 138.948 327.629 138.948C330.144 138.948 332.216 141.02 332.216 143.536V146.495Z" fill="white"/>
</g>
<path d="M207.61 36.0508L293.55 36.0508V26.8773L207.61 26.8773V36.0508Z" fill="#E6E6E6"/>
<path opacity="0.58" d="M179.446 23.169C179.446 23.169 169.09 20.3433 166.829 10.6967C166.829 10.6967 182.889 7.45044 183.349 24.0232L179.446 23.169Z" fill="#FF879D"/>
<path opacity="0.73" d="M180.72 22.1453C180.72 22.1453 173.479 10.6981 179.853 0C179.853 0 192.049 7.75413 186.634 22.1715L180.72 22.1453Z" fill="#FF879D"/>
<path d="M182.587 22.1573C182.587 22.1573 186.411 10.0661 197.964 7.7793C197.964 7.7793 200.132 15.6648 190.486 22.2361L182.587 22.1573Z" fill="#FF879D"/>
<path d="M175.069 21.8828L177.172 36.2477L190.394 36.3002L192.352 21.9485L175.069 21.8828Z" fill="#24285B"/>
<defs>
<clipPath id="clip0">
<rect width="31.0761" height="31.0761" fill="white" transform="translate(312.091 136.137)"/>
</clipPath>
</defs>
</svg>
