<svg width="30" height="28" viewBox="0 0 30 28" fill="none" xmlns="http://www.w3.org/2000/svg">
<path d="M27.3337 4.90797L12.1203 20.1346L6.46699 14.4813L8.34699 12.6013L12.1203 16.3746L25.4537 3.0413L27.3337 4.90797ZM14.0003 24.668C8.12033 24.668 3.33366 19.8813 3.33366 14.0013C3.33366 8.1213 8.12033 3.33464 14.0003 3.33464C16.0937 3.33464 18.0537 3.94797 19.707 5.0013L21.6403 3.06797C19.467 1.5613 16.8403 0.667969 14.0003 0.667969C6.64033 0.667969 0.666992 6.6413 0.666992 14.0013C0.666992 21.3613 6.64033 27.3346 14.0003 27.3346C16.307 27.3346 18.4803 26.748 20.3737 25.708L18.3737 23.708C17.0403 24.3213 15.5603 24.668 14.0003 24.668ZM23.3337 18.0013H19.3337V20.668H23.3337V24.668H26.0003V20.668H30.0003V18.0013H26.0003V14.0013H23.3337V18.0013Z" fill="white"/>
</svg>
