<svg width="28" height="28" viewBox="0 0 28 28" fill="none" xmlns="http://www.w3.org/2000/svg">
<path d="M27.3337 5.62714L21.2003 0.480469L19.4803 2.52047L25.6137 7.66714L27.3337 5.62714ZM8.50699 2.52047L6.80033 0.480469L0.666992 5.6138L2.38699 7.6538L8.50699 2.52047ZM14.667 8.66714H12.667V16.6671L19.0003 20.4671L20.0003 18.8271L14.667 15.6671V8.66714ZM14.0003 3.3338C7.37366 3.3338 2.00033 8.70714 2.00033 15.3338C2.00033 21.9605 7.36033 27.3338 14.0003 27.3338C20.627 27.3338 26.0003 21.9605 26.0003 15.3338C26.0003 8.70714 20.627 3.3338 14.0003 3.3338ZM14.0003 24.6671C8.84033 24.6671 4.66699 20.4938 4.66699 15.3338C4.66699 10.1738 8.84033 6.00047 14.0003 6.00047C19.1603 6.00047 23.3337 10.1738 23.3337 15.3338C23.3337 20.4938 19.1603 24.6671 14.0003 24.6671Z" fill="white"/>
</svg>
