<svg width="340" height="294" viewBox="0 0 340 294" fill="none" xmlns="http://www.w3.org/2000/svg">
<path opacity="0.3" d="M67.7571 59.4843C32.5476 70.4918 4.78116 96.3975 0.54007 144.185C-3.08479 184.457 10.6655 258.489 68.4338 275.889C158.645 303.063 315.613 291.234 332.795 221.854C344.431 174.827 348.02 90.6098 282.651 64.402C238.283 46.6402 143.239 35.9106 67.7571 59.4843Z" fill="#E6E6E6"/>
<path d="M239.902 70.7949L254.281 88.3876C255.086 89.3726 256.116 90.1501 257.283 90.6547C258.451 91.1593 259.723 91.3763 260.992 91.2875C262.261 91.1987 263.49 90.8067 264.576 90.1444C265.663 89.4821 266.574 88.5689 267.234 87.4814L273.819 77.3318L279.232 81.307C279.232 81.307 273.952 95.8065 264.636 103.648C255.32 111.49 231.831 86.4664 231.831 86.4664L239.902 70.7949Z" fill="#FAF5FF"/>
<path opacity="0.09" d="M239.902 70.7949L254.281 88.3876C255.086 89.3726 256.116 90.1501 257.283 90.6547C258.451 91.1593 259.723 91.3763 260.992 91.2875C262.261 91.1987 263.49 90.8067 264.576 90.1444C265.663 89.4821 266.574 88.5689 267.234 87.4814L273.819 77.3318L279.232 81.307C279.232 81.307 273.952 95.8065 264.636 103.648C255.32 111.49 231.831 86.4664 231.831 86.4664L239.902 70.7949Z" fill="black"/>
<path d="M242.38 53.0572C242.16 55.5377 241.603 57.9767 240.724 60.3069C240.477 60.8449 240.027 61.2628 239.472 61.4689C238.917 61.675 238.302 61.6526 237.764 61.4065C236.88 61.0613 236.115 60.4683 235.56 59.6989C235.005 58.9295 234.683 58.0162 234.635 57.0687L234.006 53.021C233.968 52.1947 234.187 51.3768 234.632 50.68C235.078 49.9832 235.729 49.4418 236.495 49.1303C239.274 47.7528 242.766 50.3386 242.38 53.0572Z" fill="#F4A28C"/>
<path d="M234.126 53.6934L229.329 67.4195L237.086 69.5219L237.461 58.6957L234.126 53.6934Z" fill="#F4A28C"/>
<path d="M241.979 55.834L242.897 57.731C242.951 57.838 242.976 57.9569 242.971 58.0765C242.965 58.1961 242.93 58.3123 242.867 58.414C242.804 58.5158 242.716 58.5997 242.611 58.6578C242.506 58.7159 242.389 58.7463 242.269 58.746H240.541L241.979 55.834Z" fill="#F4A28C"/>
<path opacity="0.31" d="M237.475 61.0695C236.539 60.6473 235.749 59.9579 235.203 59.0879C235.13 61.1946 235.86 63.2504 237.245 64.8393L237.475 61.0695Z" fill="#CE8172"/>
<path d="M232.604 58.0452L235.275 58.2868C235.275 58.2868 238.585 55.8702 238.38 52.33C238.38 52.33 241.062 54.6015 243.455 52.7891C245.847 50.9767 244.591 47.1343 241.703 45.9139C238.815 44.6936 230.309 43.3403 232.604 58.0452Z" fill="black"/>
<path d="M229.328 67.4353L237.086 69.5256C237.086 69.5256 251.585 76.7753 251.839 91.2748C252.093 105.774 232.905 125.904 232.905 125.904L207.905 114.885C207.905 114.885 201.332 66.952 229.328 67.4353Z" fill="#FAF5FF"/>
<path d="M275.244 78.4196C275.244 78.4196 276.452 73.2482 280.44 73.4657C284.427 73.6831 278.712 80.9691 278.712 80.9691L275.244 78.4196Z" fill="#F4A28C"/>
<path d="M228.907 75.5893L226.865 16.9149L220.376 15.8516C220.376 15.8516 210.045 56.2929 212.293 77.2447C214.54 98.1964 228.907 83.7332 228.907 75.5893Z" fill="#FAF5FF"/>
<path opacity="0.46" d="M228.907 75.5893L226.865 16.9149L220.376 15.8516C220.376 15.8516 210.045 56.2929 212.293 77.2447C214.54 98.1964 228.907 83.7332 228.907 75.5893Z" fill="white"/>
<path d="M225.85 16.8323C225.85 16.8323 228.665 12.555 226.236 10.6459C223.808 8.73679 222.273 8.22931 221.488 10.513C221.007 12.2706 220.872 14.1048 221.089 15.914L225.85 16.8323Z" fill="#F4A28C"/>
<path d="M103.391 52.3589C103.119 54.6411 103.155 56.9495 103.5 59.2219C103.557 59.4906 103.667 59.7452 103.823 59.9708C103.98 60.1964 104.18 60.3885 104.412 60.5358C104.644 60.6832 104.903 60.7829 105.173 60.8291C105.444 60.8753 105.721 60.867 105.989 60.8048C106.861 60.6648 107.674 60.2755 108.33 59.6838C108.986 59.0921 109.457 58.3232 109.686 57.4699L111.039 53.8451C111.236 53.1006 111.197 52.3132 110.926 51.5923C110.656 50.8713 110.167 50.2524 109.529 49.8215C107.257 48.1299 103.56 49.8335 103.391 52.3589Z" fill="#F4A28C"/>
<path d="M110.796 54.543L112.487 67.9912L105.008 68.402L106.784 58.4457L110.796 54.543Z" fill="#F4A28C"/>
<path d="M107.669 56.0405C107.669 56.0405 107.754 54.4456 108.938 54.6027C110.122 54.7598 110.025 57.0193 108.394 57.2247L107.669 56.0405Z" fill="#F4A28C"/>
<path d="M103.246 54.9512L102.038 56.5099C101.97 56.5979 101.926 56.7015 101.908 56.8111C101.891 56.9207 101.902 57.0328 101.939 57.1374C101.976 57.2419 102.039 57.3354 102.122 57.4094C102.204 57.4834 102.304 57.5356 102.412 57.5611L103.983 57.9115L103.246 54.9512Z" fill="#F4A28C"/>
<path d="M105.007 68.4592C105.007 68.4592 93.577 70.1508 90.1817 55.6514C86.7865 41.1519 102.108 30.2773 102.108 30.2773C102.108 30.2773 109.828 28.2353 106.167 24.1271C102.506 20.0189 97.7094 27.2566 97.7094 27.2566C97.7094 27.2566 74.5103 37.9499 79.1742 58.4667C83.8382 78.9834 96.5977 85.5323 96.5977 85.5323L105.007 68.4592Z" fill="#F4A28C"/>
<path opacity="0.31" d="M106.3 60.6095C107.221 60.4004 108.062 59.9257 108.716 59.2441C108.363 61.1755 107.293 62.902 105.72 64.0773L106.3 60.6095Z" fill="#CE8172"/>
<path d="M95.356 74.3478C95.356 74.3478 80.0712 90.3939 91.4412 100.06C102.811 109.726 108.224 115.2 108.224 115.2L129.369 108.53C129.369 108.53 128.439 91.3242 131.786 81.4646C135.133 71.605 129.551 65.9381 123.86 65.6965C118.169 65.4548 109.626 62.4945 95.356 74.3478Z" fill="#FF879D"/>
<path opacity="0.09" d="M110.76 65.8778C110.76 65.8778 102.568 76.8853 109.613 85.585C116.657 94.2846 119.472 111.66 119.472 111.66L129.368 108.53C129.368 108.53 128.897 92.3635 130.733 85.5729C131.642 82.6829 132.341 79.731 132.824 76.7403C133.114 73.78 121.067 63.7754 121.067 63.7754L110.76 65.8778Z" fill="black"/>
<path d="M125.996 83.9054C118.396 89.0889 110.119 78.311 116.873 72.0641C118.753 70.2925 120.773 68.6762 122.915 67.231C130.515 62.2287 138.731 41.1199 128.956 30.1124C128.956 30.1124 123.362 23.4547 127.748 21.2798C132.134 19.1049 132.931 28.9766 132.931 28.9766C132.931 28.9766 149.038 46.098 141.063 62.3012C136.737 71.0613 131.771 79.9663 125.996 83.9054Z" fill="#F4A28C"/>
<path d="M107.147 53.4907C107.147 53.4907 107.232 68.1593 116.693 67.8693C126.153 67.5793 128.353 62.9636 129.718 59.1817C131.083 55.3998 114.445 63.1932 113.732 52.7536C113.019 42.314 104.404 44.5977 102.193 48.1017C99.982 51.6057 107.147 53.4907 107.147 53.4907Z" fill="#24285B"/>
<path d="M155.346 9.05008C155.805 9.43673 157.28 7.61221 157.473 7.21348C158.331 5.81457 158.688 4.16604 158.488 2.5374C158.234 1.54661 157.219 0.0362486 156.071 0C155.424 0.0749107 154.81 0.329653 154.299 0.735388C153.789 1.14112 153.402 1.68164 153.183 2.29575C152.693 3.20113 152.254 4.13293 151.866 5.08689C151.564 5.95686 152.023 6.29518 152.676 6.83891C153.558 7.58805 154.452 8.31302 155.346 9.05008Z" fill="#F4A28C"/>
<path d="M153.8 57.4894C153.8 57.4894 151.77 29.4571 157.256 9.39952L151.867 5.08594C151.867 5.08594 136.268 41.1775 142.201 77.7886L153.8 57.4894Z" fill="#FAF5FF"/>
<path d="M196.924 17.7707C196.344 18.1332 195.401 15.9341 195.317 15.6199C194.845 13.9042 193.71 11.9951 194.821 10.2189C195.154 9.75344 195.596 9.37604 196.107 9.11922C196.619 8.86241 197.185 8.7339 197.757 8.74478C198.966 8.98644 199.691 10.3156 200.029 11.3909C200.393 12.3546 200.7 13.3391 200.947 14.3391C201.116 15.2574 200.621 15.5474 199.896 15.9583L196.924 17.7707Z" fill="#F4A28C"/>
<path d="M191.509 65.9236C191.509 65.9236 197.55 38.4834 194.977 17.8458L200.946 14.3418C200.946 14.3418 211.192 52.2941 200.112 87.6849L191.509 65.9236Z" fill="#FAF5FF"/>
<path opacity="0.46" d="M191.509 65.9236C191.509 65.9236 197.55 38.4834 194.977 17.8458L200.946 14.3418C200.946 14.3418 211.192 52.2941 200.112 87.6849L191.509 65.9236Z" fill="white"/>
<path d="M200.96 80.3868C198.676 104.553 185.759 124.743 185.759 124.743L154.658 122.979C154.658 122.979 120.826 56.4506 164.324 55.4961H166.246H172.952C174.907 55.5883 176.854 55.8225 178.776 56.1969C179.742 56.3781 180.781 56.6077 181.881 56.8856C183.445 57.2852 184.982 57.7816 186.484 58.3718C194.23 61.3805 202.168 67.6031 200.96 80.3868Z" fill="#FAF5FF"/>
<path d="M187.451 132.284L185.747 124.745L154.646 122.98L153.8 132.284H187.451Z" fill="#24285B"/>
<path opacity="0.08" d="M186.508 58.3484C185.783 63.0245 183.97 67.8456 179.681 69.803C170.256 74.0924 169.06 64.7765 169.06 64.7765C167.852 62.8916 169.06 59.3151 170.981 55.8594L177.687 56.0648C177.687 56.0648 178.074 56.0648 178.763 56.1735C179.729 56.3548 180.769 56.5843 181.868 56.8623C183.444 57.2604 184.994 57.7568 186.508 58.3484Z" fill="black"/>
<path d="M167.49 54.2416C167.842 55.5533 168.117 56.8848 168.312 58.229C168.565 60.0656 169.447 62.76 172.42 62.9896C177.011 63.3521 177.458 56.1145 177.458 56.1145C177.458 56.1145 179.597 49.1426 174.631 48.7318C170.148 48.3693 165.955 48.2123 167.49 54.2416Z" fill="#F4A28C"/>
<path d="M177.204 56.3818C177.204 56.3818 177.204 54.1948 179.137 54.0861C181.071 53.9773 180.708 58.1459 177.204 56.3818Z" fill="#F4A28C"/>
<path d="M168.783 56.0868C168.783 56.0868 169.231 53.9481 167.394 53.4286C165.557 52.909 164.989 57.0051 168.783 56.0868Z" fill="#F4A28C"/>
<path d="M167.488 54.238C167.488 54.238 160.082 53.9601 162.788 48.1966C165.495 42.4331 166.631 46.4325 167.73 42.1551C168.83 37.8778 170.147 36.887 172.563 38.4215C174.98 39.9561 173.204 43.9072 176.514 42.5055C179.825 41.1039 182.048 39.8836 182.991 42.6505C183.933 45.4175 183.438 46.8312 181.335 48.0274C179.233 49.2236 183.087 52.6793 177.711 54.8059C172.334 56.9325 168.842 51.181 168.842 51.181L167.488 54.238Z" fill="#24285B"/>
<path d="M256.889 105.291V175.565C256.9 184.105 255.227 192.563 251.964 200.455C248.701 208.347 243.913 215.517 237.874 221.556C231.836 227.595 224.665 232.382 216.773 235.645C208.881 238.908 200.423 240.582 191.883 240.571H147.467C138.929 240.574 130.475 238.895 122.586 235.629C114.698 232.363 107.531 227.575 101.494 221.538C95.4566 215.501 90.6685 208.334 87.4027 200.445C84.137 192.557 82.4578 184.103 82.4609 175.565V105.291H256.889Z" fill="#FFD200"/>
<path d="M186.074 223.305H153.269V285H186.074V223.305Z" fill="#FFD200"/>
<path d="M222.912 273.58H116.426V294H222.912V273.58Z" fill="#24285B"/>
<path d="M83.3447 186.26H72.9413C65.0138 186.101 57.4644 182.841 51.914 177.179C46.3635 171.516 43.2545 163.903 43.2545 155.974C43.2545 148.045 46.3635 140.432 51.914 134.77C57.4644 129.107 65.0138 125.847 72.9413 125.688H82.4627V113.605H72.9413C61.8284 113.793 51.2341 118.339 43.4416 126.265C35.649 134.19 31.2822 144.86 31.2822 155.974C31.2822 167.089 35.649 177.758 43.4416 185.683C51.2341 193.609 61.8284 198.155 72.9413 198.343H86.5588C85.101 194.428 84.0247 190.382 83.3447 186.26Z" fill="#FFD200"/>
<path d="M266.364 113.605H256.843V125.688H266.364C274.292 125.847 281.841 129.107 287.392 134.77C292.942 140.432 296.051 148.045 296.051 155.974C296.051 163.903 292.942 171.516 287.392 177.179C281.841 182.841 274.292 186.101 266.364 186.26H255.961C255.281 190.382 254.205 194.428 252.747 198.343H266.364C277.477 198.155 288.072 193.609 295.864 185.683C303.657 177.758 308.024 167.089 308.024 155.974C308.024 144.86 303.657 134.19 295.864 126.265C288.072 118.339 277.477 113.793 266.364 113.605Z" fill="#FFD200"/>
<path opacity="0.3" d="M97.868 186.329C98.4358 191.971 99.0762 197.687 101.142 202.991C103.462 208.868 107.309 214.019 112.286 217.91C117.263 221.802 123.19 224.294 129.453 225.127C132.691 225.513 136.92 224.728 137.548 221.502C137.995 219.255 136.34 217.2 134.829 215.461C121.442 199.137 120.572 176.022 122.602 155.046C123.242 148.425 124.1 141.755 123.375 135.146C122.65 128.536 120.113 121.854 115.05 117.553C111.534 114.556 105.13 111.826 101.046 115.221C99.3849 116.762 98.1738 118.725 97.5417 120.9C95.693 126.349 95.7293 132.089 96.0676 137.816C96.3334 142.238 95.3789 146.371 95.5118 150.829C95.8904 162.654 96.6758 174.487 97.868 186.329Z" fill="white"/>
<path d="M79.7498 224.821L56.5645 219.07L54.9472 225.591L78.1325 231.341L79.7498 224.821Z" fill="#F2F2F2"/>
<path d="M131.001 248.792L107.465 252.879L108.614 259.498L132.15 255.411L131.001 248.792Z" fill="#F2F2F2"/>
<path d="M257.764 237.566L236.325 248.102L239.288 254.131L260.727 243.596L257.764 237.566Z" fill="#F2F2F2"/>
<path d="M69.0415 87.7678L56.5381 93.9121L58.2647 97.4256L70.7681 91.2813L69.0415 87.7678Z" fill="#F2F2F2"/>
<path d="M58.3701 57.1453L44.7256 54.332L43.935 58.1662L57.5796 60.9795L58.3701 57.1453Z" fill="#F2F2F2"/>
<path d="M298.485 100.094L284.841 97.2812L284.05 101.115L297.695 103.929L298.485 100.094Z" fill="#F2F2F2"/>
<path d="M270.852 48.2324L259.204 55.875L261.352 59.1482L273 51.5055L270.852 48.2324Z" fill="#F2F2F2"/>
<path d="M293.64 210.716L269.766 211.508L269.988 218.222L293.863 217.43L293.64 210.716Z" fill="#F2F2F2"/>
<path opacity="0.43" d="M171.646 135.706L180.805 154.253C180.959 154.571 181.188 154.848 181.472 155.058C181.756 155.268 182.087 155.407 182.436 155.461L202.905 158.434C203.307 158.492 203.684 158.661 203.995 158.922C204.305 159.184 204.537 159.527 204.662 159.913C204.788 160.299 204.803 160.712 204.706 161.106C204.609 161.501 204.404 161.86 204.113 162.143L189.299 176.57C189.048 176.819 188.859 177.124 188.75 177.46C188.641 177.797 188.614 178.154 188.671 178.503L192.175 198.875C192.244 199.275 192.2 199.686 192.047 200.062C191.895 200.439 191.64 200.764 191.312 201.003C190.984 201.242 190.595 201.384 190.191 201.414C189.786 201.444 189.381 201.359 189.022 201.171L170.716 191.505C170.404 191.337 170.055 191.25 169.701 191.25C169.347 191.25 168.998 191.337 168.686 191.505L150.38 201.171C150.021 201.359 149.616 201.444 149.211 201.414C148.807 201.384 148.418 201.242 148.09 201.003C147.762 200.764 147.507 200.439 147.355 200.062C147.202 199.686 147.158 199.275 147.227 198.875L150.731 178.503C150.788 178.154 150.761 177.797 150.652 177.46C150.543 177.124 150.354 176.819 150.103 176.57L135.289 162.143C134.998 161.86 134.793 161.501 134.696 161.106C134.599 160.712 134.614 160.299 134.74 159.913C134.865 159.527 135.097 159.184 135.407 158.922C135.718 158.661 136.095 158.492 136.497 158.434L156.966 155.461C157.315 155.407 157.646 155.268 157.93 155.058C158.214 154.848 158.443 154.571 158.597 154.253L167.756 135.706C167.933 135.341 168.21 135.033 168.554 134.818C168.898 134.602 169.295 134.488 169.701 134.488C170.107 134.488 170.504 134.602 170.848 134.818C171.192 135.033 171.469 135.341 171.646 135.706Z" fill="white"/>
</svg>
