<svg width="134" height="112" viewBox="0 0 134 112" fill="none" xmlns="http://www.w3.org/2000/svg">
<path d="M27.862 106.69C27.862 106.69 31.2201 86.4559 32.3904 82.2539C36.1491 68.692 29.7545 28.3728 29.7545 27.9691C29.7545 27.5654 9.9909 46.9707 9.21069 54.6998C8.8364 58.4183 8.86276 73.0533 9.18433 78.3548C9.38993 81.6696 3.70703 104.076 3.70703 104.076L27.862 106.69Z" fill="white"/>
<path d="M27.8621 106.953H27.8305L3.67553 104.34C3.63844 104.336 3.60258 104.325 3.57063 104.305C3.53869 104.286 3.51148 104.26 3.49103 104.228C3.46883 104.197 3.45356 104.162 3.44629 104.124C3.43901 104.086 3.43988 104.048 3.44885 104.011C3.50684 103.787 9.12121 81.6039 8.92088 78.3688C8.60985 73.2213 8.57295 58.4323 8.94724 54.6713C9.35843 50.5809 14.8726 43.5158 19.4274 38.262C23.4866 33.598 29.2591 27.6855 29.7494 27.6855C29.8184 27.6909 29.8828 27.7224 29.9297 27.7736C29.9767 27.8248 30.0026 27.8921 30.0024 27.9618C30.0024 28.0149 30.071 28.493 30.1659 29.1305C33.9562 55.5053 34.8366 74.39 32.6383 82.3104C31.489 86.4645 28.1468 106.528 28.1152 106.746C28.103 106.805 28.0713 106.857 28.0252 106.895C27.9791 106.933 27.9215 106.953 27.8621 106.953V106.953ZM4.03401 103.846L27.6407 106.396C28.0308 104.069 31.0462 86.0926 32.1375 82.1669C34.3147 74.3156 33.429 55.5106 29.6492 29.2048C29.6018 28.8595 29.5649 28.6152 29.5385 28.4346C26.9396 30.7188 10.1755 47.723 9.47441 54.7244C9.09485 58.4429 9.13702 73.2054 9.44805 78.3369C9.6431 81.4976 4.73515 101.068 4.03401 103.846V103.846Z" fill="#231F20"/>
<path d="M16.8755 20.4395L18.2092 17.9375L99.404 57.7733L98.0703 60.2806L31.0617 77.2636L16.8755 20.4395Z" fill="white"/>
<path d="M31.0619 77.5296C31.0025 77.5302 30.9448 77.5106 30.8979 77.4739C30.851 77.4373 30.8178 77.3858 30.8035 77.3278L16.6227 20.4878C16.5991 20.4262 16.5991 20.3581 16.6227 20.2965L17.9511 17.7892C17.9836 17.7289 18.038 17.6837 18.1028 17.6629C18.1677 17.6421 18.238 17.6474 18.2991 17.6777L99.4833 57.5188C99.5161 57.534 99.5453 57.556 99.569 57.5835C99.5926 57.611 99.6101 57.6433 99.6204 57.6781C99.6465 57.7447 99.6465 57.8188 99.6204 57.8853L98.2919 60.3873C98.2746 60.4201 98.2506 60.4489 98.2216 60.4718C98.1925 60.4946 98.159 60.5111 98.1232 60.5201L31.1093 77.519L31.0619 77.5296ZM17.1551 20.4772L31.2516 76.94L97.8965 60.0527L99.0405 57.8906L18.3201 18.2832L17.1551 20.4772Z" fill="#231F20"/>
<path d="M85.2203 0.942796L18.2065 17.9297L32.3917 74.7524L99.4054 57.7655L85.2203 0.942796Z" fill="white"/>
<path d="M32.3904 75.0223C32.3421 75.0234 32.2946 75.0105 32.2533 74.9851C32.1948 74.9465 32.1519 74.8881 32.1321 74.8205L17.9512 17.9805C17.935 17.9122 17.9458 17.8403 17.9812 17.7798C18.0166 17.7194 18.0739 17.6751 18.141 17.6564L85.1549 0.657534C85.2233 0.641399 85.2951 0.652839 85.3552 0.689407C85.4148 0.724493 85.4583 0.781708 85.4765 0.848771L99.6574 57.6888C99.6661 57.7226 99.6681 57.7578 99.6633 57.7925C99.6584 57.8271 99.6469 57.8604 99.6292 57.8905C99.6116 57.9206 99.5883 57.9469 99.5605 57.9679C99.5328 57.9889 99.5012 58.0041 99.4676 58.0128L32.4537 75.0117L32.3904 75.0223ZM18.5258 18.1292L32.5802 74.438L99.0828 57.5932L85.0284 1.28437L18.5258 18.1292Z" fill="#231F20"/>
<path d="M31.5467 21.4185C32.5949 21.4185 33.4446 20.5623 33.4446 19.5061C33.4446 18.45 32.5949 17.5938 31.5467 17.5938C30.4986 17.5938 29.6489 18.45 29.6489 19.5061C29.6489 20.5623 30.4986 21.4185 31.5467 21.4185Z" fill="#231F20"/>
<path d="M31.5468 21.6841C31.1425 21.6817 30.747 21.5651 30.4051 21.3475C30.0633 21.13 29.7889 20.8202 29.6131 20.4533C29.4372 20.0865 29.367 19.6773 29.4104 19.2722C29.4539 18.8672 29.6091 18.4826 29.8586 18.162C30.1081 17.8414 30.4419 17.5978 30.8219 17.4588C31.202 17.3198 31.6131 17.291 32.0085 17.3757C32.404 17.4603 32.768 17.6551 33.0591 17.9378C33.3502 18.2205 33.5569 18.5798 33.6555 18.9749V18.9749C33.7264 19.2539 33.7416 19.5444 33.7003 19.8295C33.6591 20.1146 33.5621 20.3886 33.415 20.6356C33.2679 20.8826 33.0736 21.0978 32.8434 21.2686C32.6132 21.4395 32.3517 21.5626 32.074 21.6309C31.9013 21.6717 31.7241 21.6895 31.5468 21.6841V21.6841ZM31.5468 17.8593C31.4115 17.8587 31.2767 17.8766 31.1461 17.9124C30.7478 18.0175 30.4043 18.2715 30.1853 18.6229C29.9664 18.9742 29.8886 19.3964 29.9677 19.8036C30.0468 20.2107 30.277 20.5721 30.6113 20.8143C30.9456 21.0564 31.3589 21.1611 31.7671 21.107C32.1753 21.0529 32.5476 20.844 32.8084 20.523C33.0691 20.2019 33.1987 19.7928 33.1706 19.3789C33.1425 18.965 32.959 18.5774 32.6573 18.2951C32.3556 18.0128 31.9585 17.857 31.5468 17.8593Z" fill="#231F20"/>
<path d="M30.9175 12.1682C30.7641 11.5536 30.1453 11.1807 29.5354 11.3353C28.9256 11.4899 28.5555 12.1134 28.7089 12.728L30.3126 19.1521C30.4661 19.7667 31.0848 20.1395 31.6947 19.9849C32.3046 19.8303 32.6746 19.2068 32.5212 18.5923L30.9175 12.1682Z" fill="white"/>
<path d="M31.4153 20.2918C31.1039 20.2912 30.8014 20.1866 30.5553 19.9944C30.3092 19.8021 30.1333 19.5331 30.0552 19.2293L28.4473 12.8016C28.4023 12.6216 28.3929 12.4345 28.4197 12.2509C28.4465 12.0672 28.5089 11.8907 28.6034 11.7314C28.6978 11.572 28.8225 11.433 28.9703 11.3223C29.1181 11.2115 29.2861 11.1311 29.4647 11.0858C29.6433 11.0405 29.8291 11.031 30.0113 11.058C30.1935 11.085 30.3687 11.1479 30.5268 11.2431C30.6849 11.3383 30.8229 11.4639 30.9328 11.6128C31.0427 11.7618 31.1225 11.9311 31.1675 12.111L32.749 18.5387C32.8387 18.9 32.7833 19.2824 32.5947 19.6027C32.4062 19.923 32.0998 20.1554 31.7421 20.2493V20.2493C31.6351 20.2757 31.5254 20.2899 31.4153 20.2918V20.2918ZM29.8074 11.5692C29.7373 11.5614 29.6666 11.5614 29.5965 11.5692C29.3726 11.6257 29.18 11.7691 29.0605 11.9681C28.9411 12.1671 28.9044 12.4056 28.9586 12.6316L30.5665 19.0593C30.6226 19.2849 30.7649 19.479 30.9624 19.5994C31.1598 19.7198 31.3965 19.7567 31.6209 19.7021V19.7021C31.842 19.6418 32.0311 19.497 32.148 19.2984C32.2073 19.1988 32.2462 19.0883 32.2625 18.9734C32.2788 18.8584 32.2722 18.7414 32.2429 18.629L30.6614 12.2067C30.6082 12.0207 30.4958 11.8575 30.3414 11.7423C30.1871 11.6271 29.9994 11.5663 29.8074 11.5692V11.5692Z" fill="#231F20"/>
<path d="M42.2113 18.7134C43.2594 18.7134 44.1091 17.8572 44.1091 16.801C44.1091 15.7449 43.2594 14.8887 42.2113 14.8887C41.1632 14.8887 40.3135 15.7449 40.3135 16.801C40.3135 17.8572 41.1632 18.7134 42.2113 18.7134Z" fill="#231F20"/>
<path d="M42.2114 18.9792C41.664 18.9769 41.1381 18.7642 40.7408 18.3847C40.3436 18.0052 40.1049 17.4873 40.0734 16.9366C40.0419 16.3859 40.22 15.8438 40.5713 15.4208C40.9227 14.9978 41.4209 14.7257 41.9644 14.66C42.5079 14.5943 43.0559 14.7398 43.4966 15.0671C43.9373 15.3943 44.2376 15.8785 44.3363 16.4211C44.435 16.9637 44.3247 17.5238 44.0278 17.9872C43.7309 18.4507 43.2699 18.7827 42.7386 18.9155C42.5659 18.9573 42.389 18.9787 42.2114 18.9792ZM42.2114 15.1598C42.0765 15.16 41.942 15.176 41.8108 15.2076C41.4055 15.3081 41.0535 15.5605 40.8266 15.9134C40.5996 16.2663 40.5147 16.6931 40.5893 17.1069C40.6638 17.5207 40.8921 17.8902 41.2277 18.1402C41.5632 18.3903 41.9808 18.5019 42.3952 18.4525C42.8097 18.403 43.1898 18.1962 43.4581 17.8741C43.7264 17.552 43.8628 17.1389 43.8393 16.7191C43.8159 16.2992 43.6344 15.9041 43.3319 15.6144C43.0295 15.3247 42.6287 15.1621 42.2114 15.1598V15.1598Z" fill="#231F20"/>
<path d="M41.5821 9.46894C41.4286 8.85438 40.8099 8.4815 40.2 8.6361C39.5901 8.79069 39.2201 9.41421 39.3735 10.0288L40.9772 16.4529C41.1306 17.0674 41.7494 17.4403 42.3593 17.2857C42.9691 17.1311 43.3392 16.5076 43.1858 15.893L41.5821 9.46894Z" fill="white"/>
<path d="M42.0795 17.5881C41.7681 17.5875 41.4657 17.483 41.2196 17.2907C40.9735 17.0985 40.7976 16.8294 40.7194 16.5257L39.1221 10.0926C39.0312 9.72915 39.0874 9.34417 39.2782 9.02239C39.469 8.70061 39.7788 8.46839 40.1395 8.37681C40.5003 8.28524 40.8823 8.34181 41.2016 8.53408C41.521 8.72635 41.7514 9.03857 41.8423 9.40206L43.4238 15.8298C43.5133 16.1932 43.4566 16.5775 43.266 16.899C43.0754 17.2204 42.7664 17.4528 42.4064 17.5456V17.5456C42.2993 17.572 42.1897 17.5863 42.0795 17.5881V17.5881ZM40.4717 8.86553C40.4016 8.85777 40.3309 8.85777 40.2608 8.86553C40.0377 8.92331 39.8459 9.06691 39.7266 9.26554C39.6074 9.46417 39.5701 9.70199 39.6229 9.92796L41.2308 16.3875C41.2514 16.5071 41.2963 16.6211 41.3627 16.7224C41.429 16.8237 41.5154 16.9101 41.6165 16.9762C41.7175 17.0423 41.831 17.0867 41.9498 17.1066C42.0687 17.1264 42.1903 17.1213 42.3071 17.0916C42.4239 17.0619 42.5333 17.0083 42.6286 16.934C42.7239 16.8597 42.8029 16.7664 42.8607 16.6599C42.9185 16.5534 42.9539 16.436 42.9646 16.3151C42.9753 16.1942 42.9612 16.0724 42.923 15.9573L41.3415 9.53486C41.2927 9.34075 41.1803 9.16897 41.0223 9.04745C40.8644 8.92593 40.6703 8.86181 40.4717 8.86553V8.86553Z" fill="#231F20"/>
<path d="M52.8763 16.0103C53.9245 16.0103 54.7741 15.1541 54.7741 14.0979C54.7741 13.0417 53.9245 12.1855 52.8763 12.1855C51.8282 12.1855 50.9785 13.0417 50.9785 14.0979C50.9785 15.1541 51.8282 16.0103 52.8763 16.0103Z" fill="#231F20"/>
<path d="M52.8759 16.2761C52.3285 16.2737 51.8026 16.0611 51.4054 15.6816C51.0081 15.302 50.7694 14.7842 50.7379 14.2334C50.7064 13.6827 50.8845 13.1407 51.2359 12.7177C51.5872 12.2947 52.0854 12.0226 52.629 11.9569C53.1725 11.8911 53.7204 12.0367 54.1611 12.3639C54.6018 12.6912 54.9021 13.1754 55.0008 13.718C55.0995 14.2606 54.9892 14.8206 54.6924 15.2841C54.3955 15.7476 53.9344 16.0795 53.4031 16.2124C53.2304 16.2542 53.0535 16.2755 52.8759 16.2761V16.2761ZM52.8759 12.4567C52.741 12.4568 52.6065 12.4729 52.4753 12.5045C52.056 12.6123 51.6961 12.8828 51.4739 13.2569C51.2517 13.6311 51.1853 14.0786 51.2892 14.5018C51.3296 14.7233 51.4147 14.9341 51.5392 15.1211C51.6637 15.3082 51.825 15.4675 52.013 15.5892C52.201 15.7109 52.4118 15.7925 52.6323 15.8289C52.8529 15.8653 53.0785 15.8557 53.2952 15.8007C53.512 15.7458 53.7152 15.6466 53.8924 15.5094C54.0696 15.3721 54.2169 15.1997 54.3254 15.0028C54.4338 14.8059 54.501 14.5886 54.5228 14.3645C54.5446 14.1404 54.5206 13.9141 54.4522 13.6997V13.6997C54.4012 13.4901 54.3093 13.2928 54.1816 13.1195C54.054 12.9461 53.8932 12.8003 53.7089 12.6904C53.4587 12.533 53.1709 12.4467 52.8759 12.4407V12.4567Z" fill="#231F20"/>
<path d="M52.2451 6.76386C52.0917 6.1493 51.473 5.77642 50.8631 5.93102C50.2532 6.08561 49.8832 6.70914 50.0366 7.32369L51.6403 13.7478C51.7937 14.3624 52.4125 14.7352 53.0224 14.5806C53.6322 14.426 54.0023 13.8025 53.8489 13.188L52.2451 6.76386Z" fill="white"/>
<path d="M52.7391 14.8837C52.4865 14.8827 52.2388 14.8129 52.0222 14.6818C51.8637 14.588 51.7255 14.4629 51.6159 14.3142C51.5063 14.1654 51.4276 13.996 51.3843 13.8159L49.8028 7.38822C49.7537 7.20676 49.7411 7.01725 49.7656 6.8308C49.7901 6.64436 49.8513 6.46472 49.9457 6.30242C50.04 6.14013 50.1655 5.99845 50.3149 5.88568C50.4643 5.77291 50.6345 5.69132 50.8156 5.6457C50.9967 5.60009 51.185 5.59136 51.3694 5.62003C51.5539 5.64869 51.7308 5.71418 51.8899 5.81265C52.0489 5.91112 52.1868 6.04059 52.2955 6.19347C52.4042 6.34635 52.4816 6.51956 52.523 6.70295L54.1045 13.1253C54.151 13.3054 54.1615 13.4929 54.1354 13.677C54.1093 13.8612 54.047 14.0383 53.9524 14.1979C53.8577 14.3576 53.7324 14.4967 53.5839 14.6072C53.4353 14.7176 53.2664 14.7971 53.0871 14.8412C52.9732 14.8691 52.8564 14.8834 52.7391 14.8837V14.8837ZM51.1576 6.16111C51.0844 6.16088 51.0116 6.17162 50.9415 6.19299C50.7176 6.24953 50.525 6.3929 50.4055 6.59188C50.286 6.79087 50.2494 7.02935 50.3036 7.25542L51.8851 13.6831C51.9114 13.7942 51.9601 13.8987 52.0281 13.9901C52.0961 14.0815 52.182 14.1578 52.2805 14.2143C52.3789 14.275 52.4884 14.3151 52.6025 14.3325C52.7166 14.3498 52.8329 14.3439 52.9447 14.3153C53.1659 14.2549 53.355 14.1101 53.4719 13.9115C53.5313 13.813 53.5704 13.7034 53.5867 13.5893C53.603 13.4752 53.5962 13.3589 53.5668 13.2475L51.9853 6.81982C51.9254 6.59696 51.7817 6.40639 51.5846 6.2886C51.4516 6.20554 51.2983 6.1614 51.1418 6.16111H51.1576Z" fill="#231F20"/>
<path d="M63.5409 13.3111C64.589 13.3111 65.4387 12.4549 65.4387 11.3987C65.4387 10.3425 64.589 9.48633 63.5409 9.48633C62.4927 9.48633 61.6431 10.3425 61.6431 11.3987C61.6431 12.4549 62.4927 13.3111 63.5409 13.3111Z" fill="#231F20"/>
<path d="M63.5408 13.5708C63.1362 13.5687 62.7403 13.4522 62.3982 13.2345C62.0561 13.0169 61.7815 12.7069 61.6056 12.3397C61.4297 11.9726 61.3596 11.5631 61.4033 11.1578C61.4469 10.7524 61.6026 10.3676 61.8526 10.0471C62.1026 9.72652 62.4368 9.48311 62.8173 9.34453C63.1978 9.20595 63.6093 9.17777 64.0049 9.26319C64.4005 9.3486 64.7644 9.5442 65.0551 9.82771C65.3458 10.1112 65.5518 10.4713 65.6495 10.8669C65.7204 11.146 65.7356 11.4365 65.6943 11.7215C65.6531 12.0066 65.5561 12.2806 65.409 12.5276C65.2619 12.7747 65.0676 12.9898 64.8374 13.1607C64.6072 13.3315 64.3457 13.4547 64.068 13.523C63.8947 13.5594 63.7177 13.5754 63.5408 13.5708ZM63.5408 9.75134C63.4058 9.75152 63.2714 9.76756 63.1401 9.79915C62.7211 9.90688 62.3615 10.1776 62.1402 10.552C61.9188 10.9264 61.8538 11.3739 61.9593 11.7965C62.0696 12.2147 62.3389 12.5722 62.7088 12.7919C63.0788 13.0116 63.5197 13.0758 63.9362 12.9705C64.1445 12.9184 64.3405 12.8252 64.513 12.6965C64.6855 12.5678 64.8311 12.4059 64.9413 12.2203C65.0515 12.0347 65.1243 11.829 65.1553 11.6149C65.1864 11.4009 65.1752 11.1828 65.1223 10.9731V10.9731C65.0293 10.6223 64.8238 10.3122 64.5377 10.0912C64.2517 9.87025 63.9012 9.75076 63.5408 9.75134V9.75134Z" fill="#231F20"/>
<path d="M62.9082 4.05878C62.7548 3.44422 62.136 3.07135 61.5262 3.22594C60.9163 3.38054 60.5462 4.00406 60.6997 4.61862L62.3034 11.0427C62.4568 11.6573 63.0756 12.0302 63.6854 11.8756C64.2953 11.721 64.6654 11.0975 64.512 10.4829L62.9082 4.05878Z" fill="white"/>
<path d="M63.4039 12.1795C63.1512 12.179 62.9033 12.1092 62.6869 11.9776C62.5284 11.8838 62.3903 11.7588 62.2807 11.61C62.1711 11.4612 62.0923 11.2918 62.0491 11.1117L60.4412 4.68403C60.3542 4.32267 60.411 3.94134 60.5993 3.6216C60.6932 3.46244 60.8174 3.32365 60.965 3.21331C61.1125 3.10296 61.2803 3.02326 61.4586 2.97883C61.8166 2.89014 62.1948 2.9454 62.513 3.13288C62.6711 3.22849 62.8089 3.35469 62.9183 3.50422C63.0278 3.65374 63.1069 3.82363 63.1509 4.00408L64.7324 10.4318C64.7781 10.6114 64.788 10.7984 64.7615 10.982C64.735 11.1655 64.6726 11.3419 64.578 11.501C64.4833 11.6601 64.3583 11.7987 64.2102 11.9088C64.062 12.0188 63.8937 12.0982 63.7149 12.1423C63.6132 12.1678 63.5087 12.1803 63.4039 12.1795V12.1795ZM61.7908 3.46224C61.7208 3.45184 61.6498 3.45184 61.5799 3.46224C61.3591 3.52023 61.1698 3.66331 61.0527 3.86065C60.9339 4.06204 60.898 4.30225 60.9526 4.52998L62.5604 10.9577C62.5881 11.0682 62.6373 11.1721 62.7052 11.2633C62.7731 11.3545 62.8583 11.4311 62.9558 11.4889C63.1562 11.6073 63.3947 11.6417 63.62 11.5845V11.5845C63.8437 11.5281 64.0359 11.3845 64.1546 11.1852C64.2732 10.986 64.3085 10.7475 64.2526 10.5221L62.6711 4.09438C62.6158 3.90488 62.499 3.73957 62.3394 3.62495C62.1797 3.51033 61.9866 3.45303 61.7908 3.46224V3.46224Z" fill="#231F20"/>
<path d="M74.2054 10.608C75.2536 10.608 76.1033 9.75175 76.1033 8.69558C76.1033 7.6394 75.2536 6.7832 74.2054 6.7832C73.1573 6.7832 72.3076 7.6394 72.3076 8.69558C72.3076 9.75175 73.1573 10.608 74.2054 10.608Z" fill="#231F20"/>
<path d="M74.2053 10.8462C73.8008 10.844 73.4049 10.7275 73.0628 10.5099C72.7207 10.2923 72.446 9.98225 72.2701 9.61511C72.0942 9.24797 72.0241 8.83845 72.0678 8.43314C72.1115 8.02784 72.2672 7.64302 72.5171 7.32246C72.7671 7.00191 73.1014 6.7585 73.4819 6.61992C73.8624 6.48134 74.2738 6.45316 74.6694 6.53858C75.065 6.624 75.4289 6.81959 75.7196 7.1031C76.0104 7.38661 76.2163 7.74666 76.314 8.14228C76.3849 8.42137 76.4002 8.71186 76.3589 8.99693C76.3176 9.282 76.2206 9.55598 76.0735 9.80302C75.9264 10.0501 75.7322 10.2652 75.502 10.4361C75.2718 10.6069 75.0102 10.7301 74.7325 10.7984C74.5592 10.8348 74.3823 10.8508 74.2053 10.8462V10.8462ZM74.2053 7.02673C74.07 7.02611 73.9352 7.04398 73.8047 7.07985C73.4927 7.16001 73.2113 7.33154 72.996 7.57276C72.7807 7.81398 72.6412 8.11409 72.595 8.43517C72.5489 8.75625 72.5982 9.08391 72.7367 9.37677C72.8753 9.66963 73.0968 9.91455 73.3734 10.0806C73.65 10.2466 73.9693 10.3264 74.2908 10.3097C74.6123 10.293 74.9218 10.1807 75.18 9.98698C75.4382 9.79322 75.6337 9.5267 75.7417 9.22106C75.8497 8.91543 75.8654 8.5844 75.7868 8.26978V8.26978C75.6938 7.91889 75.4883 7.60883 75.2023 7.38786C74.9163 7.16689 74.5657 7.04739 74.2053 7.04798V7.02673Z" fill="#231F20"/>
<path d="M73.5718 1.35761C73.4184 0.74305 72.7996 0.370174 72.1897 0.524769C71.5799 0.679363 71.2098 1.30289 71.3632 1.91744L72.9669 8.34156C73.1204 8.95612 73.7391 9.32899 74.349 9.17439C74.9589 9.0198 75.3289 8.39628 75.1755 7.78172L73.5718 1.35761Z" fill="white"/>
<path d="M74.0682 9.4759C73.7572 9.47601 73.4551 9.37157 73.2097 9.17913C72.9643 8.98669 72.7896 8.71724 72.7134 8.41347L71.1055 1.99108C71.0146 1.62759 71.0708 1.24261 71.2616 0.920831C71.4524 0.599051 71.7622 0.366829 72.1229 0.275252C72.4837 0.183676 72.8657 0.240246 73.185 0.432517C73.5044 0.624788 73.7348 0.937009 73.8257 1.3005L75.4072 7.7282C75.4522 7.90784 75.4615 8.09466 75.4347 8.27795C75.4079 8.46124 75.3454 8.63739 75.2509 8.79631C75.1564 8.95522 75.0317 9.09377 74.8839 9.20401C74.7361 9.31424 74.5682 9.394 74.3898 9.43871V9.43871C74.2846 9.46516 74.1765 9.47766 74.0682 9.4759V9.4759ZM72.4656 0.753347C72.3945 0.754348 72.3238 0.763256 72.2547 0.779907C72.0309 0.836449 71.8382 0.97982 71.7187 1.1788C71.5993 1.37779 71.5627 1.61627 71.6168 1.84234L73.2247 8.27004C73.2946 8.48099 73.4411 8.65752 73.6347 8.76427C73.8283 8.87102 74.0548 8.9001 74.2689 8.84568C74.4829 8.79127 74.6686 8.65738 74.7887 8.47084C74.9089 8.28429 74.9547 8.05888 74.9169 7.83975L73.3354 1.41205C73.2855 1.21944 73.1724 1.04951 73.0145 0.929915C72.8565 0.810317 72.6631 0.748087 72.4656 0.753347V0.753347Z" fill="#231F20"/>
<path d="M31.0618 77.5301C31.0177 77.5297 30.9744 77.5188 30.9353 77.4982C30.9048 77.4816 30.8778 77.459 30.856 77.4318C30.8342 77.4045 30.8179 77.3733 30.8081 77.3397C30.7983 77.3061 30.7952 77.2709 30.7989 77.2362C30.8026 77.2014 30.8132 77.1677 30.8299 77.137L32.1583 74.635C32.1739 74.604 32.1955 74.5764 32.2218 74.5539C32.2481 74.5314 32.2786 74.5145 32.3116 74.5041C32.3445 74.4937 32.3791 74.4901 32.4135 74.4934C32.4478 74.4967 32.4812 74.5069 32.5115 74.5234C32.5425 74.5396 32.57 74.5619 32.5923 74.5889C32.6147 74.6159 32.6315 74.6471 32.6418 74.6807C32.6521 74.7143 32.6557 74.7497 32.6523 74.7847C32.649 74.8197 32.6387 74.8537 32.6222 74.8847L31.2938 77.392C31.2702 77.4332 31.2364 77.4675 31.1958 77.4917C31.1551 77.5159 31.109 77.5292 31.0618 77.5301V77.5301Z" fill="#231F20"/>
<path d="M30.7032 31.1929C31.2447 31.1929 31.6837 30.7505 31.6837 30.2049C31.6837 29.6592 31.2447 29.2168 30.7032 29.2168C30.1617 29.2168 29.7227 29.6592 29.7227 30.2049C29.7227 30.7505 30.1617 31.1929 30.7032 31.1929Z" fill="#D1D3D4"/>
<path d="M79.4035 18.3789C79.0076 18.486 78.588 18.4618 78.2068 18.3099C77.8855 18.1773 77.5298 18.1548 77.1946 18.2461C76.8575 18.3218 76.555 18.5087 76.3353 18.7774C76.0705 19.0931 75.712 19.3147 75.3126 19.4095C74.9185 19.5166 74.5006 19.4923 74.1212 19.3404C73.7999 19.2078 73.4442 19.1854 73.1091 19.2767C72.7719 19.3523 72.4695 19.5393 72.2498 19.8079C71.9861 20.1224 71.6296 20.3439 71.2323 20.4401C70.8362 20.5445 70.4174 20.5204 70.0357 20.371C69.717 20.2347 69.3618 20.2122 69.0288 20.3072C68.6906 20.3841 68.3868 20.5707 68.1642 20.8385C67.9015 21.1541 67.5446 21.3758 67.1468 21.4706C66.7506 21.5751 66.3318 21.5509 65.9501 21.4016C65.6288 21.2754 65.2765 21.2531 64.9421 21.3378C64.6077 21.4225 64.3078 21.61 64.0839 21.8743C63.8246 22.2017 63.4649 22.4333 63.0612 22.533C62.6673 22.6424 62.2486 22.6182 61.8698 22.464C61.5485 22.3378 61.1962 22.3155 60.8618 22.4002C60.5274 22.485 60.2275 22.6725 60.0036 22.9368C59.7358 23.2473 59.3801 23.4678 58.9842 23.5685C58.5884 23.6691 58.1714 23.6452 57.7895 23.4999C57.4682 23.3672 57.1125 23.3448 56.7773 23.4361C56.4402 23.5117 56.1377 23.6987 55.918 23.9673C55.6507 24.2785 55.295 24.4994 54.899 24.6001C54.5029 24.7009 54.0858 24.6765 53.7039 24.5304C53.3826 24.4042 53.0304 24.3819 52.6959 24.4667C52.3615 24.5514 52.0616 24.7389 51.8377 25.0032C51.57 25.3138 51.2142 25.5342 50.8184 25.6349C50.4225 25.7356 50.0056 25.7116 49.6236 25.5663C49.3031 25.4304 48.9463 25.408 48.6114 25.5025C48.2735 25.5762 47.9705 25.7635 47.7522 26.0337C47.482 26.3408 47.1245 26.5564 46.7283 26.6515C46.3321 26.7465 45.9166 26.7163 45.538 26.565C45.2159 26.4417 44.864 26.4215 44.53 26.5071C44.1961 26.5926 43.8965 26.7798 43.6719 27.0431C43.4077 27.3586 43.0487 27.5787 42.6492 27.6699C42.2553 27.7793 41.8366 27.755 41.4577 27.6008C41.1365 27.4746 40.7842 27.4524 40.4498 27.5371C40.1154 27.6218 39.8154 27.8093 39.5916 28.0736C39.3372 28.393 38.988 28.622 38.5952 28.727C38.2014 28.8372 37.7825 28.8129 37.4038 28.6579C37.0825 28.5253 36.7268 28.5029 36.3916 28.5942C36.349 28.6048 36.3039 28.5978 36.2664 28.5749C36.2288 28.552 36.2018 28.515 36.1913 28.472C36.1808 28.4291 36.1877 28.3836 36.2105 28.3458C36.2332 28.3079 36.2699 28.2807 36.3126 28.2702C36.7064 28.16 37.1253 28.1842 37.504 28.3392C37.826 28.4658 38.1792 28.4883 38.5145 28.4036C38.8499 28.3189 39.1507 28.1312 39.3754 27.8664C39.6391 27.5519 39.9956 27.3305 40.3929 27.2343C40.789 27.1298 41.2078 27.154 41.5895 27.3034C41.9108 27.4295 42.2631 27.4518 42.5975 27.3671C42.9319 27.2824 43.2319 27.0949 43.4557 26.8306C43.7194 26.5161 44.0759 26.2946 44.4732 26.1984C44.8693 26.0939 45.2881 26.1181 45.6698 26.2675C45.9911 26.3937 46.3434 26.416 46.6778 26.3312C47.0122 26.2465 47.3122 26.059 47.536 25.7947C47.7973 25.493 48.1457 25.2812 48.5324 25.1891C48.9262 25.0793 49.345 25.1036 49.7238 25.2582C50.0451 25.3908 50.4008 25.4132 50.7359 25.3219C51.0722 25.244 51.374 25.0575 51.5952 24.7907C51.8625 24.4795 52.2183 24.2586 52.6143 24.1579C53.0103 24.0572 53.4275 24.0815 53.8094 24.2276C54.1306 24.3538 54.4829 24.3761 54.8173 24.2914C55.1517 24.2066 55.4517 24.0191 55.6755 23.7548C55.9413 23.4402 56.2995 23.2189 56.6982 23.1227C57.0923 23.0152 57.5104 23.0395 57.8897 23.1917C58.2109 23.3244 58.5666 23.3468 58.9018 23.2555C59.239 23.1799 59.5414 22.9929 59.7611 22.7243C60.0248 22.4098 60.3813 22.1883 60.7785 22.0921C61.1747 21.9877 61.5935 22.0118 61.9752 22.1612C62.2965 22.2874 62.6488 22.3097 62.9832 22.2249C63.3176 22.1402 63.6176 21.9527 63.8414 21.6884C64.1062 21.3727 64.4648 21.1511 64.8641 21.0563C65.2588 20.9505 65.6768 20.9766 66.0555 21.1306C66.3784 21.2543 66.7313 21.2747 67.0661 21.1892C67.401 21.1036 67.7015 20.9163 67.927 20.6525C68.1958 20.3435 68.5518 20.1245 68.9475 20.0249C69.3431 19.9252 69.7596 19.9496 70.1411 20.0948C70.4608 20.2262 70.8144 20.2486 71.148 20.1585C71.4843 20.0806 71.786 19.8941 72.0073 19.6273C72.2701 19.3092 72.6295 19.0871 73.03 18.9951C73.4238 18.8849 73.8427 18.9092 74.2214 19.0642C74.5427 19.1968 74.8984 19.2192 75.2336 19.128C75.5707 19.0523 75.8732 18.8654 76.0928 18.5967C76.3614 18.2857 76.7181 18.065 77.1149 17.9644C77.5117 17.8637 77.9295 17.8879 78.3122 18.0336C78.632 18.1651 78.9856 18.1875 79.3191 18.0974C79.6573 18.0206 79.9611 17.8339 80.1837 17.5662C80.4444 17.2482 80.8021 17.0259 81.2011 16.934C81.2444 16.9241 81.2898 16.9313 81.328 16.954C81.3662 16.9767 81.3944 17.0133 81.4067 17.0562C81.4086 17.0921 81.3988 17.1276 81.3788 17.1573C81.3588 17.187 81.3298 17.2094 81.296 17.2209C80.9578 17.2977 80.6541 17.4843 80.4315 17.7521C80.1652 18.0677 79.8045 18.2877 79.4035 18.3789Z" fill="#D1D3D4"/>
<path d="M80.4631 22.6248C80.0674 22.7346 79.647 22.7103 79.2664 22.5557C78.9451 22.422 78.5885 22.4014 78.2542 22.4973C77.9163 22.571 77.6132 22.7583 77.3949 23.0285C77.1308 23.344 76.7717 23.5641 76.3722 23.6553C75.9795 23.7681 75.5608 23.7476 75.1808 23.5969C74.8584 23.4693 74.5045 23.4468 74.1687 23.5325C73.833 23.6183 73.5324 23.808 73.3094 24.075C73.0374 24.3795 72.6799 24.5933 72.2844 24.6882C71.889 24.7831 71.4742 24.7545 71.0952 24.6062C70.7755 24.4748 70.4219 24.4524 70.0883 24.5425C69.7502 24.6193 69.4464 24.8059 69.2238 25.0737C68.9573 25.3844 68.6025 25.6051 68.2074 25.7058C67.8123 25.8066 67.396 25.7824 67.0149 25.6368C66.6936 25.5041 66.338 25.4817 66.0028 25.573C65.6656 25.6486 65.3632 25.8356 65.1435 26.1042C64.8868 26.4365 64.5296 26.6752 64.126 26.7842C63.7299 26.8887 63.3111 26.8645 62.9294 26.7151C62.6081 26.5889 62.2558 26.5667 61.9214 26.6514C61.587 26.7361 61.287 26.9236 61.0632 27.1879C60.7954 27.4985 60.4397 27.7189 60.0438 27.8196C59.648 27.9203 59.231 27.8963 58.8491 27.751C58.5285 27.6151 58.1717 27.5927 57.8369 27.6872C57.4989 27.7609 57.1959 27.9483 56.9776 28.2185C56.7056 28.5229 56.3482 28.7368 55.9527 28.8317C55.5572 28.9266 55.1424 28.898 54.7635 28.7497C54.4414 28.6265 54.0894 28.6063 53.7555 28.6918C53.4216 28.7773 53.1219 28.9645 52.8973 29.2278C52.6322 29.5421 52.2735 29.7619 51.8746 29.8546C51.4808 29.9644 51.0619 29.9401 50.6832 29.7855C50.3619 29.6529 50.0062 29.6305 49.671 29.7218C49.3339 29.7974 49.0314 29.9844 48.8117 30.253C48.5444 30.5642 48.1887 30.7851 47.7927 30.8858C47.3966 30.9866 46.9795 30.9622 46.5976 30.8161C46.2763 30.6899 45.9241 30.6676 45.5896 30.7524C45.2552 30.8371 44.9553 31.0246 44.7314 31.2889C44.4637 31.5995 44.1079 31.8199 43.7121 31.9206C43.3162 32.0213 42.8993 31.9973 42.5173 31.852C42.1986 31.7161 41.8435 31.6936 41.5104 31.7882C41.1733 31.8639 40.8708 32.0508 40.6511 32.3194C40.3853 32.634 40.0272 32.8554 39.6284 32.9516C39.2338 33.0573 38.8157 33.0312 38.437 32.8772C38.1158 32.7435 37.7592 32.723 37.4249 32.8188C37.3823 32.8285 37.3376 32.8212 37.3002 32.7984C37.2629 32.7756 37.2357 32.7391 37.2245 32.6966C37.2147 32.653 37.2218 32.6073 37.2443 32.5688C37.2669 32.5302 37.3032 32.5019 37.3458 32.4894C37.7401 32.3846 38.1574 32.4088 38.5372 32.5585C38.8577 32.6943 39.2145 32.7168 39.5494 32.6222C39.8873 32.5486 40.1903 32.3612 40.4086 32.091C40.6806 31.7865 41.0381 31.5727 41.4336 31.4778C41.829 31.3829 42.2438 31.4115 42.6228 31.5598C42.944 31.686 43.2963 31.7083 43.6307 31.6236C43.9651 31.5388 44.2651 31.3513 44.4889 31.087C44.7562 30.7758 45.112 30.5549 45.508 30.4542C45.904 30.3535 46.3212 30.3778 46.7031 30.5239C47.0228 30.6554 47.3764 30.6778 47.7099 30.5877C48.0481 30.5109 48.3519 30.3242 48.5745 30.0565C48.8372 29.7408 49.1941 29.5191 49.592 29.4243C49.9863 29.3195 50.4035 29.3437 50.7834 29.4934C51.1047 29.626 51.4603 29.6484 51.7955 29.5571C52.1327 29.4815 52.4351 29.2945 52.6548 29.0259C52.9162 28.7055 53.2729 28.4783 53.6723 28.3778C54.0684 28.2733 54.4872 28.2975 54.8689 28.4469C55.1902 28.5731 55.5425 28.5954 55.8769 28.5106C56.2113 28.4259 56.5113 28.2384 56.7351 27.9741C57.0002 27.6597 57.3589 27.4399 57.7578 27.3473C58.1516 27.2371 58.5706 27.2614 58.9492 27.4163C59.2705 27.55 59.6271 27.5706 59.9614 27.4748C60.2993 27.4011 60.6024 27.2137 60.8207 26.9435C61.0895 26.6345 61.4456 26.4155 61.8412 26.3159C62.2369 26.2162 62.6533 26.2406 63.0348 26.3858C63.3561 26.512 63.7084 26.5342 64.0428 26.4495C64.3772 26.3648 64.6771 26.1773 64.901 25.913C65.1658 25.5973 65.5244 25.3756 65.9237 25.2808C66.3178 25.1738 66.7357 25.198 67.1151 25.3499C67.4372 25.4765 67.7903 25.499 68.1257 25.4143C68.461 25.3296 68.7619 25.1419 68.9865 24.8771C69.2503 24.5626 69.6067 24.3412 70.004 24.245C70.4002 24.1405 70.8189 24.1647 71.2007 24.314C71.5204 24.4455 71.874 24.4679 72.2076 24.3778C72.5457 24.301 72.8495 24.1143 73.0721 23.8466C73.3348 23.5309 73.6917 23.3092 74.0896 23.2144C74.4857 23.1099 74.9045 23.1341 75.2862 23.2835C75.6075 23.4097 75.9598 23.4319 76.2942 23.3472C76.6286 23.2625 76.9286 23.075 77.1524 22.8107C77.4173 22.495 77.7758 22.2733 78.1751 22.1786C78.5713 22.0741 78.9901 22.0982 79.3718 22.2476C79.6904 22.3839 80.0457 22.4064 80.3787 22.3114C80.7169 22.2345 81.0206 22.0479 81.2433 21.7801C81.507 21.4656 81.8634 21.2442 82.2607 21.148C82.2822 21.1424 82.3045 21.1411 82.3265 21.1442C82.3484 21.1474 82.3695 21.1548 82.3886 21.1661C82.4077 21.1775 82.4244 21.1925 82.4377 21.2104C82.4511 21.2282 82.4608 21.2485 82.4663 21.2702C82.4749 21.3123 82.4679 21.3561 82.4465 21.3934C82.4251 21.4306 82.3909 21.4586 82.3503 21.472C82.0122 21.5488 81.7084 21.7355 81.4858 22.0032C81.2219 22.318 80.8625 22.5364 80.4631 22.6248Z" fill="#D1D3D4"/>
<path d="M63.4459 30.4492C63.2065 30.5658 62.9972 30.7367 62.8344 30.9486C62.6556 31.1978 62.3956 31.3758 62.0998 31.4516C61.804 31.5273 61.4912 31.4959 61.216 31.3629C60.8767 31.196 60.4885 31.1601 60.1247 31.262C59.7609 31.3494 59.4397 31.564 59.218 31.8676C59.0411 32.1196 58.7784 32.2973 58.48 32.3669C58.1839 32.4489 57.8681 32.4167 57.5943 32.2766C57.2557 32.1143 56.8708 32.0785 56.5084 32.1757C56.1419 32.2634 55.8184 32.48 55.5963 32.7866C55.4194 33.0386 55.1568 33.2163 54.8583 33.2859C54.5622 33.3679 54.2464 33.3357 53.9727 33.1956C53.634 33.0333 53.2491 32.9975 52.8867 33.0947C52.5202 33.1824 52.1968 33.399 51.9747 33.7056C51.7977 33.9576 51.5351 34.1353 51.2366 34.2049C50.9403 34.2839 50.6256 34.2518 50.351 34.1146C50.0077 33.9607 49.6226 33.9294 49.2593 34.026C48.896 34.1226 48.5763 34.3413 48.353 34.6458C48.1775 34.8993 47.9142 35.0774 47.615 35.1452C47.3195 35.2278 47.0041 35.1975 46.7293 35.0602C46.3921 34.8933 46.0062 34.8555 45.6434 34.9539C45.2801 35.0457 44.9596 35.2616 44.7366 35.5648C44.5583 35.8154 44.2963 35.9927 43.9986 36.0642C43.7025 36.1462 43.3867 36.114 43.113 35.9739C42.7743 35.8115 42.3894 35.7758 42.027 35.8729C41.6605 35.9606 41.3371 36.1772 41.115 36.4838C40.938 36.7358 40.6754 36.9135 40.3769 36.9832C40.0806 37.0617 39.766 37.0296 39.4913 36.8929C39.1526 36.7305 38.7677 36.6948 38.4053 36.7919C38.3841 36.7969 38.364 36.8061 38.3463 36.819C38.3286 36.8319 38.3137 36.8483 38.3024 36.8671C38.2911 36.8859 38.2837 36.9068 38.2805 36.9286C38.2774 36.9503 38.2786 36.9725 38.2841 36.9938C38.2896 37.0154 38.2993 37.0357 38.3126 37.0536C38.326 37.0714 38.3426 37.0865 38.3617 37.0978C38.3808 37.1092 38.402 37.1166 38.4239 37.1197C38.4459 37.1228 38.4682 37.1216 38.4897 37.116C38.7842 37.0368 39.0973 37.0689 39.37 37.2063C39.7103 37.364 40.0938 37.3999 40.4571 37.3081C40.8204 37.2164 41.1418 37.0024 41.368 36.7016C41.5382 36.4365 41.802 36.2466 42.1061 36.1704C42.4024 36.0914 42.7171 36.1235 42.9917 36.2607C43.335 36.4146 43.7201 36.4459 44.0834 36.3493C44.4467 36.2527 44.7664 36.034 44.9897 35.7295C45.1666 35.4775 45.4293 35.2998 45.7277 35.2302C46.0234 35.15 46.338 35.1802 46.6134 35.3151C46.9506 35.482 47.3365 35.5198 47.6993 35.4214C48.0639 35.3325 48.3853 35.116 48.6061 34.8105C48.7844 34.5599 49.0464 34.3826 49.3441 34.3111C49.6402 34.2291 49.956 34.2613 50.2298 34.4015C50.5684 34.5638 50.9533 34.5996 51.3157 34.5024C51.6822 34.4147 52.0056 34.1981 52.2277 33.8915C52.4047 33.6395 52.6673 33.4618 52.9658 33.3921C53.2621 33.3132 53.5768 33.3452 53.8514 33.4825C54.1947 33.6364 54.5798 33.6676 54.9431 33.571C55.3064 33.4744 55.6261 33.2558 55.8494 32.9512C56.0284 32.7007 56.2894 32.5219 56.5863 32.4461C56.8833 32.3703 57.1973 32.4025 57.4731 32.5369C57.8164 32.6908 58.2015 32.722 58.5648 32.6255C58.9281 32.5289 59.2478 32.3102 59.4711 32.0057C59.6577 31.7755 59.9191 31.6193 60.2091 31.5648C60.5048 31.4846 60.8193 31.5148 61.0947 31.6498C61.432 31.8166 61.8179 31.8544 62.1807 31.756C62.5453 31.6672 62.8667 31.4506 63.0874 31.1451C63.2065 30.988 63.3552 30.8562 63.525 30.7573L63.4459 30.4492Z" fill="#D1D3D4"/>
<path d="M34.3883 45.9507C34.9298 45.9507 35.3688 45.5084 35.3688 44.9627C35.3688 44.417 34.9298 43.9746 34.3883 43.9746C33.8467 43.9746 33.4077 44.417 33.4077 44.9627C33.4077 45.5084 33.8467 45.9507 34.3883 45.9507Z" fill="#D1D3D4"/>
<path d="M72.2709 34.873C72.0154 34.9995 71.7904 35.1809 71.6119 35.4043C71.3893 35.672 71.0855 35.8587 70.7473 35.9355C70.4138 36.0256 70.0602 36.0032 69.7404 35.8717C69.3586 35.7256 68.9414 35.7013 68.5454 35.802C68.1494 35.9027 67.7936 36.1236 67.5263 36.4348C67.3051 36.7016 67.0033 36.8882 66.667 36.966C66.3335 37.0561 65.9799 37.0337 65.6601 36.9023C65.2812 36.754 64.8664 36.7254 64.4709 36.8203C64.0755 36.9151 63.718 37.129 63.446 37.4335C63.2213 37.6982 62.9205 37.886 62.5851 37.9707C62.2498 38.0554 61.8966 38.0329 61.5746 37.9063C61.1926 37.7609 60.7757 37.737 60.3798 37.8377C59.984 37.9383 59.6282 38.1588 59.3605 38.4694C59.1366 38.7337 58.8367 38.9212 58.5022 39.0059C58.1678 39.0906 57.8155 39.0683 57.4943 38.9422C57.1125 38.7928 56.6938 38.7686 56.2976 38.8731C55.8997 38.9679 55.5429 39.1896 55.2801 39.5052C55.0589 39.772 54.7571 39.9586 54.4209 40.0365C54.0857 40.1277 53.73 40.1053 53.4087 39.9727C53.0299 39.8185 52.6112 39.7943 52.2173 39.9037C51.8171 39.9963 51.4579 40.2183 51.1946 40.5358C50.9707 40.8001 50.6708 40.9876 50.3364 41.0723C50.002 41.1571 49.6497 41.1348 49.3284 41.0086C48.9469 40.8634 48.5305 40.839 48.1348 40.9387C47.7392 41.0383 47.3831 41.2573 47.1143 41.5664C46.896 41.8366 46.5929 42.0239 46.255 42.0976C45.9207 42.1934 45.5641 42.1728 45.2428 42.0391C44.8651 41.8882 44.4504 41.8582 44.0552 41.9533C43.6599 42.0483 43.3033 42.2638 43.034 42.5704C42.8127 42.8371 42.511 43.0237 42.1747 43.1016C41.8398 43.1961 41.4831 43.1737 41.1625 43.0378C40.7826 42.8885 40.3655 42.8643 39.9711 42.9688C39.9289 42.9801 39.8927 43.0074 39.8701 43.045C39.8475 43.0827 39.8402 43.1277 39.8499 43.1706C39.8548 43.1921 39.8639 43.2123 39.8767 43.2301C39.8896 43.2479 39.9058 43.2629 39.9244 43.2743C39.9431 43.2857 39.9639 43.2932 39.9855 43.2964C40.0071 43.2996 40.0291 43.2983 40.0502 43.2928C40.3837 43.2027 40.7374 43.2251 41.0571 43.3566C41.436 43.5048 41.8508 43.5335 42.2463 43.4386C42.6418 43.3437 42.9992 43.1298 43.2712 42.8253C43.4959 42.5606 43.7968 42.3729 44.1321 42.2881C44.4674 42.2034 44.8206 42.2259 45.1427 42.3526C45.5246 42.4979 45.9416 42.5218 46.3374 42.4212C46.7333 42.3205 47.089 42.1 47.3568 41.7895C47.5806 41.5252 47.8806 41.3377 48.215 41.2529C48.5494 41.1682 48.9017 41.1905 49.223 41.3167C49.6049 41.462 50.0219 41.486 50.4177 41.3853C50.8136 41.2846 51.1693 41.0642 51.4371 40.7536C51.6609 40.4893 51.9609 40.3018 52.2953 40.2171C52.6297 40.1323 52.982 40.1546 53.3033 40.2808C53.6838 40.4354 54.1043 40.4597 54.4999 40.3499C54.8996 40.2595 55.2578 40.037 55.5174 39.7177C55.7421 39.453 56.0429 39.2653 56.3783 39.1805C56.7136 39.0958 57.0668 39.1183 57.3888 39.2449C57.7677 39.3991 58.1864 39.4234 58.5802 39.314C58.9798 39.2228 59.3388 39.0027 59.603 38.6872C59.8276 38.4239 60.1272 38.2367 60.4611 38.1512C60.795 38.0657 61.147 38.0859 61.4691 38.2091C61.8497 38.3637 62.2702 38.3879 62.6658 38.2781C63.0648 38.1855 63.4234 37.9657 63.6885 37.6513C63.9124 37.387 64.2123 37.1995 64.5467 37.1148C64.8811 37.03 65.2334 37.0523 65.5547 37.1785C65.9366 37.3239 66.3536 37.3478 66.7495 37.2471C67.1453 37.1465 67.5011 36.926 67.7688 36.6154C67.9927 36.3511 68.2926 36.1636 68.627 36.0789C68.9614 35.9942 69.3137 36.0165 69.635 36.1427C70.0168 36.2888 70.434 36.3131 70.83 36.2124C71.2261 36.1117 71.5818 35.8908 71.8491 35.5796C71.9967 35.4112 72.1758 35.274 72.3763 35.1758L72.2709 34.873Z" fill="#D1D3D4"/>
<path d="M64.5896 41.6094L64.5052 41.6997C64.2855 41.9683 63.9831 42.1553 63.6459 42.2309C63.3108 42.3222 62.9551 42.2998 62.6338 42.1671C62.2518 42.0218 61.8349 41.9979 61.439 42.0985C61.0432 42.1992 60.6874 42.4197 60.4197 42.7302C60.1984 42.997 59.8966 43.1836 59.5604 43.2614C59.2268 43.3515 58.8732 43.3292 58.5535 43.1977C58.1745 43.0494 57.7598 43.0208 57.3643 43.1157C56.9688 43.2106 56.6113 43.4244 56.3394 43.7289C56.1139 43.9926 55.8133 44.18 55.4785 44.2656C55.1437 44.3511 54.7908 44.3307 54.4679 44.207C54.0892 44.053 53.6712 44.0269 53.2765 44.1326C52.8772 44.2274 52.5186 44.4491 52.2538 44.7648C52.0341 45.0334 51.7317 45.2204 51.3945 45.296C51.0615 45.391 50.7062 45.3685 50.3876 45.2323C50.0059 45.0829 49.5871 45.0587 49.1909 45.1632C48.7936 45.2594 48.4372 45.4808 48.1735 45.7953C47.9496 46.0596 47.6497 46.2472 47.3153 46.3319C46.9809 46.4166 46.6286 46.3943 46.3073 46.2681C45.9255 46.122 45.5083 46.0977 45.1123 46.1984C44.7162 46.2991 44.3605 46.52 44.0932 46.8312C43.8685 47.096 43.5676 47.2837 43.2323 47.3684C42.897 47.4531 42.5438 47.4306 42.2217 47.304C41.843 47.1494 41.4242 47.1251 41.0303 47.2349C41.0092 47.2402 40.9893 47.2495 40.9718 47.2625C40.9543 47.2755 40.9395 47.2918 40.9282 47.3106C40.917 47.3293 40.9095 47.3501 40.9062 47.3718C40.9029 47.3934 40.9039 47.4155 40.9091 47.4368C40.9143 47.4581 40.9236 47.4781 40.9365 47.4958C40.9493 47.5134 40.9655 47.5284 40.9841 47.5397C41.0027 47.551 41.0234 47.5586 41.0449 47.5619C41.0664 47.5652 41.0883 47.5642 41.1094 47.559C41.4443 47.4644 41.801 47.4869 42.1216 47.6227C42.5014 47.7724 42.9186 47.7966 43.313 47.6918C43.7108 47.597 44.0677 47.3753 44.3304 47.0596C44.5551 46.7949 44.856 46.6072 45.1913 46.5224C45.5266 46.4377 45.8798 46.4602 46.2019 46.5869C46.5838 46.7322 47.0008 46.7561 47.3966 46.6555C47.7925 46.5548 48.1482 46.3343 48.416 46.0238C48.6398 45.7595 48.9398 45.572 49.2742 45.4872C49.6086 45.4025 49.9609 45.4248 50.2822 45.551C50.6611 45.6993 51.0759 45.7279 51.4714 45.633C51.8668 45.5381 52.2243 45.3242 52.4963 45.0198C52.7146 44.7496 53.0176 44.5622 53.3556 44.4886C53.6899 44.3927 54.0465 44.4133 54.3677 44.547C54.7481 44.6949 55.1645 44.7206 55.5599 44.6208C55.9553 44.5209 56.3104 44.3003 56.5766 43.9892C56.7978 43.7224 57.0996 43.5359 57.4359 43.458C57.7707 43.3634 58.1275 43.3859 58.448 43.5217C58.8298 43.6711 59.2486 43.6953 59.6447 43.5908C60.042 43.4946 60.3985 43.2732 60.6622 42.9587C60.8818 42.69 61.1843 42.5031 61.5215 42.4274C61.8566 42.3362 62.2123 42.3586 62.5336 42.4912C62.9129 42.6435 63.3309 42.6677 63.725 42.5602C64.0954 42.4751 64.4306 42.2766 64.6845 41.9918L64.5896 41.6094Z" fill="#D1D3D4"/>
<path d="M37.1348 56.9625C37.6764 56.9625 38.1154 56.5201 38.1154 55.9744C38.1154 55.4287 37.6764 54.9863 37.1348 54.9863C36.5933 54.9863 36.1543 55.4287 36.1543 55.9744C36.1543 56.5201 36.5933 56.9625 37.1348 56.9625Z" fill="#D1D3D4"/>
<path d="M42.8127 54.3685C43.1455 54.2713 43.5015 54.2939 43.8196 54.4323C44.2015 54.5776 44.6185 54.6016 45.0144 54.5009C45.4102 54.4002 45.766 54.1798 46.0337 53.8692C46.2576 53.6049 46.5575 53.4174 46.8919 53.3327C47.2263 53.248 47.5786 53.2702 47.8999 53.3964C48.2816 53.5458 48.7004 53.57 49.0966 53.4655C49.4939 53.3693 49.8503 53.1478 50.114 52.8333C50.3379 52.569 50.6378 52.3815 50.9722 52.2968C51.3066 52.2121 51.6589 52.2344 51.9802 52.3605C52.3608 52.5152 52.7813 52.5394 53.1769 52.4296C53.5766 52.3393 53.9347 52.1167 54.1943 51.7975C54.419 51.5327 54.7199 51.345 55.0552 51.2603C55.3905 51.1756 55.7437 51.1981 56.0658 51.3247C56.4446 51.4789 56.8633 51.5031 57.2572 51.3937C57.6567 51.3025 58.0158 51.0824 58.2799 50.7669C58.5045 50.5036 58.8041 50.3165 59.1381 50.2309C59.472 50.1454 59.824 50.1656 60.1461 50.2888C60.5272 50.4371 60.9445 50.4631 61.3408 50.3633C61.7371 50.2634 62.0932 50.0426 62.3602 49.731C62.5849 49.4663 62.8858 49.2786 63.2211 49.1938C63.5564 49.1091 63.9096 49.1316 64.2316 49.2583C64.6136 49.4036 65.0305 49.4275 65.4264 49.3269C65.8223 49.2262 66.178 49.0057 66.4458 48.6952C66.6654 48.4266 66.9679 48.2396 67.3051 48.164C67.363 48.164 67.4105 48.164 67.4632 48.1374C67.4632 48.0258 67.4632 47.9143 67.4632 47.8027C67.387 47.8108 67.3113 47.8232 67.2365 47.8399C66.837 47.9311 66.4779 48.1512 66.2138 48.4668C65.9916 48.7333 65.6919 48.9228 65.3571 49.0085C65.0223 49.0943 64.6692 49.072 64.3476 48.9448C63.9687 48.7965 63.5539 48.7679 63.1584 48.8628C62.763 48.9577 62.4055 49.1716 62.1335 49.4761C61.9122 49.7428 61.6105 49.9294 61.2742 50.0073C60.9394 50.1018 60.5826 50.0794 60.2621 49.9435C59.8803 49.7942 59.4615 49.77 59.0654 49.8745C58.6681 49.9707 58.3116 50.1921 58.0479 50.5066C57.8283 50.7752 57.5258 50.9622 57.1887 51.0378C56.8556 51.1329 56.5004 51.1104 56.1818 50.9741C55.8 50.8247 55.3812 50.8005 54.9851 50.905C54.5872 50.9998 54.2304 51.2215 53.9676 51.5372C53.7464 51.804 53.4446 51.9905 53.1083 52.0684C52.7732 52.1597 52.4175 52.1373 52.0962 52.0046C51.7173 51.8504 51.2987 51.8262 50.9048 51.9356C50.5046 52.0282 50.1454 52.2502 49.8821 52.5677C49.6582 52.832 49.3583 53.0195 49.0239 53.1043C48.6894 53.189 48.3372 53.1667 48.0159 53.0405C47.6344 52.8953 47.2179 52.8709 46.8223 52.9706C46.4266 53.0703 46.0706 53.2893 45.8018 53.5983C45.5772 53.8616 45.2775 54.0487 44.9436 54.1343C44.6097 54.2198 44.2577 54.1996 43.9356 54.0764C43.5551 53.9223 43.1353 53.8962 42.7389 54.002C42.6956 54.0133 42.6584 54.0414 42.6357 54.0803C42.613 54.1191 42.6065 54.1655 42.6177 54.2092C42.6288 54.2529 42.6568 54.2903 42.6953 54.3132C42.7339 54.3361 42.7799 54.3426 42.8233 54.3314L42.8127 54.3685Z" fill="#D1D3D4"/>
<path d="M13.2012 50.9635C17.2182 45.6991 22.1631 41.221 27.3768 37.1891C28.6684 36.1904 30.0654 35.1864 31.6838 35.0164C33.3022 34.8464 35.1684 35.8716 35.374 37.5131C35.5216 38.8093 34.6465 39.9567 33.8241 40.9501L23.0487 53.917C24.7067 56.5447 25.5683 59.6025 25.528 62.7161C25.4878 65.8297 24.5474 68.8639 22.822 71.4471" fill="white"/>
<path d="M22.7798 71.7349C22.7253 71.7347 22.672 71.718 22.6269 71.6871C22.5705 71.6456 22.5323 71.5835 22.5205 71.5141C22.5087 71.4447 22.5242 71.3734 22.5637 71.3153C26.0061 66.3856 26.101 59.1292 22.7851 54.0667C22.7517 54.0204 22.7337 53.9646 22.7337 53.9073C22.7337 53.8501 22.7517 53.7943 22.7851 53.748L33.5605 40.781C34.3828 39.7823 35.1789 38.7146 35.0471 37.5459C34.8784 36.0266 33.1229 35.1342 31.6679 35.2829C30.2129 35.4317 28.8212 36.3772 27.4927 37.4078C21.425 42.0931 16.9493 46.4385 13.3646 51.1291C13.3444 51.1591 13.3183 51.1846 13.2879 51.2041C13.2576 51.2236 13.2236 51.2366 13.1881 51.2423C13.1525 51.248 13.1162 51.2464 13.0813 51.2374C13.0465 51.2285 13.0138 51.2124 12.9853 51.1903C12.9568 51.1681 12.9331 51.1403 12.9157 51.1086C12.8983 51.0768 12.8875 51.0419 12.8841 51.0058C12.8806 50.9697 12.8844 50.9332 12.8955 50.8987C12.9065 50.8642 12.9244 50.8323 12.9481 50.8051C16.5487 46.0932 21.0665 41.7 27.1817 36.9935C28.5787 35.931 29.9652 34.9377 31.6257 34.7677C33.2863 34.5977 35.3739 35.6654 35.5848 37.4981C35.7377 38.874 34.8731 40.0479 33.9717 41.1316L23.3228 53.9498C24.9758 56.6125 25.8241 59.7023 25.7642 62.8425C25.7043 65.9826 24.7388 69.0374 22.9854 71.634C22.9611 71.6656 22.93 71.6911 22.8943 71.7086C22.8587 71.7261 22.8195 71.7351 22.7798 71.7349Z" fill="#231F20"/>
<path d="M119.848 78.7991L103.732 91.2189C103.732 91.2189 94.9337 75.6756 88.7606 71.0912C84.5125 68.0541 79.959 65.4759 75.1754 63.3992C74.4321 61.4709 65.6863 52.4881 69.0339 52.6687C72.3814 52.8493 87.643 60.4828 89.5144 60.1641C91.3859 59.8454 94.5542 56.2278 92.377 52.6156C90.1997 49.0033 88.5444 45.2901 84.6855 46.5756C78.8234 48.5305 73.3883 52.0525 70.7524 52.1215C68.1166 52.1906 65.0537 49.9382 67.8161 46.1879C70.9791 41.901 79.3558 36.541 86.926 34.3258C94.4962 32.1107 105.999 44.5145 110.918 55.0432C115.636 61.1203 118.514 73.5985 119.848 78.7991Z" fill="white"/>
<path d="M103.732 91.4849H103.68C103.643 91.4769 103.609 91.4614 103.579 91.4395C103.549 91.4175 103.524 91.3896 103.506 91.3574C103.416 91.2034 94.665 75.8088 88.6025 71.3094C84.3697 68.2896 79.8361 65.7223 75.0753 63.6492C75.0429 63.6353 75.0137 63.615 74.9892 63.5894C74.9648 63.5639 74.9456 63.5336 74.933 63.5005C74.701 62.9002 73.5413 61.4447 72.2971 59.9042C69.4135 56.2813 67.5526 53.8324 68.0798 52.8178C68.177 52.6609 68.3195 52.5377 68.4881 52.4646C68.6567 52.3915 68.8435 52.372 69.0234 52.4087C70.7789 52.5044 75.592 54.5336 80.2469 56.5097C84.3588 58.2468 88.6131 60.0423 89.446 59.9042C90.2789 59.7661 91.6917 58.6824 92.3823 57.1578C92.715 56.4635 92.8663 55.6952 92.8221 54.9255C92.7778 54.1558 92.5393 53.4102 92.1293 52.7593C91.9079 52.3875 91.6865 52.021 91.4756 51.6544C89.6147 48.4671 88.0068 45.7473 84.7436 46.831C82.1945 47.7391 79.6987 48.7926 77.2684 49.9864C74.4533 51.3091 72.2233 52.3556 70.7525 52.3928C69.0709 52.4353 67.4419 51.5907 66.7935 50.3317C66.3454 49.4711 66.124 48.0262 67.5895 46.0342C70.8632 41.5879 79.4983 36.2279 86.8418 34.0765C90.3791 33.0141 95.0815 35.0486 100.084 39.718C104.663 44.0686 108.413 49.2266 111.15 54.9373C115.515 60.5629 118.277 71.5059 119.764 77.3865C119.885 77.8805 120.001 78.332 120.106 78.7411C120.119 78.7914 120.117 78.8444 120.1 78.8935C120.083 78.9426 120.052 78.9857 120.011 79.0173L103.896 91.4318C103.849 91.4674 103.791 91.4861 103.732 91.4849ZM75.3758 63.1977C80.1421 65.2763 84.6808 67.8488 88.9188 70.8738C94.7177 75.166 102.588 88.6854 103.811 90.8209L119.553 78.688C119.458 78.3214 119.358 77.9283 119.252 77.5033C117.776 71.66 115.035 60.7594 110.717 55.2242L110.686 55.1711C106.084 45.2958 94.5754 32.366 87.0105 34.5759C79.7619 36.7007 71.2533 41.9757 68.0323 46.3423C66.978 47.7447 66.7355 49.0355 67.2732 50.0608C67.8109 51.086 69.2554 51.8722 70.7525 51.835C72.1179 51.7978 74.4111 50.7248 77.0786 49.4764C79.5264 48.2682 82.0418 47.204 84.6118 46.2891C88.2757 45.0673 90.0681 48.1165 91.9606 51.3463C92.1715 51.7075 92.3876 52.0794 92.609 52.4459C93.0613 53.1723 93.3245 54.002 93.3743 54.8581C93.424 55.7142 93.2587 56.5691 92.8937 57.3437C92.1978 58.8789 90.785 60.191 89.5672 60.3929C88.65 60.5523 85.3499 59.203 80.0782 56.9613C75.6816 55.102 70.6998 52.9878 69.034 52.9028C68.86 52.9028 68.6438 52.9028 68.5859 53.0249C68.1852 53.8058 70.9318 57.2747 72.7452 59.5376C73.722 60.6815 74.602 61.9058 75.3758 63.1977V63.1977Z" fill="#231F20"/>
<path d="M61.4587 49.8379L61.1108 55.4156L55.5966 53.2324L52.6655 52.0743L55.7231 51.2987L61.4587 49.8379Z" fill="white"/>
<path d="M61.1053 55.6816H61.0104L52.5757 52.3349C52.5245 52.3147 52.481 52.2786 52.4516 52.2318C52.4222 52.1849 52.4084 52.1299 52.4122 52.0746C52.4148 52.0183 52.4351 51.9643 52.4702 51.9204C52.5052 51.8764 52.5532 51.8449 52.6073 51.8303L61.4005 49.5939C61.4409 49.5837 61.483 49.5833 61.5236 49.5927C61.5641 49.6021 61.6019 49.6211 61.6338 49.648C61.6657 49.675 61.6908 49.7091 61.707 49.7477C61.7233 49.7863 61.7302 49.8283 61.7273 49.8701L61.3741 55.4532C61.3711 55.4948 61.3586 55.5351 61.3376 55.5711C61.3165 55.607 61.2876 55.6375 61.2529 55.6603C61.2067 55.6816 61.1555 55.689 61.1053 55.6816V55.6816ZM53.5298 52.1278L60.868 55.0388L61.1738 50.1835L53.5298 52.1278Z" fill="#231F20"/>
<path d="M104.091 58.178L61.1054 55.4156C60.825 54.5033 60.7019 53.5492 60.7417 52.5949C60.8249 51.6418 61.0673 50.7097 61.4586 49.8379L104.444 52.6002L104.091 58.178Z" fill="#3766E8"/>
<path d="M104.091 58.444L61.105 55.6816C61.0528 55.6788 61.0026 55.66 60.9612 55.6277C60.9198 55.5955 60.889 55.5513 60.8731 55.501C60.2408 53.6005 60.3714 51.5262 61.2368 49.7214C61.2611 49.6742 61.2984 49.635 61.3442 49.6087C61.3901 49.5823 61.4425 49.5698 61.4952 49.5727L104.475 52.335C104.51 52.337 104.544 52.3459 104.575 52.3612C104.606 52.3764 104.634 52.3978 104.657 52.4239C104.68 52.4501 104.698 52.4806 104.709 52.5136C104.721 52.5467 104.725 52.5816 104.723 52.6165L104.37 58.1943C104.368 58.2289 104.359 58.2627 104.343 58.2937C104.328 58.3247 104.306 58.3523 104.28 58.3749C104.228 58.4219 104.16 58.4466 104.091 58.444ZM61.3054 55.1664L103.843 57.8968L104.164 52.845L61.6269 50.1145C60.9086 51.7018 60.7941 53.4997 61.3054 55.1664V55.1664Z" fill="#231F20"/>
<path d="M110.967 58.6102L104.091 58.1682L104.444 52.5912L111.32 53.0332C111.522 53.0462 111.719 53.099 111.901 53.1888C112.082 53.2786 112.244 53.4035 112.378 53.5564C112.511 53.7093 112.614 53.8873 112.679 54.08C112.744 54.2728 112.771 54.4767 112.758 54.6799L112.601 57.1663C112.574 57.5758 112.386 57.9578 112.08 58.2284C111.774 58.4991 111.374 58.6364 110.967 58.6102V58.6102Z" fill="white"/>
<path d="M111.065 58.8892H110.949L104.096 58.4483C104.061 58.4462 104.027 58.4373 103.996 58.4221C103.965 58.4068 103.937 58.3855 103.914 58.3593C103.891 58.3332 103.873 58.3027 103.862 58.2696C103.851 58.2366 103.846 58.2016 103.848 58.1667L104.201 52.5837C104.203 52.5487 104.211 52.5144 104.226 52.4829C104.241 52.4513 104.262 52.4232 104.288 52.4003C104.315 52.3774 104.345 52.3601 104.378 52.3497C104.411 52.3392 104.446 52.3356 104.481 52.3393L111.334 52.7802C111.57 52.7944 111.802 52.8556 112.015 52.9605C112.227 53.0653 112.418 53.2116 112.574 53.3909C112.73 53.5702 112.85 53.779 112.926 54.0051C113.002 54.2313 113.032 54.4704 113.016 54.7085L112.863 57.1946C112.83 57.6536 112.626 58.0833 112.293 58.3983C111.96 58.7132 111.522 58.8904 111.065 58.8945V58.8892ZM104.37 57.9277L110.981 58.3526C111.148 58.364 111.315 58.3416 111.474 58.2869C111.632 58.2322 111.778 58.1462 111.903 58.0339C112.031 57.9239 112.135 57.7891 112.209 57.6375C112.283 57.486 112.326 57.3209 112.336 57.1521L112.494 54.666C112.504 54.4978 112.482 54.3292 112.428 54.1697C112.374 54.0102 112.289 53.8631 112.178 53.7367C112.068 53.6104 111.933 53.5073 111.783 53.4334C111.633 53.3595 111.469 53.3162 111.302 53.3061L104.692 52.8811L104.37 57.9277Z" fill="#231F20"/>
<path d="M106.69 52.7519L105.901 52.7012L105.548 58.2782L106.337 58.3289L106.69 52.7519Z" fill="#231F20"/>
<path d="M108.262 52.8515L107.473 52.8008L107.12 58.3778L107.909 58.4286L108.262 52.8515Z" fill="#231F20"/>
<path d="M55.7231 51.2988L55.5966 53.2325L52.6655 52.0744L55.7231 51.2988Z" fill="#3766E8"/>
<path d="M55.5962 53.4969C55.5648 53.502 55.5328 53.502 55.5014 53.4969L52.5703 52.3336C52.5191 52.3134 52.4757 52.2772 52.4463 52.2304C52.4169 52.1836 52.4031 52.1285 52.4069 52.0733C52.4094 52.017 52.4297 51.9629 52.4648 51.919C52.4998 51.8751 52.5479 51.8435 52.6019 51.8289L55.6542 51.0533C55.6943 51.0428 55.7363 51.0421 55.7766 51.0514C55.817 51.0606 55.8546 51.0795 55.8862 51.1065C55.9188 51.1331 55.9445 51.1673 55.961 51.2062C55.9776 51.2451 55.9844 51.2874 55.9811 51.3296L55.8598 53.2685C55.8585 53.302 55.8506 53.3349 55.8366 53.3653C55.8226 53.3957 55.8028 53.4231 55.7783 53.4458C55.7538 53.4685 55.7252 53.4861 55.6939 53.4976C55.6627 53.5091 55.6295 53.5143 55.5962 53.5129V53.4969ZM53.5297 52.1264L55.359 52.8542L55.4328 51.643L53.5297 52.1264Z" fill="#231F20"/>
<path d="M75.5604 63.4903C75.5604 63.4903 67.3523 60.0428 65.4703 58.7094C62.4127 56.5474 65.929 52.048 68.1062 52.5898C69.6402 52.967 77.9168 55.8515 79.6143 56.5102" fill="white"/>
<path d="M75.5603 63.7563C75.5271 63.7614 75.4934 63.7614 75.4602 63.7563C75.1228 63.6129 67.1994 60.2768 65.3174 58.9435C64.0153 58.0192 63.6568 56.5265 64.3738 54.9541C65.0907 53.3817 66.7566 51.9952 68.1589 52.3458C69.6771 52.723 77.98 55.6128 79.6986 56.2821C79.7311 56.2939 79.7609 56.3121 79.7863 56.3358C79.8117 56.3594 79.8321 56.3879 79.8463 56.4196C79.8606 56.4513 79.8684 56.4855 79.8693 56.5203C79.8702 56.5551 79.8641 56.5897 79.8515 56.6221C79.8256 56.6877 79.7753 56.7405 79.7113 56.7693C79.6472 56.7981 79.5746 56.8005 79.5088 56.7761C77.7955 56.1068 69.5348 53.2382 68.0323 52.8611C67.0307 52.6114 65.5125 53.711 64.8693 55.1719C64.5622 55.7255 64.4709 56.3746 64.6132 56.9924C64.7555 57.6103 65.1213 58.1525 65.639 58.5132C67.4735 59.8094 75.5972 63.2304 75.6552 63.2623C75.6876 63.2756 75.717 63.2954 75.7418 63.3203C75.7665 63.3452 75.7861 63.3749 75.7993 63.4075C75.8126 63.4401 75.8192 63.4751 75.8189 63.5104C75.8186 63.5456 75.8114 63.5805 75.7976 63.6129C75.7756 63.657 75.7416 63.6939 75.6996 63.7193C75.6576 63.7447 75.6093 63.7575 75.5603 63.7563Z" fill="#231F20"/>
<path d="M133.528 111.506L122.589 76.4727L96.8633 83.6334L103.189 111.506H133.528Z" fill="#231F20"/>
<path d="M133.528 111.777H103.19C103.129 111.778 103.07 111.758 103.023 111.72C102.976 111.682 102.944 111.629 102.931 111.57L96.6052 83.6967C96.5907 83.6299 96.6023 83.5601 96.6377 83.5017C96.6731 83.4433 96.7294 83.4009 96.795 83.3833L122.516 76.2226C122.581 76.2042 122.652 76.2122 122.711 76.2449C122.771 76.2776 122.816 76.3324 122.837 76.3978L133.781 111.458C133.793 111.498 133.795 111.541 133.788 111.582C133.78 111.624 133.764 111.663 133.739 111.697C133.712 111.726 133.68 111.748 133.643 111.762C133.606 111.776 133.567 111.781 133.528 111.777V111.777ZM103.4 111.246H133.17L122.415 76.7963L97.1798 83.8242L103.4 111.246Z" fill="#231F20"/>
<path d="M30.3449 111.506L33.7452 84.5101L7.78202 81.5938L0.312012 111.506H30.3449Z" fill="#231F20"/>
<path d="M30.345 111.778H0.296226C0.255809 111.778 0.215863 111.769 0.179355 111.751C0.142847 111.734 0.110716 111.708 0.0853569 111.677C0.0610559 111.645 0.0441838 111.607 0.0359749 111.568C0.0277659 111.528 0.0284295 111.488 0.0379135 111.448L7.50792 81.5303C7.52399 81.4685 7.56162 81.4146 7.6139 81.3785C7.66618 81.3424 7.72962 81.3265 7.79259 81.3337L33.761 84.2501C33.7957 84.254 33.8293 84.2649 33.8598 84.282C33.8903 84.2992 33.9172 84.3223 33.9388 84.3499C33.9603 84.3776 33.9762 84.4093 33.9856 84.4433C33.9949 84.4772 33.9974 84.5127 33.993 84.5476L30.5927 111.544C30.5844 111.606 30.5552 111.663 30.5101 111.705C30.4649 111.748 30.4066 111.773 30.345 111.778V111.778ZM0.638888 111.246H30.1024L33.4394 84.7494L7.97183 81.8862L0.638888 111.246Z" fill="#231F20"/>
<path d="M125.422 85.1427L98.3797 91.5139C97.5746 91.7036 97.0745 92.5151 97.2627 93.3264L98.1929 97.3352C98.3812 98.1466 99.1865 98.6505 99.9916 98.4608L127.034 92.0896C127.839 91.8999 128.339 91.0884 128.151 90.2771L127.22 86.2683C127.032 85.4569 126.227 84.953 125.422 85.1427Z" fill="white"/>
<path d="M99.6518 98.757C99.2545 98.7577 98.8687 98.6225 98.5574 98.3735C98.2462 98.1246 98.028 97.7766 97.9385 97.3865L97.0054 93.3811C96.9 92.9213 96.9796 92.438 97.2269 92.0372C97.3481 91.8383 97.5076 91.6659 97.6959 91.53C97.8842 91.394 98.0975 91.2974 98.3234 91.2456L125.362 84.8711C125.816 84.7661 126.293 84.8469 126.689 85.0959C127.084 85.3448 127.365 85.7416 127.471 86.1991L128.404 90.2045C128.507 90.6615 128.427 91.1409 128.181 91.5387C127.935 91.9365 127.543 92.2206 127.091 92.3293L127.028 92.069L127.091 92.3293L100.047 98.7039C99.9179 98.7369 99.7852 98.7547 99.6518 98.757V98.757ZM125.763 85.3598C125.669 85.3599 125.575 85.3706 125.483 85.3917L98.4393 91.7662C98.1222 91.8448 97.848 92.0449 97.6749 92.324C97.588 92.4623 97.5296 92.6169 97.5034 92.7784C97.4771 92.94 97.4834 93.1052 97.5221 93.2643L98.4499 97.2696C98.5251 97.5902 98.7231 97.8677 99.0005 98.0419C99.278 98.216 99.6126 98.2726 99.9312 98.1992L126.975 91.8247C127.293 91.7489 127.568 91.5492 127.74 91.2694C127.912 90.9896 127.967 90.6524 127.892 90.332L126.965 86.3213C126.901 86.0482 126.747 85.8049 126.529 85.6304C126.311 85.456 126.041 85.3606 125.763 85.3598V85.3598Z" fill="#231F20"/>
<path d="M113.896 98.1575C117.748 98.1575 120.871 95.011 120.871 91.1295C120.871 87.2481 117.748 84.1016 113.896 84.1016C110.044 84.1016 106.922 87.2481 106.922 91.1295C106.922 95.011 110.044 98.1575 113.896 98.1575Z" fill="white"/>
<path d="M113.896 98.4172C112.464 98.4183 111.064 97.9913 109.873 97.1903C108.682 96.3892 107.753 95.2502 107.205 93.9172C106.656 92.5843 106.513 91.1174 106.792 89.7021C107.071 88.2867 107.76 86.9867 108.773 85.9663C109.785 84.946 111.076 84.2512 112.48 83.97C113.885 83.6887 115.34 83.8336 116.663 84.3863C117.986 84.939 119.116 85.8746 119.911 87.0749C120.706 88.2751 121.13 89.686 121.129 91.129C121.126 93.0611 120.363 94.9132 119.007 96.2795C117.652 97.6457 115.814 98.4144 113.896 98.4172V98.4172ZM113.896 84.3666C112.569 84.3656 111.271 84.7613 110.166 85.5037C109.062 86.2461 108.201 87.3019 107.692 88.5374C107.184 89.773 107.05 91.1329 107.308 92.445C107.567 93.7571 108.205 94.9625 109.144 95.9088C110.082 96.8551 111.278 97.4996 112.58 97.761C113.882 98.0224 115.231 97.8888 116.458 97.3771C117.684 96.8654 118.733 95.9987 119.47 94.8865C120.208 93.7743 120.602 92.4667 120.602 91.129C120.6 89.3368 119.894 87.6184 118.637 86.3507C117.379 85.0829 115.675 84.3694 113.896 84.3666V84.3666Z" fill="#231F20"/>
<path d="M113.896 92.0588C113.852 92.0595 113.808 92.0485 113.77 92.0269C113.733 92.0062 113.702 91.9771 113.678 91.9421C113.654 91.9071 113.639 91.8671 113.633 91.8251C113.564 91.2939 113.237 88.6378 113.237 88.3828C113.239 88.3128 113.267 88.246 113.316 88.1965C113.365 88.147 113.431 88.1185 113.501 88.1172C113.571 88.1172 113.638 88.1452 113.687 88.195C113.737 88.2448 113.764 88.3124 113.764 88.3828C113.764 88.5368 113.96 90.1783 114.112 91.3842L118.578 89.1371C118.64 89.1056 118.712 89.1002 118.778 89.1221C118.844 89.144 118.899 89.1914 118.931 89.254C118.947 89.2849 118.957 89.3188 118.96 89.3536C118.963 89.3885 118.959 89.4235 118.948 89.4568C118.937 89.49 118.92 89.5207 118.897 89.547C118.874 89.5733 118.846 89.5947 118.815 89.6099L114.012 92.0322C113.976 92.0485 113.936 92.0576 113.896 92.0588V92.0588Z" fill="#D1D3D4"/>
</svg>
