<svg width="115" height="115" viewBox="0 0 115 115" fill="none" xmlns="http://www.w3.org/2000/svg">
<path d="M100.176 112.754V2.24609C100.176 1.00558 99.17 0 97.9297 0H86.6992C85.4589 0 84.4531 1.00558 84.4531 2.24609C84.4531 4.72309 82.4379 6.73828 79.9609 6.73828C77.4839 6.73828 75.4688 4.72309 75.4688 2.24609C75.4688 1.00558 74.4629 0 73.2227 0H64.2385C62.9982 0 61.9924 1.00558 61.9924 2.24609C61.9924 4.72309 59.977 6.73828 57.5 6.73828C55.023 6.73828 53.0078 4.72309 53.0078 2.24609C53.0078 1.00558 52.002 0 50.7617 0H41.7773C40.5371 0 39.5312 1.00558 39.5312 2.24609C39.5312 4.72309 37.5161 6.73828 35.0391 6.73828C32.5621 6.73828 30.5469 4.72309 30.5469 2.24609C30.5469 1.00558 29.5411 0 28.3008 0H17.0703C15.83 0 14.8242 1.00558 14.8242 2.24609V112.754C14.8242 113.994 15.83 115 17.0703 115H28.3008C29.5411 115 30.5469 113.994 30.5469 112.754C30.5469 110.277 32.5621 108.262 35.0391 108.262C37.5161 108.262 39.5312 110.277 39.5312 112.754C39.5312 113.994 40.5371 115 41.7773 115H50.7617C52.002 115 53.0078 113.994 53.0078 112.754C53.0078 110.277 55.023 108.262 57.5 108.262C59.977 108.262 61.9924 110.277 61.9924 112.754C61.9924 113.994 62.9982 115 64.2385 115H73.2227C74.4629 115 75.4688 113.994 75.4688 112.754C75.4688 110.277 77.4839 108.262 79.9609 108.262C82.4379 108.262 84.4531 110.277 84.4531 112.754C84.4531 113.994 85.4589 115 86.6992 115H97.9297C99.17 115 100.176 113.994 100.176 112.754ZM95.6836 110.508H88.661C87.6612 106.637 84.1396 103.77 79.9609 103.77C75.7823 103.77 72.2607 106.637 71.2609 110.508H66.2005C65.2007 106.637 61.6789 103.77 57.5002 103.77C53.3216 103.77 49.7999 106.637 48.8002 110.508H43.7395C42.7398 106.637 39.2181 103.77 35.0395 103.77C30.8609 103.77 27.3392 106.637 26.3395 110.508H19.3164V4.49219H26.339C27.3388 8.36288 30.8604 11.2305 35.0391 11.2305C39.2177 11.2305 42.7393 8.36288 43.7391 4.49219H48.7998C49.7995 8.36288 53.3211 11.2305 57.4998 11.2305C61.6784 11.2305 65.2003 8.36288 66.2 4.49219H71.2605C72.2602 8.36288 75.7819 11.2305 79.9605 11.2305C84.1391 11.2305 87.6608 8.36288 88.6605 4.49219H95.6836V110.508Z" fill="#CED4DA"/>
<path d="M84.4531 28.3008H53.0078C51.7675 28.3008 50.7617 29.3064 50.7617 30.5469C50.7617 31.7874 51.7675 32.793 53.0078 32.793H84.4531C85.6934 32.793 86.6992 31.7874 86.6992 30.5469C86.6992 29.3064 85.6934 28.3008 84.4531 28.3008Z" fill="#CED4DA"/>
<path d="M84.4531 41.7773H30.5469C29.3066 41.7773 28.3008 42.7829 28.3008 44.0234C28.3008 45.264 29.3066 46.2695 30.5469 46.2695H84.4531C85.6934 46.2695 86.6992 45.264 86.6992 44.0234C86.6992 42.7829 85.6934 41.7773 84.4531 41.7773Z" fill="#CED4DA"/>
<path d="M84.4531 55.2539H30.5469C29.3066 55.2539 28.3008 56.2595 28.3008 57.5C28.3008 58.7405 29.3066 59.7461 30.5469 59.7461H84.4531C85.6934 59.7461 86.6992 58.7405 86.6992 57.5C86.6992 56.2595 85.6934 55.2539 84.4531 55.2539Z" fill="#CED4DA"/>
<path d="M84.4531 68.7305H30.5469C29.3066 68.7305 28.3008 69.736 28.3008 70.9766C28.3008 72.2171 29.3066 73.2227 30.5469 73.2227H84.4531C85.6934 73.2227 86.6992 72.2171 86.6992 70.9766C86.6992 69.736 85.6934 68.7305 84.4531 68.7305Z" fill="#CED4DA"/>
<path d="M61.9922 82.207H30.5469C29.3066 82.207 28.3008 83.2126 28.3008 84.4531C28.3008 85.6936 29.3066 86.6992 30.5469 86.6992H61.9922C63.2325 86.6992 64.2383 85.6936 64.2383 84.4531C64.2383 83.2126 63.2325 82.207 61.9922 82.207Z" fill="#CED4DA"/>
<path d="M30.5469 32.793H39.5312C40.7715 32.793 41.7773 31.7874 41.7773 30.5469C41.7773 29.3064 40.7715 28.3008 39.5312 28.3008H30.5469C29.3066 28.3008 28.3008 29.3064 28.3008 30.5469C28.3008 31.7874 29.3066 32.793 30.5469 32.793Z" fill="#CED4DA"/>
<path d="M84.4531 82.207H75.4688C74.2285 82.207 73.2227 83.2126 73.2227 84.4531C73.2227 85.6936 74.2285 86.6992 75.4688 86.6992H84.4531C85.6934 86.6992 86.6992 85.6936 86.6992 84.4531C86.6992 83.2126 85.6934 82.207 84.4531 82.207Z" fill="#CED4DA"/>
</svg>
