<svg width="115" height="115" viewBox="0 0 115 115" fill="none" xmlns="http://www.w3.org/2000/svg">
<path d="M100.176 112.754V2.24609C100.176 1.00558 99.17 0 97.9297 0H86.6992C85.4589 0 84.4531 1.00558 84.4531 2.24609C84.4531 4.72309 82.4379 6.73828 79.9609 6.73828C77.4839 6.73828 75.4688 4.72309 75.4688 2.24609C75.4688 1.00558 74.4629 0 73.2227 0H64.2385C62.9982 0 61.9924 1.00558 61.9924 2.24609C61.9924 4.72309 59.977 6.73828 57.5 6.73828C55.023 6.73828 53.0078 4.72309 53.0078 2.24609C53.0078 1.00558 52.002 0 50.7617 0H41.7773C40.5371 0 39.5312 1.00558 39.5312 2.24609C39.5312 4.72309 37.5161 6.73828 35.0391 6.73828C32.5621 6.73828 30.5469 4.72309 30.5469 2.24609C30.5469 1.00558 29.5411 0 28.3008 0H17.0703C15.83 0 14.8242 1.00558 14.8242 2.24609V112.754C14.8242 113.994 15.83 115 17.0703 115H28.3008C29.5411 115 30.5469 113.994 30.5469 112.754C30.5469 110.277 32.5621 108.262 35.0391 108.262C37.5161 108.262 39.5312 110.277 39.5312 112.754C39.5312 113.994 40.5371 115 41.7773 115H50.7617C52.002 115 53.0078 113.994 53.0078 112.754C53.0078 110.277 55.023 108.262 57.5 108.262C59.977 108.262 61.9924 110.277 61.9924 112.754C61.9924 113.994 62.9982 115 64.2385 115H73.2227C74.4629 115 75.4688 113.994 75.4688 112.754C75.4688 110.277 77.4839 108.262 79.9609 108.262C82.4379 108.262 84.4531 110.277 84.4531 112.754C84.4531 113.994 85.4589 115 86.6992 115H97.9297C99.17 115 100.176 113.994 100.176 112.754ZM95.6836 110.508H88.661C87.6612 106.637 84.1396 103.77 79.9609 103.77C75.7823 103.77 72.2607 106.637 71.2609 110.508H66.2005C65.2007 106.637 61.6789 103.77 57.5002 103.77C53.3216 103.77 49.7999 106.637 48.8002 110.508H43.7395C42.7398 106.637 39.2181 103.77 35.0395 103.77C30.8609 103.77 27.3392 106.637 26.3395 110.508H19.3164V4.49219H26.339C27.3388 8.36288 30.8604 11.2305 35.0391 11.2305C39.2177 11.2305 42.7393 8.36288 43.7391 4.49219H48.7998C49.7995 8.36288 53.3211 11.2305 57.4998 11.2305C61.6784 11.2305 65.2003 8.36288 66.2 4.49219H71.2605C72.2602 8.36288 75.7819 11.2305 79.9605 11.2305C84.1391 11.2305 87.6608 8.36288 88.6605 4.49219H95.6836V110.508Z" fill="#CED4DA"/>
<path fill-rule="evenodd" clip-rule="evenodd" d="M57.5 84.625C43.0716 84.625 31.375 72.9284 31.375 58.5C31.375 44.0716 43.0716 32.375 57.5 32.375C71.9284 32.375 83.625 44.0716 83.625 58.5C83.625 72.9284 71.9284 84.625 57.5 84.625ZM57.5 79.875C69.3051 79.875 78.875 70.3051 78.875 58.5C78.875 46.6949 69.3051 37.125 57.5 37.125C45.6949 37.125 36.125 46.6949 36.125 58.5C36.125 70.3051 45.6949 79.875 57.5 79.875ZM49.6795 69.6795L57.5001 61.8589L65.3207 69.6795L68.6795 66.3207L60.8589 58.5001L68.6795 50.6795L65.3207 47.3207L57.5001 55.1413L49.6795 47.3207L46.3207 50.6795L54.1413 58.5001L46.3207 66.3207L49.6795 69.6795Z" fill="#CED4DA"/>
</svg>
