<svg width="57" height="57" viewBox="0 0 57 57" fill="none" xmlns="http://www.w3.org/2000/svg">
<g clip-path="url(#clip0)">
<path d="M50.5312 13.1579L46.267 8.89389V2.53361C46.267 1.13655 45.1305 0 43.7333 0H8.72586C7.34629 0 6.22388 1.12241 6.22388 2.50199V44.4761C6.22388 45.8557 7.34629 46.9781 8.72586 46.9781H10.1411V48.3724C10.1411 49.752 11.2635 50.8744 12.6432 50.8744H18.0707C18.5319 50.8744 18.9057 50.5007 18.9057 50.0394C18.9057 49.5782 18.5319 49.2045 18.0707 49.2045H12.6432C12.1843 49.2045 11.811 48.8312 11.811 48.3724V14.8021C11.811 14.3408 11.4372 13.9671 10.976 13.9671C10.5149 13.9671 10.1411 14.3408 10.1411 14.8021V45.3082H8.72586C8.26708 45.3082 7.8938 44.9349 7.8938 44.4761V2.50199C7.8938 2.04321 8.26708 1.66992 8.72586 1.66992H43.7334C44.2097 1.66992 44.5972 2.05734 44.5972 2.53361V7.22408L41.5138 4.14085C41.3571 3.98432 41.1448 3.89637 40.9234 3.89637H12.6432C11.2635 3.89637 10.1411 5.01878 10.1411 6.39836V10.9153C10.1411 11.3765 10.5149 11.7502 10.976 11.7502C11.4372 11.7502 11.811 11.3765 11.811 10.9153V6.39825C11.811 5.93947 12.1843 5.56618 12.6432 5.56618H40.0883V13.7468C40.0883 14.2079 40.4621 14.5816 40.9232 14.5818L49.1059 14.5831V48.3723C49.1059 48.8311 48.7326 49.2044 48.2738 49.2044H42.9112C42.4501 49.2044 42.0762 49.5781 42.0762 50.0393C42.0762 50.5005 42.4501 50.8743 42.9112 50.8743H48.2738C49.6534 50.8743 50.7758 49.7519 50.7758 48.3723V13.7484C50.7758 13.5269 50.6879 13.3146 50.5312 13.1579ZM41.7583 12.9119V6.74693L47.9247 12.9131L41.7583 12.9119Z" fill="#CED4DA"/>
<path d="M40.4664 19.5352H20.4917C20.0306 19.5352 19.6567 19.9089 19.6567 20.3701C19.6567 20.8313 20.0306 21.2051 20.4917 21.2051H40.4664C40.9275 21.2051 41.3014 20.8313 41.3014 20.3701C41.3014 19.9089 40.9275 19.5352 40.4664 19.5352Z" fill="#CED4DA"/>
<path d="M40.4664 24.457H20.4917C20.0306 24.457 19.6567 24.8308 19.6567 25.292C19.6567 25.7532 20.0306 26.127 20.4917 26.127H40.4664C40.9275 26.127 41.3014 25.7532 41.3014 25.292C41.3014 24.8308 40.9275 24.457 40.4664 24.457Z" fill="#CED4DA"/>
<path d="M40.4666 29.4805H36.5204C36.0593 29.4805 35.6854 29.8542 35.6854 30.3154C35.6854 30.7767 36.0593 31.1504 36.5204 31.1504H40.4666C40.9278 31.1504 41.3016 30.7767 41.3016 30.3154C41.3016 29.8542 40.9278 29.4805 40.4666 29.4805Z" fill="#CED4DA"/>
<path d="M32.5906 31.1504C33.0517 31.1504 33.4256 30.7767 33.4256 30.3154C33.4256 29.8542 33.0517 29.4805 32.5906 29.4805H20.4917C20.0306 29.4805 19.6567 29.8542 19.6567 30.3154C19.6567 30.7767 20.0306 31.1504 20.4917 31.1504H32.5906Z" fill="#CED4DA"/>
<path d="M33.5401 45.7093L31.3142 43.4835V51.5554C31.3142 52.0167 30.9403 52.3904 30.4792 52.3904C30.0181 52.3904 29.6442 52.0167 29.6442 51.5554V43.4835L27.4183 45.7093C27.0923 46.0352 26.5636 46.0353 26.2376 45.7092C25.9115 45.3831 25.9115 44.8544 26.2376 44.5284L29.8888 40.8773C30.0518 40.7143 30.2656 40.6328 30.4792 40.6328C30.6928 40.6328 30.9066 40.7143 31.0696 40.8773L34.7208 44.5284C35.0469 44.8545 35.0469 45.3832 34.7208 45.7092C34.3948 46.0352 33.8661 46.0351 33.5401 45.7093Z" fill="#CED4DA"/>
<path d="M30.4793 36.0273C24.6968 36.0273 19.9923 40.7316 19.9923 46.5139C19.9923 52.2961 24.6968 57.0003 30.4793 57.0003C36.2618 57.0003 40.9663 52.2961 40.9663 46.5139C40.9663 40.7316 36.2618 36.0273 30.4793 36.0273ZM30.4793 55.3305C25.6176 55.3305 21.6622 51.3755 21.6622 46.514C21.6622 41.6525 25.6176 37.6974 30.4793 37.6974C35.341 37.6974 39.2964 41.6525 39.2964 46.514C39.2964 51.3755 35.341 55.3305 30.4793 55.3305Z" fill="#CED4DA"/>
</g>
<defs>
<clipPath id="clip0">
<rect width="57" height="57" fill="white"/>
</clipPath>
</defs>
</svg>
