<svg width="141" height="141" viewBox="0 0 141 141" fill="none" xmlns="http://www.w3.org/2000/svg">
<path d="M70.65 139.87C109.255 139.87 140.55 108.575 140.55 69.97C140.55 31.3653 109.255 0.0700073 70.65 0.0700073C32.0453 0.0700073 0.75 31.3653 0.75 69.97C0.75 108.575 32.0453 139.87 70.65 139.87Z" fill="#3766E8"/>
<path d="M110 61.9C110 61.9 131.47 76.02 125.55 113.27C125.55 113.27 118.85 122.27 109.93 127.81L110 61.9Z" fill="white"/>
<path opacity="0.46" d="M110 61.9C110 61.9 131.47 76.02 125.55 113.27C125.55 113.27 118.85 122.27 109.93 127.81L110 61.9Z" fill="white"/>
<path d="M74.8899 25.09C74.8899 25.09 76.3299 32.02 75.6999 36.82C75.6384 37.2836 75.486 37.7306 75.2516 38.1353C75.0173 38.5401 74.7054 38.8946 74.334 39.1788C73.9625 39.463 73.5387 39.6712 73.0867 39.7915C72.6348 39.9118 72.1635 39.9419 71.6999 39.88C69.2899 39.53 66.1299 38.35 64.8999 34.73L62.0699 28.84C61.6301 27.598 61.5863 26.2501 61.9445 24.9821C62.3027 23.7141 63.0453 22.5884 64.0699 21.76C67.6699 18.44 74.2199 20.82 74.8899 25.09Z" fill="#F4A28C"/>
<path d="M62.5802 29.91L61.6602 53.09L74.4702 52.69L69.9902 35.98L62.5802 29.91Z" fill="#F4A28C"/>
<path d="M73.1802 25.59C71.0181 25.9333 68.8233 26.0239 66.6402 25.86C67.3811 26.7404 67.8479 27.8185 67.983 28.9612C68.1181 30.1039 67.9155 31.2611 67.4002 32.29C66.9204 33.2972 66.1055 34.1063 65.0948 34.5788C64.0842 35.0513 62.9407 35.1577 61.8602 34.88L60.8602 25.88C60.6707 24.5768 60.8417 23.2466 61.3547 22.0337C61.8677 20.8209 62.7031 19.7717 63.7702 19C64.6789 18.328 65.631 17.7166 66.6202 17.17C69.0902 15.82 73.1102 17.1 75.2302 15.07C75.4448 14.8681 75.7079 14.7251 75.994 14.6548C76.2801 14.5845 76.5795 14.5893 76.8633 14.6688C77.147 14.7483 77.4053 14.8997 77.6133 15.1084C77.8212 15.3171 77.9717 15.576 78.0502 15.86C78.7802 18.56 78.8102 22.94 75.2702 24.86C74.6184 25.2165 73.9123 25.4632 73.1802 25.59Z" fill="black"/>
<path d="M68.13 32C68.13 32 67.75 29.3 65.74 29.75C63.73 30.2 64.25 34.11 67.06 34.15L68.13 32Z" fill="#F4A28C"/>
<path d="M75.5702 29.5L77.8502 32C77.9806 32.1405 78.0731 32.3118 78.119 32.4978C78.165 32.6839 78.1628 32.8785 78.1128 33.0635C78.0628 33.2485 77.9666 33.4178 77.8332 33.5554C77.6998 33.693 77.5336 33.7943 77.3502 33.85L74.7202 34.67L75.5702 29.5Z" fill="#F4A28C"/>
<path opacity="0.31" d="M71.1302 39.59C69.4948 39.3741 67.9601 38.6781 66.7202 37.59C66.7202 37.59 67.4002 41.78 72.5302 45.39L71.1302 39.59Z" fill="#CE8172"/>
<path d="M23.7902 121.84C23.7902 121.84 -11.4798 62.67 60.7902 52.73H74.4302C74.4302 52.73 146.13 43.96 109.86 127.85C97.642 136.895 82.689 141.472 67.5012 140.815C52.3134 140.158 37.8116 134.307 26.4202 124.24L23.7902 121.84Z" fill="white"/>
<path d="M55.1001 53.3L72.5301 116.79L82.5301 52.42C82.5301 52.42 64.1001 51 55.1001 53.3Z" fill="white"/>
<path d="M66.0199 62.11L65.4399 90.99L72.5299 116.79L76.7299 89.78L70.6399 61.9L66.0199 62.11Z" fill="white"/>
<path d="M63.6702 55.83C63.6702 55.83 62.5302 62.37 66.3002 62.6C73.2002 63.04 72.3002 61.42 71.4502 55L67.2202 52L63.6702 55.83Z" fill="white"/>
<path opacity="0.32" d="M55.1 53.3L42.96 79.69L59.87 87.95L53.19 101.45L72.53 116.79L55.1 53.3Z" fill="white"/>
<path opacity="0.32" d="M72.5298 116.79L82.5498 52.42L95.6598 79.38L81.3298 88.12L89.7198 102.28L72.5298 116.79Z" fill="white"/>
<path opacity="0.08" d="M40.48 87.07C40.48 87.07 46.37 95.55 46.89 113.12C47.41 130.69 58.15 141.64 87.79 138.52C87.79 138.52 65.06 147.16 37.49 132.1L28 96.63L40.48 87.07Z" fill="black"/>
<path d="M103.88 87.07H90.4199V90.57H103.88V87.07Z" fill="#3766E8"/>
<path d="M55.1001 53.3L61.9001 47.04L67.2201 52.04L72.7201 46.16L82.5501 52.42L74.7201 57.93L67.6701 56.09L61.6901 58.72L55.1001 53.3Z" fill="#78D5D7"/>
<path d="M16.55 80.7C13.47 88.53 11.84 99.13 15.19 112.51C21.3892 120.324 28.9427 126.959 37.49 132.1C37.49 132.1 35.38 111.41 38.85 99.1C40.63 92.82 40.98 87.35 39.85 82.33C37.34 70.62 20.94 69.51 16.55 80.7Z" fill="white"/>
<path opacity="0.32" d="M16.55 80.7C13.47 88.53 11.84 99.13 15.19 112.51C21.3892 120.324 28.9427 126.959 37.49 132.1C37.49 132.1 35.38 111.41 38.85 99.1C40.63 92.82 40.98 87.35 39.85 82.33C37.34 70.62 20.94 69.51 16.55 80.7Z" fill="white"/>
<path d="M72.0499 129.23C73.3864 129.23 74.4699 128.147 74.4699 126.81C74.4699 125.473 73.3864 124.39 72.0499 124.39C70.7134 124.39 69.6299 125.473 69.6299 126.81C69.6299 128.147 70.7134 129.23 72.0499 129.23Z" fill="#194DDE"/>
</svg>
