<svg width="370" height="298" viewBox="0 0 370 298" fill="none" xmlns="http://www.w3.org/2000/svg">
<path opacity="0.3" d="M12.1432 102.776C12.1432 102.776 -53.0012 267.661 118.482 269.972C289.965 272.283 368.374 246.97 369.149 163.112C369.923 79.254 308.158 0.885656 200.51 0.0174204C92.8624 -0.850816 34.6506 30.6995 12.1432 102.776Z" fill="#E6E6E6"/>
<path d="M252.313 36.4568L151.194 15.9023L120.18 168.477L221.299 189.031L252.313 36.4568Z" fill="#C1C1C1"/>
<path d="M254.304 26.6716L153.186 6.11719L122.172 158.692L223.29 179.246L254.304 26.6716Z" fill="#E6E6E6"/>
<path d="M244.397 36.5741L158.45 19.1035L136.049 129.306L221.996 146.777L244.397 36.5741Z" fill="white"/>
<path d="M132.708 95.5781C132.708 95.5781 107.409 103.9 113.767 119.354C117.213 127.73 128.834 131.189 138.772 132.592C140.633 132.852 142.529 132.589 144.249 131.832C145.969 131.076 147.444 129.856 148.51 128.309C149.576 126.762 150.19 124.949 150.285 123.073C150.379 121.196 149.95 119.331 149.044 117.685C146.513 112.849 142.957 108.623 138.626 105.302L132.708 95.5781Z" fill="#F4A28C"/>
<path d="M199.335 297.047V220.656L275.727 213.83L289.378 297.047H199.335Z" fill="white"/>
<path d="M185.15 181.707L204.118 208.422V220.27L270.905 214.299L267.525 181.747C267.525 181.747 275.7 143.01 265.468 117.698C260.924 105.981 258.916 93.4342 259.578 80.8847C260.072 69.3304 243.549 66.6857 240.503 77.8659C239.248 82.5944 238.379 92.2118 238.473 101.909C238.509 105.994 237.652 110.038 235.962 113.757C231.954 122.774 225.062 140.472 229.149 150.384L221.335 189.08L185.15 181.707Z" fill="#F4A28C"/>
<path d="M207.911 0.00390625H66.0146V106.289H207.911V0.00390625Z" fill="#24285B"/>
<path opacity="0.42" d="M176.707 160.924C181.06 160.924 184.588 157.396 184.588 153.043C184.588 148.691 181.06 145.162 176.707 145.162C172.355 145.162 168.826 148.691 168.826 153.043C168.826 157.396 172.355 160.924 176.707 160.924Z" fill="white"/>
<path d="M180.06 22.6172H93.8906V81.5103H180.06V22.6172Z" fill="white"/>
<path d="M93.8906 22.6172L136.968 63.9987L180.06 22.6172H93.8906Z" fill="#FF879D"/>
<path opacity="0.09" d="M112.818 115.614H194.219V106.264H115.81C115.81 106.264 112.097 110.485 112.818 115.614Z" fill="black"/>
<path opacity="0.09" d="M221.282 189.056L228.041 218.095L204.118 220.232V208.384L185.15 181.709L221.282 189.056Z" fill="black"/>
</svg>
